G04 #@! TF.GenerationSoftware,KiCad,Pcbnew,(5.0.2)-1*
G04 #@! TF.CreationDate,2019-05-14T17:11:37+02:00*
G04 #@! TF.ProjectId,Mini-Lora,4d696e69-2d4c-46f7-9261-2e6b69636164,rev?*
G04 #@! TF.SameCoordinates,Original*
G04 #@! TF.FileFunction,Paste,Bot*
G04 #@! TF.FilePolarity,Positive*
%FSLAX46Y46*%
G04 Gerber Fmt 4.6, Leading zero omitted, Abs format (unit mm)*
G04 Created by KiCad (PCBNEW (5.0.2)-1) date 14/05/2019 17:11:37*
%MOMM*%
%LPD*%
G01*
G04 APERTURE LIST*
%ADD10C,0.100000*%
%ADD11C,1.143000*%
G04 APERTURE END LIST*
D10*
G04 #@! TO.C,J$2*
G36*
X180502911Y-107351995D02*
X180508458Y-107352818D01*
X180513899Y-107354181D01*
X180519179Y-107356070D01*
X180524249Y-107358468D01*
X180529060Y-107361352D01*
X180533565Y-107364692D01*
X180537720Y-107368459D01*
X180541487Y-107372614D01*
X180544827Y-107377119D01*
X180547711Y-107381930D01*
X180550109Y-107387000D01*
X180551998Y-107392280D01*
X180553361Y-107397721D01*
X180554184Y-107403268D01*
X180554459Y-107408870D01*
X180554459Y-108437570D01*
X180554184Y-108443172D01*
X180553361Y-108448719D01*
X180551998Y-108454160D01*
X180550109Y-108459440D01*
X180547711Y-108464510D01*
X180544827Y-108469321D01*
X180541487Y-108473826D01*
X180537720Y-108477981D01*
X180533565Y-108481748D01*
X180529060Y-108485088D01*
X180524249Y-108487972D01*
X180519179Y-108490370D01*
X180513899Y-108492259D01*
X180508458Y-108493622D01*
X180502911Y-108494445D01*
X180497309Y-108494720D01*
X178579609Y-108494720D01*
X178574007Y-108494445D01*
X178568460Y-108493622D01*
X178563019Y-108492259D01*
X178557739Y-108490370D01*
X178552669Y-108487972D01*
X178547858Y-108485088D01*
X178543353Y-108481748D01*
X178539198Y-108477981D01*
X178535431Y-108473826D01*
X178532091Y-108469321D01*
X178529207Y-108464510D01*
X178526809Y-108459440D01*
X178524920Y-108454160D01*
X178523557Y-108448719D01*
X178522734Y-108443172D01*
X178522459Y-108437570D01*
X178522459Y-107408870D01*
X178522734Y-107403268D01*
X178523557Y-107397721D01*
X178524920Y-107392280D01*
X178526809Y-107387000D01*
X178529207Y-107381930D01*
X178532091Y-107377119D01*
X178535431Y-107372614D01*
X178539198Y-107368459D01*
X178543353Y-107364692D01*
X178547858Y-107361352D01*
X178552669Y-107358468D01*
X178557739Y-107356070D01*
X178563019Y-107354181D01*
X178568460Y-107352818D01*
X178574007Y-107351995D01*
X178579609Y-107351720D01*
X180497309Y-107351720D01*
X180502911Y-107351995D01*
X180502911Y-107351995D01*
G37*
D11*
X179538459Y-107923220D03*
G04 #@! TD*
M02*
