G04 #@! TF.GenerationSoftware,KiCad,Pcbnew,(5.1.0)-1*
G04 #@! TF.CreationDate,2019-05-29T17:20:43+02:00*
G04 #@! TF.ProjectId,Mini-Lora,4d696e69-2d4c-46f7-9261-2e6b69636164,rev?*
G04 #@! TF.SameCoordinates,Original*
G04 #@! TF.FileFunction,Copper,L1,Top*
G04 #@! TF.FilePolarity,Positive*
%FSLAX46Y46*%
G04 Gerber Fmt 4.6, Leading zero omitted, Abs format (unit mm)*
G04 Created by KiCad (PCBNEW (5.1.0)-1) date 2019-05-29 17:20:43*
%MOMM*%
%LPD*%
G04 APERTURE LIST*
%ADD10C,1.500000*%
%ADD11O,1.700000X1.700000*%
%ADD12R,1.700000X1.700000*%
%ADD13R,1.270000X2.000000*%
%ADD14R,4.318000X1.524000*%
%ADD15C,0.100000*%
%ADD16C,1.016000*%
%ADD17C,1.270000*%
%ADD18C,1.651000*%
%ADD19R,1.651000X1.651000*%
%ADD20C,1.524000*%
%ADD21C,0.950000*%
%ADD22C,1.625000*%
%ADD23R,0.525000X0.600000*%
%ADD24C,0.800000*%
%ADD25C,0.711200*%
%ADD26C,0.406400*%
%ADD27C,0.250000*%
%ADD28C,1.000000*%
%ADD29C,2.200000*%
%ADD30C,0.254000*%
G04 APERTURE END LIST*
D10*
X135554725Y-72467027D03*
X135554725Y-100407027D03*
X135554725Y-102947027D03*
X135554725Y-95327027D03*
X135554725Y-92787027D03*
X135554725Y-90247027D03*
X135554725Y-97867027D03*
X135554725Y-105487027D03*
X135554725Y-75007027D03*
X135554725Y-77547027D03*
X135554725Y-85167027D03*
X135554725Y-87707027D03*
X135554725Y-80087027D03*
X135554725Y-82627027D03*
X155954725Y-105607027D03*
X155954725Y-77667027D03*
X155954725Y-75127027D03*
X155954725Y-82747027D03*
X155954725Y-85287027D03*
X155954725Y-87827027D03*
X155954725Y-80207027D03*
X155954725Y-72587027D03*
X155954725Y-103067027D03*
X155954725Y-100527027D03*
X155954725Y-92907027D03*
X155954725Y-90367027D03*
X155954725Y-97987027D03*
X155954725Y-95447027D03*
D11*
X163277221Y-100548520D03*
X163277221Y-103088520D03*
X163277221Y-105628520D03*
D12*
X163277221Y-108168520D03*
D13*
X176253209Y-103286720D03*
X176265409Y-87279220D03*
X172348209Y-87286720D03*
X174253209Y-87286720D03*
X178253209Y-87284720D03*
X180253209Y-87279220D03*
X168253209Y-87279220D03*
X182253209Y-87286720D03*
X170253209Y-103286720D03*
X170316709Y-87284720D03*
X182253209Y-103288720D03*
X180348209Y-103288720D03*
X178253209Y-103286720D03*
X168253209Y-103286720D03*
D14*
X180777709Y-105383220D03*
X180777709Y-110463220D03*
D15*
G36*
X181913068Y-108885959D02*
G01*
X181922930Y-108887422D01*
X181932602Y-108889845D01*
X181941990Y-108893204D01*
X181951003Y-108897467D01*
X181959555Y-108902593D01*
X181967563Y-108908532D01*
X181974951Y-108915228D01*
X181981647Y-108922616D01*
X181987586Y-108930624D01*
X181992712Y-108939176D01*
X181996975Y-108948189D01*
X182000334Y-108957577D01*
X182002757Y-108967249D01*
X182004220Y-108977111D01*
X182004709Y-108987070D01*
X182004709Y-109799870D01*
X182004220Y-109809829D01*
X182002757Y-109819691D01*
X182000334Y-109829363D01*
X181996975Y-109838751D01*
X181992712Y-109847764D01*
X181987586Y-109856316D01*
X181981647Y-109864324D01*
X181974951Y-109871712D01*
X181967563Y-109878408D01*
X181959555Y-109884347D01*
X181951003Y-109889473D01*
X181941990Y-109893736D01*
X181932602Y-109897095D01*
X181922930Y-109899518D01*
X181913068Y-109900981D01*
X181903109Y-109901470D01*
X179906309Y-109901470D01*
X179896350Y-109900981D01*
X179886488Y-109899518D01*
X179876816Y-109897095D01*
X179867428Y-109893736D01*
X179858415Y-109889473D01*
X179849863Y-109884347D01*
X179841855Y-109878408D01*
X179834467Y-109871712D01*
X179827771Y-109864324D01*
X179821832Y-109856316D01*
X179816706Y-109847764D01*
X179812443Y-109838751D01*
X179809084Y-109829363D01*
X179806661Y-109819691D01*
X179805198Y-109809829D01*
X179804709Y-109799870D01*
X179804709Y-108987070D01*
X179805198Y-108977111D01*
X179806661Y-108967249D01*
X179809084Y-108957577D01*
X179812443Y-108948189D01*
X179816706Y-108939176D01*
X179821832Y-108930624D01*
X179827771Y-108922616D01*
X179834467Y-108915228D01*
X179841855Y-108908532D01*
X179849863Y-108902593D01*
X179858415Y-108897467D01*
X179867428Y-108893204D01*
X179876816Y-108889845D01*
X179886488Y-108887422D01*
X179896350Y-108885959D01*
X179906309Y-108885470D01*
X181903109Y-108885470D01*
X181913068Y-108885959D01*
X181913068Y-108885959D01*
G37*
D16*
X180904709Y-109393470D03*
D15*
G36*
X181913068Y-105945459D02*
G01*
X181922930Y-105946922D01*
X181932602Y-105949345D01*
X181941990Y-105952704D01*
X181951003Y-105956967D01*
X181959555Y-105962093D01*
X181967563Y-105968032D01*
X181974951Y-105974728D01*
X181981647Y-105982116D01*
X181987586Y-105990124D01*
X181992712Y-105998676D01*
X181996975Y-106007689D01*
X182000334Y-106017077D01*
X182002757Y-106026749D01*
X182004220Y-106036611D01*
X182004709Y-106046570D01*
X182004709Y-106859370D01*
X182004220Y-106869329D01*
X182002757Y-106879191D01*
X182000334Y-106888863D01*
X181996975Y-106898251D01*
X181992712Y-106907264D01*
X181987586Y-106915816D01*
X181981647Y-106923824D01*
X181974951Y-106931212D01*
X181967563Y-106937908D01*
X181959555Y-106943847D01*
X181951003Y-106948973D01*
X181941990Y-106953236D01*
X181932602Y-106956595D01*
X181922930Y-106959018D01*
X181913068Y-106960481D01*
X181903109Y-106960970D01*
X179906309Y-106960970D01*
X179896350Y-106960481D01*
X179886488Y-106959018D01*
X179876816Y-106956595D01*
X179867428Y-106953236D01*
X179858415Y-106948973D01*
X179849863Y-106943847D01*
X179841855Y-106937908D01*
X179834467Y-106931212D01*
X179827771Y-106923824D01*
X179821832Y-106915816D01*
X179816706Y-106907264D01*
X179812443Y-106898251D01*
X179809084Y-106888863D01*
X179806661Y-106879191D01*
X179805198Y-106869329D01*
X179804709Y-106859370D01*
X179804709Y-106046570D01*
X179805198Y-106036611D01*
X179806661Y-106026749D01*
X179809084Y-106017077D01*
X179812443Y-106007689D01*
X179816706Y-105998676D01*
X179821832Y-105990124D01*
X179827771Y-105982116D01*
X179834467Y-105974728D01*
X179841855Y-105968032D01*
X179849863Y-105962093D01*
X179858415Y-105956967D01*
X179867428Y-105952704D01*
X179876816Y-105949345D01*
X179886488Y-105946922D01*
X179896350Y-105945459D01*
X179906309Y-105944970D01*
X181903109Y-105944970D01*
X181913068Y-105945459D01*
X181913068Y-105945459D01*
G37*
D16*
X180904709Y-106452970D03*
D17*
X178047209Y-107923220D03*
D15*
G36*
X179954818Y-107415709D02*
G01*
X179964680Y-107417172D01*
X179974352Y-107419595D01*
X179983740Y-107422954D01*
X179992753Y-107427217D01*
X180001305Y-107432343D01*
X180009313Y-107438282D01*
X180016701Y-107444978D01*
X180023397Y-107452366D01*
X180029336Y-107460374D01*
X180034462Y-107468926D01*
X180038725Y-107477939D01*
X180042084Y-107487327D01*
X180044507Y-107496999D01*
X180045970Y-107506861D01*
X180046459Y-107516820D01*
X180046459Y-108329620D01*
X180045970Y-108339579D01*
X180044507Y-108349441D01*
X180042084Y-108359113D01*
X180038725Y-108368501D01*
X180034462Y-108377514D01*
X180029336Y-108386066D01*
X180023397Y-108394074D01*
X180016701Y-108401462D01*
X180009313Y-108408158D01*
X180001305Y-108414097D01*
X179992753Y-108419223D01*
X179983740Y-108423486D01*
X179974352Y-108426845D01*
X179964680Y-108429268D01*
X179954818Y-108430731D01*
X179944859Y-108431220D01*
X178624059Y-108431220D01*
X178614100Y-108430731D01*
X178604238Y-108429268D01*
X178594566Y-108426845D01*
X178585178Y-108423486D01*
X178576165Y-108419223D01*
X178567613Y-108414097D01*
X178559605Y-108408158D01*
X178552217Y-108401462D01*
X178545521Y-108394074D01*
X178539582Y-108386066D01*
X178534456Y-108377514D01*
X178530193Y-108368501D01*
X178526834Y-108359113D01*
X178524411Y-108349441D01*
X178522948Y-108339579D01*
X178522459Y-108329620D01*
X178522459Y-107516820D01*
X178522948Y-107506861D01*
X178524411Y-107496999D01*
X178526834Y-107487327D01*
X178530193Y-107477939D01*
X178534456Y-107468926D01*
X178539582Y-107460374D01*
X178545521Y-107452366D01*
X178552217Y-107444978D01*
X178559605Y-107438282D01*
X178567613Y-107432343D01*
X178576165Y-107427217D01*
X178585178Y-107422954D01*
X178594566Y-107419595D01*
X178604238Y-107417172D01*
X178614100Y-107415709D01*
X178624059Y-107415220D01*
X179944859Y-107415220D01*
X179954818Y-107415709D01*
X179954818Y-107415709D01*
G37*
D16*
X179284459Y-107923220D03*
D18*
X174745209Y-108177220D03*
D19*
X172205209Y-108177220D03*
D20*
X182492209Y-107923220D03*
D15*
G36*
X149810779Y-99026144D02*
G01*
X149833834Y-99029563D01*
X149856443Y-99035227D01*
X149878387Y-99043079D01*
X149899457Y-99053044D01*
X149919448Y-99065026D01*
X149938168Y-99078910D01*
X149955438Y-99094562D01*
X149971090Y-99111832D01*
X149984974Y-99130552D01*
X149996956Y-99150543D01*
X150006921Y-99171613D01*
X150014773Y-99193557D01*
X150020437Y-99216166D01*
X150023856Y-99239221D01*
X150025000Y-99262500D01*
X150025000Y-99737500D01*
X150023856Y-99760779D01*
X150020437Y-99783834D01*
X150014773Y-99806443D01*
X150006921Y-99828387D01*
X149996956Y-99849457D01*
X149984974Y-99869448D01*
X149971090Y-99888168D01*
X149955438Y-99905438D01*
X149938168Y-99921090D01*
X149919448Y-99934974D01*
X149899457Y-99946956D01*
X149878387Y-99956921D01*
X149856443Y-99964773D01*
X149833834Y-99970437D01*
X149810779Y-99973856D01*
X149787500Y-99975000D01*
X149212500Y-99975000D01*
X149189221Y-99973856D01*
X149166166Y-99970437D01*
X149143557Y-99964773D01*
X149121613Y-99956921D01*
X149100543Y-99946956D01*
X149080552Y-99934974D01*
X149061832Y-99921090D01*
X149044562Y-99905438D01*
X149028910Y-99888168D01*
X149015026Y-99869448D01*
X149003044Y-99849457D01*
X148993079Y-99828387D01*
X148985227Y-99806443D01*
X148979563Y-99783834D01*
X148976144Y-99760779D01*
X148975000Y-99737500D01*
X148975000Y-99262500D01*
X148976144Y-99239221D01*
X148979563Y-99216166D01*
X148985227Y-99193557D01*
X148993079Y-99171613D01*
X149003044Y-99150543D01*
X149015026Y-99130552D01*
X149028910Y-99111832D01*
X149044562Y-99094562D01*
X149061832Y-99078910D01*
X149080552Y-99065026D01*
X149100543Y-99053044D01*
X149121613Y-99043079D01*
X149143557Y-99035227D01*
X149166166Y-99029563D01*
X149189221Y-99026144D01*
X149212500Y-99025000D01*
X149787500Y-99025000D01*
X149810779Y-99026144D01*
X149810779Y-99026144D01*
G37*
D21*
X149500000Y-99500000D03*
D15*
G36*
X148060779Y-99026144D02*
G01*
X148083834Y-99029563D01*
X148106443Y-99035227D01*
X148128387Y-99043079D01*
X148149457Y-99053044D01*
X148169448Y-99065026D01*
X148188168Y-99078910D01*
X148205438Y-99094562D01*
X148221090Y-99111832D01*
X148234974Y-99130552D01*
X148246956Y-99150543D01*
X148256921Y-99171613D01*
X148264773Y-99193557D01*
X148270437Y-99216166D01*
X148273856Y-99239221D01*
X148275000Y-99262500D01*
X148275000Y-99737500D01*
X148273856Y-99760779D01*
X148270437Y-99783834D01*
X148264773Y-99806443D01*
X148256921Y-99828387D01*
X148246956Y-99849457D01*
X148234974Y-99869448D01*
X148221090Y-99888168D01*
X148205438Y-99905438D01*
X148188168Y-99921090D01*
X148169448Y-99934974D01*
X148149457Y-99946956D01*
X148128387Y-99956921D01*
X148106443Y-99964773D01*
X148083834Y-99970437D01*
X148060779Y-99973856D01*
X148037500Y-99975000D01*
X147462500Y-99975000D01*
X147439221Y-99973856D01*
X147416166Y-99970437D01*
X147393557Y-99964773D01*
X147371613Y-99956921D01*
X147350543Y-99946956D01*
X147330552Y-99934974D01*
X147311832Y-99921090D01*
X147294562Y-99905438D01*
X147278910Y-99888168D01*
X147265026Y-99869448D01*
X147253044Y-99849457D01*
X147243079Y-99828387D01*
X147235227Y-99806443D01*
X147229563Y-99783834D01*
X147226144Y-99760779D01*
X147225000Y-99737500D01*
X147225000Y-99262500D01*
X147226144Y-99239221D01*
X147229563Y-99216166D01*
X147235227Y-99193557D01*
X147243079Y-99171613D01*
X147253044Y-99150543D01*
X147265026Y-99130552D01*
X147278910Y-99111832D01*
X147294562Y-99094562D01*
X147311832Y-99078910D01*
X147330552Y-99065026D01*
X147350543Y-99053044D01*
X147371613Y-99043079D01*
X147393557Y-99035227D01*
X147416166Y-99029563D01*
X147439221Y-99026144D01*
X147462500Y-99025000D01*
X148037500Y-99025000D01*
X148060779Y-99026144D01*
X148060779Y-99026144D01*
G37*
D21*
X147750000Y-99500000D03*
D15*
G36*
X148060779Y-101276144D02*
G01*
X148083834Y-101279563D01*
X148106443Y-101285227D01*
X148128387Y-101293079D01*
X148149457Y-101303044D01*
X148169448Y-101315026D01*
X148188168Y-101328910D01*
X148205438Y-101344562D01*
X148221090Y-101361832D01*
X148234974Y-101380552D01*
X148246956Y-101400543D01*
X148256921Y-101421613D01*
X148264773Y-101443557D01*
X148270437Y-101466166D01*
X148273856Y-101489221D01*
X148275000Y-101512500D01*
X148275000Y-101987500D01*
X148273856Y-102010779D01*
X148270437Y-102033834D01*
X148264773Y-102056443D01*
X148256921Y-102078387D01*
X148246956Y-102099457D01*
X148234974Y-102119448D01*
X148221090Y-102138168D01*
X148205438Y-102155438D01*
X148188168Y-102171090D01*
X148169448Y-102184974D01*
X148149457Y-102196956D01*
X148128387Y-102206921D01*
X148106443Y-102214773D01*
X148083834Y-102220437D01*
X148060779Y-102223856D01*
X148037500Y-102225000D01*
X147462500Y-102225000D01*
X147439221Y-102223856D01*
X147416166Y-102220437D01*
X147393557Y-102214773D01*
X147371613Y-102206921D01*
X147350543Y-102196956D01*
X147330552Y-102184974D01*
X147311832Y-102171090D01*
X147294562Y-102155438D01*
X147278910Y-102138168D01*
X147265026Y-102119448D01*
X147253044Y-102099457D01*
X147243079Y-102078387D01*
X147235227Y-102056443D01*
X147229563Y-102033834D01*
X147226144Y-102010779D01*
X147225000Y-101987500D01*
X147225000Y-101512500D01*
X147226144Y-101489221D01*
X147229563Y-101466166D01*
X147235227Y-101443557D01*
X147243079Y-101421613D01*
X147253044Y-101400543D01*
X147265026Y-101380552D01*
X147278910Y-101361832D01*
X147294562Y-101344562D01*
X147311832Y-101328910D01*
X147330552Y-101315026D01*
X147350543Y-101303044D01*
X147371613Y-101293079D01*
X147393557Y-101285227D01*
X147416166Y-101279563D01*
X147439221Y-101276144D01*
X147462500Y-101275000D01*
X148037500Y-101275000D01*
X148060779Y-101276144D01*
X148060779Y-101276144D01*
G37*
D21*
X147750000Y-101750000D03*
D15*
G36*
X149810779Y-101276144D02*
G01*
X149833834Y-101279563D01*
X149856443Y-101285227D01*
X149878387Y-101293079D01*
X149899457Y-101303044D01*
X149919448Y-101315026D01*
X149938168Y-101328910D01*
X149955438Y-101344562D01*
X149971090Y-101361832D01*
X149984974Y-101380552D01*
X149996956Y-101400543D01*
X150006921Y-101421613D01*
X150014773Y-101443557D01*
X150020437Y-101466166D01*
X150023856Y-101489221D01*
X150025000Y-101512500D01*
X150025000Y-101987500D01*
X150023856Y-102010779D01*
X150020437Y-102033834D01*
X150014773Y-102056443D01*
X150006921Y-102078387D01*
X149996956Y-102099457D01*
X149984974Y-102119448D01*
X149971090Y-102138168D01*
X149955438Y-102155438D01*
X149938168Y-102171090D01*
X149919448Y-102184974D01*
X149899457Y-102196956D01*
X149878387Y-102206921D01*
X149856443Y-102214773D01*
X149833834Y-102220437D01*
X149810779Y-102223856D01*
X149787500Y-102225000D01*
X149212500Y-102225000D01*
X149189221Y-102223856D01*
X149166166Y-102220437D01*
X149143557Y-102214773D01*
X149121613Y-102206921D01*
X149100543Y-102196956D01*
X149080552Y-102184974D01*
X149061832Y-102171090D01*
X149044562Y-102155438D01*
X149028910Y-102138168D01*
X149015026Y-102119448D01*
X149003044Y-102099457D01*
X148993079Y-102078387D01*
X148985227Y-102056443D01*
X148979563Y-102033834D01*
X148976144Y-102010779D01*
X148975000Y-101987500D01*
X148975000Y-101512500D01*
X148976144Y-101489221D01*
X148979563Y-101466166D01*
X148985227Y-101443557D01*
X148993079Y-101421613D01*
X149003044Y-101400543D01*
X149015026Y-101380552D01*
X149028910Y-101361832D01*
X149044562Y-101344562D01*
X149061832Y-101328910D01*
X149080552Y-101315026D01*
X149100543Y-101303044D01*
X149121613Y-101293079D01*
X149143557Y-101285227D01*
X149166166Y-101279563D01*
X149189221Y-101276144D01*
X149212500Y-101275000D01*
X149787500Y-101275000D01*
X149810779Y-101276144D01*
X149810779Y-101276144D01*
G37*
D21*
X149500000Y-101750000D03*
D22*
X149710000Y-105750000D03*
D23*
X147600000Y-106650000D03*
X147600000Y-105750000D03*
X147600000Y-104850000D03*
X148450000Y-104850000D03*
X148450000Y-106650000D03*
D12*
X156000000Y-112500000D03*
D11*
X153460000Y-112500000D03*
X150920000Y-112500000D03*
X148380000Y-112500000D03*
X145840000Y-112500000D03*
X143300000Y-112500000D03*
D15*
G36*
X141810779Y-104526144D02*
G01*
X141833834Y-104529563D01*
X141856443Y-104535227D01*
X141878387Y-104543079D01*
X141899457Y-104553044D01*
X141919448Y-104565026D01*
X141938168Y-104578910D01*
X141955438Y-104594562D01*
X141971090Y-104611832D01*
X141984974Y-104630552D01*
X141996956Y-104650543D01*
X142006921Y-104671613D01*
X142014773Y-104693557D01*
X142020437Y-104716166D01*
X142023856Y-104739221D01*
X142025000Y-104762500D01*
X142025000Y-105237500D01*
X142023856Y-105260779D01*
X142020437Y-105283834D01*
X142014773Y-105306443D01*
X142006921Y-105328387D01*
X141996956Y-105349457D01*
X141984974Y-105369448D01*
X141971090Y-105388168D01*
X141955438Y-105405438D01*
X141938168Y-105421090D01*
X141919448Y-105434974D01*
X141899457Y-105446956D01*
X141878387Y-105456921D01*
X141856443Y-105464773D01*
X141833834Y-105470437D01*
X141810779Y-105473856D01*
X141787500Y-105475000D01*
X141212500Y-105475000D01*
X141189221Y-105473856D01*
X141166166Y-105470437D01*
X141143557Y-105464773D01*
X141121613Y-105456921D01*
X141100543Y-105446956D01*
X141080552Y-105434974D01*
X141061832Y-105421090D01*
X141044562Y-105405438D01*
X141028910Y-105388168D01*
X141015026Y-105369448D01*
X141003044Y-105349457D01*
X140993079Y-105328387D01*
X140985227Y-105306443D01*
X140979563Y-105283834D01*
X140976144Y-105260779D01*
X140975000Y-105237500D01*
X140975000Y-104762500D01*
X140976144Y-104739221D01*
X140979563Y-104716166D01*
X140985227Y-104693557D01*
X140993079Y-104671613D01*
X141003044Y-104650543D01*
X141015026Y-104630552D01*
X141028910Y-104611832D01*
X141044562Y-104594562D01*
X141061832Y-104578910D01*
X141080552Y-104565026D01*
X141100543Y-104553044D01*
X141121613Y-104543079D01*
X141143557Y-104535227D01*
X141166166Y-104529563D01*
X141189221Y-104526144D01*
X141212500Y-104525000D01*
X141787500Y-104525000D01*
X141810779Y-104526144D01*
X141810779Y-104526144D01*
G37*
D21*
X141500000Y-105000000D03*
D15*
G36*
X143560779Y-104526144D02*
G01*
X143583834Y-104529563D01*
X143606443Y-104535227D01*
X143628387Y-104543079D01*
X143649457Y-104553044D01*
X143669448Y-104565026D01*
X143688168Y-104578910D01*
X143705438Y-104594562D01*
X143721090Y-104611832D01*
X143734974Y-104630552D01*
X143746956Y-104650543D01*
X143756921Y-104671613D01*
X143764773Y-104693557D01*
X143770437Y-104716166D01*
X143773856Y-104739221D01*
X143775000Y-104762500D01*
X143775000Y-105237500D01*
X143773856Y-105260779D01*
X143770437Y-105283834D01*
X143764773Y-105306443D01*
X143756921Y-105328387D01*
X143746956Y-105349457D01*
X143734974Y-105369448D01*
X143721090Y-105388168D01*
X143705438Y-105405438D01*
X143688168Y-105421090D01*
X143669448Y-105434974D01*
X143649457Y-105446956D01*
X143628387Y-105456921D01*
X143606443Y-105464773D01*
X143583834Y-105470437D01*
X143560779Y-105473856D01*
X143537500Y-105475000D01*
X142962500Y-105475000D01*
X142939221Y-105473856D01*
X142916166Y-105470437D01*
X142893557Y-105464773D01*
X142871613Y-105456921D01*
X142850543Y-105446956D01*
X142830552Y-105434974D01*
X142811832Y-105421090D01*
X142794562Y-105405438D01*
X142778910Y-105388168D01*
X142765026Y-105369448D01*
X142753044Y-105349457D01*
X142743079Y-105328387D01*
X142735227Y-105306443D01*
X142729563Y-105283834D01*
X142726144Y-105260779D01*
X142725000Y-105237500D01*
X142725000Y-104762500D01*
X142726144Y-104739221D01*
X142729563Y-104716166D01*
X142735227Y-104693557D01*
X142743079Y-104671613D01*
X142753044Y-104650543D01*
X142765026Y-104630552D01*
X142778910Y-104611832D01*
X142794562Y-104594562D01*
X142811832Y-104578910D01*
X142830552Y-104565026D01*
X142850543Y-104553044D01*
X142871613Y-104543079D01*
X142893557Y-104535227D01*
X142916166Y-104529563D01*
X142939221Y-104526144D01*
X142962500Y-104525000D01*
X143537500Y-104525000D01*
X143560779Y-104526144D01*
X143560779Y-104526144D01*
G37*
D21*
X143250000Y-105000000D03*
D15*
G36*
X153260779Y-106976144D02*
G01*
X153283834Y-106979563D01*
X153306443Y-106985227D01*
X153328387Y-106993079D01*
X153349457Y-107003044D01*
X153369448Y-107015026D01*
X153388168Y-107028910D01*
X153405438Y-107044562D01*
X153421090Y-107061832D01*
X153434974Y-107080552D01*
X153446956Y-107100543D01*
X153456921Y-107121613D01*
X153464773Y-107143557D01*
X153470437Y-107166166D01*
X153473856Y-107189221D01*
X153475000Y-107212500D01*
X153475000Y-107787500D01*
X153473856Y-107810779D01*
X153470437Y-107833834D01*
X153464773Y-107856443D01*
X153456921Y-107878387D01*
X153446956Y-107899457D01*
X153434974Y-107919448D01*
X153421090Y-107938168D01*
X153405438Y-107955438D01*
X153388168Y-107971090D01*
X153369448Y-107984974D01*
X153349457Y-107996956D01*
X153328387Y-108006921D01*
X153306443Y-108014773D01*
X153283834Y-108020437D01*
X153260779Y-108023856D01*
X153237500Y-108025000D01*
X152762500Y-108025000D01*
X152739221Y-108023856D01*
X152716166Y-108020437D01*
X152693557Y-108014773D01*
X152671613Y-108006921D01*
X152650543Y-107996956D01*
X152630552Y-107984974D01*
X152611832Y-107971090D01*
X152594562Y-107955438D01*
X152578910Y-107938168D01*
X152565026Y-107919448D01*
X152553044Y-107899457D01*
X152543079Y-107878387D01*
X152535227Y-107856443D01*
X152529563Y-107833834D01*
X152526144Y-107810779D01*
X152525000Y-107787500D01*
X152525000Y-107212500D01*
X152526144Y-107189221D01*
X152529563Y-107166166D01*
X152535227Y-107143557D01*
X152543079Y-107121613D01*
X152553044Y-107100543D01*
X152565026Y-107080552D01*
X152578910Y-107061832D01*
X152594562Y-107044562D01*
X152611832Y-107028910D01*
X152630552Y-107015026D01*
X152650543Y-107003044D01*
X152671613Y-106993079D01*
X152693557Y-106985227D01*
X152716166Y-106979563D01*
X152739221Y-106976144D01*
X152762500Y-106975000D01*
X153237500Y-106975000D01*
X153260779Y-106976144D01*
X153260779Y-106976144D01*
G37*
D21*
X153000000Y-107500000D03*
D15*
G36*
X153260779Y-105226144D02*
G01*
X153283834Y-105229563D01*
X153306443Y-105235227D01*
X153328387Y-105243079D01*
X153349457Y-105253044D01*
X153369448Y-105265026D01*
X153388168Y-105278910D01*
X153405438Y-105294562D01*
X153421090Y-105311832D01*
X153434974Y-105330552D01*
X153446956Y-105350543D01*
X153456921Y-105371613D01*
X153464773Y-105393557D01*
X153470437Y-105416166D01*
X153473856Y-105439221D01*
X153475000Y-105462500D01*
X153475000Y-106037500D01*
X153473856Y-106060779D01*
X153470437Y-106083834D01*
X153464773Y-106106443D01*
X153456921Y-106128387D01*
X153446956Y-106149457D01*
X153434974Y-106169448D01*
X153421090Y-106188168D01*
X153405438Y-106205438D01*
X153388168Y-106221090D01*
X153369448Y-106234974D01*
X153349457Y-106246956D01*
X153328387Y-106256921D01*
X153306443Y-106264773D01*
X153283834Y-106270437D01*
X153260779Y-106273856D01*
X153237500Y-106275000D01*
X152762500Y-106275000D01*
X152739221Y-106273856D01*
X152716166Y-106270437D01*
X152693557Y-106264773D01*
X152671613Y-106256921D01*
X152650543Y-106246956D01*
X152630552Y-106234974D01*
X152611832Y-106221090D01*
X152594562Y-106205438D01*
X152578910Y-106188168D01*
X152565026Y-106169448D01*
X152553044Y-106149457D01*
X152543079Y-106128387D01*
X152535227Y-106106443D01*
X152529563Y-106083834D01*
X152526144Y-106060779D01*
X152525000Y-106037500D01*
X152525000Y-105462500D01*
X152526144Y-105439221D01*
X152529563Y-105416166D01*
X152535227Y-105393557D01*
X152543079Y-105371613D01*
X152553044Y-105350543D01*
X152565026Y-105330552D01*
X152578910Y-105311832D01*
X152594562Y-105294562D01*
X152611832Y-105278910D01*
X152630552Y-105265026D01*
X152650543Y-105253044D01*
X152671613Y-105243079D01*
X152693557Y-105235227D01*
X152716166Y-105229563D01*
X152739221Y-105226144D01*
X152762500Y-105225000D01*
X153237500Y-105225000D01*
X153260779Y-105226144D01*
X153260779Y-105226144D01*
G37*
D21*
X153000000Y-105750000D03*
D24*
X166750000Y-95750000D03*
X166000000Y-84000000D03*
X170250000Y-84500000D03*
X171750000Y-84500000D03*
D25*
X166490209Y-103732220D03*
X166490209Y-103732220D03*
D24*
X166490209Y-103732220D03*
X149500000Y-103750000D03*
X142750000Y-108000000D03*
X131750000Y-85250000D03*
X148250000Y-108000000D03*
D26*
X180460209Y-105002220D02*
X180460209Y-106272220D01*
X180460209Y-106272220D02*
X180904709Y-106452970D01*
X180460209Y-105002220D02*
X180777709Y-105383220D01*
X180460209Y-106272220D02*
X180904709Y-106452970D01*
X180460209Y-110082220D02*
X180777709Y-110463220D01*
X181730209Y-87222220D02*
X182253209Y-87286720D01*
X170300209Y-103732220D02*
X170253209Y-103286720D01*
X170300209Y-103732220D02*
X170253209Y-103286720D01*
X167760209Y-87222220D02*
X168253209Y-87279220D01*
X174745209Y-108177220D02*
X174745209Y-108812220D01*
X180904709Y-109393470D02*
X180777709Y-109393470D01*
X180777709Y-109393470D02*
X180777709Y-110463220D01*
X172840209Y-107542220D02*
X176650209Y-103732220D01*
X176650209Y-103732220D02*
X176253209Y-103286720D01*
X172840209Y-107542220D02*
X172205209Y-108177220D01*
D27*
X163285921Y-108177220D02*
X163277221Y-108168520D01*
X172205209Y-108177220D02*
X163285921Y-108177220D01*
X163277221Y-107849523D02*
X155954725Y-100527027D01*
X163277221Y-108168520D02*
X163277221Y-107849523D01*
X155204726Y-99777028D02*
X155954725Y-100527027D01*
X153177698Y-97750000D02*
X155204726Y-99777028D01*
X149500000Y-97750000D02*
X153177698Y-97750000D01*
X147750000Y-99500000D02*
X149500000Y-97750000D01*
X147750000Y-99500000D02*
X147750000Y-101750000D01*
X147750000Y-104700000D02*
X147600000Y-104850000D01*
X147750000Y-101750000D02*
X147750000Y-104700000D01*
D26*
X176650209Y-87222220D02*
X176265409Y-87279220D01*
D27*
X176265409Y-87279220D02*
X176265409Y-87644220D01*
X157015385Y-80207027D02*
X155954725Y-80207027D01*
X170443216Y-80207027D02*
X157015385Y-80207027D01*
X176265409Y-86029220D02*
X170443216Y-80207027D01*
X176265409Y-87279220D02*
X176265409Y-86029220D01*
D26*
X172840209Y-87222220D02*
X172348209Y-87286720D01*
D27*
X172348209Y-87286720D02*
X172348209Y-87651720D01*
X170250000Y-84823511D02*
X170250000Y-84500000D01*
X172348209Y-87286720D02*
X172348209Y-86921720D01*
X172348209Y-86921720D02*
X170250000Y-84823511D01*
X174253209Y-87286720D02*
X174253209Y-87651720D01*
X171831489Y-84500000D02*
X171750000Y-84500000D01*
X174253209Y-87286720D02*
X174253209Y-86921720D01*
X174253209Y-86921720D02*
X171831489Y-84500000D01*
D26*
X177920209Y-87222220D02*
X178253209Y-87284720D01*
D27*
X157015385Y-77667027D02*
X155954725Y-77667027D01*
X169885516Y-77667027D02*
X157015385Y-77667027D01*
X178253209Y-86034720D02*
X169885516Y-77667027D01*
X178253209Y-87284720D02*
X178253209Y-86034720D01*
D26*
X180460209Y-87222220D02*
X180253209Y-87279220D01*
D27*
X180253209Y-88529220D02*
X179297956Y-89484473D01*
X180253209Y-87279220D02*
X180253209Y-88529220D01*
X179297956Y-89484473D02*
X165704237Y-89484473D01*
X165704237Y-89484473D02*
X163454237Y-87234473D01*
X163454237Y-87234473D02*
X163454237Y-85234473D01*
X160966791Y-82747027D02*
X155954725Y-82747027D01*
X163454237Y-85234473D02*
X160966791Y-82747027D01*
D26*
X177920209Y-107542220D02*
X179190209Y-107542220D01*
X179190209Y-107542220D02*
X179284459Y-107923220D01*
X177920209Y-107542220D02*
X178047209Y-107923220D01*
D28*
X167807709Y-103732220D02*
X168253209Y-103286720D01*
D29*
X167250000Y-103732220D02*
X167807709Y-103732220D01*
D27*
X156704724Y-91117026D02*
X155954725Y-90367027D01*
X159106647Y-93518949D02*
X156704724Y-91117026D01*
X159106647Y-98917946D02*
X159106647Y-93518949D01*
X163277221Y-103088520D02*
X159106647Y-98917946D01*
X163277221Y-105628520D02*
X158704237Y-101055536D01*
X158704237Y-95656539D02*
X155954725Y-92907027D01*
X158704237Y-101055536D02*
X158704237Y-95656539D01*
X148450000Y-104850000D02*
X148450000Y-104800000D01*
X148450000Y-104800000D02*
X149500000Y-103750000D01*
X145840000Y-111297919D02*
X145840000Y-112500000D01*
X145840000Y-107897500D02*
X145840000Y-111297919D01*
X147087500Y-106650000D02*
X145840000Y-107897500D01*
X147600000Y-106650000D02*
X147087500Y-106650000D01*
X145840000Y-107897500D02*
X142852500Y-107897500D01*
X142852500Y-107897500D02*
X142750000Y-108000000D01*
X134804726Y-78297026D02*
X135554725Y-77547027D01*
X131750000Y-85250000D02*
X131750000Y-81351752D01*
X131750000Y-81351752D02*
X134804726Y-78297026D01*
X139250000Y-91402302D02*
X135554725Y-87707027D01*
X140250000Y-115250000D02*
X139250000Y-114250000D01*
X146832081Y-115250000D02*
X140250000Y-115250000D01*
X148380000Y-112500000D02*
X148380000Y-113702081D01*
X148380000Y-113702081D02*
X146832081Y-115250000D01*
X141500000Y-105000000D02*
X141000928Y-104500928D01*
X139250000Y-102750000D02*
X139250000Y-91402302D01*
X139250000Y-104000000D02*
X139250000Y-103750000D01*
X139250000Y-104000000D02*
X139250000Y-102750000D01*
X139250000Y-114250000D02*
X139250000Y-104000000D01*
X139250000Y-103750000D02*
X139750000Y-103250000D01*
X141000928Y-104500928D02*
X139750000Y-103250000D01*
X139750000Y-103250000D02*
X139250000Y-102750000D01*
D26*
X180460209Y-102462220D02*
X180348209Y-103288720D01*
X177920209Y-102462220D02*
X178253209Y-103286720D01*
D27*
X144000000Y-105750000D02*
X143250000Y-105000000D01*
X147600000Y-105750000D02*
X144000000Y-105750000D01*
X148450000Y-106650000D02*
X148450000Y-107800000D01*
X148450000Y-107800000D02*
X148250000Y-108000000D01*
X152500000Y-108000000D02*
X153000000Y-107500000D01*
X148250000Y-108000000D02*
X152500000Y-108000000D01*
D30*
G36*
X183015001Y-85661609D02*
G01*
X183012691Y-85660908D01*
X182888209Y-85648648D01*
X182538959Y-85651720D01*
X182380209Y-85810470D01*
X182380209Y-87159720D01*
X182400209Y-87159720D01*
X182400209Y-87413720D01*
X182380209Y-87413720D01*
X182380209Y-88762970D01*
X182538959Y-88921720D01*
X182888209Y-88924792D01*
X183012691Y-88912532D01*
X183015001Y-88911831D01*
X183015000Y-101663609D01*
X183012691Y-101662908D01*
X182888209Y-101650648D01*
X181618209Y-101650648D01*
X181493727Y-101662908D01*
X181374029Y-101699218D01*
X181300709Y-101738409D01*
X181227389Y-101699218D01*
X181107691Y-101662908D01*
X180983209Y-101650648D01*
X180670515Y-101650648D01*
X180573310Y-101627594D01*
X180408309Y-101621566D01*
X180245304Y-101647844D01*
X180237768Y-101650648D01*
X179713209Y-101650648D01*
X179588727Y-101662908D01*
X179469029Y-101699218D01*
X179358715Y-101758183D01*
X179301928Y-101804787D01*
X179242703Y-101756183D01*
X179132389Y-101697218D01*
X179012691Y-101660908D01*
X178888209Y-101648648D01*
X178127007Y-101648648D01*
X178091830Y-101637636D01*
X177927664Y-101619999D01*
X177763212Y-101634727D01*
X177715815Y-101648648D01*
X177618209Y-101648648D01*
X177493727Y-101660908D01*
X177374029Y-101697218D01*
X177263715Y-101756183D01*
X177253209Y-101764805D01*
X177242703Y-101756183D01*
X177132389Y-101697218D01*
X177012691Y-101660908D01*
X176888209Y-101648648D01*
X175618209Y-101648648D01*
X175493727Y-101660908D01*
X175374029Y-101697218D01*
X175263715Y-101756183D01*
X175167024Y-101835535D01*
X175087672Y-101932226D01*
X175028707Y-102042540D01*
X174992397Y-102162238D01*
X174980137Y-102286720D01*
X174980137Y-104216898D01*
X172483388Y-106713648D01*
X171379709Y-106713648D01*
X171255227Y-106725908D01*
X171135529Y-106762218D01*
X171025215Y-106821183D01*
X170928524Y-106900535D01*
X170849172Y-106997226D01*
X170790207Y-107107540D01*
X170753897Y-107227238D01*
X170741637Y-107351720D01*
X170741637Y-107417220D01*
X164765293Y-107417220D01*
X164765293Y-107318520D01*
X164753033Y-107194038D01*
X164716723Y-107074340D01*
X164657758Y-106964026D01*
X164578406Y-106867335D01*
X164481715Y-106787983D01*
X164371401Y-106729018D01*
X164302534Y-106708127D01*
X164332355Y-106683654D01*
X164517927Y-106457534D01*
X164655820Y-106199554D01*
X164740734Y-105919631D01*
X164769406Y-105628520D01*
X164740734Y-105337409D01*
X164655820Y-105057486D01*
X164517927Y-104799506D01*
X164332355Y-104573386D01*
X164106235Y-104387814D01*
X164051430Y-104358520D01*
X164106235Y-104329226D01*
X164332355Y-104143654D01*
X164517927Y-103917534D01*
X164655820Y-103659554D01*
X164664699Y-103630281D01*
X165455209Y-103630281D01*
X165455209Y-103834159D01*
X165494983Y-104034118D01*
X165573004Y-104222476D01*
X165596162Y-104257134D01*
X165639314Y-104399388D01*
X165800421Y-104700798D01*
X166017234Y-104964986D01*
X166281422Y-105181799D01*
X166582832Y-105342906D01*
X166909881Y-105442115D01*
X167164775Y-105467220D01*
X167892934Y-105467220D01*
X168147828Y-105442115D01*
X168474877Y-105342906D01*
X168776287Y-105181799D01*
X169040475Y-104964986D01*
X169107001Y-104883923D01*
X169132389Y-104876222D01*
X169242703Y-104817257D01*
X169253209Y-104808635D01*
X169263715Y-104817257D01*
X169374029Y-104876222D01*
X169493727Y-104912532D01*
X169618209Y-104924792D01*
X169967459Y-104921720D01*
X170126209Y-104762970D01*
X170126209Y-103413720D01*
X170380209Y-103413720D01*
X170380209Y-104762970D01*
X170538959Y-104921720D01*
X170888209Y-104924792D01*
X171012691Y-104912532D01*
X171132389Y-104876222D01*
X171242703Y-104817257D01*
X171339394Y-104737905D01*
X171418746Y-104641214D01*
X171477711Y-104530900D01*
X171514021Y-104411202D01*
X171526281Y-104286720D01*
X171523209Y-103572470D01*
X171364459Y-103413720D01*
X170380209Y-103413720D01*
X170126209Y-103413720D01*
X170106209Y-103413720D01*
X170106209Y-103159720D01*
X170126209Y-103159720D01*
X170126209Y-101810470D01*
X170380209Y-101810470D01*
X170380209Y-103159720D01*
X171364459Y-103159720D01*
X171523209Y-103000970D01*
X171526281Y-102286720D01*
X171514021Y-102162238D01*
X171477711Y-102042540D01*
X171418746Y-101932226D01*
X171339394Y-101835535D01*
X171242703Y-101756183D01*
X171132389Y-101697218D01*
X171012691Y-101660908D01*
X170888209Y-101648648D01*
X170538959Y-101651720D01*
X170380209Y-101810470D01*
X170126209Y-101810470D01*
X169967459Y-101651720D01*
X169618209Y-101648648D01*
X169493727Y-101660908D01*
X169374029Y-101697218D01*
X169263715Y-101756183D01*
X169253209Y-101764805D01*
X169242703Y-101756183D01*
X169132389Y-101697218D01*
X169012691Y-101660908D01*
X168888209Y-101648648D01*
X167618209Y-101648648D01*
X167493727Y-101660908D01*
X167374029Y-101697218D01*
X167263715Y-101756183D01*
X167167024Y-101835535D01*
X167087672Y-101932226D01*
X167046716Y-102008848D01*
X166909881Y-102022325D01*
X166582832Y-102121534D01*
X166281422Y-102282641D01*
X166017234Y-102499454D01*
X165800421Y-102763642D01*
X165639314Y-103065052D01*
X165596162Y-103207306D01*
X165573004Y-103241964D01*
X165494983Y-103430322D01*
X165455209Y-103630281D01*
X164664699Y-103630281D01*
X164740734Y-103379631D01*
X164769406Y-103088520D01*
X164740734Y-102797409D01*
X164655820Y-102517486D01*
X164517927Y-102259506D01*
X164332355Y-102033386D01*
X164106235Y-101847814D01*
X164041698Y-101813319D01*
X164158576Y-101743698D01*
X164374809Y-101548789D01*
X164548862Y-101315440D01*
X164674046Y-101052619D01*
X164718697Y-100905410D01*
X164597376Y-100675520D01*
X163404221Y-100675520D01*
X163404221Y-100695520D01*
X163150221Y-100695520D01*
X163150221Y-100675520D01*
X163130221Y-100675520D01*
X163130221Y-100421520D01*
X163150221Y-100421520D01*
X163150221Y-99227706D01*
X163404221Y-99227706D01*
X163404221Y-100421520D01*
X164597376Y-100421520D01*
X164718697Y-100191630D01*
X164674046Y-100044421D01*
X164548862Y-99781600D01*
X164374809Y-99548251D01*
X164158576Y-99353342D01*
X163908473Y-99204363D01*
X163634112Y-99107039D01*
X163404221Y-99227706D01*
X163150221Y-99227706D01*
X162920330Y-99107039D01*
X162645969Y-99204363D01*
X162395866Y-99353342D01*
X162179633Y-99548251D01*
X162005580Y-99781600D01*
X161880396Y-100044421D01*
X161835745Y-100191630D01*
X161957065Y-100421518D01*
X161792221Y-100421518D01*
X161792221Y-100528719D01*
X159866647Y-98603145D01*
X159866647Y-93556271D01*
X159870323Y-93518948D01*
X159866647Y-93481625D01*
X159866647Y-93481616D01*
X159855650Y-93369963D01*
X159812193Y-93226702D01*
X159793118Y-93191016D01*
X159741621Y-93094672D01*
X159670446Y-93007946D01*
X159646648Y-92978948D01*
X159617650Y-92955150D01*
X157310892Y-90648392D01*
X157339725Y-90503438D01*
X157339725Y-90230616D01*
X157286500Y-89963038D01*
X157182096Y-89710984D01*
X157030524Y-89484141D01*
X156837611Y-89291228D01*
X156610768Y-89139656D01*
X156507852Y-89097027D01*
X156610768Y-89054398D01*
X156837611Y-88902826D01*
X157030524Y-88709913D01*
X157182096Y-88483070D01*
X157286500Y-88231016D01*
X157339725Y-87963438D01*
X157339725Y-87690616D01*
X157286500Y-87423038D01*
X157182096Y-87170984D01*
X157030524Y-86944141D01*
X156837611Y-86751228D01*
X156610768Y-86599656D01*
X156507852Y-86557027D01*
X156610768Y-86514398D01*
X156837611Y-86362826D01*
X157030524Y-86169913D01*
X157182096Y-85943070D01*
X157286500Y-85691016D01*
X157339725Y-85423438D01*
X157339725Y-85150616D01*
X157286500Y-84883038D01*
X157182096Y-84630984D01*
X157030524Y-84404141D01*
X156837611Y-84211228D01*
X156610768Y-84059656D01*
X156507852Y-84017027D01*
X156610768Y-83974398D01*
X156837611Y-83822826D01*
X157030524Y-83629913D01*
X157112634Y-83507027D01*
X160651990Y-83507027D01*
X162694238Y-85549276D01*
X162694237Y-87197150D01*
X162690561Y-87234473D01*
X162694237Y-87271795D01*
X162694237Y-87271805D01*
X162705234Y-87383458D01*
X162741442Y-87502822D01*
X162748691Y-87526719D01*
X162819263Y-87658749D01*
X162855986Y-87703495D01*
X162914236Y-87774474D01*
X162943240Y-87798277D01*
X165140438Y-89995476D01*
X165164236Y-90024474D01*
X165193234Y-90048272D01*
X165279961Y-90119447D01*
X165411990Y-90190019D01*
X165555251Y-90233476D01*
X165704237Y-90248150D01*
X165741570Y-90244473D01*
X179260634Y-90244473D01*
X179297956Y-90248149D01*
X179335278Y-90244473D01*
X179335289Y-90244473D01*
X179446942Y-90233476D01*
X179590203Y-90190019D01*
X179722232Y-90119447D01*
X179837957Y-90024474D01*
X179861760Y-89995471D01*
X180764212Y-89093019D01*
X180793210Y-89069221D01*
X180888183Y-88953496D01*
X180908609Y-88915283D01*
X181012691Y-88905032D01*
X181132389Y-88868722D01*
X181242703Y-88809757D01*
X181248640Y-88804885D01*
X181263715Y-88817257D01*
X181374029Y-88876222D01*
X181493727Y-88912532D01*
X181618209Y-88924792D01*
X181967459Y-88921720D01*
X182126209Y-88762970D01*
X182126209Y-87413720D01*
X182106209Y-87413720D01*
X182106209Y-87159720D01*
X182126209Y-87159720D01*
X182126209Y-85810470D01*
X181967459Y-85651720D01*
X181618209Y-85648648D01*
X181493727Y-85660908D01*
X181374029Y-85697218D01*
X181263715Y-85756183D01*
X181257778Y-85761055D01*
X181242703Y-85748683D01*
X181132389Y-85689718D01*
X181012691Y-85653408D01*
X180888209Y-85641148D01*
X179618209Y-85641148D01*
X179493727Y-85653408D01*
X179374029Y-85689718D01*
X179263715Y-85748683D01*
X179249858Y-85760055D01*
X179242703Y-85754183D01*
X179132389Y-85695218D01*
X179012691Y-85658908D01*
X178908609Y-85648657D01*
X178888183Y-85610443D01*
X178817008Y-85523717D01*
X178793210Y-85494719D01*
X178764212Y-85470921D01*
X170449320Y-77156030D01*
X170425517Y-77127026D01*
X170309792Y-77032053D01*
X170177763Y-76961481D01*
X170034502Y-76918024D01*
X169922849Y-76907027D01*
X169922838Y-76907027D01*
X169885516Y-76903351D01*
X169848194Y-76907027D01*
X157112634Y-76907027D01*
X157030524Y-76784141D01*
X156837611Y-76591228D01*
X156610768Y-76439656D01*
X156507852Y-76397027D01*
X156610768Y-76354398D01*
X156837611Y-76202826D01*
X157030524Y-76009913D01*
X157182096Y-75783070D01*
X157286500Y-75531016D01*
X157339725Y-75263438D01*
X157339725Y-74990616D01*
X157286500Y-74723038D01*
X157182096Y-74470984D01*
X157030524Y-74244141D01*
X156837611Y-74051228D01*
X156610768Y-73899656D01*
X156507852Y-73857027D01*
X156610768Y-73814398D01*
X156837611Y-73662826D01*
X157030524Y-73469913D01*
X157182096Y-73243070D01*
X157286500Y-72991016D01*
X157339725Y-72723438D01*
X157339725Y-72529872D01*
X176515000Y-72529872D01*
X176515000Y-72970128D01*
X176600890Y-73401925D01*
X176769369Y-73808669D01*
X177013962Y-74174729D01*
X177325271Y-74486038D01*
X177691331Y-74730631D01*
X178098075Y-74899110D01*
X178529872Y-74985000D01*
X178970128Y-74985000D01*
X179401925Y-74899110D01*
X179808669Y-74730631D01*
X180174729Y-74486038D01*
X180486038Y-74174729D01*
X180730631Y-73808669D01*
X180899110Y-73401925D01*
X180985000Y-72970128D01*
X180985000Y-72529872D01*
X180899110Y-72098075D01*
X180730631Y-71691331D01*
X180486038Y-71325271D01*
X180174729Y-71013962D01*
X179808669Y-70769369D01*
X179401925Y-70600890D01*
X178970128Y-70515000D01*
X178529872Y-70515000D01*
X178098075Y-70600890D01*
X177691331Y-70769369D01*
X177325271Y-71013962D01*
X177013962Y-71325271D01*
X176769369Y-71691331D01*
X176600890Y-72098075D01*
X176515000Y-72529872D01*
X157339725Y-72529872D01*
X157339725Y-72450616D01*
X157286500Y-72183038D01*
X157182096Y-71930984D01*
X157030524Y-71704141D01*
X156837611Y-71511228D01*
X156610768Y-71359656D01*
X156358714Y-71255252D01*
X156091136Y-71202027D01*
X155818314Y-71202027D01*
X155550736Y-71255252D01*
X155298682Y-71359656D01*
X155071839Y-71511228D01*
X154878926Y-71704141D01*
X154727354Y-71930984D01*
X154622950Y-72183038D01*
X154569725Y-72450616D01*
X154569725Y-72723438D01*
X154622950Y-72991016D01*
X154727354Y-73243070D01*
X154878926Y-73469913D01*
X155071839Y-73662826D01*
X155298682Y-73814398D01*
X155401598Y-73857027D01*
X155298682Y-73899656D01*
X155071839Y-74051228D01*
X154878926Y-74244141D01*
X154727354Y-74470984D01*
X154622950Y-74723038D01*
X154569725Y-74990616D01*
X154569725Y-75263438D01*
X154622950Y-75531016D01*
X154727354Y-75783070D01*
X154878926Y-76009913D01*
X155071839Y-76202826D01*
X155298682Y-76354398D01*
X155401598Y-76397027D01*
X155298682Y-76439656D01*
X155071839Y-76591228D01*
X154878926Y-76784141D01*
X154727354Y-77010984D01*
X154622950Y-77263038D01*
X154569725Y-77530616D01*
X154569725Y-77803438D01*
X154622950Y-78071016D01*
X154727354Y-78323070D01*
X154878926Y-78549913D01*
X155071839Y-78742826D01*
X155298682Y-78894398D01*
X155401598Y-78937027D01*
X155298682Y-78979656D01*
X155071839Y-79131228D01*
X154878926Y-79324141D01*
X154727354Y-79550984D01*
X154622950Y-79803038D01*
X154569725Y-80070616D01*
X154569725Y-80343438D01*
X154622950Y-80611016D01*
X154727354Y-80863070D01*
X154878926Y-81089913D01*
X155071839Y-81282826D01*
X155298682Y-81434398D01*
X155401598Y-81477027D01*
X155298682Y-81519656D01*
X155071839Y-81671228D01*
X154878926Y-81864141D01*
X154727354Y-82090984D01*
X154622950Y-82343038D01*
X154569725Y-82610616D01*
X154569725Y-82883438D01*
X154622950Y-83151016D01*
X154727354Y-83403070D01*
X154878926Y-83629913D01*
X155071839Y-83822826D01*
X155298682Y-83974398D01*
X155401598Y-84017027D01*
X155298682Y-84059656D01*
X155071839Y-84211228D01*
X154878926Y-84404141D01*
X154727354Y-84630984D01*
X154622950Y-84883038D01*
X154569725Y-85150616D01*
X154569725Y-85423438D01*
X154622950Y-85691016D01*
X154727354Y-85943070D01*
X154878926Y-86169913D01*
X155071839Y-86362826D01*
X155298682Y-86514398D01*
X155401598Y-86557027D01*
X155298682Y-86599656D01*
X155071839Y-86751228D01*
X154878926Y-86944141D01*
X154727354Y-87170984D01*
X154622950Y-87423038D01*
X154569725Y-87690616D01*
X154569725Y-87963438D01*
X154622950Y-88231016D01*
X154727354Y-88483070D01*
X154878926Y-88709913D01*
X155071839Y-88902826D01*
X155298682Y-89054398D01*
X155401598Y-89097027D01*
X155298682Y-89139656D01*
X155071839Y-89291228D01*
X154878926Y-89484141D01*
X154727354Y-89710984D01*
X154622950Y-89963038D01*
X154569725Y-90230616D01*
X154569725Y-90503438D01*
X154622950Y-90771016D01*
X154727354Y-91023070D01*
X154878926Y-91249913D01*
X155071839Y-91442826D01*
X155298682Y-91594398D01*
X155401598Y-91637027D01*
X155298682Y-91679656D01*
X155071839Y-91831228D01*
X154878926Y-92024141D01*
X154727354Y-92250984D01*
X154622950Y-92503038D01*
X154569725Y-92770616D01*
X154569725Y-93043438D01*
X154622950Y-93311016D01*
X154727354Y-93563070D01*
X154878926Y-93789913D01*
X155071839Y-93982826D01*
X155298682Y-94134398D01*
X155401598Y-94177027D01*
X155298682Y-94219656D01*
X155071839Y-94371228D01*
X154878926Y-94564141D01*
X154727354Y-94790984D01*
X154622950Y-95043038D01*
X154569725Y-95310616D01*
X154569725Y-95583438D01*
X154622950Y-95851016D01*
X154727354Y-96103070D01*
X154878926Y-96329913D01*
X155071839Y-96522826D01*
X155298682Y-96674398D01*
X155398004Y-96715538D01*
X155355893Y-96730750D01*
X155242862Y-96791167D01*
X155177337Y-97030034D01*
X155954725Y-97807422D01*
X156732113Y-97030034D01*
X156666588Y-96791167D01*
X156508248Y-96716863D01*
X156610768Y-96674398D01*
X156837611Y-96522826D01*
X157030524Y-96329913D01*
X157182096Y-96103070D01*
X157286500Y-95851016D01*
X157339725Y-95583438D01*
X157339725Y-95366829D01*
X157944238Y-95971342D01*
X157944237Y-101018213D01*
X157940561Y-101055536D01*
X157944237Y-101092858D01*
X157944237Y-101092868D01*
X157955234Y-101204521D01*
X157992000Y-101325724D01*
X157998691Y-101347782D01*
X158069263Y-101479812D01*
X158071737Y-101482826D01*
X158164236Y-101595537D01*
X158193240Y-101619340D01*
X161836424Y-105262525D01*
X161819806Y-105317306D01*
X157310892Y-100808392D01*
X157339725Y-100663438D01*
X157339725Y-100390616D01*
X157286500Y-100123038D01*
X157182096Y-99870984D01*
X157030524Y-99644141D01*
X156837611Y-99451228D01*
X156610768Y-99299656D01*
X156511446Y-99258516D01*
X156553557Y-99243304D01*
X156666588Y-99182887D01*
X156732113Y-98944020D01*
X155954725Y-98166632D01*
X155940583Y-98180775D01*
X155760978Y-98001170D01*
X155775120Y-97987027D01*
X156134330Y-97987027D01*
X156911718Y-98764415D01*
X157150585Y-98698890D01*
X157266485Y-98451911D01*
X157331975Y-98187067D01*
X157344537Y-97914535D01*
X157303690Y-97644789D01*
X157211002Y-97388195D01*
X157150585Y-97275164D01*
X156911718Y-97209639D01*
X156134330Y-97987027D01*
X155775120Y-97987027D01*
X154997732Y-97209639D01*
X154758865Y-97275164D01*
X154642965Y-97522143D01*
X154577475Y-97786987D01*
X154564913Y-98059519D01*
X154565429Y-98062930D01*
X153741502Y-97239002D01*
X153717699Y-97209999D01*
X153601974Y-97115026D01*
X153469945Y-97044454D01*
X153326684Y-97000997D01*
X153215031Y-96990000D01*
X153215020Y-96990000D01*
X153177698Y-96986324D01*
X153140376Y-96990000D01*
X149537325Y-96990000D01*
X149500000Y-96986324D01*
X149462675Y-96990000D01*
X149462667Y-96990000D01*
X149351014Y-97000997D01*
X149207753Y-97044454D01*
X149075724Y-97115026D01*
X148959999Y-97209999D01*
X148936201Y-97238997D01*
X147788271Y-98386928D01*
X147462500Y-98386928D01*
X147291684Y-98403752D01*
X147127433Y-98453577D01*
X146976058Y-98534488D01*
X146843377Y-98643377D01*
X146734488Y-98776058D01*
X146653577Y-98927433D01*
X146603752Y-99091684D01*
X146586928Y-99262500D01*
X146586928Y-99737500D01*
X146603752Y-99908316D01*
X146653577Y-100072567D01*
X146734488Y-100223942D01*
X146843377Y-100356623D01*
X146976058Y-100465512D01*
X146990000Y-100472964D01*
X146990001Y-100777036D01*
X146976058Y-100784488D01*
X146843377Y-100893377D01*
X146734488Y-101026058D01*
X146653577Y-101177433D01*
X146603752Y-101341684D01*
X146586928Y-101512500D01*
X146586928Y-101987500D01*
X146603752Y-102158316D01*
X146653577Y-102322567D01*
X146734488Y-102473942D01*
X146843377Y-102606623D01*
X146976058Y-102715512D01*
X146990000Y-102722964D01*
X146990001Y-104015724D01*
X146983006Y-104019463D01*
X146886315Y-104098815D01*
X146806963Y-104195506D01*
X146747998Y-104305820D01*
X146711688Y-104425518D01*
X146699428Y-104550000D01*
X146699428Y-104990000D01*
X144413072Y-104990000D01*
X144413072Y-104762500D01*
X144396248Y-104591684D01*
X144346423Y-104427433D01*
X144265512Y-104276058D01*
X144156623Y-104143377D01*
X144023942Y-104034488D01*
X143872567Y-103953577D01*
X143708316Y-103903752D01*
X143537500Y-103886928D01*
X142962500Y-103886928D01*
X142791684Y-103903752D01*
X142627433Y-103953577D01*
X142476058Y-104034488D01*
X142375000Y-104117425D01*
X142273942Y-104034488D01*
X142122567Y-103953577D01*
X141958316Y-103903752D01*
X141787500Y-103886928D01*
X141461730Y-103886928D01*
X140313804Y-102739003D01*
X140290001Y-102709999D01*
X140260997Y-102686196D01*
X140010000Y-102435199D01*
X140010000Y-92529872D01*
X141515000Y-92529872D01*
X141515000Y-92970128D01*
X141600890Y-93401925D01*
X141769369Y-93808669D01*
X142013962Y-94174729D01*
X142325271Y-94486038D01*
X142691331Y-94730631D01*
X143098075Y-94899110D01*
X143529872Y-94985000D01*
X143970128Y-94985000D01*
X144401925Y-94899110D01*
X144808669Y-94730631D01*
X145174729Y-94486038D01*
X145486038Y-94174729D01*
X145730631Y-93808669D01*
X145899110Y-93401925D01*
X145985000Y-92970128D01*
X145985000Y-92529872D01*
X145899110Y-92098075D01*
X145730631Y-91691331D01*
X145486038Y-91325271D01*
X145174729Y-91013962D01*
X144808669Y-90769369D01*
X144401925Y-90600890D01*
X143970128Y-90515000D01*
X143529872Y-90515000D01*
X143098075Y-90600890D01*
X142691331Y-90769369D01*
X142325271Y-91013962D01*
X142013962Y-91325271D01*
X141769369Y-91691331D01*
X141600890Y-92098075D01*
X141515000Y-92529872D01*
X140010000Y-92529872D01*
X140010000Y-91439624D01*
X140013676Y-91402301D01*
X140010000Y-91364979D01*
X140010000Y-91364969D01*
X139999003Y-91253316D01*
X139955546Y-91110055D01*
X139909051Y-91023070D01*
X139884974Y-90978025D01*
X139813799Y-90891299D01*
X139790001Y-90862301D01*
X139761003Y-90838503D01*
X136910892Y-87988392D01*
X136939725Y-87843438D01*
X136939725Y-87570616D01*
X136886500Y-87303038D01*
X136782096Y-87050984D01*
X136630524Y-86824141D01*
X136437611Y-86631228D01*
X136210768Y-86479656D01*
X136107852Y-86437027D01*
X136210768Y-86394398D01*
X136437611Y-86242826D01*
X136630524Y-86049913D01*
X136782096Y-85823070D01*
X136886500Y-85571016D01*
X136939725Y-85303438D01*
X136939725Y-85030616D01*
X136886500Y-84763038D01*
X136782096Y-84510984D01*
X136630524Y-84284141D01*
X136437611Y-84091228D01*
X136210768Y-83939656D01*
X136107852Y-83897027D01*
X136210768Y-83854398D01*
X136437611Y-83702826D01*
X136630524Y-83509913D01*
X136782096Y-83283070D01*
X136886500Y-83031016D01*
X136939725Y-82763438D01*
X136939725Y-82490616D01*
X136886500Y-82223038D01*
X136782096Y-81970984D01*
X136630524Y-81744141D01*
X136437611Y-81551228D01*
X136210768Y-81399656D01*
X136107852Y-81357027D01*
X136210768Y-81314398D01*
X136437611Y-81162826D01*
X136630524Y-80969913D01*
X136782096Y-80743070D01*
X136886500Y-80491016D01*
X136939725Y-80223438D01*
X136939725Y-79950616D01*
X136886500Y-79683038D01*
X136782096Y-79430984D01*
X136630524Y-79204141D01*
X136437611Y-79011228D01*
X136210768Y-78859656D01*
X136107852Y-78817027D01*
X136210768Y-78774398D01*
X136437611Y-78622826D01*
X136630524Y-78429913D01*
X136782096Y-78203070D01*
X136886500Y-77951016D01*
X136939725Y-77683438D01*
X136939725Y-77410616D01*
X136886500Y-77143038D01*
X136782096Y-76890984D01*
X136630524Y-76664141D01*
X136437611Y-76471228D01*
X136210768Y-76319656D01*
X136107852Y-76277027D01*
X136210768Y-76234398D01*
X136437611Y-76082826D01*
X136630524Y-75889913D01*
X136782096Y-75663070D01*
X136886500Y-75411016D01*
X136939725Y-75143438D01*
X136939725Y-74870616D01*
X136886500Y-74603038D01*
X136782096Y-74350984D01*
X136630524Y-74124141D01*
X136437611Y-73931228D01*
X136210768Y-73779656D01*
X136107852Y-73737027D01*
X136210768Y-73694398D01*
X136437611Y-73542826D01*
X136630524Y-73349913D01*
X136782096Y-73123070D01*
X136886500Y-72871016D01*
X136939725Y-72603438D01*
X136939725Y-72330616D01*
X136886500Y-72063038D01*
X136782096Y-71810984D01*
X136630524Y-71584141D01*
X136437611Y-71391228D01*
X136210768Y-71239656D01*
X135958714Y-71135252D01*
X135691136Y-71082027D01*
X135418314Y-71082027D01*
X135150736Y-71135252D01*
X134898682Y-71239656D01*
X134671839Y-71391228D01*
X134478926Y-71584141D01*
X134327354Y-71810984D01*
X134222950Y-72063038D01*
X134169725Y-72330616D01*
X134169725Y-72603438D01*
X134222950Y-72871016D01*
X134327354Y-73123070D01*
X134478926Y-73349913D01*
X134671839Y-73542826D01*
X134898682Y-73694398D01*
X135001598Y-73737027D01*
X134898682Y-73779656D01*
X134671839Y-73931228D01*
X134478926Y-74124141D01*
X134327354Y-74350984D01*
X134222950Y-74603038D01*
X134169725Y-74870616D01*
X134169725Y-75143438D01*
X134222950Y-75411016D01*
X134327354Y-75663070D01*
X134478926Y-75889913D01*
X134671839Y-76082826D01*
X134898682Y-76234398D01*
X135001598Y-76277027D01*
X134898682Y-76319656D01*
X134671839Y-76471228D01*
X134478926Y-76664141D01*
X134327354Y-76890984D01*
X134222950Y-77143038D01*
X134169725Y-77410616D01*
X134169725Y-77683438D01*
X134198558Y-77828392D01*
X131238998Y-80787953D01*
X131210000Y-80811751D01*
X131186202Y-80840749D01*
X131186201Y-80840750D01*
X131115026Y-80927476D01*
X131044454Y-81059506D01*
X131000998Y-81202767D01*
X130986324Y-81351752D01*
X130990001Y-81389084D01*
X130990000Y-84546289D01*
X130946063Y-84590226D01*
X130832795Y-84759744D01*
X130754774Y-84948102D01*
X130715000Y-85148061D01*
X130715000Y-85351939D01*
X130754774Y-85551898D01*
X130832795Y-85740256D01*
X130946063Y-85909774D01*
X131090226Y-86053937D01*
X131259744Y-86167205D01*
X131448102Y-86245226D01*
X131648061Y-86285000D01*
X131851939Y-86285000D01*
X132051898Y-86245226D01*
X132240256Y-86167205D01*
X132409774Y-86053937D01*
X132553937Y-85909774D01*
X132667205Y-85740256D01*
X132745226Y-85551898D01*
X132785000Y-85351939D01*
X132785000Y-85148061D01*
X132745226Y-84948102D01*
X132667205Y-84759744D01*
X132553937Y-84590226D01*
X132510000Y-84546289D01*
X132510000Y-81666553D01*
X134169725Y-80006829D01*
X134169725Y-80223438D01*
X134222950Y-80491016D01*
X134327354Y-80743070D01*
X134478926Y-80969913D01*
X134671839Y-81162826D01*
X134898682Y-81314398D01*
X135001598Y-81357027D01*
X134898682Y-81399656D01*
X134671839Y-81551228D01*
X134478926Y-81744141D01*
X134327354Y-81970984D01*
X134222950Y-82223038D01*
X134169725Y-82490616D01*
X134169725Y-82763438D01*
X134222950Y-83031016D01*
X134327354Y-83283070D01*
X134478926Y-83509913D01*
X134671839Y-83702826D01*
X134898682Y-83854398D01*
X135001598Y-83897027D01*
X134898682Y-83939656D01*
X134671839Y-84091228D01*
X134478926Y-84284141D01*
X134327354Y-84510984D01*
X134222950Y-84763038D01*
X134169725Y-85030616D01*
X134169725Y-85303438D01*
X134222950Y-85571016D01*
X134327354Y-85823070D01*
X134478926Y-86049913D01*
X134671839Y-86242826D01*
X134898682Y-86394398D01*
X135001598Y-86437027D01*
X134898682Y-86479656D01*
X134671839Y-86631228D01*
X134478926Y-86824141D01*
X134327354Y-87050984D01*
X134222950Y-87303038D01*
X134169725Y-87570616D01*
X134169725Y-87843438D01*
X134222950Y-88111016D01*
X134327354Y-88363070D01*
X134478926Y-88589913D01*
X134671839Y-88782826D01*
X134898682Y-88934398D01*
X135001598Y-88977027D01*
X134898682Y-89019656D01*
X134671839Y-89171228D01*
X134478926Y-89364141D01*
X134327354Y-89590984D01*
X134222950Y-89843038D01*
X134169725Y-90110616D01*
X134169725Y-90383438D01*
X134222950Y-90651016D01*
X134327354Y-90903070D01*
X134478926Y-91129913D01*
X134671839Y-91322826D01*
X134898682Y-91474398D01*
X135001598Y-91517027D01*
X134898682Y-91559656D01*
X134671839Y-91711228D01*
X134478926Y-91904141D01*
X134327354Y-92130984D01*
X134222950Y-92383038D01*
X134169725Y-92650616D01*
X134169725Y-92923438D01*
X134222950Y-93191016D01*
X134327354Y-93443070D01*
X134478926Y-93669913D01*
X134671839Y-93862826D01*
X134898682Y-94014398D01*
X135001598Y-94057027D01*
X134898682Y-94099656D01*
X134671839Y-94251228D01*
X134478926Y-94444141D01*
X134327354Y-94670984D01*
X134222950Y-94923038D01*
X134169725Y-95190616D01*
X134169725Y-95463438D01*
X134222950Y-95731016D01*
X134327354Y-95983070D01*
X134478926Y-96209913D01*
X134671839Y-96402826D01*
X134898682Y-96554398D01*
X135001598Y-96597027D01*
X134898682Y-96639656D01*
X134671839Y-96791228D01*
X134478926Y-96984141D01*
X134327354Y-97210984D01*
X134222950Y-97463038D01*
X134169725Y-97730616D01*
X134169725Y-98003438D01*
X134222950Y-98271016D01*
X134327354Y-98523070D01*
X134478926Y-98749913D01*
X134671839Y-98942826D01*
X134898682Y-99094398D01*
X135001598Y-99137027D01*
X134898682Y-99179656D01*
X134671839Y-99331228D01*
X134478926Y-99524141D01*
X134327354Y-99750984D01*
X134222950Y-100003038D01*
X134169725Y-100270616D01*
X134169725Y-100543438D01*
X134222950Y-100811016D01*
X134327354Y-101063070D01*
X134478926Y-101289913D01*
X134671839Y-101482826D01*
X134898682Y-101634398D01*
X135001598Y-101677027D01*
X134898682Y-101719656D01*
X134671839Y-101871228D01*
X134478926Y-102064141D01*
X134327354Y-102290984D01*
X134222950Y-102543038D01*
X134169725Y-102810616D01*
X134169725Y-103083438D01*
X134222950Y-103351016D01*
X134327354Y-103603070D01*
X134478926Y-103829913D01*
X134671839Y-104022826D01*
X134898682Y-104174398D01*
X135001598Y-104217027D01*
X134898682Y-104259656D01*
X134671839Y-104411228D01*
X134478926Y-104604141D01*
X134327354Y-104830984D01*
X134222950Y-105083038D01*
X134169725Y-105350616D01*
X134169725Y-105623438D01*
X134222950Y-105891016D01*
X134327354Y-106143070D01*
X134478926Y-106369913D01*
X134671839Y-106562826D01*
X134898682Y-106714398D01*
X135150736Y-106818802D01*
X135418314Y-106872027D01*
X135691136Y-106872027D01*
X135958714Y-106818802D01*
X136210768Y-106714398D01*
X136437611Y-106562826D01*
X136630524Y-106369913D01*
X136782096Y-106143070D01*
X136886500Y-105891016D01*
X136939725Y-105623438D01*
X136939725Y-105350616D01*
X136886500Y-105083038D01*
X136782096Y-104830984D01*
X136630524Y-104604141D01*
X136437611Y-104411228D01*
X136210768Y-104259656D01*
X136107852Y-104217027D01*
X136210768Y-104174398D01*
X136437611Y-104022826D01*
X136630524Y-103829913D01*
X136782096Y-103603070D01*
X136886500Y-103351016D01*
X136939725Y-103083438D01*
X136939725Y-102810616D01*
X136886500Y-102543038D01*
X136782096Y-102290984D01*
X136630524Y-102064141D01*
X136437611Y-101871228D01*
X136210768Y-101719656D01*
X136107852Y-101677027D01*
X136210768Y-101634398D01*
X136437611Y-101482826D01*
X136630524Y-101289913D01*
X136782096Y-101063070D01*
X136886500Y-100811016D01*
X136939725Y-100543438D01*
X136939725Y-100270616D01*
X136886500Y-100003038D01*
X136782096Y-99750984D01*
X136630524Y-99524141D01*
X136437611Y-99331228D01*
X136210768Y-99179656D01*
X136107852Y-99137027D01*
X136210768Y-99094398D01*
X136437611Y-98942826D01*
X136630524Y-98749913D01*
X136782096Y-98523070D01*
X136886500Y-98271016D01*
X136939725Y-98003438D01*
X136939725Y-97730616D01*
X136886500Y-97463038D01*
X136782096Y-97210984D01*
X136630524Y-96984141D01*
X136437611Y-96791228D01*
X136210768Y-96639656D01*
X136107852Y-96597027D01*
X136210768Y-96554398D01*
X136437611Y-96402826D01*
X136630524Y-96209913D01*
X136782096Y-95983070D01*
X136886500Y-95731016D01*
X136939725Y-95463438D01*
X136939725Y-95190616D01*
X136886500Y-94923038D01*
X136782096Y-94670984D01*
X136630524Y-94444141D01*
X136437611Y-94251228D01*
X136210768Y-94099656D01*
X136107852Y-94057027D01*
X136210768Y-94014398D01*
X136437611Y-93862826D01*
X136630524Y-93669913D01*
X136782096Y-93443070D01*
X136886500Y-93191016D01*
X136939725Y-92923438D01*
X136939725Y-92650616D01*
X136886500Y-92383038D01*
X136782096Y-92130984D01*
X136630524Y-91904141D01*
X136437611Y-91711228D01*
X136210768Y-91559656D01*
X136107852Y-91517027D01*
X136210768Y-91474398D01*
X136437611Y-91322826D01*
X136630524Y-91129913D01*
X136782096Y-90903070D01*
X136886500Y-90651016D01*
X136939725Y-90383438D01*
X136939725Y-90166829D01*
X138490001Y-91717105D01*
X138490000Y-102712678D01*
X138486324Y-102750000D01*
X138490000Y-102787322D01*
X138490000Y-102787332D01*
X138490001Y-102787342D01*
X138490000Y-103712665D01*
X138490000Y-103712678D01*
X138486324Y-103750000D01*
X138490000Y-103787322D01*
X138490000Y-104037332D01*
X138490001Y-104037342D01*
X138490000Y-114212678D01*
X138486324Y-114250000D01*
X138490000Y-114287322D01*
X138490000Y-114287332D01*
X138500997Y-114398985D01*
X138544454Y-114542246D01*
X138615026Y-114674276D01*
X138654871Y-114722826D01*
X138709999Y-114790001D01*
X138739002Y-114813804D01*
X139686201Y-115761003D01*
X139709999Y-115790001D01*
X139738997Y-115813799D01*
X139825724Y-115884974D01*
X139957753Y-115955546D01*
X140101014Y-115999003D01*
X140250000Y-116013677D01*
X140287333Y-116010000D01*
X146794759Y-116010000D01*
X146832081Y-116013676D01*
X146869403Y-116010000D01*
X146869414Y-116010000D01*
X146981067Y-115999003D01*
X147124328Y-115955546D01*
X147256357Y-115884974D01*
X147372082Y-115790001D01*
X147395885Y-115760997D01*
X148891003Y-114265880D01*
X148920001Y-114242082D01*
X148946332Y-114209998D01*
X149014974Y-114126358D01*
X149085546Y-113994328D01*
X149102177Y-113939502D01*
X149129003Y-113851067D01*
X149136031Y-113779716D01*
X149209014Y-113740706D01*
X149435134Y-113555134D01*
X149620706Y-113329014D01*
X149650000Y-113274209D01*
X149679294Y-113329014D01*
X149864866Y-113555134D01*
X150090986Y-113740706D01*
X150348966Y-113878599D01*
X150628889Y-113963513D01*
X150847050Y-113985000D01*
X150992950Y-113985000D01*
X151211111Y-113963513D01*
X151491034Y-113878599D01*
X151749014Y-113740706D01*
X151975134Y-113555134D01*
X152160706Y-113329014D01*
X152195201Y-113264477D01*
X152264822Y-113381355D01*
X152459731Y-113597588D01*
X152693080Y-113771641D01*
X152955901Y-113896825D01*
X153103110Y-113941476D01*
X153333000Y-113820155D01*
X153333000Y-112627000D01*
X153313000Y-112627000D01*
X153313000Y-112373000D01*
X153333000Y-112373000D01*
X153333000Y-111179845D01*
X153587000Y-111179845D01*
X153587000Y-112373000D01*
X153607000Y-112373000D01*
X153607000Y-112627000D01*
X153587000Y-112627000D01*
X153587000Y-113820155D01*
X153816890Y-113941476D01*
X153964099Y-113896825D01*
X154226920Y-113771641D01*
X154460269Y-113597588D01*
X154536034Y-113513534D01*
X154560498Y-113594180D01*
X154619463Y-113704494D01*
X154698815Y-113801185D01*
X154795506Y-113880537D01*
X154905820Y-113939502D01*
X155025518Y-113975812D01*
X155150000Y-113988072D01*
X156850000Y-113988072D01*
X156974482Y-113975812D01*
X157094180Y-113939502D01*
X157204494Y-113880537D01*
X157301185Y-113801185D01*
X157380537Y-113704494D01*
X157439502Y-113594180D01*
X157459009Y-113529872D01*
X164515000Y-113529872D01*
X164515000Y-113970128D01*
X164600890Y-114401925D01*
X164769369Y-114808669D01*
X165013962Y-115174729D01*
X165325271Y-115486038D01*
X165691331Y-115730631D01*
X166098075Y-115899110D01*
X166529872Y-115985000D01*
X166970128Y-115985000D01*
X167401925Y-115899110D01*
X167808669Y-115730631D01*
X168174729Y-115486038D01*
X168486038Y-115174729D01*
X168730631Y-114808669D01*
X168899110Y-114401925D01*
X168985000Y-113970128D01*
X168985000Y-113529872D01*
X168899110Y-113098075D01*
X168730631Y-112691331D01*
X168486038Y-112325271D01*
X168174729Y-112013962D01*
X167808669Y-111769369D01*
X167401925Y-111600890D01*
X166970128Y-111515000D01*
X166529872Y-111515000D01*
X166098075Y-111600890D01*
X165691331Y-111769369D01*
X165325271Y-112013962D01*
X165013962Y-112325271D01*
X164769369Y-112691331D01*
X164600890Y-113098075D01*
X164515000Y-113529872D01*
X157459009Y-113529872D01*
X157475812Y-113474482D01*
X157488072Y-113350000D01*
X157488072Y-111650000D01*
X157475812Y-111525518D01*
X157439502Y-111405820D01*
X157380537Y-111295506D01*
X157322855Y-111225220D01*
X177980637Y-111225220D01*
X177992897Y-111349702D01*
X178029207Y-111469400D01*
X178088172Y-111579714D01*
X178167524Y-111676405D01*
X178264215Y-111755757D01*
X178374529Y-111814722D01*
X178494227Y-111851032D01*
X178618709Y-111863292D01*
X180491959Y-111860220D01*
X180650709Y-111701470D01*
X180650709Y-110590220D01*
X178142459Y-110590220D01*
X177983709Y-110748970D01*
X177980637Y-111225220D01*
X157322855Y-111225220D01*
X157301185Y-111198815D01*
X157204494Y-111119463D01*
X157094180Y-111060498D01*
X156974482Y-111024188D01*
X156850000Y-111011928D01*
X155150000Y-111011928D01*
X155025518Y-111024188D01*
X154905820Y-111060498D01*
X154795506Y-111119463D01*
X154698815Y-111198815D01*
X154619463Y-111295506D01*
X154560498Y-111405820D01*
X154536034Y-111486466D01*
X154460269Y-111402412D01*
X154226920Y-111228359D01*
X153964099Y-111103175D01*
X153816890Y-111058524D01*
X153587000Y-111179845D01*
X153333000Y-111179845D01*
X153103110Y-111058524D01*
X152955901Y-111103175D01*
X152693080Y-111228359D01*
X152459731Y-111402412D01*
X152264822Y-111618645D01*
X152195201Y-111735523D01*
X152160706Y-111670986D01*
X151975134Y-111444866D01*
X151749014Y-111259294D01*
X151491034Y-111121401D01*
X151211111Y-111036487D01*
X150992950Y-111015000D01*
X150847050Y-111015000D01*
X150628889Y-111036487D01*
X150348966Y-111121401D01*
X150090986Y-111259294D01*
X149864866Y-111444866D01*
X149679294Y-111670986D01*
X149650000Y-111725791D01*
X149620706Y-111670986D01*
X149435134Y-111444866D01*
X149209014Y-111259294D01*
X148951034Y-111121401D01*
X148671111Y-111036487D01*
X148452950Y-111015000D01*
X148307050Y-111015000D01*
X148088889Y-111036487D01*
X147808966Y-111121401D01*
X147550986Y-111259294D01*
X147324866Y-111444866D01*
X147139294Y-111670986D01*
X147110000Y-111725791D01*
X147080706Y-111670986D01*
X146895134Y-111444866D01*
X146669014Y-111259294D01*
X146600000Y-111222405D01*
X146600000Y-108212301D01*
X147234386Y-107577916D01*
X147301806Y-107584557D01*
X147254774Y-107698102D01*
X147215000Y-107898061D01*
X147215000Y-108101939D01*
X147254774Y-108301898D01*
X147332795Y-108490256D01*
X147446063Y-108659774D01*
X147590226Y-108803937D01*
X147759744Y-108917205D01*
X147948102Y-108995226D01*
X148148061Y-109035000D01*
X148351939Y-109035000D01*
X148551898Y-108995226D01*
X148740256Y-108917205D01*
X148909774Y-108803937D01*
X148953711Y-108760000D01*
X152462678Y-108760000D01*
X152500000Y-108763676D01*
X152537322Y-108760000D01*
X152537333Y-108760000D01*
X152648986Y-108749003D01*
X152792247Y-108705546D01*
X152871709Y-108663072D01*
X153237500Y-108663072D01*
X153408316Y-108646248D01*
X153572567Y-108596423D01*
X153723942Y-108515512D01*
X153856623Y-108406623D01*
X153965512Y-108273942D01*
X154046423Y-108122567D01*
X154096248Y-107958316D01*
X154113072Y-107787500D01*
X154113072Y-107212500D01*
X154096248Y-107041684D01*
X154046423Y-106877433D01*
X153965512Y-106726058D01*
X153945901Y-106702161D01*
X154005537Y-106629494D01*
X154064502Y-106519180D01*
X154100812Y-106399482D01*
X154113072Y-106275000D01*
X154110000Y-106035750D01*
X153951250Y-105877000D01*
X153127000Y-105877000D01*
X153127000Y-105897000D01*
X152873000Y-105897000D01*
X152873000Y-105877000D01*
X152048750Y-105877000D01*
X151890000Y-106035750D01*
X151886928Y-106275000D01*
X151899188Y-106399482D01*
X151935498Y-106519180D01*
X151994463Y-106629494D01*
X152054099Y-106702161D01*
X152034488Y-106726058D01*
X151953577Y-106877433D01*
X151903752Y-107041684D01*
X151886928Y-107212500D01*
X151886928Y-107240000D01*
X149277510Y-107240000D01*
X149302002Y-107194180D01*
X149317282Y-107143810D01*
X149495240Y-107188562D01*
X149780017Y-107202818D01*
X150062102Y-107161242D01*
X150330657Y-107065434D01*
X150458926Y-106996873D01*
X150532022Y-106751627D01*
X149710000Y-105929605D01*
X149695858Y-105943748D01*
X149516253Y-105764143D01*
X149530395Y-105750000D01*
X149889605Y-105750000D01*
X150711627Y-106572022D01*
X150956873Y-106498926D01*
X151079023Y-106241283D01*
X151148562Y-105964760D01*
X151162818Y-105679983D01*
X151121242Y-105397898D01*
X151059560Y-105225000D01*
X151886928Y-105225000D01*
X151890000Y-105464250D01*
X152048750Y-105623000D01*
X152873000Y-105623000D01*
X152873000Y-104748750D01*
X153127000Y-104748750D01*
X153127000Y-105623000D01*
X153951250Y-105623000D01*
X154110000Y-105464250D01*
X154113072Y-105225000D01*
X154100812Y-105100518D01*
X154064502Y-104980820D01*
X154005537Y-104870506D01*
X153926185Y-104773815D01*
X153829494Y-104694463D01*
X153719180Y-104635498D01*
X153599482Y-104599188D01*
X153475000Y-104586928D01*
X153285750Y-104590000D01*
X153127000Y-104748750D01*
X152873000Y-104748750D01*
X152714250Y-104590000D01*
X152525000Y-104586928D01*
X152400518Y-104599188D01*
X152280820Y-104635498D01*
X152170506Y-104694463D01*
X152073815Y-104773815D01*
X151994463Y-104870506D01*
X151935498Y-104980820D01*
X151899188Y-105100518D01*
X151886928Y-105225000D01*
X151059560Y-105225000D01*
X151025434Y-105129343D01*
X150956873Y-105001074D01*
X150711627Y-104927978D01*
X149889605Y-105750000D01*
X149530395Y-105750000D01*
X149516253Y-105735858D01*
X149695858Y-105556253D01*
X149710000Y-105570395D01*
X150532022Y-104748373D01*
X150458926Y-104503127D01*
X150290456Y-104423255D01*
X150303937Y-104409774D01*
X150417205Y-104240256D01*
X150495226Y-104051898D01*
X150535000Y-103851939D01*
X150535000Y-103648061D01*
X150495226Y-103448102D01*
X150417205Y-103259744D01*
X150303937Y-103090226D01*
X150159774Y-102946063D01*
X150034211Y-102862165D01*
X150149482Y-102850812D01*
X150269180Y-102814502D01*
X150379494Y-102755537D01*
X150476185Y-102676185D01*
X150555537Y-102579494D01*
X150614502Y-102469180D01*
X150650812Y-102349482D01*
X150663072Y-102225000D01*
X150660000Y-102035750D01*
X150501250Y-101877000D01*
X149627000Y-101877000D01*
X149627000Y-101897000D01*
X149373000Y-101897000D01*
X149373000Y-101877000D01*
X149353000Y-101877000D01*
X149353000Y-101623000D01*
X149373000Y-101623000D01*
X149373000Y-100798750D01*
X149627000Y-100798750D01*
X149627000Y-101623000D01*
X150501250Y-101623000D01*
X150660000Y-101464250D01*
X150663072Y-101275000D01*
X150650812Y-101150518D01*
X150614502Y-101030820D01*
X150555537Y-100920506D01*
X150476185Y-100823815D01*
X150379494Y-100744463D01*
X150269180Y-100685498D01*
X150149482Y-100649188D01*
X150025000Y-100636928D01*
X149785750Y-100640000D01*
X149627000Y-100798750D01*
X149373000Y-100798750D01*
X149214250Y-100640000D01*
X148975000Y-100636928D01*
X148850518Y-100649188D01*
X148730820Y-100685498D01*
X148620506Y-100744463D01*
X148547839Y-100804099D01*
X148523942Y-100784488D01*
X148510000Y-100777036D01*
X148510000Y-100472964D01*
X148523942Y-100465512D01*
X148547839Y-100445901D01*
X148620506Y-100505537D01*
X148730820Y-100564502D01*
X148850518Y-100600812D01*
X148975000Y-100613072D01*
X149214250Y-100610000D01*
X149373000Y-100451250D01*
X149373000Y-99627000D01*
X149627000Y-99627000D01*
X149627000Y-100451250D01*
X149785750Y-100610000D01*
X150025000Y-100613072D01*
X150149482Y-100600812D01*
X150269180Y-100564502D01*
X150379494Y-100505537D01*
X150476185Y-100426185D01*
X150555537Y-100329494D01*
X150614502Y-100219180D01*
X150650812Y-100099482D01*
X150663072Y-99975000D01*
X150660000Y-99785750D01*
X150501250Y-99627000D01*
X149627000Y-99627000D01*
X149373000Y-99627000D01*
X149353000Y-99627000D01*
X149353000Y-99373000D01*
X149373000Y-99373000D01*
X149373000Y-99353000D01*
X149627000Y-99353000D01*
X149627000Y-99373000D01*
X150501250Y-99373000D01*
X150660000Y-99214250D01*
X150663072Y-99025000D01*
X150650812Y-98900518D01*
X150614502Y-98780820D01*
X150555537Y-98670506D01*
X150476185Y-98573815D01*
X150398426Y-98510000D01*
X152862897Y-98510000D01*
X154598558Y-100245663D01*
X154569725Y-100390616D01*
X154569725Y-100663438D01*
X154622950Y-100931016D01*
X154727354Y-101183070D01*
X154878926Y-101409913D01*
X155071839Y-101602826D01*
X155298682Y-101754398D01*
X155401598Y-101797027D01*
X155298682Y-101839656D01*
X155071839Y-101991228D01*
X154878926Y-102184141D01*
X154727354Y-102410984D01*
X154622950Y-102663038D01*
X154569725Y-102930616D01*
X154569725Y-103203438D01*
X154622950Y-103471016D01*
X154727354Y-103723070D01*
X154878926Y-103949913D01*
X155071839Y-104142826D01*
X155298682Y-104294398D01*
X155401598Y-104337027D01*
X155298682Y-104379656D01*
X155071839Y-104531228D01*
X154878926Y-104724141D01*
X154727354Y-104950984D01*
X154622950Y-105203038D01*
X154569725Y-105470616D01*
X154569725Y-105743438D01*
X154622950Y-106011016D01*
X154727354Y-106263070D01*
X154878926Y-106489913D01*
X155071839Y-106682826D01*
X155298682Y-106834398D01*
X155550736Y-106938802D01*
X155818314Y-106992027D01*
X156091136Y-106992027D01*
X156358714Y-106938802D01*
X156610768Y-106834398D01*
X156837611Y-106682826D01*
X157030524Y-106489913D01*
X157182096Y-106263070D01*
X157286500Y-106011016D01*
X157339725Y-105743438D01*
X157339725Y-105470616D01*
X157286500Y-105203038D01*
X157182096Y-104950984D01*
X157030524Y-104724141D01*
X156837611Y-104531228D01*
X156610768Y-104379656D01*
X156507852Y-104337027D01*
X156610768Y-104294398D01*
X156837611Y-104142826D01*
X157030524Y-103949913D01*
X157182096Y-103723070D01*
X157286500Y-103471016D01*
X157339725Y-103203438D01*
X157339725Y-102986828D01*
X161789149Y-107436253D01*
X161789149Y-109018520D01*
X161801409Y-109143002D01*
X161837719Y-109262700D01*
X161896684Y-109373014D01*
X161976036Y-109469705D01*
X162072727Y-109549057D01*
X162183041Y-109608022D01*
X162302739Y-109644332D01*
X162427221Y-109656592D01*
X164127221Y-109656592D01*
X164251703Y-109644332D01*
X164371401Y-109608022D01*
X164481715Y-109549057D01*
X164578406Y-109469705D01*
X164657758Y-109373014D01*
X164716723Y-109262700D01*
X164753033Y-109143002D01*
X164765293Y-109018520D01*
X164765293Y-108937220D01*
X170741637Y-108937220D01*
X170741637Y-109002720D01*
X170753897Y-109127202D01*
X170790207Y-109246900D01*
X170849172Y-109357214D01*
X170928524Y-109453905D01*
X171025215Y-109533257D01*
X171135529Y-109592222D01*
X171255227Y-109628532D01*
X171379709Y-109640792D01*
X173030709Y-109640792D01*
X173155191Y-109628532D01*
X173274889Y-109592222D01*
X173385203Y-109533257D01*
X173481894Y-109453905D01*
X173561246Y-109357214D01*
X173620211Y-109246900D01*
X173638038Y-109188129D01*
X173913905Y-109188129D01*
X173988576Y-109434701D01*
X174248437Y-109558151D01*
X174527389Y-109628533D01*
X174814711Y-109643141D01*
X175099363Y-109601414D01*
X175370405Y-109504957D01*
X175501842Y-109434701D01*
X175576513Y-109188129D01*
X174745209Y-108356825D01*
X173913905Y-109188129D01*
X173638038Y-109188129D01*
X173656521Y-109127202D01*
X173668781Y-109002720D01*
X173668781Y-108988682D01*
X173734300Y-109008524D01*
X174565604Y-108177220D01*
X174924814Y-108177220D01*
X175756118Y-109008524D01*
X176002690Y-108933853D01*
X176126140Y-108673992D01*
X176196522Y-108395040D01*
X176211130Y-108107718D01*
X176169403Y-107823066D01*
X176072946Y-107552024D01*
X176002690Y-107420587D01*
X175756118Y-107345916D01*
X174924814Y-108177220D01*
X174565604Y-108177220D01*
X174551462Y-108163078D01*
X174731067Y-107983473D01*
X174745209Y-107997615D01*
X175576513Y-107166311D01*
X175501842Y-106919739D01*
X175241981Y-106796289D01*
X174963029Y-106725907D01*
X174847775Y-106720047D01*
X176643031Y-104924792D01*
X176888209Y-104924792D01*
X177012691Y-104912532D01*
X177132389Y-104876222D01*
X177242703Y-104817257D01*
X177253209Y-104808635D01*
X177263715Y-104817257D01*
X177374029Y-104876222D01*
X177493727Y-104912532D01*
X177618209Y-104924792D01*
X177982595Y-104924792D01*
X177983709Y-105097470D01*
X178142459Y-105256220D01*
X180650709Y-105256220D01*
X180650709Y-105236220D01*
X180904709Y-105236220D01*
X180904709Y-105256220D01*
X180924709Y-105256220D01*
X180924709Y-105510220D01*
X180904709Y-105510220D01*
X180904709Y-105530220D01*
X180777709Y-105530220D01*
X180777709Y-105468720D01*
X180618959Y-105309970D01*
X179804709Y-105306898D01*
X179680227Y-105319158D01*
X179560529Y-105355468D01*
X179450215Y-105414433D01*
X179353524Y-105493785D01*
X179340036Y-105510220D01*
X178142459Y-105510220D01*
X177983709Y-105668970D01*
X177980637Y-106145220D01*
X177992897Y-106269702D01*
X178029207Y-106389400D01*
X178088172Y-106499714D01*
X178167524Y-106596405D01*
X178257375Y-106670144D01*
X178172293Y-106653220D01*
X177922125Y-106653220D01*
X177676764Y-106702025D01*
X177445638Y-106797761D01*
X177237631Y-106936747D01*
X177060736Y-107113642D01*
X176921750Y-107321649D01*
X176826014Y-107552775D01*
X176777209Y-107798136D01*
X176777209Y-108048304D01*
X176826014Y-108293665D01*
X176921750Y-108524791D01*
X177060736Y-108732798D01*
X177237631Y-108909693D01*
X177445638Y-109048679D01*
X177676764Y-109144415D01*
X177922125Y-109193220D01*
X178172293Y-109193220D01*
X178257375Y-109176296D01*
X178167524Y-109250035D01*
X178088172Y-109346726D01*
X178029207Y-109457040D01*
X177992897Y-109576738D01*
X177980637Y-109701220D01*
X177983709Y-110177470D01*
X178142459Y-110336220D01*
X179340036Y-110336220D01*
X179353524Y-110352655D01*
X179450215Y-110432007D01*
X179560529Y-110490972D01*
X179680227Y-110527282D01*
X179804709Y-110539542D01*
X180618959Y-110536470D01*
X180777709Y-110377720D01*
X180777709Y-110316220D01*
X180904709Y-110316220D01*
X180904709Y-110336220D01*
X180924709Y-110336220D01*
X180924709Y-110590220D01*
X180904709Y-110590220D01*
X180904709Y-111701470D01*
X181063459Y-111860220D01*
X182936709Y-111863292D01*
X183015000Y-111855581D01*
X183015000Y-117265000D01*
X129985000Y-117265000D01*
X129985000Y-68485000D01*
X183015001Y-68485000D01*
X183015001Y-85661609D01*
X183015001Y-85661609D01*
G37*
X183015001Y-85661609D02*
X183012691Y-85660908D01*
X182888209Y-85648648D01*
X182538959Y-85651720D01*
X182380209Y-85810470D01*
X182380209Y-87159720D01*
X182400209Y-87159720D01*
X182400209Y-87413720D01*
X182380209Y-87413720D01*
X182380209Y-88762970D01*
X182538959Y-88921720D01*
X182888209Y-88924792D01*
X183012691Y-88912532D01*
X183015001Y-88911831D01*
X183015000Y-101663609D01*
X183012691Y-101662908D01*
X182888209Y-101650648D01*
X181618209Y-101650648D01*
X181493727Y-101662908D01*
X181374029Y-101699218D01*
X181300709Y-101738409D01*
X181227389Y-101699218D01*
X181107691Y-101662908D01*
X180983209Y-101650648D01*
X180670515Y-101650648D01*
X180573310Y-101627594D01*
X180408309Y-101621566D01*
X180245304Y-101647844D01*
X180237768Y-101650648D01*
X179713209Y-101650648D01*
X179588727Y-101662908D01*
X179469029Y-101699218D01*
X179358715Y-101758183D01*
X179301928Y-101804787D01*
X179242703Y-101756183D01*
X179132389Y-101697218D01*
X179012691Y-101660908D01*
X178888209Y-101648648D01*
X178127007Y-101648648D01*
X178091830Y-101637636D01*
X177927664Y-101619999D01*
X177763212Y-101634727D01*
X177715815Y-101648648D01*
X177618209Y-101648648D01*
X177493727Y-101660908D01*
X177374029Y-101697218D01*
X177263715Y-101756183D01*
X177253209Y-101764805D01*
X177242703Y-101756183D01*
X177132389Y-101697218D01*
X177012691Y-101660908D01*
X176888209Y-101648648D01*
X175618209Y-101648648D01*
X175493727Y-101660908D01*
X175374029Y-101697218D01*
X175263715Y-101756183D01*
X175167024Y-101835535D01*
X175087672Y-101932226D01*
X175028707Y-102042540D01*
X174992397Y-102162238D01*
X174980137Y-102286720D01*
X174980137Y-104216898D01*
X172483388Y-106713648D01*
X171379709Y-106713648D01*
X171255227Y-106725908D01*
X171135529Y-106762218D01*
X171025215Y-106821183D01*
X170928524Y-106900535D01*
X170849172Y-106997226D01*
X170790207Y-107107540D01*
X170753897Y-107227238D01*
X170741637Y-107351720D01*
X170741637Y-107417220D01*
X164765293Y-107417220D01*
X164765293Y-107318520D01*
X164753033Y-107194038D01*
X164716723Y-107074340D01*
X164657758Y-106964026D01*
X164578406Y-106867335D01*
X164481715Y-106787983D01*
X164371401Y-106729018D01*
X164302534Y-106708127D01*
X164332355Y-106683654D01*
X164517927Y-106457534D01*
X164655820Y-106199554D01*
X164740734Y-105919631D01*
X164769406Y-105628520D01*
X164740734Y-105337409D01*
X164655820Y-105057486D01*
X164517927Y-104799506D01*
X164332355Y-104573386D01*
X164106235Y-104387814D01*
X164051430Y-104358520D01*
X164106235Y-104329226D01*
X164332355Y-104143654D01*
X164517927Y-103917534D01*
X164655820Y-103659554D01*
X164664699Y-103630281D01*
X165455209Y-103630281D01*
X165455209Y-103834159D01*
X165494983Y-104034118D01*
X165573004Y-104222476D01*
X165596162Y-104257134D01*
X165639314Y-104399388D01*
X165800421Y-104700798D01*
X166017234Y-104964986D01*
X166281422Y-105181799D01*
X166582832Y-105342906D01*
X166909881Y-105442115D01*
X167164775Y-105467220D01*
X167892934Y-105467220D01*
X168147828Y-105442115D01*
X168474877Y-105342906D01*
X168776287Y-105181799D01*
X169040475Y-104964986D01*
X169107001Y-104883923D01*
X169132389Y-104876222D01*
X169242703Y-104817257D01*
X169253209Y-104808635D01*
X169263715Y-104817257D01*
X169374029Y-104876222D01*
X169493727Y-104912532D01*
X169618209Y-104924792D01*
X169967459Y-104921720D01*
X170126209Y-104762970D01*
X170126209Y-103413720D01*
X170380209Y-103413720D01*
X170380209Y-104762970D01*
X170538959Y-104921720D01*
X170888209Y-104924792D01*
X171012691Y-104912532D01*
X171132389Y-104876222D01*
X171242703Y-104817257D01*
X171339394Y-104737905D01*
X171418746Y-104641214D01*
X171477711Y-104530900D01*
X171514021Y-104411202D01*
X171526281Y-104286720D01*
X171523209Y-103572470D01*
X171364459Y-103413720D01*
X170380209Y-103413720D01*
X170126209Y-103413720D01*
X170106209Y-103413720D01*
X170106209Y-103159720D01*
X170126209Y-103159720D01*
X170126209Y-101810470D01*
X170380209Y-101810470D01*
X170380209Y-103159720D01*
X171364459Y-103159720D01*
X171523209Y-103000970D01*
X171526281Y-102286720D01*
X171514021Y-102162238D01*
X171477711Y-102042540D01*
X171418746Y-101932226D01*
X171339394Y-101835535D01*
X171242703Y-101756183D01*
X171132389Y-101697218D01*
X171012691Y-101660908D01*
X170888209Y-101648648D01*
X170538959Y-101651720D01*
X170380209Y-101810470D01*
X170126209Y-101810470D01*
X169967459Y-101651720D01*
X169618209Y-101648648D01*
X169493727Y-101660908D01*
X169374029Y-101697218D01*
X169263715Y-101756183D01*
X169253209Y-101764805D01*
X169242703Y-101756183D01*
X169132389Y-101697218D01*
X169012691Y-101660908D01*
X168888209Y-101648648D01*
X167618209Y-101648648D01*
X167493727Y-101660908D01*
X167374029Y-101697218D01*
X167263715Y-101756183D01*
X167167024Y-101835535D01*
X167087672Y-101932226D01*
X167046716Y-102008848D01*
X166909881Y-102022325D01*
X166582832Y-102121534D01*
X166281422Y-102282641D01*
X166017234Y-102499454D01*
X165800421Y-102763642D01*
X165639314Y-103065052D01*
X165596162Y-103207306D01*
X165573004Y-103241964D01*
X165494983Y-103430322D01*
X165455209Y-103630281D01*
X164664699Y-103630281D01*
X164740734Y-103379631D01*
X164769406Y-103088520D01*
X164740734Y-102797409D01*
X164655820Y-102517486D01*
X164517927Y-102259506D01*
X164332355Y-102033386D01*
X164106235Y-101847814D01*
X164041698Y-101813319D01*
X164158576Y-101743698D01*
X164374809Y-101548789D01*
X164548862Y-101315440D01*
X164674046Y-101052619D01*
X164718697Y-100905410D01*
X164597376Y-100675520D01*
X163404221Y-100675520D01*
X163404221Y-100695520D01*
X163150221Y-100695520D01*
X163150221Y-100675520D01*
X163130221Y-100675520D01*
X163130221Y-100421520D01*
X163150221Y-100421520D01*
X163150221Y-99227706D01*
X163404221Y-99227706D01*
X163404221Y-100421520D01*
X164597376Y-100421520D01*
X164718697Y-100191630D01*
X164674046Y-100044421D01*
X164548862Y-99781600D01*
X164374809Y-99548251D01*
X164158576Y-99353342D01*
X163908473Y-99204363D01*
X163634112Y-99107039D01*
X163404221Y-99227706D01*
X163150221Y-99227706D01*
X162920330Y-99107039D01*
X162645969Y-99204363D01*
X162395866Y-99353342D01*
X162179633Y-99548251D01*
X162005580Y-99781600D01*
X161880396Y-100044421D01*
X161835745Y-100191630D01*
X161957065Y-100421518D01*
X161792221Y-100421518D01*
X161792221Y-100528719D01*
X159866647Y-98603145D01*
X159866647Y-93556271D01*
X159870323Y-93518948D01*
X159866647Y-93481625D01*
X159866647Y-93481616D01*
X159855650Y-93369963D01*
X159812193Y-93226702D01*
X159793118Y-93191016D01*
X159741621Y-93094672D01*
X159670446Y-93007946D01*
X159646648Y-92978948D01*
X159617650Y-92955150D01*
X157310892Y-90648392D01*
X157339725Y-90503438D01*
X157339725Y-90230616D01*
X157286500Y-89963038D01*
X157182096Y-89710984D01*
X157030524Y-89484141D01*
X156837611Y-89291228D01*
X156610768Y-89139656D01*
X156507852Y-89097027D01*
X156610768Y-89054398D01*
X156837611Y-88902826D01*
X157030524Y-88709913D01*
X157182096Y-88483070D01*
X157286500Y-88231016D01*
X157339725Y-87963438D01*
X157339725Y-87690616D01*
X157286500Y-87423038D01*
X157182096Y-87170984D01*
X157030524Y-86944141D01*
X156837611Y-86751228D01*
X156610768Y-86599656D01*
X156507852Y-86557027D01*
X156610768Y-86514398D01*
X156837611Y-86362826D01*
X157030524Y-86169913D01*
X157182096Y-85943070D01*
X157286500Y-85691016D01*
X157339725Y-85423438D01*
X157339725Y-85150616D01*
X157286500Y-84883038D01*
X157182096Y-84630984D01*
X157030524Y-84404141D01*
X156837611Y-84211228D01*
X156610768Y-84059656D01*
X156507852Y-84017027D01*
X156610768Y-83974398D01*
X156837611Y-83822826D01*
X157030524Y-83629913D01*
X157112634Y-83507027D01*
X160651990Y-83507027D01*
X162694238Y-85549276D01*
X162694237Y-87197150D01*
X162690561Y-87234473D01*
X162694237Y-87271795D01*
X162694237Y-87271805D01*
X162705234Y-87383458D01*
X162741442Y-87502822D01*
X162748691Y-87526719D01*
X162819263Y-87658749D01*
X162855986Y-87703495D01*
X162914236Y-87774474D01*
X162943240Y-87798277D01*
X165140438Y-89995476D01*
X165164236Y-90024474D01*
X165193234Y-90048272D01*
X165279961Y-90119447D01*
X165411990Y-90190019D01*
X165555251Y-90233476D01*
X165704237Y-90248150D01*
X165741570Y-90244473D01*
X179260634Y-90244473D01*
X179297956Y-90248149D01*
X179335278Y-90244473D01*
X179335289Y-90244473D01*
X179446942Y-90233476D01*
X179590203Y-90190019D01*
X179722232Y-90119447D01*
X179837957Y-90024474D01*
X179861760Y-89995471D01*
X180764212Y-89093019D01*
X180793210Y-89069221D01*
X180888183Y-88953496D01*
X180908609Y-88915283D01*
X181012691Y-88905032D01*
X181132389Y-88868722D01*
X181242703Y-88809757D01*
X181248640Y-88804885D01*
X181263715Y-88817257D01*
X181374029Y-88876222D01*
X181493727Y-88912532D01*
X181618209Y-88924792D01*
X181967459Y-88921720D01*
X182126209Y-88762970D01*
X182126209Y-87413720D01*
X182106209Y-87413720D01*
X182106209Y-87159720D01*
X182126209Y-87159720D01*
X182126209Y-85810470D01*
X181967459Y-85651720D01*
X181618209Y-85648648D01*
X181493727Y-85660908D01*
X181374029Y-85697218D01*
X181263715Y-85756183D01*
X181257778Y-85761055D01*
X181242703Y-85748683D01*
X181132389Y-85689718D01*
X181012691Y-85653408D01*
X180888209Y-85641148D01*
X179618209Y-85641148D01*
X179493727Y-85653408D01*
X179374029Y-85689718D01*
X179263715Y-85748683D01*
X179249858Y-85760055D01*
X179242703Y-85754183D01*
X179132389Y-85695218D01*
X179012691Y-85658908D01*
X178908609Y-85648657D01*
X178888183Y-85610443D01*
X178817008Y-85523717D01*
X178793210Y-85494719D01*
X178764212Y-85470921D01*
X170449320Y-77156030D01*
X170425517Y-77127026D01*
X170309792Y-77032053D01*
X170177763Y-76961481D01*
X170034502Y-76918024D01*
X169922849Y-76907027D01*
X169922838Y-76907027D01*
X169885516Y-76903351D01*
X169848194Y-76907027D01*
X157112634Y-76907027D01*
X157030524Y-76784141D01*
X156837611Y-76591228D01*
X156610768Y-76439656D01*
X156507852Y-76397027D01*
X156610768Y-76354398D01*
X156837611Y-76202826D01*
X157030524Y-76009913D01*
X157182096Y-75783070D01*
X157286500Y-75531016D01*
X157339725Y-75263438D01*
X157339725Y-74990616D01*
X157286500Y-74723038D01*
X157182096Y-74470984D01*
X157030524Y-74244141D01*
X156837611Y-74051228D01*
X156610768Y-73899656D01*
X156507852Y-73857027D01*
X156610768Y-73814398D01*
X156837611Y-73662826D01*
X157030524Y-73469913D01*
X157182096Y-73243070D01*
X157286500Y-72991016D01*
X157339725Y-72723438D01*
X157339725Y-72529872D01*
X176515000Y-72529872D01*
X176515000Y-72970128D01*
X176600890Y-73401925D01*
X176769369Y-73808669D01*
X177013962Y-74174729D01*
X177325271Y-74486038D01*
X177691331Y-74730631D01*
X178098075Y-74899110D01*
X178529872Y-74985000D01*
X178970128Y-74985000D01*
X179401925Y-74899110D01*
X179808669Y-74730631D01*
X180174729Y-74486038D01*
X180486038Y-74174729D01*
X180730631Y-73808669D01*
X180899110Y-73401925D01*
X180985000Y-72970128D01*
X180985000Y-72529872D01*
X180899110Y-72098075D01*
X180730631Y-71691331D01*
X180486038Y-71325271D01*
X180174729Y-71013962D01*
X179808669Y-70769369D01*
X179401925Y-70600890D01*
X178970128Y-70515000D01*
X178529872Y-70515000D01*
X178098075Y-70600890D01*
X177691331Y-70769369D01*
X177325271Y-71013962D01*
X177013962Y-71325271D01*
X176769369Y-71691331D01*
X176600890Y-72098075D01*
X176515000Y-72529872D01*
X157339725Y-72529872D01*
X157339725Y-72450616D01*
X157286500Y-72183038D01*
X157182096Y-71930984D01*
X157030524Y-71704141D01*
X156837611Y-71511228D01*
X156610768Y-71359656D01*
X156358714Y-71255252D01*
X156091136Y-71202027D01*
X155818314Y-71202027D01*
X155550736Y-71255252D01*
X155298682Y-71359656D01*
X155071839Y-71511228D01*
X154878926Y-71704141D01*
X154727354Y-71930984D01*
X154622950Y-72183038D01*
X154569725Y-72450616D01*
X154569725Y-72723438D01*
X154622950Y-72991016D01*
X154727354Y-73243070D01*
X154878926Y-73469913D01*
X155071839Y-73662826D01*
X155298682Y-73814398D01*
X155401598Y-73857027D01*
X155298682Y-73899656D01*
X155071839Y-74051228D01*
X154878926Y-74244141D01*
X154727354Y-74470984D01*
X154622950Y-74723038D01*
X154569725Y-74990616D01*
X154569725Y-75263438D01*
X154622950Y-75531016D01*
X154727354Y-75783070D01*
X154878926Y-76009913D01*
X155071839Y-76202826D01*
X155298682Y-76354398D01*
X155401598Y-76397027D01*
X155298682Y-76439656D01*
X155071839Y-76591228D01*
X154878926Y-76784141D01*
X154727354Y-77010984D01*
X154622950Y-77263038D01*
X154569725Y-77530616D01*
X154569725Y-77803438D01*
X154622950Y-78071016D01*
X154727354Y-78323070D01*
X154878926Y-78549913D01*
X155071839Y-78742826D01*
X155298682Y-78894398D01*
X155401598Y-78937027D01*
X155298682Y-78979656D01*
X155071839Y-79131228D01*
X154878926Y-79324141D01*
X154727354Y-79550984D01*
X154622950Y-79803038D01*
X154569725Y-80070616D01*
X154569725Y-80343438D01*
X154622950Y-80611016D01*
X154727354Y-80863070D01*
X154878926Y-81089913D01*
X155071839Y-81282826D01*
X155298682Y-81434398D01*
X155401598Y-81477027D01*
X155298682Y-81519656D01*
X155071839Y-81671228D01*
X154878926Y-81864141D01*
X154727354Y-82090984D01*
X154622950Y-82343038D01*
X154569725Y-82610616D01*
X154569725Y-82883438D01*
X154622950Y-83151016D01*
X154727354Y-83403070D01*
X154878926Y-83629913D01*
X155071839Y-83822826D01*
X155298682Y-83974398D01*
X155401598Y-84017027D01*
X155298682Y-84059656D01*
X155071839Y-84211228D01*
X154878926Y-84404141D01*
X154727354Y-84630984D01*
X154622950Y-84883038D01*
X154569725Y-85150616D01*
X154569725Y-85423438D01*
X154622950Y-85691016D01*
X154727354Y-85943070D01*
X154878926Y-86169913D01*
X155071839Y-86362826D01*
X155298682Y-86514398D01*
X155401598Y-86557027D01*
X155298682Y-86599656D01*
X155071839Y-86751228D01*
X154878926Y-86944141D01*
X154727354Y-87170984D01*
X154622950Y-87423038D01*
X154569725Y-87690616D01*
X154569725Y-87963438D01*
X154622950Y-88231016D01*
X154727354Y-88483070D01*
X154878926Y-88709913D01*
X155071839Y-88902826D01*
X155298682Y-89054398D01*
X155401598Y-89097027D01*
X155298682Y-89139656D01*
X155071839Y-89291228D01*
X154878926Y-89484141D01*
X154727354Y-89710984D01*
X154622950Y-89963038D01*
X154569725Y-90230616D01*
X154569725Y-90503438D01*
X154622950Y-90771016D01*
X154727354Y-91023070D01*
X154878926Y-91249913D01*
X155071839Y-91442826D01*
X155298682Y-91594398D01*
X155401598Y-91637027D01*
X155298682Y-91679656D01*
X155071839Y-91831228D01*
X154878926Y-92024141D01*
X154727354Y-92250984D01*
X154622950Y-92503038D01*
X154569725Y-92770616D01*
X154569725Y-93043438D01*
X154622950Y-93311016D01*
X154727354Y-93563070D01*
X154878926Y-93789913D01*
X155071839Y-93982826D01*
X155298682Y-94134398D01*
X155401598Y-94177027D01*
X155298682Y-94219656D01*
X155071839Y-94371228D01*
X154878926Y-94564141D01*
X154727354Y-94790984D01*
X154622950Y-95043038D01*
X154569725Y-95310616D01*
X154569725Y-95583438D01*
X154622950Y-95851016D01*
X154727354Y-96103070D01*
X154878926Y-96329913D01*
X155071839Y-96522826D01*
X155298682Y-96674398D01*
X155398004Y-96715538D01*
X155355893Y-96730750D01*
X155242862Y-96791167D01*
X155177337Y-97030034D01*
X155954725Y-97807422D01*
X156732113Y-97030034D01*
X156666588Y-96791167D01*
X156508248Y-96716863D01*
X156610768Y-96674398D01*
X156837611Y-96522826D01*
X157030524Y-96329913D01*
X157182096Y-96103070D01*
X157286500Y-95851016D01*
X157339725Y-95583438D01*
X157339725Y-95366829D01*
X157944238Y-95971342D01*
X157944237Y-101018213D01*
X157940561Y-101055536D01*
X157944237Y-101092858D01*
X157944237Y-101092868D01*
X157955234Y-101204521D01*
X157992000Y-101325724D01*
X157998691Y-101347782D01*
X158069263Y-101479812D01*
X158071737Y-101482826D01*
X158164236Y-101595537D01*
X158193240Y-101619340D01*
X161836424Y-105262525D01*
X161819806Y-105317306D01*
X157310892Y-100808392D01*
X157339725Y-100663438D01*
X157339725Y-100390616D01*
X157286500Y-100123038D01*
X157182096Y-99870984D01*
X157030524Y-99644141D01*
X156837611Y-99451228D01*
X156610768Y-99299656D01*
X156511446Y-99258516D01*
X156553557Y-99243304D01*
X156666588Y-99182887D01*
X156732113Y-98944020D01*
X155954725Y-98166632D01*
X155940583Y-98180775D01*
X155760978Y-98001170D01*
X155775120Y-97987027D01*
X156134330Y-97987027D01*
X156911718Y-98764415D01*
X157150585Y-98698890D01*
X157266485Y-98451911D01*
X157331975Y-98187067D01*
X157344537Y-97914535D01*
X157303690Y-97644789D01*
X157211002Y-97388195D01*
X157150585Y-97275164D01*
X156911718Y-97209639D01*
X156134330Y-97987027D01*
X155775120Y-97987027D01*
X154997732Y-97209639D01*
X154758865Y-97275164D01*
X154642965Y-97522143D01*
X154577475Y-97786987D01*
X154564913Y-98059519D01*
X154565429Y-98062930D01*
X153741502Y-97239002D01*
X153717699Y-97209999D01*
X153601974Y-97115026D01*
X153469945Y-97044454D01*
X153326684Y-97000997D01*
X153215031Y-96990000D01*
X153215020Y-96990000D01*
X153177698Y-96986324D01*
X153140376Y-96990000D01*
X149537325Y-96990000D01*
X149500000Y-96986324D01*
X149462675Y-96990000D01*
X149462667Y-96990000D01*
X149351014Y-97000997D01*
X149207753Y-97044454D01*
X149075724Y-97115026D01*
X148959999Y-97209999D01*
X148936201Y-97238997D01*
X147788271Y-98386928D01*
X147462500Y-98386928D01*
X147291684Y-98403752D01*
X147127433Y-98453577D01*
X146976058Y-98534488D01*
X146843377Y-98643377D01*
X146734488Y-98776058D01*
X146653577Y-98927433D01*
X146603752Y-99091684D01*
X146586928Y-99262500D01*
X146586928Y-99737500D01*
X146603752Y-99908316D01*
X146653577Y-100072567D01*
X146734488Y-100223942D01*
X146843377Y-100356623D01*
X146976058Y-100465512D01*
X146990000Y-100472964D01*
X146990001Y-100777036D01*
X146976058Y-100784488D01*
X146843377Y-100893377D01*
X146734488Y-101026058D01*
X146653577Y-101177433D01*
X146603752Y-101341684D01*
X146586928Y-101512500D01*
X146586928Y-101987500D01*
X146603752Y-102158316D01*
X146653577Y-102322567D01*
X146734488Y-102473942D01*
X146843377Y-102606623D01*
X146976058Y-102715512D01*
X146990000Y-102722964D01*
X146990001Y-104015724D01*
X146983006Y-104019463D01*
X146886315Y-104098815D01*
X146806963Y-104195506D01*
X146747998Y-104305820D01*
X146711688Y-104425518D01*
X146699428Y-104550000D01*
X146699428Y-104990000D01*
X144413072Y-104990000D01*
X144413072Y-104762500D01*
X144396248Y-104591684D01*
X144346423Y-104427433D01*
X144265512Y-104276058D01*
X144156623Y-104143377D01*
X144023942Y-104034488D01*
X143872567Y-103953577D01*
X143708316Y-103903752D01*
X143537500Y-103886928D01*
X142962500Y-103886928D01*
X142791684Y-103903752D01*
X142627433Y-103953577D01*
X142476058Y-104034488D01*
X142375000Y-104117425D01*
X142273942Y-104034488D01*
X142122567Y-103953577D01*
X141958316Y-103903752D01*
X141787500Y-103886928D01*
X141461730Y-103886928D01*
X140313804Y-102739003D01*
X140290001Y-102709999D01*
X140260997Y-102686196D01*
X140010000Y-102435199D01*
X140010000Y-92529872D01*
X141515000Y-92529872D01*
X141515000Y-92970128D01*
X141600890Y-93401925D01*
X141769369Y-93808669D01*
X142013962Y-94174729D01*
X142325271Y-94486038D01*
X142691331Y-94730631D01*
X143098075Y-94899110D01*
X143529872Y-94985000D01*
X143970128Y-94985000D01*
X144401925Y-94899110D01*
X144808669Y-94730631D01*
X145174729Y-94486038D01*
X145486038Y-94174729D01*
X145730631Y-93808669D01*
X145899110Y-93401925D01*
X145985000Y-92970128D01*
X145985000Y-92529872D01*
X145899110Y-92098075D01*
X145730631Y-91691331D01*
X145486038Y-91325271D01*
X145174729Y-91013962D01*
X144808669Y-90769369D01*
X144401925Y-90600890D01*
X143970128Y-90515000D01*
X143529872Y-90515000D01*
X143098075Y-90600890D01*
X142691331Y-90769369D01*
X142325271Y-91013962D01*
X142013962Y-91325271D01*
X141769369Y-91691331D01*
X141600890Y-92098075D01*
X141515000Y-92529872D01*
X140010000Y-92529872D01*
X140010000Y-91439624D01*
X140013676Y-91402301D01*
X140010000Y-91364979D01*
X140010000Y-91364969D01*
X139999003Y-91253316D01*
X139955546Y-91110055D01*
X139909051Y-91023070D01*
X139884974Y-90978025D01*
X139813799Y-90891299D01*
X139790001Y-90862301D01*
X139761003Y-90838503D01*
X136910892Y-87988392D01*
X136939725Y-87843438D01*
X136939725Y-87570616D01*
X136886500Y-87303038D01*
X136782096Y-87050984D01*
X136630524Y-86824141D01*
X136437611Y-86631228D01*
X136210768Y-86479656D01*
X136107852Y-86437027D01*
X136210768Y-86394398D01*
X136437611Y-86242826D01*
X136630524Y-86049913D01*
X136782096Y-85823070D01*
X136886500Y-85571016D01*
X136939725Y-85303438D01*
X136939725Y-85030616D01*
X136886500Y-84763038D01*
X136782096Y-84510984D01*
X136630524Y-84284141D01*
X136437611Y-84091228D01*
X136210768Y-83939656D01*
X136107852Y-83897027D01*
X136210768Y-83854398D01*
X136437611Y-83702826D01*
X136630524Y-83509913D01*
X136782096Y-83283070D01*
X136886500Y-83031016D01*
X136939725Y-82763438D01*
X136939725Y-82490616D01*
X136886500Y-82223038D01*
X136782096Y-81970984D01*
X136630524Y-81744141D01*
X136437611Y-81551228D01*
X136210768Y-81399656D01*
X136107852Y-81357027D01*
X136210768Y-81314398D01*
X136437611Y-81162826D01*
X136630524Y-80969913D01*
X136782096Y-80743070D01*
X136886500Y-80491016D01*
X136939725Y-80223438D01*
X136939725Y-79950616D01*
X136886500Y-79683038D01*
X136782096Y-79430984D01*
X136630524Y-79204141D01*
X136437611Y-79011228D01*
X136210768Y-78859656D01*
X136107852Y-78817027D01*
X136210768Y-78774398D01*
X136437611Y-78622826D01*
X136630524Y-78429913D01*
X136782096Y-78203070D01*
X136886500Y-77951016D01*
X136939725Y-77683438D01*
X136939725Y-77410616D01*
X136886500Y-77143038D01*
X136782096Y-76890984D01*
X136630524Y-76664141D01*
X136437611Y-76471228D01*
X136210768Y-76319656D01*
X136107852Y-76277027D01*
X136210768Y-76234398D01*
X136437611Y-76082826D01*
X136630524Y-75889913D01*
X136782096Y-75663070D01*
X136886500Y-75411016D01*
X136939725Y-75143438D01*
X136939725Y-74870616D01*
X136886500Y-74603038D01*
X136782096Y-74350984D01*
X136630524Y-74124141D01*
X136437611Y-73931228D01*
X136210768Y-73779656D01*
X136107852Y-73737027D01*
X136210768Y-73694398D01*
X136437611Y-73542826D01*
X136630524Y-73349913D01*
X136782096Y-73123070D01*
X136886500Y-72871016D01*
X136939725Y-72603438D01*
X136939725Y-72330616D01*
X136886500Y-72063038D01*
X136782096Y-71810984D01*
X136630524Y-71584141D01*
X136437611Y-71391228D01*
X136210768Y-71239656D01*
X135958714Y-71135252D01*
X135691136Y-71082027D01*
X135418314Y-71082027D01*
X135150736Y-71135252D01*
X134898682Y-71239656D01*
X134671839Y-71391228D01*
X134478926Y-71584141D01*
X134327354Y-71810984D01*
X134222950Y-72063038D01*
X134169725Y-72330616D01*
X134169725Y-72603438D01*
X134222950Y-72871016D01*
X134327354Y-73123070D01*
X134478926Y-73349913D01*
X134671839Y-73542826D01*
X134898682Y-73694398D01*
X135001598Y-73737027D01*
X134898682Y-73779656D01*
X134671839Y-73931228D01*
X134478926Y-74124141D01*
X134327354Y-74350984D01*
X134222950Y-74603038D01*
X134169725Y-74870616D01*
X134169725Y-75143438D01*
X134222950Y-75411016D01*
X134327354Y-75663070D01*
X134478926Y-75889913D01*
X134671839Y-76082826D01*
X134898682Y-76234398D01*
X135001598Y-76277027D01*
X134898682Y-76319656D01*
X134671839Y-76471228D01*
X134478926Y-76664141D01*
X134327354Y-76890984D01*
X134222950Y-77143038D01*
X134169725Y-77410616D01*
X134169725Y-77683438D01*
X134198558Y-77828392D01*
X131238998Y-80787953D01*
X131210000Y-80811751D01*
X131186202Y-80840749D01*
X131186201Y-80840750D01*
X131115026Y-80927476D01*
X131044454Y-81059506D01*
X131000998Y-81202767D01*
X130986324Y-81351752D01*
X130990001Y-81389084D01*
X130990000Y-84546289D01*
X130946063Y-84590226D01*
X130832795Y-84759744D01*
X130754774Y-84948102D01*
X130715000Y-85148061D01*
X130715000Y-85351939D01*
X130754774Y-85551898D01*
X130832795Y-85740256D01*
X130946063Y-85909774D01*
X131090226Y-86053937D01*
X131259744Y-86167205D01*
X131448102Y-86245226D01*
X131648061Y-86285000D01*
X131851939Y-86285000D01*
X132051898Y-86245226D01*
X132240256Y-86167205D01*
X132409774Y-86053937D01*
X132553937Y-85909774D01*
X132667205Y-85740256D01*
X132745226Y-85551898D01*
X132785000Y-85351939D01*
X132785000Y-85148061D01*
X132745226Y-84948102D01*
X132667205Y-84759744D01*
X132553937Y-84590226D01*
X132510000Y-84546289D01*
X132510000Y-81666553D01*
X134169725Y-80006829D01*
X134169725Y-80223438D01*
X134222950Y-80491016D01*
X134327354Y-80743070D01*
X134478926Y-80969913D01*
X134671839Y-81162826D01*
X134898682Y-81314398D01*
X135001598Y-81357027D01*
X134898682Y-81399656D01*
X134671839Y-81551228D01*
X134478926Y-81744141D01*
X134327354Y-81970984D01*
X134222950Y-82223038D01*
X134169725Y-82490616D01*
X134169725Y-82763438D01*
X134222950Y-83031016D01*
X134327354Y-83283070D01*
X134478926Y-83509913D01*
X134671839Y-83702826D01*
X134898682Y-83854398D01*
X135001598Y-83897027D01*
X134898682Y-83939656D01*
X134671839Y-84091228D01*
X134478926Y-84284141D01*
X134327354Y-84510984D01*
X134222950Y-84763038D01*
X134169725Y-85030616D01*
X134169725Y-85303438D01*
X134222950Y-85571016D01*
X134327354Y-85823070D01*
X134478926Y-86049913D01*
X134671839Y-86242826D01*
X134898682Y-86394398D01*
X135001598Y-86437027D01*
X134898682Y-86479656D01*
X134671839Y-86631228D01*
X134478926Y-86824141D01*
X134327354Y-87050984D01*
X134222950Y-87303038D01*
X134169725Y-87570616D01*
X134169725Y-87843438D01*
X134222950Y-88111016D01*
X134327354Y-88363070D01*
X134478926Y-88589913D01*
X134671839Y-88782826D01*
X134898682Y-88934398D01*
X135001598Y-88977027D01*
X134898682Y-89019656D01*
X134671839Y-89171228D01*
X134478926Y-89364141D01*
X134327354Y-89590984D01*
X134222950Y-89843038D01*
X134169725Y-90110616D01*
X134169725Y-90383438D01*
X134222950Y-90651016D01*
X134327354Y-90903070D01*
X134478926Y-91129913D01*
X134671839Y-91322826D01*
X134898682Y-91474398D01*
X135001598Y-91517027D01*
X134898682Y-91559656D01*
X134671839Y-91711228D01*
X134478926Y-91904141D01*
X134327354Y-92130984D01*
X134222950Y-92383038D01*
X134169725Y-92650616D01*
X134169725Y-92923438D01*
X134222950Y-93191016D01*
X134327354Y-93443070D01*
X134478926Y-93669913D01*
X134671839Y-93862826D01*
X134898682Y-94014398D01*
X135001598Y-94057027D01*
X134898682Y-94099656D01*
X134671839Y-94251228D01*
X134478926Y-94444141D01*
X134327354Y-94670984D01*
X134222950Y-94923038D01*
X134169725Y-95190616D01*
X134169725Y-95463438D01*
X134222950Y-95731016D01*
X134327354Y-95983070D01*
X134478926Y-96209913D01*
X134671839Y-96402826D01*
X134898682Y-96554398D01*
X135001598Y-96597027D01*
X134898682Y-96639656D01*
X134671839Y-96791228D01*
X134478926Y-96984141D01*
X134327354Y-97210984D01*
X134222950Y-97463038D01*
X134169725Y-97730616D01*
X134169725Y-98003438D01*
X134222950Y-98271016D01*
X134327354Y-98523070D01*
X134478926Y-98749913D01*
X134671839Y-98942826D01*
X134898682Y-99094398D01*
X135001598Y-99137027D01*
X134898682Y-99179656D01*
X134671839Y-99331228D01*
X134478926Y-99524141D01*
X134327354Y-99750984D01*
X134222950Y-100003038D01*
X134169725Y-100270616D01*
X134169725Y-100543438D01*
X134222950Y-100811016D01*
X134327354Y-101063070D01*
X134478926Y-101289913D01*
X134671839Y-101482826D01*
X134898682Y-101634398D01*
X135001598Y-101677027D01*
X134898682Y-101719656D01*
X134671839Y-101871228D01*
X134478926Y-102064141D01*
X134327354Y-102290984D01*
X134222950Y-102543038D01*
X134169725Y-102810616D01*
X134169725Y-103083438D01*
X134222950Y-103351016D01*
X134327354Y-103603070D01*
X134478926Y-103829913D01*
X134671839Y-104022826D01*
X134898682Y-104174398D01*
X135001598Y-104217027D01*
X134898682Y-104259656D01*
X134671839Y-104411228D01*
X134478926Y-104604141D01*
X134327354Y-104830984D01*
X134222950Y-105083038D01*
X134169725Y-105350616D01*
X134169725Y-105623438D01*
X134222950Y-105891016D01*
X134327354Y-106143070D01*
X134478926Y-106369913D01*
X134671839Y-106562826D01*
X134898682Y-106714398D01*
X135150736Y-106818802D01*
X135418314Y-106872027D01*
X135691136Y-106872027D01*
X135958714Y-106818802D01*
X136210768Y-106714398D01*
X136437611Y-106562826D01*
X136630524Y-106369913D01*
X136782096Y-106143070D01*
X136886500Y-105891016D01*
X136939725Y-105623438D01*
X136939725Y-105350616D01*
X136886500Y-105083038D01*
X136782096Y-104830984D01*
X136630524Y-104604141D01*
X136437611Y-104411228D01*
X136210768Y-104259656D01*
X136107852Y-104217027D01*
X136210768Y-104174398D01*
X136437611Y-104022826D01*
X136630524Y-103829913D01*
X136782096Y-103603070D01*
X136886500Y-103351016D01*
X136939725Y-103083438D01*
X136939725Y-102810616D01*
X136886500Y-102543038D01*
X136782096Y-102290984D01*
X136630524Y-102064141D01*
X136437611Y-101871228D01*
X136210768Y-101719656D01*
X136107852Y-101677027D01*
X136210768Y-101634398D01*
X136437611Y-101482826D01*
X136630524Y-101289913D01*
X136782096Y-101063070D01*
X136886500Y-100811016D01*
X136939725Y-100543438D01*
X136939725Y-100270616D01*
X136886500Y-100003038D01*
X136782096Y-99750984D01*
X136630524Y-99524141D01*
X136437611Y-99331228D01*
X136210768Y-99179656D01*
X136107852Y-99137027D01*
X136210768Y-99094398D01*
X136437611Y-98942826D01*
X136630524Y-98749913D01*
X136782096Y-98523070D01*
X136886500Y-98271016D01*
X136939725Y-98003438D01*
X136939725Y-97730616D01*
X136886500Y-97463038D01*
X136782096Y-97210984D01*
X136630524Y-96984141D01*
X136437611Y-96791228D01*
X136210768Y-96639656D01*
X136107852Y-96597027D01*
X136210768Y-96554398D01*
X136437611Y-96402826D01*
X136630524Y-96209913D01*
X136782096Y-95983070D01*
X136886500Y-95731016D01*
X136939725Y-95463438D01*
X136939725Y-95190616D01*
X136886500Y-94923038D01*
X136782096Y-94670984D01*
X136630524Y-94444141D01*
X136437611Y-94251228D01*
X136210768Y-94099656D01*
X136107852Y-94057027D01*
X136210768Y-94014398D01*
X136437611Y-93862826D01*
X136630524Y-93669913D01*
X136782096Y-93443070D01*
X136886500Y-93191016D01*
X136939725Y-92923438D01*
X136939725Y-92650616D01*
X136886500Y-92383038D01*
X136782096Y-92130984D01*
X136630524Y-91904141D01*
X136437611Y-91711228D01*
X136210768Y-91559656D01*
X136107852Y-91517027D01*
X136210768Y-91474398D01*
X136437611Y-91322826D01*
X136630524Y-91129913D01*
X136782096Y-90903070D01*
X136886500Y-90651016D01*
X136939725Y-90383438D01*
X136939725Y-90166829D01*
X138490001Y-91717105D01*
X138490000Y-102712678D01*
X138486324Y-102750000D01*
X138490000Y-102787322D01*
X138490000Y-102787332D01*
X138490001Y-102787342D01*
X138490000Y-103712665D01*
X138490000Y-103712678D01*
X138486324Y-103750000D01*
X138490000Y-103787322D01*
X138490000Y-104037332D01*
X138490001Y-104037342D01*
X138490000Y-114212678D01*
X138486324Y-114250000D01*
X138490000Y-114287322D01*
X138490000Y-114287332D01*
X138500997Y-114398985D01*
X138544454Y-114542246D01*
X138615026Y-114674276D01*
X138654871Y-114722826D01*
X138709999Y-114790001D01*
X138739002Y-114813804D01*
X139686201Y-115761003D01*
X139709999Y-115790001D01*
X139738997Y-115813799D01*
X139825724Y-115884974D01*
X139957753Y-115955546D01*
X140101014Y-115999003D01*
X140250000Y-116013677D01*
X140287333Y-116010000D01*
X146794759Y-116010000D01*
X146832081Y-116013676D01*
X146869403Y-116010000D01*
X146869414Y-116010000D01*
X146981067Y-115999003D01*
X147124328Y-115955546D01*
X147256357Y-115884974D01*
X147372082Y-115790001D01*
X147395885Y-115760997D01*
X148891003Y-114265880D01*
X148920001Y-114242082D01*
X148946332Y-114209998D01*
X149014974Y-114126358D01*
X149085546Y-113994328D01*
X149102177Y-113939502D01*
X149129003Y-113851067D01*
X149136031Y-113779716D01*
X149209014Y-113740706D01*
X149435134Y-113555134D01*
X149620706Y-113329014D01*
X149650000Y-113274209D01*
X149679294Y-113329014D01*
X149864866Y-113555134D01*
X150090986Y-113740706D01*
X150348966Y-113878599D01*
X150628889Y-113963513D01*
X150847050Y-113985000D01*
X150992950Y-113985000D01*
X151211111Y-113963513D01*
X151491034Y-113878599D01*
X151749014Y-113740706D01*
X151975134Y-113555134D01*
X152160706Y-113329014D01*
X152195201Y-113264477D01*
X152264822Y-113381355D01*
X152459731Y-113597588D01*
X152693080Y-113771641D01*
X152955901Y-113896825D01*
X153103110Y-113941476D01*
X153333000Y-113820155D01*
X153333000Y-112627000D01*
X153313000Y-112627000D01*
X153313000Y-112373000D01*
X153333000Y-112373000D01*
X153333000Y-111179845D01*
X153587000Y-111179845D01*
X153587000Y-112373000D01*
X153607000Y-112373000D01*
X153607000Y-112627000D01*
X153587000Y-112627000D01*
X153587000Y-113820155D01*
X153816890Y-113941476D01*
X153964099Y-113896825D01*
X154226920Y-113771641D01*
X154460269Y-113597588D01*
X154536034Y-113513534D01*
X154560498Y-113594180D01*
X154619463Y-113704494D01*
X154698815Y-113801185D01*
X154795506Y-113880537D01*
X154905820Y-113939502D01*
X155025518Y-113975812D01*
X155150000Y-113988072D01*
X156850000Y-113988072D01*
X156974482Y-113975812D01*
X157094180Y-113939502D01*
X157204494Y-113880537D01*
X157301185Y-113801185D01*
X157380537Y-113704494D01*
X157439502Y-113594180D01*
X157459009Y-113529872D01*
X164515000Y-113529872D01*
X164515000Y-113970128D01*
X164600890Y-114401925D01*
X164769369Y-114808669D01*
X165013962Y-115174729D01*
X165325271Y-115486038D01*
X165691331Y-115730631D01*
X166098075Y-115899110D01*
X166529872Y-115985000D01*
X166970128Y-115985000D01*
X167401925Y-115899110D01*
X167808669Y-115730631D01*
X168174729Y-115486038D01*
X168486038Y-115174729D01*
X168730631Y-114808669D01*
X168899110Y-114401925D01*
X168985000Y-113970128D01*
X168985000Y-113529872D01*
X168899110Y-113098075D01*
X168730631Y-112691331D01*
X168486038Y-112325271D01*
X168174729Y-112013962D01*
X167808669Y-111769369D01*
X167401925Y-111600890D01*
X166970128Y-111515000D01*
X166529872Y-111515000D01*
X166098075Y-111600890D01*
X165691331Y-111769369D01*
X165325271Y-112013962D01*
X165013962Y-112325271D01*
X164769369Y-112691331D01*
X164600890Y-113098075D01*
X164515000Y-113529872D01*
X157459009Y-113529872D01*
X157475812Y-113474482D01*
X157488072Y-113350000D01*
X157488072Y-111650000D01*
X157475812Y-111525518D01*
X157439502Y-111405820D01*
X157380537Y-111295506D01*
X157322855Y-111225220D01*
X177980637Y-111225220D01*
X177992897Y-111349702D01*
X178029207Y-111469400D01*
X178088172Y-111579714D01*
X178167524Y-111676405D01*
X178264215Y-111755757D01*
X178374529Y-111814722D01*
X178494227Y-111851032D01*
X178618709Y-111863292D01*
X180491959Y-111860220D01*
X180650709Y-111701470D01*
X180650709Y-110590220D01*
X178142459Y-110590220D01*
X177983709Y-110748970D01*
X177980637Y-111225220D01*
X157322855Y-111225220D01*
X157301185Y-111198815D01*
X157204494Y-111119463D01*
X157094180Y-111060498D01*
X156974482Y-111024188D01*
X156850000Y-111011928D01*
X155150000Y-111011928D01*
X155025518Y-111024188D01*
X154905820Y-111060498D01*
X154795506Y-111119463D01*
X154698815Y-111198815D01*
X154619463Y-111295506D01*
X154560498Y-111405820D01*
X154536034Y-111486466D01*
X154460269Y-111402412D01*
X154226920Y-111228359D01*
X153964099Y-111103175D01*
X153816890Y-111058524D01*
X153587000Y-111179845D01*
X153333000Y-111179845D01*
X153103110Y-111058524D01*
X152955901Y-111103175D01*
X152693080Y-111228359D01*
X152459731Y-111402412D01*
X152264822Y-111618645D01*
X152195201Y-111735523D01*
X152160706Y-111670986D01*
X151975134Y-111444866D01*
X151749014Y-111259294D01*
X151491034Y-111121401D01*
X151211111Y-111036487D01*
X150992950Y-111015000D01*
X150847050Y-111015000D01*
X150628889Y-111036487D01*
X150348966Y-111121401D01*
X150090986Y-111259294D01*
X149864866Y-111444866D01*
X149679294Y-111670986D01*
X149650000Y-111725791D01*
X149620706Y-111670986D01*
X149435134Y-111444866D01*
X149209014Y-111259294D01*
X148951034Y-111121401D01*
X148671111Y-111036487D01*
X148452950Y-111015000D01*
X148307050Y-111015000D01*
X148088889Y-111036487D01*
X147808966Y-111121401D01*
X147550986Y-111259294D01*
X147324866Y-111444866D01*
X147139294Y-111670986D01*
X147110000Y-111725791D01*
X147080706Y-111670986D01*
X146895134Y-111444866D01*
X146669014Y-111259294D01*
X146600000Y-111222405D01*
X146600000Y-108212301D01*
X147234386Y-107577916D01*
X147301806Y-107584557D01*
X147254774Y-107698102D01*
X147215000Y-107898061D01*
X147215000Y-108101939D01*
X147254774Y-108301898D01*
X147332795Y-108490256D01*
X147446063Y-108659774D01*
X147590226Y-108803937D01*
X147759744Y-108917205D01*
X147948102Y-108995226D01*
X148148061Y-109035000D01*
X148351939Y-109035000D01*
X148551898Y-108995226D01*
X148740256Y-108917205D01*
X148909774Y-108803937D01*
X148953711Y-108760000D01*
X152462678Y-108760000D01*
X152500000Y-108763676D01*
X152537322Y-108760000D01*
X152537333Y-108760000D01*
X152648986Y-108749003D01*
X152792247Y-108705546D01*
X152871709Y-108663072D01*
X153237500Y-108663072D01*
X153408316Y-108646248D01*
X153572567Y-108596423D01*
X153723942Y-108515512D01*
X153856623Y-108406623D01*
X153965512Y-108273942D01*
X154046423Y-108122567D01*
X154096248Y-107958316D01*
X154113072Y-107787500D01*
X154113072Y-107212500D01*
X154096248Y-107041684D01*
X154046423Y-106877433D01*
X153965512Y-106726058D01*
X153945901Y-106702161D01*
X154005537Y-106629494D01*
X154064502Y-106519180D01*
X154100812Y-106399482D01*
X154113072Y-106275000D01*
X154110000Y-106035750D01*
X153951250Y-105877000D01*
X153127000Y-105877000D01*
X153127000Y-105897000D01*
X152873000Y-105897000D01*
X152873000Y-105877000D01*
X152048750Y-105877000D01*
X151890000Y-106035750D01*
X151886928Y-106275000D01*
X151899188Y-106399482D01*
X151935498Y-106519180D01*
X151994463Y-106629494D01*
X152054099Y-106702161D01*
X152034488Y-106726058D01*
X151953577Y-106877433D01*
X151903752Y-107041684D01*
X151886928Y-107212500D01*
X151886928Y-107240000D01*
X149277510Y-107240000D01*
X149302002Y-107194180D01*
X149317282Y-107143810D01*
X149495240Y-107188562D01*
X149780017Y-107202818D01*
X150062102Y-107161242D01*
X150330657Y-107065434D01*
X150458926Y-106996873D01*
X150532022Y-106751627D01*
X149710000Y-105929605D01*
X149695858Y-105943748D01*
X149516253Y-105764143D01*
X149530395Y-105750000D01*
X149889605Y-105750000D01*
X150711627Y-106572022D01*
X150956873Y-106498926D01*
X151079023Y-106241283D01*
X151148562Y-105964760D01*
X151162818Y-105679983D01*
X151121242Y-105397898D01*
X151059560Y-105225000D01*
X151886928Y-105225000D01*
X151890000Y-105464250D01*
X152048750Y-105623000D01*
X152873000Y-105623000D01*
X152873000Y-104748750D01*
X153127000Y-104748750D01*
X153127000Y-105623000D01*
X153951250Y-105623000D01*
X154110000Y-105464250D01*
X154113072Y-105225000D01*
X154100812Y-105100518D01*
X154064502Y-104980820D01*
X154005537Y-104870506D01*
X153926185Y-104773815D01*
X153829494Y-104694463D01*
X153719180Y-104635498D01*
X153599482Y-104599188D01*
X153475000Y-104586928D01*
X153285750Y-104590000D01*
X153127000Y-104748750D01*
X152873000Y-104748750D01*
X152714250Y-104590000D01*
X152525000Y-104586928D01*
X152400518Y-104599188D01*
X152280820Y-104635498D01*
X152170506Y-104694463D01*
X152073815Y-104773815D01*
X151994463Y-104870506D01*
X151935498Y-104980820D01*
X151899188Y-105100518D01*
X151886928Y-105225000D01*
X151059560Y-105225000D01*
X151025434Y-105129343D01*
X150956873Y-105001074D01*
X150711627Y-104927978D01*
X149889605Y-105750000D01*
X149530395Y-105750000D01*
X149516253Y-105735858D01*
X149695858Y-105556253D01*
X149710000Y-105570395D01*
X150532022Y-104748373D01*
X150458926Y-104503127D01*
X150290456Y-104423255D01*
X150303937Y-104409774D01*
X150417205Y-104240256D01*
X150495226Y-104051898D01*
X150535000Y-103851939D01*
X150535000Y-103648061D01*
X150495226Y-103448102D01*
X150417205Y-103259744D01*
X150303937Y-103090226D01*
X150159774Y-102946063D01*
X150034211Y-102862165D01*
X150149482Y-102850812D01*
X150269180Y-102814502D01*
X150379494Y-102755537D01*
X150476185Y-102676185D01*
X150555537Y-102579494D01*
X150614502Y-102469180D01*
X150650812Y-102349482D01*
X150663072Y-102225000D01*
X150660000Y-102035750D01*
X150501250Y-101877000D01*
X149627000Y-101877000D01*
X149627000Y-101897000D01*
X149373000Y-101897000D01*
X149373000Y-101877000D01*
X149353000Y-101877000D01*
X149353000Y-101623000D01*
X149373000Y-101623000D01*
X149373000Y-100798750D01*
X149627000Y-100798750D01*
X149627000Y-101623000D01*
X150501250Y-101623000D01*
X150660000Y-101464250D01*
X150663072Y-101275000D01*
X150650812Y-101150518D01*
X150614502Y-101030820D01*
X150555537Y-100920506D01*
X150476185Y-100823815D01*
X150379494Y-100744463D01*
X150269180Y-100685498D01*
X150149482Y-100649188D01*
X150025000Y-100636928D01*
X149785750Y-100640000D01*
X149627000Y-100798750D01*
X149373000Y-100798750D01*
X149214250Y-100640000D01*
X148975000Y-100636928D01*
X148850518Y-100649188D01*
X148730820Y-100685498D01*
X148620506Y-100744463D01*
X148547839Y-100804099D01*
X148523942Y-100784488D01*
X148510000Y-100777036D01*
X148510000Y-100472964D01*
X148523942Y-100465512D01*
X148547839Y-100445901D01*
X148620506Y-100505537D01*
X148730820Y-100564502D01*
X148850518Y-100600812D01*
X148975000Y-100613072D01*
X149214250Y-100610000D01*
X149373000Y-100451250D01*
X149373000Y-99627000D01*
X149627000Y-99627000D01*
X149627000Y-100451250D01*
X149785750Y-100610000D01*
X150025000Y-100613072D01*
X150149482Y-100600812D01*
X150269180Y-100564502D01*
X150379494Y-100505537D01*
X150476185Y-100426185D01*
X150555537Y-100329494D01*
X150614502Y-100219180D01*
X150650812Y-100099482D01*
X150663072Y-99975000D01*
X150660000Y-99785750D01*
X150501250Y-99627000D01*
X149627000Y-99627000D01*
X149373000Y-99627000D01*
X149353000Y-99627000D01*
X149353000Y-99373000D01*
X149373000Y-99373000D01*
X149373000Y-99353000D01*
X149627000Y-99353000D01*
X149627000Y-99373000D01*
X150501250Y-99373000D01*
X150660000Y-99214250D01*
X150663072Y-99025000D01*
X150650812Y-98900518D01*
X150614502Y-98780820D01*
X150555537Y-98670506D01*
X150476185Y-98573815D01*
X150398426Y-98510000D01*
X152862897Y-98510000D01*
X154598558Y-100245663D01*
X154569725Y-100390616D01*
X154569725Y-100663438D01*
X154622950Y-100931016D01*
X154727354Y-101183070D01*
X154878926Y-101409913D01*
X155071839Y-101602826D01*
X155298682Y-101754398D01*
X155401598Y-101797027D01*
X155298682Y-101839656D01*
X155071839Y-101991228D01*
X154878926Y-102184141D01*
X154727354Y-102410984D01*
X154622950Y-102663038D01*
X154569725Y-102930616D01*
X154569725Y-103203438D01*
X154622950Y-103471016D01*
X154727354Y-103723070D01*
X154878926Y-103949913D01*
X155071839Y-104142826D01*
X155298682Y-104294398D01*
X155401598Y-104337027D01*
X155298682Y-104379656D01*
X155071839Y-104531228D01*
X154878926Y-104724141D01*
X154727354Y-104950984D01*
X154622950Y-105203038D01*
X154569725Y-105470616D01*
X154569725Y-105743438D01*
X154622950Y-106011016D01*
X154727354Y-106263070D01*
X154878926Y-106489913D01*
X155071839Y-106682826D01*
X155298682Y-106834398D01*
X155550736Y-106938802D01*
X155818314Y-106992027D01*
X156091136Y-106992027D01*
X156358714Y-106938802D01*
X156610768Y-106834398D01*
X156837611Y-106682826D01*
X157030524Y-106489913D01*
X157182096Y-106263070D01*
X157286500Y-106011016D01*
X157339725Y-105743438D01*
X157339725Y-105470616D01*
X157286500Y-105203038D01*
X157182096Y-104950984D01*
X157030524Y-104724141D01*
X156837611Y-104531228D01*
X156610768Y-104379656D01*
X156507852Y-104337027D01*
X156610768Y-104294398D01*
X156837611Y-104142826D01*
X157030524Y-103949913D01*
X157182096Y-103723070D01*
X157286500Y-103471016D01*
X157339725Y-103203438D01*
X157339725Y-102986828D01*
X161789149Y-107436253D01*
X161789149Y-109018520D01*
X161801409Y-109143002D01*
X161837719Y-109262700D01*
X161896684Y-109373014D01*
X161976036Y-109469705D01*
X162072727Y-109549057D01*
X162183041Y-109608022D01*
X162302739Y-109644332D01*
X162427221Y-109656592D01*
X164127221Y-109656592D01*
X164251703Y-109644332D01*
X164371401Y-109608022D01*
X164481715Y-109549057D01*
X164578406Y-109469705D01*
X164657758Y-109373014D01*
X164716723Y-109262700D01*
X164753033Y-109143002D01*
X164765293Y-109018520D01*
X164765293Y-108937220D01*
X170741637Y-108937220D01*
X170741637Y-109002720D01*
X170753897Y-109127202D01*
X170790207Y-109246900D01*
X170849172Y-109357214D01*
X170928524Y-109453905D01*
X171025215Y-109533257D01*
X171135529Y-109592222D01*
X171255227Y-109628532D01*
X171379709Y-109640792D01*
X173030709Y-109640792D01*
X173155191Y-109628532D01*
X173274889Y-109592222D01*
X173385203Y-109533257D01*
X173481894Y-109453905D01*
X173561246Y-109357214D01*
X173620211Y-109246900D01*
X173638038Y-109188129D01*
X173913905Y-109188129D01*
X173988576Y-109434701D01*
X174248437Y-109558151D01*
X174527389Y-109628533D01*
X174814711Y-109643141D01*
X175099363Y-109601414D01*
X175370405Y-109504957D01*
X175501842Y-109434701D01*
X175576513Y-109188129D01*
X174745209Y-108356825D01*
X173913905Y-109188129D01*
X173638038Y-109188129D01*
X173656521Y-109127202D01*
X173668781Y-109002720D01*
X173668781Y-108988682D01*
X173734300Y-109008524D01*
X174565604Y-108177220D01*
X174924814Y-108177220D01*
X175756118Y-109008524D01*
X176002690Y-108933853D01*
X176126140Y-108673992D01*
X176196522Y-108395040D01*
X176211130Y-108107718D01*
X176169403Y-107823066D01*
X176072946Y-107552024D01*
X176002690Y-107420587D01*
X175756118Y-107345916D01*
X174924814Y-108177220D01*
X174565604Y-108177220D01*
X174551462Y-108163078D01*
X174731067Y-107983473D01*
X174745209Y-107997615D01*
X175576513Y-107166311D01*
X175501842Y-106919739D01*
X175241981Y-106796289D01*
X174963029Y-106725907D01*
X174847775Y-106720047D01*
X176643031Y-104924792D01*
X176888209Y-104924792D01*
X177012691Y-104912532D01*
X177132389Y-104876222D01*
X177242703Y-104817257D01*
X177253209Y-104808635D01*
X177263715Y-104817257D01*
X177374029Y-104876222D01*
X177493727Y-104912532D01*
X177618209Y-104924792D01*
X177982595Y-104924792D01*
X177983709Y-105097470D01*
X178142459Y-105256220D01*
X180650709Y-105256220D01*
X180650709Y-105236220D01*
X180904709Y-105236220D01*
X180904709Y-105256220D01*
X180924709Y-105256220D01*
X180924709Y-105510220D01*
X180904709Y-105510220D01*
X180904709Y-105530220D01*
X180777709Y-105530220D01*
X180777709Y-105468720D01*
X180618959Y-105309970D01*
X179804709Y-105306898D01*
X179680227Y-105319158D01*
X179560529Y-105355468D01*
X179450215Y-105414433D01*
X179353524Y-105493785D01*
X179340036Y-105510220D01*
X178142459Y-105510220D01*
X177983709Y-105668970D01*
X177980637Y-106145220D01*
X177992897Y-106269702D01*
X178029207Y-106389400D01*
X178088172Y-106499714D01*
X178167524Y-106596405D01*
X178257375Y-106670144D01*
X178172293Y-106653220D01*
X177922125Y-106653220D01*
X177676764Y-106702025D01*
X177445638Y-106797761D01*
X177237631Y-106936747D01*
X177060736Y-107113642D01*
X176921750Y-107321649D01*
X176826014Y-107552775D01*
X176777209Y-107798136D01*
X176777209Y-108048304D01*
X176826014Y-108293665D01*
X176921750Y-108524791D01*
X177060736Y-108732798D01*
X177237631Y-108909693D01*
X177445638Y-109048679D01*
X177676764Y-109144415D01*
X177922125Y-109193220D01*
X178172293Y-109193220D01*
X178257375Y-109176296D01*
X178167524Y-109250035D01*
X178088172Y-109346726D01*
X178029207Y-109457040D01*
X177992897Y-109576738D01*
X177980637Y-109701220D01*
X177983709Y-110177470D01*
X178142459Y-110336220D01*
X179340036Y-110336220D01*
X179353524Y-110352655D01*
X179450215Y-110432007D01*
X179560529Y-110490972D01*
X179680227Y-110527282D01*
X179804709Y-110539542D01*
X180618959Y-110536470D01*
X180777709Y-110377720D01*
X180777709Y-110316220D01*
X180904709Y-110316220D01*
X180904709Y-110336220D01*
X180924709Y-110336220D01*
X180924709Y-110590220D01*
X180904709Y-110590220D01*
X180904709Y-111701470D01*
X181063459Y-111860220D01*
X182936709Y-111863292D01*
X183015000Y-111855581D01*
X183015000Y-117265000D01*
X129985000Y-117265000D01*
X129985000Y-68485000D01*
X183015001Y-68485000D01*
X183015001Y-85661609D01*
G36*
X181031709Y-106748470D02*
G01*
X181031709Y-107437220D01*
X181142478Y-107547989D01*
X181095209Y-107785628D01*
X181095209Y-108060812D01*
X181142478Y-108298451D01*
X181031709Y-108409220D01*
X181031709Y-109097970D01*
X180904711Y-109224968D01*
X180904711Y-109066220D01*
X180777709Y-109066220D01*
X180777709Y-108409220D01*
X180684531Y-108316042D01*
X180684531Y-107530398D01*
X180777709Y-107437220D01*
X180777709Y-106780220D01*
X180904711Y-106780220D01*
X180904711Y-106621472D01*
X181031709Y-106748470D01*
X181031709Y-106748470D01*
G37*
X181031709Y-106748470D02*
X181031709Y-107437220D01*
X181142478Y-107547989D01*
X181095209Y-107785628D01*
X181095209Y-108060812D01*
X181142478Y-108298451D01*
X181031709Y-108409220D01*
X181031709Y-109097970D01*
X180904711Y-109224968D01*
X180904711Y-109066220D01*
X180777709Y-109066220D01*
X180777709Y-108409220D01*
X180684531Y-108316042D01*
X180684531Y-107530398D01*
X180777709Y-107437220D01*
X180777709Y-106780220D01*
X180904711Y-106780220D01*
X180904711Y-106621472D01*
X181031709Y-106748470D01*
G36*
X174810035Y-85648648D02*
G01*
X174054939Y-85648648D01*
X172780195Y-84373905D01*
X172745226Y-84198102D01*
X172667205Y-84009744D01*
X172553937Y-83840226D01*
X172409774Y-83696063D01*
X172240256Y-83582795D01*
X172051898Y-83504774D01*
X171851939Y-83465000D01*
X171648061Y-83465000D01*
X171448102Y-83504774D01*
X171259744Y-83582795D01*
X171090226Y-83696063D01*
X171000000Y-83786289D01*
X170909774Y-83696063D01*
X170740256Y-83582795D01*
X170551898Y-83504774D01*
X170351939Y-83465000D01*
X170148061Y-83465000D01*
X169948102Y-83504774D01*
X169759744Y-83582795D01*
X169590226Y-83696063D01*
X169446063Y-83840226D01*
X169332795Y-84009744D01*
X169254774Y-84198102D01*
X169215000Y-84398061D01*
X169215000Y-84601939D01*
X169254774Y-84801898D01*
X169332795Y-84990256D01*
X169446063Y-85159774D01*
X169590226Y-85303937D01*
X169759744Y-85417205D01*
X169775362Y-85423674D01*
X169998336Y-85646648D01*
X169681709Y-85646648D01*
X169557227Y-85658908D01*
X169437529Y-85695218D01*
X169327215Y-85754183D01*
X169288310Y-85786111D01*
X169242703Y-85748683D01*
X169132389Y-85689718D01*
X169012691Y-85653408D01*
X168888209Y-85641148D01*
X168538959Y-85644220D01*
X168380209Y-85802970D01*
X168380209Y-87152220D01*
X168400209Y-87152220D01*
X168400209Y-87406220D01*
X168380209Y-87406220D01*
X168380209Y-87426220D01*
X168126209Y-87426220D01*
X168126209Y-87406220D01*
X167141959Y-87406220D01*
X166983209Y-87564970D01*
X166980137Y-88279220D01*
X166992397Y-88403702D01*
X167028707Y-88523400D01*
X167087672Y-88633714D01*
X167162156Y-88724473D01*
X166019039Y-88724473D01*
X164214237Y-86919672D01*
X164214237Y-86279220D01*
X166980137Y-86279220D01*
X166983209Y-86993470D01*
X167141959Y-87152220D01*
X168126209Y-87152220D01*
X168126209Y-85802970D01*
X167967459Y-85644220D01*
X167618209Y-85641148D01*
X167493727Y-85653408D01*
X167374029Y-85689718D01*
X167263715Y-85748683D01*
X167167024Y-85828035D01*
X167087672Y-85924726D01*
X167028707Y-86035040D01*
X166992397Y-86154738D01*
X166980137Y-86279220D01*
X164214237Y-86279220D01*
X164214237Y-85271796D01*
X164217913Y-85234473D01*
X164214237Y-85197150D01*
X164214237Y-85197140D01*
X164203240Y-85085487D01*
X164159783Y-84942226D01*
X164089211Y-84810197D01*
X163994238Y-84694472D01*
X163965240Y-84670674D01*
X161530595Y-82236030D01*
X161506792Y-82207026D01*
X161391067Y-82112053D01*
X161259038Y-82041481D01*
X161115777Y-81998024D01*
X161004124Y-81987027D01*
X161004113Y-81987027D01*
X160966791Y-81983351D01*
X160929469Y-81987027D01*
X157112634Y-81987027D01*
X157030524Y-81864141D01*
X156837611Y-81671228D01*
X156610768Y-81519656D01*
X156507852Y-81477027D01*
X156610768Y-81434398D01*
X156837611Y-81282826D01*
X157030524Y-81089913D01*
X157112634Y-80967027D01*
X170128415Y-80967027D01*
X174810035Y-85648648D01*
X174810035Y-85648648D01*
G37*
X174810035Y-85648648D02*
X174054939Y-85648648D01*
X172780195Y-84373905D01*
X172745226Y-84198102D01*
X172667205Y-84009744D01*
X172553937Y-83840226D01*
X172409774Y-83696063D01*
X172240256Y-83582795D01*
X172051898Y-83504774D01*
X171851939Y-83465000D01*
X171648061Y-83465000D01*
X171448102Y-83504774D01*
X171259744Y-83582795D01*
X171090226Y-83696063D01*
X171000000Y-83786289D01*
X170909774Y-83696063D01*
X170740256Y-83582795D01*
X170551898Y-83504774D01*
X170351939Y-83465000D01*
X170148061Y-83465000D01*
X169948102Y-83504774D01*
X169759744Y-83582795D01*
X169590226Y-83696063D01*
X169446063Y-83840226D01*
X169332795Y-84009744D01*
X169254774Y-84198102D01*
X169215000Y-84398061D01*
X169215000Y-84601939D01*
X169254774Y-84801898D01*
X169332795Y-84990256D01*
X169446063Y-85159774D01*
X169590226Y-85303937D01*
X169759744Y-85417205D01*
X169775362Y-85423674D01*
X169998336Y-85646648D01*
X169681709Y-85646648D01*
X169557227Y-85658908D01*
X169437529Y-85695218D01*
X169327215Y-85754183D01*
X169288310Y-85786111D01*
X169242703Y-85748683D01*
X169132389Y-85689718D01*
X169012691Y-85653408D01*
X168888209Y-85641148D01*
X168538959Y-85644220D01*
X168380209Y-85802970D01*
X168380209Y-87152220D01*
X168400209Y-87152220D01*
X168400209Y-87406220D01*
X168380209Y-87406220D01*
X168380209Y-87426220D01*
X168126209Y-87426220D01*
X168126209Y-87406220D01*
X167141959Y-87406220D01*
X166983209Y-87564970D01*
X166980137Y-88279220D01*
X166992397Y-88403702D01*
X167028707Y-88523400D01*
X167087672Y-88633714D01*
X167162156Y-88724473D01*
X166019039Y-88724473D01*
X164214237Y-86919672D01*
X164214237Y-86279220D01*
X166980137Y-86279220D01*
X166983209Y-86993470D01*
X167141959Y-87152220D01*
X168126209Y-87152220D01*
X168126209Y-85802970D01*
X167967459Y-85644220D01*
X167618209Y-85641148D01*
X167493727Y-85653408D01*
X167374029Y-85689718D01*
X167263715Y-85748683D01*
X167167024Y-85828035D01*
X167087672Y-85924726D01*
X167028707Y-86035040D01*
X166992397Y-86154738D01*
X166980137Y-86279220D01*
X164214237Y-86279220D01*
X164214237Y-85271796D01*
X164217913Y-85234473D01*
X164214237Y-85197150D01*
X164214237Y-85197140D01*
X164203240Y-85085487D01*
X164159783Y-84942226D01*
X164089211Y-84810197D01*
X163994238Y-84694472D01*
X163965240Y-84670674D01*
X161530595Y-82236030D01*
X161506792Y-82207026D01*
X161391067Y-82112053D01*
X161259038Y-82041481D01*
X161115777Y-81998024D01*
X161004124Y-81987027D01*
X161004113Y-81987027D01*
X160966791Y-81983351D01*
X160929469Y-81987027D01*
X157112634Y-81987027D01*
X157030524Y-81864141D01*
X156837611Y-81671228D01*
X156610768Y-81519656D01*
X156507852Y-81477027D01*
X156610768Y-81434398D01*
X156837611Y-81282826D01*
X157030524Y-81089913D01*
X157112634Y-80967027D01*
X170128415Y-80967027D01*
X174810035Y-85648648D01*
M02*
