M48
; DRILL file {KiCad (5.1.0)-1} date 29/05/2019 17:20:58
; FORMAT={-:-/ absolute / metric / decimal}
; #@! TF.CreationDate,2019-05-29T17:20:58+02:00
; #@! TF.GenerationSoftware,Kicad,Pcbnew,(5.1.0)-1
; #@! TF.FileFunction,Plated,1,2,PTH
FMAT,2
METRIC
T1C0.356
T2C0.400
T3C0.559
T4C0.700
T5C1.000
T6C1.016
T7C1.025
%
G90
G05
T1
X166.49Y-103.732
X166.49Y-103.732
T2
X131.75Y-85.25
X142.75Y-108.0
X148.25Y-108.0
X149.5Y-103.75
X166.0Y-84.0
X166.49Y-103.732
X166.75Y-95.75
X170.25Y-84.5
X171.75Y-84.5
T3
X178.047Y-107.923
T4
X172.205Y-108.177
X174.745Y-108.177
T5
X163.277Y-100.549
X163.277Y-103.089
X163.277Y-105.629
X163.277Y-108.169
X135.555Y-72.467
X135.555Y-75.007
X135.555Y-77.547
X135.555Y-80.087
X135.555Y-82.627
X135.555Y-85.167
X135.555Y-87.707
X135.555Y-90.247
X135.555Y-92.787
X135.555Y-95.327
X135.555Y-97.867
X135.555Y-100.407
X135.555Y-102.947
X135.555Y-105.487
X155.955Y-72.587
X155.955Y-75.127
X155.955Y-77.667
X155.955Y-80.207
X155.955Y-82.747
X155.955Y-85.287
X155.955Y-87.827
X155.955Y-90.367
X155.955Y-92.907
X155.955Y-95.447
X155.955Y-97.987
X155.955Y-100.527
X155.955Y-103.067
X155.955Y-105.607
X143.3Y-112.5
X145.84Y-112.5
X148.38Y-112.5
X150.92Y-112.5
X153.46Y-112.5
X156.0Y-112.5
T6
X182.492Y-107.923
T7
X149.71Y-105.75
T0
M30
