G04 #@! TF.GenerationSoftware,KiCad,Pcbnew,(5.0.2)-1*
G04 #@! TF.CreationDate,2019-05-14T17:11:37+02:00*
G04 #@! TF.ProjectId,Mini-Lora,4d696e69-2d4c-46f7-9261-2e6b69636164,rev?*
G04 #@! TF.SameCoordinates,Original*
G04 #@! TF.FileFunction,Legend,Top*
G04 #@! TF.FilePolarity,Positive*
%FSLAX46Y46*%
G04 Gerber Fmt 4.6, Leading zero omitted, Abs format (unit mm)*
G04 Created by KiCad (PCBNEW (5.0.2)-1) date 14/05/2019 17:11:37*
%MOMM*%
%LPD*%
G01*
G04 APERTURE LIST*
%ADD10C,0.300000*%
%ADD11C,0.190500*%
%ADD12C,0.010000*%
%ADD13C,0.120000*%
%ADD14C,0.127000*%
%ADD15C,0.254000*%
%ADD16C,0.203200*%
%ADD17C,0.152400*%
%ADD18C,0.150000*%
%ADD19C,0.301625*%
%ADD20C,0.317500*%
%ADD21C,0.331788*%
%ADD22C,0.349250*%
%ADD23C,0.177800*%
%ADD24C,0.279400*%
%ADD25C,0.133350*%
%ADD26C,0.032512*%
%ADD27C,0.096520*%
G04 APERTURE END LIST*
D10*
X161098649Y-100311377D02*
X159955792Y-100311377D01*
X170848649Y-107061377D02*
X169705792Y-107061377D01*
X170277221Y-106489948D02*
X170277221Y-107632805D01*
X161098649Y-108561377D02*
X159955792Y-108561377D01*
X160527221Y-107989948D02*
X160527221Y-109132805D01*
X161634363Y-96668520D02*
X161491506Y-96597091D01*
X161277221Y-96597091D01*
X161062935Y-96668520D01*
X160920078Y-96811377D01*
X160848649Y-96954234D01*
X160777221Y-97239948D01*
X160777221Y-97454234D01*
X160848649Y-97739948D01*
X160920078Y-97882805D01*
X161062935Y-98025662D01*
X161277221Y-98097091D01*
X161420078Y-98097091D01*
X161634363Y-98025662D01*
X161705792Y-97954234D01*
X161705792Y-97454234D01*
X161420078Y-97454234D01*
X162348649Y-98097091D02*
X162348649Y-96597091D01*
X162920078Y-96597091D01*
X163062935Y-96668520D01*
X163134363Y-96739948D01*
X163205792Y-96882805D01*
X163205792Y-97097091D01*
X163134363Y-97239948D01*
X163062935Y-97311377D01*
X162920078Y-97382805D01*
X162348649Y-97382805D01*
X163777221Y-98025662D02*
X163991506Y-98097091D01*
X164348649Y-98097091D01*
X164491506Y-98025662D01*
X164562935Y-97954234D01*
X164634363Y-97811377D01*
X164634363Y-97668520D01*
X164562935Y-97525662D01*
X164491506Y-97454234D01*
X164348649Y-97382805D01*
X164062935Y-97311377D01*
X163920078Y-97239948D01*
X163848649Y-97168520D01*
X163777221Y-97025662D01*
X163777221Y-96882805D01*
X163848649Y-96739948D01*
X163920078Y-96668520D01*
X164062935Y-96597091D01*
X164420078Y-96597091D01*
X164634363Y-96668520D01*
D11*
X174100515Y-97192547D02*
X173698348Y-96618023D01*
X173411086Y-97192547D02*
X173411086Y-95986047D01*
X173870705Y-95986047D01*
X173985610Y-96043500D01*
X174043063Y-96100952D01*
X174100515Y-96215857D01*
X174100515Y-96388214D01*
X174043063Y-96503119D01*
X173985610Y-96560571D01*
X173870705Y-96618023D01*
X173411086Y-96618023D01*
X175019753Y-96560571D02*
X174617586Y-96560571D01*
X174617586Y-97192547D02*
X174617586Y-95986047D01*
X175192110Y-95986047D01*
X175651729Y-97192547D02*
X175651729Y-95986047D01*
X176053896Y-96847833D01*
X176456063Y-95986047D01*
X176456063Y-97192547D01*
X177088039Y-97192547D02*
X177317848Y-97192547D01*
X177432753Y-97135095D01*
X177490205Y-97077642D01*
X177605110Y-96905285D01*
X177662563Y-96675476D01*
X177662563Y-96215857D01*
X177605110Y-96100952D01*
X177547658Y-96043500D01*
X177432753Y-95986047D01*
X177202944Y-95986047D01*
X177088039Y-96043500D01*
X177030586Y-96100952D01*
X176973134Y-96215857D01*
X176973134Y-96503119D01*
X177030586Y-96618023D01*
X177088039Y-96675476D01*
X177202944Y-96732928D01*
X177432753Y-96732928D01*
X177547658Y-96675476D01*
X177605110Y-96618023D01*
X177662563Y-96503119D01*
X178754158Y-95986047D02*
X178179634Y-95986047D01*
X178122182Y-96560571D01*
X178179634Y-96503119D01*
X178294539Y-96445666D01*
X178581801Y-96445666D01*
X178696705Y-96503119D01*
X178754158Y-96560571D01*
X178811610Y-96675476D01*
X178811610Y-96962738D01*
X178754158Y-97077642D01*
X178696705Y-97135095D01*
X178581801Y-97192547D01*
X178294539Y-97192547D01*
X178179634Y-97135095D01*
X178122182Y-97077642D01*
D12*
G04 #@! TO.C,REF\002A\002A*
G36*
X141469909Y-80659560D02*
X141522412Y-80685499D01*
X141587158Y-80730700D01*
X141634347Y-80779991D01*
X141666665Y-80841885D01*
X141686797Y-80924896D01*
X141697430Y-81037538D01*
X141701247Y-81188324D01*
X141701470Y-81253149D01*
X141700818Y-81395221D01*
X141698112Y-81496757D01*
X141692224Y-81567015D01*
X141682027Y-81615256D01*
X141666394Y-81650738D01*
X141650128Y-81674943D01*
X141546295Y-81777929D01*
X141424021Y-81839874D01*
X141292114Y-81858506D01*
X141159384Y-81831549D01*
X141117333Y-81812486D01*
X141016666Y-81760015D01*
X141016666Y-82582259D01*
X141090135Y-82544267D01*
X141186941Y-82514872D01*
X141305928Y-82507342D01*
X141424745Y-82521245D01*
X141514473Y-82552476D01*
X141588899Y-82611954D01*
X141652490Y-82697066D01*
X141657271Y-82705805D01*
X141677437Y-82746966D01*
X141692165Y-82788454D01*
X141702303Y-82838713D01*
X141708699Y-82906184D01*
X141712201Y-82999309D01*
X141713658Y-83126531D01*
X141713921Y-83269701D01*
X141713921Y-83726471D01*
X141440000Y-83726471D01*
X141440000Y-82884231D01*
X141363383Y-82819763D01*
X141283793Y-82768194D01*
X141208422Y-82758818D01*
X141132633Y-82782947D01*
X141092241Y-82806574D01*
X141062179Y-82840227D01*
X141040797Y-82891087D01*
X141026450Y-82966334D01*
X141017490Y-83073146D01*
X141012270Y-83218704D01*
X141010431Y-83315588D01*
X141004215Y-83714020D01*
X140873480Y-83721547D01*
X140742745Y-83729073D01*
X140742745Y-81256582D01*
X141016666Y-81256582D01*
X141023650Y-81394423D01*
X141047182Y-81490107D01*
X141091135Y-81549641D01*
X141159382Y-81579029D01*
X141228333Y-81584902D01*
X141306386Y-81578154D01*
X141358189Y-81551594D01*
X141390583Y-81516499D01*
X141416084Y-81478752D01*
X141431265Y-81436700D01*
X141438019Y-81377779D01*
X141438241Y-81289428D01*
X141435968Y-81215448D01*
X141430749Y-81104000D01*
X141422979Y-81030833D01*
X141409895Y-80984422D01*
X141388732Y-80953244D01*
X141368760Y-80935223D01*
X141285314Y-80895925D01*
X141186551Y-80889579D01*
X141129841Y-80903116D01*
X141073692Y-80951233D01*
X141036499Y-81044833D01*
X141018472Y-81183254D01*
X141016666Y-81256582D01*
X140742745Y-81256582D01*
X140742745Y-80638628D01*
X140879705Y-80638628D01*
X140961935Y-80641879D01*
X141004360Y-80653426D01*
X141016661Y-80675952D01*
X141016666Y-80676620D01*
X141022374Y-80698681D01*
X141047547Y-80696176D01*
X141097598Y-80671935D01*
X141214219Y-80634851D01*
X141345429Y-80630953D01*
X141469909Y-80659560D01*
X141469909Y-80659560D01*
G37*
X141469909Y-80659560D02*
X141522412Y-80685499D01*
X141587158Y-80730700D01*
X141634347Y-80779991D01*
X141666665Y-80841885D01*
X141686797Y-80924896D01*
X141697430Y-81037538D01*
X141701247Y-81188324D01*
X141701470Y-81253149D01*
X141700818Y-81395221D01*
X141698112Y-81496757D01*
X141692224Y-81567015D01*
X141682027Y-81615256D01*
X141666394Y-81650738D01*
X141650128Y-81674943D01*
X141546295Y-81777929D01*
X141424021Y-81839874D01*
X141292114Y-81858506D01*
X141159384Y-81831549D01*
X141117333Y-81812486D01*
X141016666Y-81760015D01*
X141016666Y-82582259D01*
X141090135Y-82544267D01*
X141186941Y-82514872D01*
X141305928Y-82507342D01*
X141424745Y-82521245D01*
X141514473Y-82552476D01*
X141588899Y-82611954D01*
X141652490Y-82697066D01*
X141657271Y-82705805D01*
X141677437Y-82746966D01*
X141692165Y-82788454D01*
X141702303Y-82838713D01*
X141708699Y-82906184D01*
X141712201Y-82999309D01*
X141713658Y-83126531D01*
X141713921Y-83269701D01*
X141713921Y-83726471D01*
X141440000Y-83726471D01*
X141440000Y-82884231D01*
X141363383Y-82819763D01*
X141283793Y-82768194D01*
X141208422Y-82758818D01*
X141132633Y-82782947D01*
X141092241Y-82806574D01*
X141062179Y-82840227D01*
X141040797Y-82891087D01*
X141026450Y-82966334D01*
X141017490Y-83073146D01*
X141012270Y-83218704D01*
X141010431Y-83315588D01*
X141004215Y-83714020D01*
X140873480Y-83721547D01*
X140742745Y-83729073D01*
X140742745Y-81256582D01*
X141016666Y-81256582D01*
X141023650Y-81394423D01*
X141047182Y-81490107D01*
X141091135Y-81549641D01*
X141159382Y-81579029D01*
X141228333Y-81584902D01*
X141306386Y-81578154D01*
X141358189Y-81551594D01*
X141390583Y-81516499D01*
X141416084Y-81478752D01*
X141431265Y-81436700D01*
X141438019Y-81377779D01*
X141438241Y-81289428D01*
X141435968Y-81215448D01*
X141430749Y-81104000D01*
X141422979Y-81030833D01*
X141409895Y-80984422D01*
X141388732Y-80953244D01*
X141368760Y-80935223D01*
X141285314Y-80895925D01*
X141186551Y-80889579D01*
X141129841Y-80903116D01*
X141073692Y-80951233D01*
X141036499Y-81044833D01*
X141018472Y-81183254D01*
X141016666Y-81256582D01*
X140742745Y-81256582D01*
X140742745Y-80638628D01*
X140879705Y-80638628D01*
X140961935Y-80641879D01*
X141004360Y-80653426D01*
X141016661Y-80675952D01*
X141016666Y-80676620D01*
X141022374Y-80698681D01*
X141047547Y-80696176D01*
X141097598Y-80671935D01*
X141214219Y-80634851D01*
X141345429Y-80630953D01*
X141469909Y-80659560D01*
G36*
X142508720Y-82515922D02*
X142625870Y-82547180D01*
X142715051Y-82603837D01*
X142777984Y-82678045D01*
X142797548Y-82709716D01*
X142811992Y-82742891D01*
X142822089Y-82785329D01*
X142828615Y-82844788D01*
X142832342Y-82929029D01*
X142834046Y-83045810D01*
X142834500Y-83202890D01*
X142834509Y-83244565D01*
X142834509Y-83726471D01*
X142714980Y-83726471D01*
X142638739Y-83721131D01*
X142582366Y-83707604D01*
X142568242Y-83699262D01*
X142529630Y-83684864D01*
X142490192Y-83699262D01*
X142425262Y-83717237D01*
X142330945Y-83724472D01*
X142226407Y-83721333D01*
X142130811Y-83708186D01*
X142075000Y-83691318D01*
X141966998Y-83621986D01*
X141899503Y-83525772D01*
X141869159Y-83397844D01*
X141868877Y-83394559D01*
X141871540Y-83337808D01*
X142112353Y-83337808D01*
X142133405Y-83402358D01*
X142167697Y-83438686D01*
X142236532Y-83466162D01*
X142327390Y-83477129D01*
X142420042Y-83471731D01*
X142494256Y-83450110D01*
X142515049Y-83436239D01*
X142551381Y-83372143D01*
X142560588Y-83299278D01*
X142560588Y-83203530D01*
X142422827Y-83203530D01*
X142291953Y-83213605D01*
X142192741Y-83242148D01*
X142131023Y-83286639D01*
X142112353Y-83337808D01*
X141871540Y-83337808D01*
X141875436Y-83254790D01*
X141921534Y-83144282D01*
X142008200Y-83060712D01*
X142020179Y-83053110D01*
X142071655Y-83028357D01*
X142135368Y-83013368D01*
X142224435Y-83006082D01*
X142330245Y-83004407D01*
X142560588Y-83004314D01*
X142560588Y-82907755D01*
X142550817Y-82832836D01*
X142525884Y-82782644D01*
X142522965Y-82779972D01*
X142467481Y-82758015D01*
X142383727Y-82749505D01*
X142291167Y-82753687D01*
X142209270Y-82769809D01*
X142160673Y-82793990D01*
X142134341Y-82813359D01*
X142106535Y-82817057D01*
X142068161Y-82801188D01*
X142010125Y-82761855D01*
X141923331Y-82695164D01*
X141915365Y-82688916D01*
X141919447Y-82665800D01*
X141953501Y-82627352D01*
X142005260Y-82584627D01*
X142062455Y-82548679D01*
X142080425Y-82540191D01*
X142145972Y-82523252D01*
X142242020Y-82511170D01*
X142349329Y-82506323D01*
X142354347Y-82506313D01*
X142508720Y-82515922D01*
X142508720Y-82515922D01*
G37*
X142508720Y-82515922D02*
X142625870Y-82547180D01*
X142715051Y-82603837D01*
X142777984Y-82678045D01*
X142797548Y-82709716D01*
X142811992Y-82742891D01*
X142822089Y-82785329D01*
X142828615Y-82844788D01*
X142832342Y-82929029D01*
X142834046Y-83045810D01*
X142834500Y-83202890D01*
X142834509Y-83244565D01*
X142834509Y-83726471D01*
X142714980Y-83726471D01*
X142638739Y-83721131D01*
X142582366Y-83707604D01*
X142568242Y-83699262D01*
X142529630Y-83684864D01*
X142490192Y-83699262D01*
X142425262Y-83717237D01*
X142330945Y-83724472D01*
X142226407Y-83721333D01*
X142130811Y-83708186D01*
X142075000Y-83691318D01*
X141966998Y-83621986D01*
X141899503Y-83525772D01*
X141869159Y-83397844D01*
X141868877Y-83394559D01*
X141871540Y-83337808D01*
X142112353Y-83337808D01*
X142133405Y-83402358D01*
X142167697Y-83438686D01*
X142236532Y-83466162D01*
X142327390Y-83477129D01*
X142420042Y-83471731D01*
X142494256Y-83450110D01*
X142515049Y-83436239D01*
X142551381Y-83372143D01*
X142560588Y-83299278D01*
X142560588Y-83203530D01*
X142422827Y-83203530D01*
X142291953Y-83213605D01*
X142192741Y-83242148D01*
X142131023Y-83286639D01*
X142112353Y-83337808D01*
X141871540Y-83337808D01*
X141875436Y-83254790D01*
X141921534Y-83144282D01*
X142008200Y-83060712D01*
X142020179Y-83053110D01*
X142071655Y-83028357D01*
X142135368Y-83013368D01*
X142224435Y-83006082D01*
X142330245Y-83004407D01*
X142560588Y-83004314D01*
X142560588Y-82907755D01*
X142550817Y-82832836D01*
X142525884Y-82782644D01*
X142522965Y-82779972D01*
X142467481Y-82758015D01*
X142383727Y-82749505D01*
X142291167Y-82753687D01*
X142209270Y-82769809D01*
X142160673Y-82793990D01*
X142134341Y-82813359D01*
X142106535Y-82817057D01*
X142068161Y-82801188D01*
X142010125Y-82761855D01*
X141923331Y-82695164D01*
X141915365Y-82688916D01*
X141919447Y-82665800D01*
X141953501Y-82627352D01*
X142005260Y-82584627D01*
X142062455Y-82548679D01*
X142080425Y-82540191D01*
X142145972Y-82523252D01*
X142242020Y-82511170D01*
X142349329Y-82506323D01*
X142354347Y-82506313D01*
X142508720Y-82515922D01*
G36*
X143282764Y-82508921D02*
X143320030Y-82520091D01*
X143332043Y-82544633D01*
X143332549Y-82555712D01*
X143334704Y-82586572D01*
X143349551Y-82591417D01*
X143389657Y-82570260D01*
X143413480Y-82555806D01*
X143488638Y-82524850D01*
X143578406Y-82509544D01*
X143672529Y-82508367D01*
X143760754Y-82519799D01*
X143832826Y-82542320D01*
X143878492Y-82574409D01*
X143887498Y-82614545D01*
X143882953Y-82625415D01*
X143849821Y-82670534D01*
X143798445Y-82726026D01*
X143789152Y-82734996D01*
X143740182Y-82776245D01*
X143697931Y-82789572D01*
X143638841Y-82780271D01*
X143615169Y-82774090D01*
X143541504Y-82759246D01*
X143489710Y-82765921D01*
X143445969Y-82789465D01*
X143405902Y-82821061D01*
X143376392Y-82860798D01*
X143355884Y-82916252D01*
X143342824Y-82995003D01*
X143335656Y-83104629D01*
X143332824Y-83252706D01*
X143332549Y-83342111D01*
X143332549Y-83726471D01*
X143083529Y-83726471D01*
X143083529Y-82506275D01*
X143208039Y-82506275D01*
X143282764Y-82508921D01*
X143282764Y-82508921D01*
G37*
X143282764Y-82508921D02*
X143320030Y-82520091D01*
X143332043Y-82544633D01*
X143332549Y-82555712D01*
X143334704Y-82586572D01*
X143349551Y-82591417D01*
X143389657Y-82570260D01*
X143413480Y-82555806D01*
X143488638Y-82524850D01*
X143578406Y-82509544D01*
X143672529Y-82508367D01*
X143760754Y-82519799D01*
X143832826Y-82542320D01*
X143878492Y-82574409D01*
X143887498Y-82614545D01*
X143882953Y-82625415D01*
X143849821Y-82670534D01*
X143798445Y-82726026D01*
X143789152Y-82734996D01*
X143740182Y-82776245D01*
X143697931Y-82789572D01*
X143638841Y-82780271D01*
X143615169Y-82774090D01*
X143541504Y-82759246D01*
X143489710Y-82765921D01*
X143445969Y-82789465D01*
X143405902Y-82821061D01*
X143376392Y-82860798D01*
X143355884Y-82916252D01*
X143342824Y-82995003D01*
X143335656Y-83104629D01*
X143332824Y-83252706D01*
X143332549Y-83342111D01*
X143332549Y-83726471D01*
X143083529Y-83726471D01*
X143083529Y-82506275D01*
X143208039Y-82506275D01*
X143282764Y-82508921D01*
G36*
X144851568Y-83726471D02*
X144714607Y-83726471D01*
X144635111Y-83724140D01*
X144593708Y-83714488D01*
X144578801Y-83693525D01*
X144577647Y-83679351D01*
X144575133Y-83650927D01*
X144559280Y-83645475D01*
X144517621Y-83662998D01*
X144485224Y-83679351D01*
X144360849Y-83718103D01*
X144225646Y-83720346D01*
X144115726Y-83691444D01*
X144013366Y-83621619D01*
X143935340Y-83518555D01*
X143892614Y-83396989D01*
X143891526Y-83390192D01*
X143885178Y-83316032D01*
X143882021Y-83209570D01*
X143882275Y-83129052D01*
X144154289Y-83129052D01*
X144160590Y-83236070D01*
X144174925Y-83324278D01*
X144194331Y-83374090D01*
X144267746Y-83442162D01*
X144354914Y-83466564D01*
X144444804Y-83446831D01*
X144521617Y-83387968D01*
X144550708Y-83348379D01*
X144567717Y-83301138D01*
X144575684Y-83232181D01*
X144577647Y-83128607D01*
X144574134Y-83026039D01*
X144564857Y-82935921D01*
X144551706Y-82875613D01*
X144549514Y-82870208D01*
X144496478Y-82805940D01*
X144419067Y-82770656D01*
X144332454Y-82764959D01*
X144251807Y-82789453D01*
X144192297Y-82844742D01*
X144186124Y-82855743D01*
X144166801Y-82922827D01*
X144156274Y-83019284D01*
X144154289Y-83129052D01*
X143882275Y-83129052D01*
X143882404Y-83088225D01*
X143884194Y-83022918D01*
X143896373Y-82861355D01*
X143921685Y-82740053D01*
X143963793Y-82650379D01*
X144026359Y-82583699D01*
X144087100Y-82544557D01*
X144171964Y-82517040D01*
X144277515Y-82507603D01*
X144385598Y-82515290D01*
X144478058Y-82539146D01*
X144526910Y-82567685D01*
X144577647Y-82613601D01*
X144577647Y-82033137D01*
X144851568Y-82033137D01*
X144851568Y-83726471D01*
X144851568Y-83726471D01*
G37*
X144851568Y-83726471D02*
X144714607Y-83726471D01*
X144635111Y-83724140D01*
X144593708Y-83714488D01*
X144578801Y-83693525D01*
X144577647Y-83679351D01*
X144575133Y-83650927D01*
X144559280Y-83645475D01*
X144517621Y-83662998D01*
X144485224Y-83679351D01*
X144360849Y-83718103D01*
X144225646Y-83720346D01*
X144115726Y-83691444D01*
X144013366Y-83621619D01*
X143935340Y-83518555D01*
X143892614Y-83396989D01*
X143891526Y-83390192D01*
X143885178Y-83316032D01*
X143882021Y-83209570D01*
X143882275Y-83129052D01*
X144154289Y-83129052D01*
X144160590Y-83236070D01*
X144174925Y-83324278D01*
X144194331Y-83374090D01*
X144267746Y-83442162D01*
X144354914Y-83466564D01*
X144444804Y-83446831D01*
X144521617Y-83387968D01*
X144550708Y-83348379D01*
X144567717Y-83301138D01*
X144575684Y-83232181D01*
X144577647Y-83128607D01*
X144574134Y-83026039D01*
X144564857Y-82935921D01*
X144551706Y-82875613D01*
X144549514Y-82870208D01*
X144496478Y-82805940D01*
X144419067Y-82770656D01*
X144332454Y-82764959D01*
X144251807Y-82789453D01*
X144192297Y-82844742D01*
X144186124Y-82855743D01*
X144166801Y-82922827D01*
X144156274Y-83019284D01*
X144154289Y-83129052D01*
X143882275Y-83129052D01*
X143882404Y-83088225D01*
X143884194Y-83022918D01*
X143896373Y-82861355D01*
X143921685Y-82740053D01*
X143963793Y-82650379D01*
X144026359Y-82583699D01*
X144087100Y-82544557D01*
X144171964Y-82517040D01*
X144277515Y-82507603D01*
X144385598Y-82515290D01*
X144478058Y-82539146D01*
X144526910Y-82567685D01*
X144577647Y-82613601D01*
X144577647Y-82033137D01*
X144851568Y-82033137D01*
X144851568Y-83726471D01*
G36*
X145807528Y-82511332D02*
X145906014Y-82518726D01*
X146034776Y-82904706D01*
X146163537Y-83290686D01*
X146203911Y-83153726D01*
X146228207Y-83069083D01*
X146260167Y-82954697D01*
X146294679Y-82828963D01*
X146312928Y-82761520D01*
X146381571Y-82506275D01*
X146664773Y-82506275D01*
X146580122Y-82773971D01*
X146538435Y-82905638D01*
X146488074Y-83064458D01*
X146435481Y-83230128D01*
X146388530Y-83377843D01*
X146281589Y-83714020D01*
X146050661Y-83729044D01*
X145988050Y-83522316D01*
X145949438Y-83393896D01*
X145907300Y-83252322D01*
X145870472Y-83127285D01*
X145869018Y-83122309D01*
X145841511Y-83037586D01*
X145817242Y-82979778D01*
X145800243Y-82957918D01*
X145796750Y-82960446D01*
X145784490Y-82994336D01*
X145761195Y-83066930D01*
X145729700Y-83169101D01*
X145692842Y-83291720D01*
X145672899Y-83359167D01*
X145564895Y-83726471D01*
X145335679Y-83726471D01*
X145152439Y-83147500D01*
X145100963Y-82985091D01*
X145054070Y-82837602D01*
X145013977Y-82711960D01*
X144982897Y-82615095D01*
X144963045Y-82553934D01*
X144957011Y-82536065D01*
X144961788Y-82517768D01*
X144999297Y-82509755D01*
X145077355Y-82510557D01*
X145089574Y-82511163D01*
X145234326Y-82518726D01*
X145329130Y-82867353D01*
X145363977Y-82994497D01*
X145395117Y-83106265D01*
X145419809Y-83192953D01*
X145435312Y-83244856D01*
X145438176Y-83253318D01*
X145450046Y-83243587D01*
X145473983Y-83193172D01*
X145507239Y-83108935D01*
X145547064Y-82997741D01*
X145580730Y-82897297D01*
X145709041Y-82503939D01*
X145807528Y-82511332D01*
X145807528Y-82511332D01*
G37*
X145807528Y-82511332D02*
X145906014Y-82518726D01*
X146034776Y-82904706D01*
X146163537Y-83290686D01*
X146203911Y-83153726D01*
X146228207Y-83069083D01*
X146260167Y-82954697D01*
X146294679Y-82828963D01*
X146312928Y-82761520D01*
X146381571Y-82506275D01*
X146664773Y-82506275D01*
X146580122Y-82773971D01*
X146538435Y-82905638D01*
X146488074Y-83064458D01*
X146435481Y-83230128D01*
X146388530Y-83377843D01*
X146281589Y-83714020D01*
X146050661Y-83729044D01*
X145988050Y-83522316D01*
X145949438Y-83393896D01*
X145907300Y-83252322D01*
X145870472Y-83127285D01*
X145869018Y-83122309D01*
X145841511Y-83037586D01*
X145817242Y-82979778D01*
X145800243Y-82957918D01*
X145796750Y-82960446D01*
X145784490Y-82994336D01*
X145761195Y-83066930D01*
X145729700Y-83169101D01*
X145692842Y-83291720D01*
X145672899Y-83359167D01*
X145564895Y-83726471D01*
X145335679Y-83726471D01*
X145152439Y-83147500D01*
X145100963Y-82985091D01*
X145054070Y-82837602D01*
X145013977Y-82711960D01*
X144982897Y-82615095D01*
X144963045Y-82553934D01*
X144957011Y-82536065D01*
X144961788Y-82517768D01*
X144999297Y-82509755D01*
X145077355Y-82510557D01*
X145089574Y-82511163D01*
X145234326Y-82518726D01*
X145329130Y-82867353D01*
X145363977Y-82994497D01*
X145395117Y-83106265D01*
X145419809Y-83192953D01*
X145435312Y-83244856D01*
X145438176Y-83253318D01*
X145450046Y-83243587D01*
X145473983Y-83193172D01*
X145507239Y-83108935D01*
X145547064Y-82997741D01*
X145580730Y-82897297D01*
X145709041Y-82503939D01*
X145807528Y-82511332D01*
G36*
X147306459Y-82513669D02*
X147411420Y-82539163D01*
X147441761Y-82552669D01*
X147500573Y-82588046D01*
X147545709Y-82627890D01*
X147579106Y-82679120D01*
X147602701Y-82748654D01*
X147618433Y-82843409D01*
X147628239Y-82970305D01*
X147634057Y-83136258D01*
X147636266Y-83247108D01*
X147644396Y-83726471D01*
X147505531Y-83726471D01*
X147421287Y-83722938D01*
X147377884Y-83710866D01*
X147366666Y-83690594D01*
X147360744Y-83668674D01*
X147334266Y-83672865D01*
X147298186Y-83690441D01*
X147207862Y-83717382D01*
X147091777Y-83724642D01*
X146969680Y-83712767D01*
X146861321Y-83682305D01*
X146851602Y-83678077D01*
X146752568Y-83608505D01*
X146687281Y-83511789D01*
X146657240Y-83398738D01*
X146659535Y-83358122D01*
X146904633Y-83358122D01*
X146926229Y-83412782D01*
X146990259Y-83451952D01*
X147093565Y-83472974D01*
X147148774Y-83475766D01*
X147240782Y-83468620D01*
X147301941Y-83440848D01*
X147316862Y-83427647D01*
X147357287Y-83355829D01*
X147366666Y-83290686D01*
X147366666Y-83203530D01*
X147245269Y-83203530D01*
X147104153Y-83210722D01*
X147005173Y-83233345D01*
X146942633Y-83272964D01*
X146928631Y-83290628D01*
X146904633Y-83358122D01*
X146659535Y-83358122D01*
X146663941Y-83280157D01*
X146708880Y-83166855D01*
X146770196Y-83090285D01*
X146807332Y-83057181D01*
X146843687Y-83035425D01*
X146890990Y-83022161D01*
X146960973Y-83014528D01*
X147065364Y-83009670D01*
X147106770Y-83008273D01*
X147366666Y-82999780D01*
X147366285Y-82921116D01*
X147356219Y-82838428D01*
X147319829Y-82788431D01*
X147246311Y-82756489D01*
X147244339Y-82755920D01*
X147140105Y-82743361D01*
X147038108Y-82759766D01*
X146962305Y-82799657D01*
X146931890Y-82819354D01*
X146899132Y-82816629D01*
X146848721Y-82788091D01*
X146819119Y-82767950D01*
X146761218Y-82724919D01*
X146725352Y-82692662D01*
X146719597Y-82683427D01*
X146743295Y-82635636D01*
X146813313Y-82578562D01*
X146843725Y-82559305D01*
X146931155Y-82526140D01*
X147048983Y-82507350D01*
X147179866Y-82503129D01*
X147306459Y-82513669D01*
X147306459Y-82513669D01*
G37*
X147306459Y-82513669D02*
X147411420Y-82539163D01*
X147441761Y-82552669D01*
X147500573Y-82588046D01*
X147545709Y-82627890D01*
X147579106Y-82679120D01*
X147602701Y-82748654D01*
X147618433Y-82843409D01*
X147628239Y-82970305D01*
X147634057Y-83136258D01*
X147636266Y-83247108D01*
X147644396Y-83726471D01*
X147505531Y-83726471D01*
X147421287Y-83722938D01*
X147377884Y-83710866D01*
X147366666Y-83690594D01*
X147360744Y-83668674D01*
X147334266Y-83672865D01*
X147298186Y-83690441D01*
X147207862Y-83717382D01*
X147091777Y-83724642D01*
X146969680Y-83712767D01*
X146861321Y-83682305D01*
X146851602Y-83678077D01*
X146752568Y-83608505D01*
X146687281Y-83511789D01*
X146657240Y-83398738D01*
X146659535Y-83358122D01*
X146904633Y-83358122D01*
X146926229Y-83412782D01*
X146990259Y-83451952D01*
X147093565Y-83472974D01*
X147148774Y-83475766D01*
X147240782Y-83468620D01*
X147301941Y-83440848D01*
X147316862Y-83427647D01*
X147357287Y-83355829D01*
X147366666Y-83290686D01*
X147366666Y-83203530D01*
X147245269Y-83203530D01*
X147104153Y-83210722D01*
X147005173Y-83233345D01*
X146942633Y-83272964D01*
X146928631Y-83290628D01*
X146904633Y-83358122D01*
X146659535Y-83358122D01*
X146663941Y-83280157D01*
X146708880Y-83166855D01*
X146770196Y-83090285D01*
X146807332Y-83057181D01*
X146843687Y-83035425D01*
X146890990Y-83022161D01*
X146960973Y-83014528D01*
X147065364Y-83009670D01*
X147106770Y-83008273D01*
X147366666Y-82999780D01*
X147366285Y-82921116D01*
X147356219Y-82838428D01*
X147319829Y-82788431D01*
X147246311Y-82756489D01*
X147244339Y-82755920D01*
X147140105Y-82743361D01*
X147038108Y-82759766D01*
X146962305Y-82799657D01*
X146931890Y-82819354D01*
X146899132Y-82816629D01*
X146848721Y-82788091D01*
X146819119Y-82767950D01*
X146761218Y-82724919D01*
X146725352Y-82692662D01*
X146719597Y-82683427D01*
X146743295Y-82635636D01*
X146813313Y-82578562D01*
X146843725Y-82559305D01*
X146931155Y-82526140D01*
X147048983Y-82507350D01*
X147179866Y-82503129D01*
X147306459Y-82513669D01*
G36*
X148488446Y-82505883D02*
X148584177Y-82524755D01*
X148638677Y-82552699D01*
X148696008Y-82599123D01*
X148614441Y-82702111D01*
X148564150Y-82764479D01*
X148530001Y-82794907D01*
X148496063Y-82799555D01*
X148446406Y-82784586D01*
X148423096Y-82776117D01*
X148328063Y-82763622D01*
X148241032Y-82790406D01*
X148177138Y-82850915D01*
X148166759Y-82870208D01*
X148155456Y-82921314D01*
X148146732Y-83015500D01*
X148140997Y-83146089D01*
X148138660Y-83306405D01*
X148138627Y-83329211D01*
X148138627Y-83726471D01*
X147864705Y-83726471D01*
X147864705Y-82506275D01*
X148001666Y-82506275D01*
X148080638Y-82508337D01*
X148121779Y-82517513D01*
X148136992Y-82538290D01*
X148138627Y-82557886D01*
X148138627Y-82609497D01*
X148204240Y-82557886D01*
X148279475Y-82522675D01*
X148380544Y-82505265D01*
X148488446Y-82505883D01*
X148488446Y-82505883D01*
G37*
X148488446Y-82505883D02*
X148584177Y-82524755D01*
X148638677Y-82552699D01*
X148696008Y-82599123D01*
X148614441Y-82702111D01*
X148564150Y-82764479D01*
X148530001Y-82794907D01*
X148496063Y-82799555D01*
X148446406Y-82784586D01*
X148423096Y-82776117D01*
X148328063Y-82763622D01*
X148241032Y-82790406D01*
X148177138Y-82850915D01*
X148166759Y-82870208D01*
X148155456Y-82921314D01*
X148146732Y-83015500D01*
X148140997Y-83146089D01*
X148138660Y-83306405D01*
X148138627Y-83329211D01*
X148138627Y-83726471D01*
X147864705Y-83726471D01*
X147864705Y-82506275D01*
X148001666Y-82506275D01*
X148080638Y-82508337D01*
X148121779Y-82517513D01*
X148136992Y-82538290D01*
X148138627Y-82557886D01*
X148138627Y-82609497D01*
X148204240Y-82557886D01*
X148279475Y-82522675D01*
X148380544Y-82505265D01*
X148488446Y-82505883D01*
G36*
X149275307Y-82512784D02*
X149394337Y-82543731D01*
X149494021Y-82607600D01*
X149542288Y-82655313D01*
X149621408Y-82768106D01*
X149666752Y-82898950D01*
X149682330Y-83059792D01*
X149682410Y-83072794D01*
X149682549Y-83203530D01*
X148930091Y-83203530D01*
X148946130Y-83272010D01*
X148975091Y-83334031D01*
X149025778Y-83398654D01*
X149036379Y-83408971D01*
X149127494Y-83464805D01*
X149231400Y-83474275D01*
X149351000Y-83437540D01*
X149371274Y-83427647D01*
X149433456Y-83397574D01*
X149475106Y-83380440D01*
X149482373Y-83378855D01*
X149507740Y-83394242D01*
X149556120Y-83431887D01*
X149580679Y-83452459D01*
X149631570Y-83499714D01*
X149648281Y-83530917D01*
X149636683Y-83559620D01*
X149630483Y-83567468D01*
X149588493Y-83601819D01*
X149519206Y-83643565D01*
X149470882Y-83667935D01*
X149333711Y-83710873D01*
X149181847Y-83724786D01*
X149038024Y-83708300D01*
X148997745Y-83696496D01*
X148873078Y-83629689D01*
X148780671Y-83526892D01*
X148719990Y-83387105D01*
X148690498Y-83209330D01*
X148687260Y-83116373D01*
X148696714Y-82981033D01*
X148935490Y-82981033D01*
X148958584Y-82991038D01*
X149020662Y-82998888D01*
X149110914Y-83003521D01*
X149172058Y-83004314D01*
X149282040Y-83003549D01*
X149351457Y-82999970D01*
X149389538Y-82991649D01*
X149405515Y-82976657D01*
X149408627Y-82954903D01*
X149387278Y-82887892D01*
X149333529Y-82821664D01*
X149262822Y-82770832D01*
X149192089Y-82750038D01*
X149096016Y-82768484D01*
X149012849Y-82821811D01*
X148955186Y-82898677D01*
X148935490Y-82981033D01*
X148696714Y-82981033D01*
X148701028Y-82919291D01*
X148743520Y-82762271D01*
X148815635Y-82644069D01*
X148918273Y-82563440D01*
X149052332Y-82519139D01*
X149124957Y-82510607D01*
X149275307Y-82512784D01*
X149275307Y-82512784D01*
G37*
X149275307Y-82512784D02*
X149394337Y-82543731D01*
X149494021Y-82607600D01*
X149542288Y-82655313D01*
X149621408Y-82768106D01*
X149666752Y-82898950D01*
X149682330Y-83059792D01*
X149682410Y-83072794D01*
X149682549Y-83203530D01*
X148930091Y-83203530D01*
X148946130Y-83272010D01*
X148975091Y-83334031D01*
X149025778Y-83398654D01*
X149036379Y-83408971D01*
X149127494Y-83464805D01*
X149231400Y-83474275D01*
X149351000Y-83437540D01*
X149371274Y-83427647D01*
X149433456Y-83397574D01*
X149475106Y-83380440D01*
X149482373Y-83378855D01*
X149507740Y-83394242D01*
X149556120Y-83431887D01*
X149580679Y-83452459D01*
X149631570Y-83499714D01*
X149648281Y-83530917D01*
X149636683Y-83559620D01*
X149630483Y-83567468D01*
X149588493Y-83601819D01*
X149519206Y-83643565D01*
X149470882Y-83667935D01*
X149333711Y-83710873D01*
X149181847Y-83724786D01*
X149038024Y-83708300D01*
X148997745Y-83696496D01*
X148873078Y-83629689D01*
X148780671Y-83526892D01*
X148719990Y-83387105D01*
X148690498Y-83209330D01*
X148687260Y-83116373D01*
X148696714Y-82981033D01*
X148935490Y-82981033D01*
X148958584Y-82991038D01*
X149020662Y-82998888D01*
X149110914Y-83003521D01*
X149172058Y-83004314D01*
X149282040Y-83003549D01*
X149351457Y-82999970D01*
X149389538Y-82991649D01*
X149405515Y-82976657D01*
X149408627Y-82954903D01*
X149387278Y-82887892D01*
X149333529Y-82821664D01*
X149262822Y-82770832D01*
X149192089Y-82750038D01*
X149096016Y-82768484D01*
X149012849Y-82821811D01*
X148955186Y-82898677D01*
X148935490Y-82981033D01*
X148696714Y-82981033D01*
X148701028Y-82919291D01*
X148743520Y-82762271D01*
X148815635Y-82644069D01*
X148918273Y-82563440D01*
X149052332Y-82519139D01*
X149124957Y-82510607D01*
X149275307Y-82512784D01*
G36*
X140223247Y-80651568D02*
X140353522Y-80709163D01*
X140452419Y-80805334D01*
X140520082Y-80940229D01*
X140556655Y-81113996D01*
X140559276Y-81141126D01*
X140561330Y-81332408D01*
X140534699Y-81500073D01*
X140481001Y-81635967D01*
X140452247Y-81679681D01*
X140352091Y-81772198D01*
X140224537Y-81832119D01*
X140081837Y-81856985D01*
X139936240Y-81844339D01*
X139825562Y-81805391D01*
X139730384Y-81739755D01*
X139652594Y-81653699D01*
X139651249Y-81651685D01*
X139619657Y-81598570D01*
X139599127Y-81545160D01*
X139586695Y-81477754D01*
X139579397Y-81382653D01*
X139576182Y-81304666D01*
X139574844Y-81233944D01*
X139823814Y-81233944D01*
X139826247Y-81304348D01*
X139835080Y-81398068D01*
X139850664Y-81458214D01*
X139878766Y-81501006D01*
X139905086Y-81526002D01*
X139998392Y-81578338D01*
X140096020Y-81585333D01*
X140186942Y-81547676D01*
X140232402Y-81505479D01*
X140265162Y-81462956D01*
X140284323Y-81422267D01*
X140292733Y-81369314D01*
X140293237Y-81289997D01*
X140290645Y-81216950D01*
X140285071Y-81112601D01*
X140276234Y-81044920D01*
X140260307Y-81000774D01*
X140233462Y-80967031D01*
X140212189Y-80947746D01*
X140123206Y-80897086D01*
X140027211Y-80894560D01*
X139946719Y-80924567D01*
X139878053Y-80987231D01*
X139837144Y-81090168D01*
X139823814Y-81233944D01*
X139574844Y-81233944D01*
X139573246Y-81149582D01*
X139578260Y-81033600D01*
X139593283Y-80946367D01*
X139620376Y-80877530D01*
X139661600Y-80816737D01*
X139676885Y-80798686D01*
X139772454Y-80708746D01*
X139874961Y-80656211D01*
X140000321Y-80634201D01*
X140061450Y-80632402D01*
X140223247Y-80651568D01*
X140223247Y-80651568D01*
G37*
X140223247Y-80651568D02*
X140353522Y-80709163D01*
X140452419Y-80805334D01*
X140520082Y-80940229D01*
X140556655Y-81113996D01*
X140559276Y-81141126D01*
X140561330Y-81332408D01*
X140534699Y-81500073D01*
X140481001Y-81635967D01*
X140452247Y-81679681D01*
X140352091Y-81772198D01*
X140224537Y-81832119D01*
X140081837Y-81856985D01*
X139936240Y-81844339D01*
X139825562Y-81805391D01*
X139730384Y-81739755D01*
X139652594Y-81653699D01*
X139651249Y-81651685D01*
X139619657Y-81598570D01*
X139599127Y-81545160D01*
X139586695Y-81477754D01*
X139579397Y-81382653D01*
X139576182Y-81304666D01*
X139574844Y-81233944D01*
X139823814Y-81233944D01*
X139826247Y-81304348D01*
X139835080Y-81398068D01*
X139850664Y-81458214D01*
X139878766Y-81501006D01*
X139905086Y-81526002D01*
X139998392Y-81578338D01*
X140096020Y-81585333D01*
X140186942Y-81547676D01*
X140232402Y-81505479D01*
X140265162Y-81462956D01*
X140284323Y-81422267D01*
X140292733Y-81369314D01*
X140293237Y-81289997D01*
X140290645Y-81216950D01*
X140285071Y-81112601D01*
X140276234Y-81044920D01*
X140260307Y-81000774D01*
X140233462Y-80967031D01*
X140212189Y-80947746D01*
X140123206Y-80897086D01*
X140027211Y-80894560D01*
X139946719Y-80924567D01*
X139878053Y-80987231D01*
X139837144Y-81090168D01*
X139823814Y-81233944D01*
X139574844Y-81233944D01*
X139573246Y-81149582D01*
X139578260Y-81033600D01*
X139593283Y-80946367D01*
X139620376Y-80877530D01*
X139661600Y-80816737D01*
X139676885Y-80798686D01*
X139772454Y-80708746D01*
X139874961Y-80656211D01*
X140000321Y-80634201D01*
X140061450Y-80632402D01*
X140223247Y-80651568D01*
G36*
X142563204Y-80666354D02*
X142588019Y-80678037D01*
X142673906Y-80740951D01*
X142755121Y-80832769D01*
X142815764Y-80933868D01*
X142833012Y-80980349D01*
X142848749Y-81063376D01*
X142858133Y-81163713D01*
X142859272Y-81205147D01*
X142859411Y-81335882D01*
X142106953Y-81335882D01*
X142122993Y-81404363D01*
X142162363Y-81485355D01*
X142231194Y-81555351D01*
X142313081Y-81600441D01*
X142365263Y-81609804D01*
X142436029Y-81598441D01*
X142520460Y-81569943D01*
X142549142Y-81556831D01*
X142655209Y-81503858D01*
X142745728Y-81572901D01*
X142797961Y-81619597D01*
X142825753Y-81658140D01*
X142827160Y-81669452D01*
X142802332Y-81696868D01*
X142747917Y-81738532D01*
X142698528Y-81771037D01*
X142565252Y-81829468D01*
X142415839Y-81855915D01*
X142267751Y-81849039D01*
X142149705Y-81813096D01*
X142028018Y-81736101D01*
X141941540Y-81634728D01*
X141887441Y-81503570D01*
X141862891Y-81337224D01*
X141860714Y-81261108D01*
X141869427Y-81086685D01*
X141870497Y-81081611D01*
X142119827Y-81081611D01*
X142126694Y-81097968D01*
X142154917Y-81106988D01*
X142213127Y-81110854D01*
X142309958Y-81111749D01*
X142347243Y-81111765D01*
X142460683Y-81110413D01*
X142532622Y-81105505D01*
X142571313Y-81095760D01*
X142585005Y-81079899D01*
X142585490Y-81074805D01*
X142569863Y-81034326D01*
X142530753Y-80977621D01*
X142513939Y-80957766D01*
X142451519Y-80901611D01*
X142386453Y-80879532D01*
X142351397Y-80877686D01*
X142256558Y-80900766D01*
X142177027Y-80962759D01*
X142126577Y-81052802D01*
X142125683Y-81055735D01*
X142119827Y-81081611D01*
X141870497Y-81081611D01*
X141898399Y-80949343D01*
X141950590Y-80839461D01*
X142014421Y-80761461D01*
X142132433Y-80676882D01*
X142271158Y-80631686D01*
X142418710Y-80627600D01*
X142563204Y-80666354D01*
X142563204Y-80666354D01*
G37*
X142563204Y-80666354D02*
X142588019Y-80678037D01*
X142673906Y-80740951D01*
X142755121Y-80832769D01*
X142815764Y-80933868D01*
X142833012Y-80980349D01*
X142848749Y-81063376D01*
X142858133Y-81163713D01*
X142859272Y-81205147D01*
X142859411Y-81335882D01*
X142106953Y-81335882D01*
X142122993Y-81404363D01*
X142162363Y-81485355D01*
X142231194Y-81555351D01*
X142313081Y-81600441D01*
X142365263Y-81609804D01*
X142436029Y-81598441D01*
X142520460Y-81569943D01*
X142549142Y-81556831D01*
X142655209Y-81503858D01*
X142745728Y-81572901D01*
X142797961Y-81619597D01*
X142825753Y-81658140D01*
X142827160Y-81669452D01*
X142802332Y-81696868D01*
X142747917Y-81738532D01*
X142698528Y-81771037D01*
X142565252Y-81829468D01*
X142415839Y-81855915D01*
X142267751Y-81849039D01*
X142149705Y-81813096D01*
X142028018Y-81736101D01*
X141941540Y-81634728D01*
X141887441Y-81503570D01*
X141862891Y-81337224D01*
X141860714Y-81261108D01*
X141869427Y-81086685D01*
X141870497Y-81081611D01*
X142119827Y-81081611D01*
X142126694Y-81097968D01*
X142154917Y-81106988D01*
X142213127Y-81110854D01*
X142309958Y-81111749D01*
X142347243Y-81111765D01*
X142460683Y-81110413D01*
X142532622Y-81105505D01*
X142571313Y-81095760D01*
X142585005Y-81079899D01*
X142585490Y-81074805D01*
X142569863Y-81034326D01*
X142530753Y-80977621D01*
X142513939Y-80957766D01*
X142451519Y-80901611D01*
X142386453Y-80879532D01*
X142351397Y-80877686D01*
X142256558Y-80900766D01*
X142177027Y-80962759D01*
X142126577Y-81052802D01*
X142125683Y-81055735D01*
X142119827Y-81081611D01*
X141870497Y-81081611D01*
X141898399Y-80949343D01*
X141950590Y-80839461D01*
X142014421Y-80761461D01*
X142132433Y-80676882D01*
X142271158Y-80631686D01*
X142418710Y-80627600D01*
X142563204Y-80666354D01*
G36*
X145277759Y-80634345D02*
X145372059Y-80652229D01*
X145469890Y-80689633D01*
X145480343Y-80694402D01*
X145554531Y-80733412D01*
X145605910Y-80769664D01*
X145622517Y-80792887D01*
X145606702Y-80830761D01*
X145568288Y-80886644D01*
X145551237Y-80907505D01*
X145480969Y-80989618D01*
X145390379Y-80936168D01*
X145304164Y-80900561D01*
X145204549Y-80881529D01*
X145109019Y-80880326D01*
X145035061Y-80898210D01*
X145017312Y-80909373D01*
X144983512Y-80960553D01*
X144979404Y-81019509D01*
X145004696Y-81065567D01*
X145019656Y-81074499D01*
X145064486Y-81085592D01*
X145143286Y-81098630D01*
X145240426Y-81111088D01*
X145258346Y-81113042D01*
X145414365Y-81140030D01*
X145527523Y-81185873D01*
X145602569Y-81254803D01*
X145644253Y-81351054D01*
X145657238Y-81468617D01*
X145639299Y-81602254D01*
X145581050Y-81707195D01*
X145482255Y-81783630D01*
X145342682Y-81831748D01*
X145187745Y-81850732D01*
X145061398Y-81850504D01*
X144958913Y-81833262D01*
X144888921Y-81809457D01*
X144800483Y-81767978D01*
X144718754Y-81719842D01*
X144689705Y-81698655D01*
X144615000Y-81637676D01*
X144705098Y-81546508D01*
X144795196Y-81455339D01*
X144897632Y-81523128D01*
X145000374Y-81574042D01*
X145110087Y-81600673D01*
X145215551Y-81603483D01*
X145305546Y-81582935D01*
X145368854Y-81539493D01*
X145389296Y-81502838D01*
X145386229Y-81444053D01*
X145335434Y-81399099D01*
X145237048Y-81368057D01*
X145129256Y-81353710D01*
X144963365Y-81326337D01*
X144840124Y-81274693D01*
X144757886Y-81197266D01*
X144715001Y-81092544D01*
X144709060Y-80968387D01*
X144738406Y-80838702D01*
X144805309Y-80740677D01*
X144910371Y-80673866D01*
X145054190Y-80637820D01*
X145160738Y-80630754D01*
X145277759Y-80634345D01*
X145277759Y-80634345D01*
G37*
X145277759Y-80634345D02*
X145372059Y-80652229D01*
X145469890Y-80689633D01*
X145480343Y-80694402D01*
X145554531Y-80733412D01*
X145605910Y-80769664D01*
X145622517Y-80792887D01*
X145606702Y-80830761D01*
X145568288Y-80886644D01*
X145551237Y-80907505D01*
X145480969Y-80989618D01*
X145390379Y-80936168D01*
X145304164Y-80900561D01*
X145204549Y-80881529D01*
X145109019Y-80880326D01*
X145035061Y-80898210D01*
X145017312Y-80909373D01*
X144983512Y-80960553D01*
X144979404Y-81019509D01*
X145004696Y-81065567D01*
X145019656Y-81074499D01*
X145064486Y-81085592D01*
X145143286Y-81098630D01*
X145240426Y-81111088D01*
X145258346Y-81113042D01*
X145414365Y-81140030D01*
X145527523Y-81185873D01*
X145602569Y-81254803D01*
X145644253Y-81351054D01*
X145657238Y-81468617D01*
X145639299Y-81602254D01*
X145581050Y-81707195D01*
X145482255Y-81783630D01*
X145342682Y-81831748D01*
X145187745Y-81850732D01*
X145061398Y-81850504D01*
X144958913Y-81833262D01*
X144888921Y-81809457D01*
X144800483Y-81767978D01*
X144718754Y-81719842D01*
X144689705Y-81698655D01*
X144615000Y-81637676D01*
X144705098Y-81546508D01*
X144795196Y-81455339D01*
X144897632Y-81523128D01*
X145000374Y-81574042D01*
X145110087Y-81600673D01*
X145215551Y-81603483D01*
X145305546Y-81582935D01*
X145368854Y-81539493D01*
X145389296Y-81502838D01*
X145386229Y-81444053D01*
X145335434Y-81399099D01*
X145237048Y-81368057D01*
X145129256Y-81353710D01*
X144963365Y-81326337D01*
X144840124Y-81274693D01*
X144757886Y-81197266D01*
X144715001Y-81092544D01*
X144709060Y-80968387D01*
X144738406Y-80838702D01*
X144805309Y-80740677D01*
X144910371Y-80673866D01*
X145054190Y-80637820D01*
X145160738Y-80630754D01*
X145277759Y-80634345D01*
G36*
X146459547Y-80653364D02*
X146585502Y-80721959D01*
X146684047Y-80830245D01*
X146730478Y-80918315D01*
X146750412Y-80996101D01*
X146763328Y-81106993D01*
X146768863Y-81234738D01*
X146766654Y-81363084D01*
X146756337Y-81475779D01*
X146744286Y-81535969D01*
X146703634Y-81618311D01*
X146633230Y-81705770D01*
X146548382Y-81782251D01*
X146464397Y-81831655D01*
X146462349Y-81832439D01*
X146358134Y-81854027D01*
X146234627Y-81854562D01*
X146117261Y-81834908D01*
X146071942Y-81819155D01*
X145955220Y-81752966D01*
X145871624Y-81666246D01*
X145816701Y-81551438D01*
X145785995Y-81400982D01*
X145779047Y-81322173D01*
X145779933Y-81223145D01*
X146046862Y-81223145D01*
X146055854Y-81367645D01*
X146081736Y-81477760D01*
X146122868Y-81548116D01*
X146152172Y-81568235D01*
X146227251Y-81582265D01*
X146316494Y-81578111D01*
X146393650Y-81557922D01*
X146413883Y-81546815D01*
X146467265Y-81482123D01*
X146502500Y-81383119D01*
X146517498Y-81262632D01*
X146510172Y-81133494D01*
X146493799Y-81055775D01*
X146446790Y-80965771D01*
X146372582Y-80909509D01*
X146283209Y-80890057D01*
X146190707Y-80910481D01*
X146119653Y-80960437D01*
X146082312Y-81001655D01*
X146060518Y-81042281D01*
X146050130Y-81097264D01*
X146047006Y-81181549D01*
X146046862Y-81223145D01*
X145779933Y-81223145D01*
X145780930Y-81111874D01*
X145815180Y-80939423D01*
X145881802Y-80804814D01*
X145980799Y-80708040D01*
X146112175Y-80649094D01*
X146140385Y-80642259D01*
X146309926Y-80626213D01*
X146459547Y-80653364D01*
X146459547Y-80653364D01*
G37*
X146459547Y-80653364D02*
X146585502Y-80721959D01*
X146684047Y-80830245D01*
X146730478Y-80918315D01*
X146750412Y-80996101D01*
X146763328Y-81106993D01*
X146768863Y-81234738D01*
X146766654Y-81363084D01*
X146756337Y-81475779D01*
X146744286Y-81535969D01*
X146703634Y-81618311D01*
X146633230Y-81705770D01*
X146548382Y-81782251D01*
X146464397Y-81831655D01*
X146462349Y-81832439D01*
X146358134Y-81854027D01*
X146234627Y-81854562D01*
X146117261Y-81834908D01*
X146071942Y-81819155D01*
X145955220Y-81752966D01*
X145871624Y-81666246D01*
X145816701Y-81551438D01*
X145785995Y-81400982D01*
X145779047Y-81322173D01*
X145779933Y-81223145D01*
X146046862Y-81223145D01*
X146055854Y-81367645D01*
X146081736Y-81477760D01*
X146122868Y-81548116D01*
X146152172Y-81568235D01*
X146227251Y-81582265D01*
X146316494Y-81578111D01*
X146393650Y-81557922D01*
X146413883Y-81546815D01*
X146467265Y-81482123D01*
X146502500Y-81383119D01*
X146517498Y-81262632D01*
X146510172Y-81133494D01*
X146493799Y-81055775D01*
X146446790Y-80965771D01*
X146372582Y-80909509D01*
X146283209Y-80890057D01*
X146190707Y-80910481D01*
X146119653Y-80960437D01*
X146082312Y-81001655D01*
X146060518Y-81042281D01*
X146050130Y-81097264D01*
X146047006Y-81181549D01*
X146046862Y-81223145D01*
X145779933Y-81223145D01*
X145780930Y-81111874D01*
X145815180Y-80939423D01*
X145881802Y-80804814D01*
X145980799Y-80708040D01*
X146112175Y-80649094D01*
X146140385Y-80642259D01*
X146309926Y-80626213D01*
X146459547Y-80653364D01*
G36*
X147217254Y-81026245D02*
X147219608Y-81208879D01*
X147228207Y-81347600D01*
X147245360Y-81448147D01*
X147273374Y-81516254D01*
X147314557Y-81557659D01*
X147371217Y-81578097D01*
X147441372Y-81583318D01*
X147514848Y-81577468D01*
X147570657Y-81556093D01*
X147611109Y-81513458D01*
X147638509Y-81443825D01*
X147655167Y-81341460D01*
X147663389Y-81200624D01*
X147665490Y-81026245D01*
X147665490Y-80638628D01*
X147939411Y-80638628D01*
X147939411Y-81833922D01*
X147802451Y-81833922D01*
X147719884Y-81830576D01*
X147677368Y-81818826D01*
X147665490Y-81796520D01*
X147658336Y-81776654D01*
X147629865Y-81780857D01*
X147572476Y-81808971D01*
X147440945Y-81852342D01*
X147301438Y-81849270D01*
X147167765Y-81802174D01*
X147104108Y-81764971D01*
X147055553Y-81724691D01*
X147020081Y-81674291D01*
X146995674Y-81606729D01*
X146980313Y-81514965D01*
X146971982Y-81391955D01*
X146968662Y-81230659D01*
X146968235Y-81105928D01*
X146968235Y-80638628D01*
X147217254Y-80638628D01*
X147217254Y-81026245D01*
X147217254Y-81026245D01*
G37*
X147217254Y-81026245D02*
X147219608Y-81208879D01*
X147228207Y-81347600D01*
X147245360Y-81448147D01*
X147273374Y-81516254D01*
X147314557Y-81557659D01*
X147371217Y-81578097D01*
X147441372Y-81583318D01*
X147514848Y-81577468D01*
X147570657Y-81556093D01*
X147611109Y-81513458D01*
X147638509Y-81443825D01*
X147655167Y-81341460D01*
X147663389Y-81200624D01*
X147665490Y-81026245D01*
X147665490Y-80638628D01*
X147939411Y-80638628D01*
X147939411Y-81833922D01*
X147802451Y-81833922D01*
X147719884Y-81830576D01*
X147677368Y-81818826D01*
X147665490Y-81796520D01*
X147658336Y-81776654D01*
X147629865Y-81780857D01*
X147572476Y-81808971D01*
X147440945Y-81852342D01*
X147301438Y-81849270D01*
X147167765Y-81802174D01*
X147104108Y-81764971D01*
X147055553Y-81724691D01*
X147020081Y-81674291D01*
X146995674Y-81606729D01*
X146980313Y-81514965D01*
X146971982Y-81391955D01*
X146968662Y-81230659D01*
X146968235Y-81105928D01*
X146968235Y-80638628D01*
X147217254Y-80638628D01*
X147217254Y-81026245D01*
G36*
X149640976Y-80649056D02*
X149785256Y-80710348D01*
X149830699Y-80740185D01*
X149888779Y-80786036D01*
X149925238Y-80822089D01*
X149931568Y-80833832D01*
X149913693Y-80859889D01*
X149867950Y-80904105D01*
X149831328Y-80934965D01*
X149731088Y-81015520D01*
X149651935Y-80948918D01*
X149590769Y-80905921D01*
X149531129Y-80891079D01*
X149462872Y-80894704D01*
X149354482Y-80921652D01*
X149279872Y-80977587D01*
X149234530Y-81068014D01*
X149213947Y-81198435D01*
X149213942Y-81198517D01*
X149215722Y-81344290D01*
X149243387Y-81451245D01*
X149298571Y-81524064D01*
X149336192Y-81548723D01*
X149436105Y-81579431D01*
X149542822Y-81579449D01*
X149635669Y-81549655D01*
X149657647Y-81535098D01*
X149712765Y-81497914D01*
X149755859Y-81491820D01*
X149802335Y-81519496D01*
X149853716Y-81569205D01*
X149935046Y-81653116D01*
X149844749Y-81727546D01*
X149705236Y-81811549D01*
X149547912Y-81852947D01*
X149383503Y-81849950D01*
X149275531Y-81822500D01*
X149149331Y-81754620D01*
X149048401Y-81647831D01*
X149002548Y-81572451D01*
X148965410Y-81464297D01*
X148946827Y-81327318D01*
X148946684Y-81178864D01*
X148964865Y-81036281D01*
X149001255Y-80916918D01*
X149006987Y-80904680D01*
X149091865Y-80784655D01*
X149206782Y-80697267D01*
X149342659Y-80644329D01*
X149490417Y-80627654D01*
X149640976Y-80649056D01*
X149640976Y-80649056D01*
G37*
X149640976Y-80649056D02*
X149785256Y-80710348D01*
X149830699Y-80740185D01*
X149888779Y-80786036D01*
X149925238Y-80822089D01*
X149931568Y-80833832D01*
X149913693Y-80859889D01*
X149867950Y-80904105D01*
X149831328Y-80934965D01*
X149731088Y-81015520D01*
X149651935Y-80948918D01*
X149590769Y-80905921D01*
X149531129Y-80891079D01*
X149462872Y-80894704D01*
X149354482Y-80921652D01*
X149279872Y-80977587D01*
X149234530Y-81068014D01*
X149213947Y-81198435D01*
X149213942Y-81198517D01*
X149215722Y-81344290D01*
X149243387Y-81451245D01*
X149298571Y-81524064D01*
X149336192Y-81548723D01*
X149436105Y-81579431D01*
X149542822Y-81579449D01*
X149635669Y-81549655D01*
X149657647Y-81535098D01*
X149712765Y-81497914D01*
X149755859Y-81491820D01*
X149802335Y-81519496D01*
X149853716Y-81569205D01*
X149935046Y-81653116D01*
X149844749Y-81727546D01*
X149705236Y-81811549D01*
X149547912Y-81852947D01*
X149383503Y-81849950D01*
X149275531Y-81822500D01*
X149149331Y-81754620D01*
X149048401Y-81647831D01*
X149002548Y-81572451D01*
X148965410Y-81464297D01*
X148946827Y-81327318D01*
X148946684Y-81178864D01*
X148964865Y-81036281D01*
X149001255Y-80916918D01*
X149006987Y-80904680D01*
X149091865Y-80784655D01*
X149206782Y-80697267D01*
X149342659Y-80644329D01*
X149490417Y-80627654D01*
X149640976Y-80649056D01*
G36*
X150553287Y-80634355D02*
X150617051Y-80649845D01*
X150739300Y-80706569D01*
X150843834Y-80793202D01*
X150916180Y-80897074D01*
X150926119Y-80920396D01*
X150939754Y-80981484D01*
X150949298Y-81071853D01*
X150952549Y-81163190D01*
X150952549Y-81335882D01*
X150591470Y-81335882D01*
X150442546Y-81336445D01*
X150337632Y-81339864D01*
X150270937Y-81348731D01*
X150236666Y-81365641D01*
X150229028Y-81393189D01*
X150242229Y-81433968D01*
X150265877Y-81481683D01*
X150331843Y-81561314D01*
X150423512Y-81600987D01*
X150535555Y-81599695D01*
X150662472Y-81556514D01*
X150772158Y-81503224D01*
X150863173Y-81575191D01*
X150954188Y-81647157D01*
X150868563Y-81726269D01*
X150754250Y-81801017D01*
X150613666Y-81846084D01*
X150462449Y-81858696D01*
X150316236Y-81836079D01*
X150292647Y-81828405D01*
X150164141Y-81761296D01*
X150068551Y-81661247D01*
X150003861Y-81525271D01*
X149968057Y-81350380D01*
X149967640Y-81346632D01*
X149964434Y-81156032D01*
X149977393Y-81088035D01*
X150230392Y-81088035D01*
X150253627Y-81098491D01*
X150316710Y-81106500D01*
X150409706Y-81111073D01*
X150468638Y-81111765D01*
X150578537Y-81111332D01*
X150647252Y-81108578D01*
X150683405Y-81101321D01*
X150695615Y-81087376D01*
X150692504Y-81064562D01*
X150689894Y-81055735D01*
X150645344Y-80972800D01*
X150575279Y-80905960D01*
X150513446Y-80876589D01*
X150431301Y-80878362D01*
X150348062Y-80914990D01*
X150278238Y-80975634D01*
X150236337Y-81049456D01*
X150230392Y-81088035D01*
X149977393Y-81088035D01*
X149996385Y-80988395D01*
X150059773Y-80847711D01*
X150150878Y-80737974D01*
X150265978Y-80663174D01*
X150401355Y-80627304D01*
X150553287Y-80634355D01*
X150553287Y-80634355D01*
G37*
X150553287Y-80634355D02*
X150617051Y-80649845D01*
X150739300Y-80706569D01*
X150843834Y-80793202D01*
X150916180Y-80897074D01*
X150926119Y-80920396D01*
X150939754Y-80981484D01*
X150949298Y-81071853D01*
X150952549Y-81163190D01*
X150952549Y-81335882D01*
X150591470Y-81335882D01*
X150442546Y-81336445D01*
X150337632Y-81339864D01*
X150270937Y-81348731D01*
X150236666Y-81365641D01*
X150229028Y-81393189D01*
X150242229Y-81433968D01*
X150265877Y-81481683D01*
X150331843Y-81561314D01*
X150423512Y-81600987D01*
X150535555Y-81599695D01*
X150662472Y-81556514D01*
X150772158Y-81503224D01*
X150863173Y-81575191D01*
X150954188Y-81647157D01*
X150868563Y-81726269D01*
X150754250Y-81801017D01*
X150613666Y-81846084D01*
X150462449Y-81858696D01*
X150316236Y-81836079D01*
X150292647Y-81828405D01*
X150164141Y-81761296D01*
X150068551Y-81661247D01*
X150003861Y-81525271D01*
X149968057Y-81350380D01*
X149967640Y-81346632D01*
X149964434Y-81156032D01*
X149977393Y-81088035D01*
X150230392Y-81088035D01*
X150253627Y-81098491D01*
X150316710Y-81106500D01*
X150409706Y-81111073D01*
X150468638Y-81111765D01*
X150578537Y-81111332D01*
X150647252Y-81108578D01*
X150683405Y-81101321D01*
X150695615Y-81087376D01*
X150692504Y-81064562D01*
X150689894Y-81055735D01*
X150645344Y-80972800D01*
X150575279Y-80905960D01*
X150513446Y-80876589D01*
X150431301Y-80878362D01*
X150348062Y-80914990D01*
X150278238Y-80975634D01*
X150236337Y-81049456D01*
X150230392Y-81088035D01*
X149977393Y-81088035D01*
X149996385Y-80988395D01*
X150059773Y-80847711D01*
X150150878Y-80737974D01*
X150265978Y-80663174D01*
X150401355Y-80627304D01*
X150553287Y-80634355D01*
G36*
X143756760Y-80659199D02*
X143818736Y-80688802D01*
X143878759Y-80731561D01*
X143924486Y-80780775D01*
X143957793Y-80843544D01*
X143980555Y-80926971D01*
X143994647Y-81038159D01*
X144001942Y-81184209D01*
X144004318Y-81372223D01*
X144004355Y-81391912D01*
X144004902Y-81833922D01*
X143730980Y-81833922D01*
X143730980Y-81426435D01*
X143730785Y-81275471D01*
X143729436Y-81166056D01*
X143725788Y-81089933D01*
X143718696Y-81038848D01*
X143707013Y-81004545D01*
X143689594Y-80978768D01*
X143665329Y-80953298D01*
X143580435Y-80898571D01*
X143487761Y-80888416D01*
X143399473Y-80923017D01*
X143368770Y-80948770D01*
X143346229Y-80972982D01*
X143330046Y-80998912D01*
X143319168Y-81034708D01*
X143312542Y-81088519D01*
X143309115Y-81168493D01*
X143307834Y-81282779D01*
X143307647Y-81421907D01*
X143307647Y-81833922D01*
X143033725Y-81833922D01*
X143033725Y-80638628D01*
X143170686Y-80638628D01*
X143252916Y-80641879D01*
X143295340Y-80653426D01*
X143307641Y-80675952D01*
X143307647Y-80676620D01*
X143313354Y-80698681D01*
X143338527Y-80696177D01*
X143388578Y-80671937D01*
X143502094Y-80636271D01*
X143631945Y-80632305D01*
X143756760Y-80659199D01*
X143756760Y-80659199D01*
G37*
X143756760Y-80659199D02*
X143818736Y-80688802D01*
X143878759Y-80731561D01*
X143924486Y-80780775D01*
X143957793Y-80843544D01*
X143980555Y-80926971D01*
X143994647Y-81038159D01*
X144001942Y-81184209D01*
X144004318Y-81372223D01*
X144004355Y-81391912D01*
X144004902Y-81833922D01*
X143730980Y-81833922D01*
X143730980Y-81426435D01*
X143730785Y-81275471D01*
X143729436Y-81166056D01*
X143725788Y-81089933D01*
X143718696Y-81038848D01*
X143707013Y-81004545D01*
X143689594Y-80978768D01*
X143665329Y-80953298D01*
X143580435Y-80898571D01*
X143487761Y-80888416D01*
X143399473Y-80923017D01*
X143368770Y-80948770D01*
X143346229Y-80972982D01*
X143330046Y-80998912D01*
X143319168Y-81034708D01*
X143312542Y-81088519D01*
X143309115Y-81168493D01*
X143307834Y-81282779D01*
X143307647Y-81421907D01*
X143307647Y-81833922D01*
X143033725Y-81833922D01*
X143033725Y-80638628D01*
X143170686Y-80638628D01*
X143252916Y-80641879D01*
X143295340Y-80653426D01*
X143307641Y-80675952D01*
X143307647Y-80676620D01*
X143313354Y-80698681D01*
X143338527Y-80696177D01*
X143388578Y-80671937D01*
X143502094Y-80636271D01*
X143631945Y-80632305D01*
X143756760Y-80659199D01*
G36*
X148813637Y-80637472D02*
X148899290Y-80663641D01*
X148954437Y-80696707D01*
X148972401Y-80722855D01*
X148967457Y-80753852D01*
X148935372Y-80802547D01*
X148908243Y-80837035D01*
X148852317Y-80899383D01*
X148810299Y-80925615D01*
X148774480Y-80923903D01*
X148668224Y-80896863D01*
X148590189Y-80898091D01*
X148526820Y-80928735D01*
X148505546Y-80946670D01*
X148437451Y-81009779D01*
X148437451Y-81833922D01*
X148163529Y-81833922D01*
X148163529Y-80638628D01*
X148300490Y-80638628D01*
X148382719Y-80641879D01*
X148425144Y-80653426D01*
X148437445Y-80675952D01*
X148437451Y-80676620D01*
X148443260Y-80700215D01*
X148469531Y-80697138D01*
X148505931Y-80680115D01*
X148581111Y-80648439D01*
X148642158Y-80629381D01*
X148720708Y-80624496D01*
X148813637Y-80637472D01*
X148813637Y-80637472D01*
G37*
X148813637Y-80637472D02*
X148899290Y-80663641D01*
X148954437Y-80696707D01*
X148972401Y-80722855D01*
X148967457Y-80753852D01*
X148935372Y-80802547D01*
X148908243Y-80837035D01*
X148852317Y-80899383D01*
X148810299Y-80925615D01*
X148774480Y-80923903D01*
X148668224Y-80896863D01*
X148590189Y-80898091D01*
X148526820Y-80928735D01*
X148505546Y-80946670D01*
X148437451Y-81009779D01*
X148437451Y-81833922D01*
X148163529Y-81833922D01*
X148163529Y-80638628D01*
X148300490Y-80638628D01*
X148382719Y-80641879D01*
X148425144Y-80653426D01*
X148437445Y-80675952D01*
X148437451Y-80676620D01*
X148443260Y-80700215D01*
X148469531Y-80697138D01*
X148505931Y-80680115D01*
X148581111Y-80648439D01*
X148642158Y-80629381D01*
X148720708Y-80624496D01*
X148813637Y-80637472D01*
G36*
X145996535Y-72383172D02*
X146109117Y-72980363D01*
X146524531Y-73151610D01*
X146939944Y-73322857D01*
X147438302Y-72983978D01*
X147577868Y-72889622D01*
X147704028Y-72805375D01*
X147810895Y-72735083D01*
X147892582Y-72682592D01*
X147943201Y-72651749D01*
X147956986Y-72645098D01*
X147981820Y-72662203D01*
X148034888Y-72709489D01*
X148110240Y-72780917D01*
X148201929Y-72870445D01*
X148304007Y-72972034D01*
X148410526Y-73079643D01*
X148515536Y-73187232D01*
X148613091Y-73288760D01*
X148697242Y-73378186D01*
X148762040Y-73449471D01*
X148801538Y-73496573D01*
X148810980Y-73512337D01*
X148797391Y-73541398D01*
X148759293Y-73605066D01*
X148700694Y-73697112D01*
X148625597Y-73811309D01*
X148538009Y-73941429D01*
X148487254Y-74015646D01*
X148394745Y-74151167D01*
X148312540Y-74273461D01*
X148244630Y-74376440D01*
X148195000Y-74454018D01*
X148167640Y-74500106D01*
X148163529Y-74509792D01*
X148172849Y-74537319D01*
X148198254Y-74601473D01*
X148235911Y-74693235D01*
X148281986Y-74803584D01*
X148332646Y-74923500D01*
X148384059Y-75043964D01*
X148432389Y-75155954D01*
X148473806Y-75250452D01*
X148504474Y-75318437D01*
X148520562Y-75350888D01*
X148521511Y-75352165D01*
X148546772Y-75358362D01*
X148614046Y-75372185D01*
X148716360Y-75392277D01*
X148846741Y-75417279D01*
X148998216Y-75445831D01*
X149086594Y-75462296D01*
X149248452Y-75493114D01*
X149394649Y-75522439D01*
X149517787Y-75548666D01*
X149610469Y-75570191D01*
X149665301Y-75585410D01*
X149676323Y-75590238D01*
X149687119Y-75622919D01*
X149695829Y-75696730D01*
X149702460Y-75803037D01*
X149707018Y-75933212D01*
X149709509Y-76078621D01*
X149709938Y-76230635D01*
X149708311Y-76380622D01*
X149704635Y-76519951D01*
X149698915Y-76639990D01*
X149691158Y-76732110D01*
X149681368Y-76787677D01*
X149675496Y-76799245D01*
X149640399Y-76813110D01*
X149566028Y-76832933D01*
X149462223Y-76856384D01*
X149338819Y-76881136D01*
X149295741Y-76889143D01*
X149088047Y-76927186D01*
X148923984Y-76957824D01*
X148798130Y-76982274D01*
X148705065Y-77001754D01*
X148639367Y-77017481D01*
X148595617Y-77030673D01*
X148568392Y-77042549D01*
X148552272Y-77054325D01*
X148550017Y-77056653D01*
X148527503Y-77094145D01*
X148493158Y-77167110D01*
X148450411Y-77266612D01*
X148402692Y-77383718D01*
X148353430Y-77509493D01*
X148306055Y-77635002D01*
X148263995Y-77751310D01*
X148230680Y-77849484D01*
X148209541Y-77920588D01*
X148204005Y-77955687D01*
X148204466Y-77956917D01*
X148223223Y-77985606D01*
X148265776Y-78048730D01*
X148327653Y-78139718D01*
X148404382Y-78252000D01*
X148491491Y-78379005D01*
X148516299Y-78415098D01*
X148604753Y-78545948D01*
X148682588Y-78665336D01*
X148745566Y-78766407D01*
X148789445Y-78842304D01*
X148809985Y-78886172D01*
X148810980Y-78891562D01*
X148793722Y-78919889D01*
X148746036Y-78976006D01*
X148674050Y-79053882D01*
X148583897Y-79147485D01*
X148481705Y-79250786D01*
X148373606Y-79357751D01*
X148265728Y-79462351D01*
X148164204Y-79558554D01*
X148075162Y-79640329D01*
X148004733Y-79701645D01*
X147959047Y-79736471D01*
X147946409Y-79742157D01*
X147916991Y-79728765D01*
X147856761Y-79692644D01*
X147775530Y-79639881D01*
X147713030Y-79597412D01*
X147599785Y-79519485D01*
X147465674Y-79427729D01*
X147331155Y-79336120D01*
X147258833Y-79287091D01*
X147014038Y-79121515D01*
X146808551Y-79232620D01*
X146714936Y-79281293D01*
X146635330Y-79319126D01*
X146581467Y-79340703D01*
X146567757Y-79343706D01*
X146551270Y-79321538D01*
X146518745Y-79258894D01*
X146472609Y-79161554D01*
X146415290Y-79035294D01*
X146349216Y-78885895D01*
X146276815Y-78719133D01*
X146200516Y-78540787D01*
X146122746Y-78356636D01*
X146045934Y-78172457D01*
X145972506Y-77994030D01*
X145904892Y-77827132D01*
X145845520Y-77677542D01*
X145796816Y-77551038D01*
X145761210Y-77453399D01*
X145741130Y-77390402D01*
X145737900Y-77368766D01*
X145763496Y-77341169D01*
X145819539Y-77296370D01*
X145894311Y-77243679D01*
X145900587Y-77239510D01*
X146093845Y-77084814D01*
X146249674Y-76904336D01*
X146366724Y-76703847D01*
X146443645Y-76489119D01*
X146479086Y-76265922D01*
X146471697Y-76040026D01*
X146420127Y-75817204D01*
X146323026Y-75603224D01*
X146294458Y-75556409D01*
X146145868Y-75367363D01*
X145970327Y-75215557D01*
X145773910Y-75101779D01*
X145562693Y-75026820D01*
X145342753Y-74991467D01*
X145120163Y-74996512D01*
X144901001Y-75042744D01*
X144691342Y-75130951D01*
X144497261Y-75261924D01*
X144437226Y-75315082D01*
X144284435Y-75481484D01*
X144173097Y-75656657D01*
X144096723Y-75853011D01*
X144054187Y-76047462D01*
X144043686Y-76266087D01*
X144078701Y-76485797D01*
X144155673Y-76699165D01*
X144271047Y-76898767D01*
X144421266Y-77077174D01*
X144602773Y-77226962D01*
X144626627Y-77242751D01*
X144702201Y-77294457D01*
X144759651Y-77339257D01*
X144787117Y-77367862D01*
X144787517Y-77368766D01*
X144781620Y-77399709D01*
X144758245Y-77469936D01*
X144719821Y-77573670D01*
X144668777Y-77705135D01*
X144607542Y-77858552D01*
X144538544Y-78028146D01*
X144464214Y-78208138D01*
X144386978Y-78392753D01*
X144309268Y-78576213D01*
X144233511Y-78752741D01*
X144162137Y-78916559D01*
X144097574Y-79061892D01*
X144042252Y-79182962D01*
X143998600Y-79273992D01*
X143969046Y-79329205D01*
X143957144Y-79343706D01*
X143920777Y-79332414D01*
X143852730Y-79302130D01*
X143764737Y-79258265D01*
X143716351Y-79232620D01*
X143510863Y-79121515D01*
X143266068Y-79287091D01*
X143141106Y-79371915D01*
X143004295Y-79465261D01*
X142876089Y-79553153D01*
X142811871Y-79597412D01*
X142721551Y-79658063D01*
X142645071Y-79706126D01*
X142592407Y-79735515D01*
X142575302Y-79741727D01*
X142550405Y-79724968D01*
X142495305Y-79678181D01*
X142415343Y-79606225D01*
X142315861Y-79513957D01*
X142202200Y-79406235D01*
X142130315Y-79337071D01*
X142004551Y-79213502D01*
X141895863Y-79102979D01*
X141808645Y-79010230D01*
X141747289Y-78939982D01*
X141716191Y-78896965D01*
X141713208Y-78888235D01*
X141727053Y-78855029D01*
X141765312Y-78787887D01*
X141823742Y-78693608D01*
X141898097Y-78578990D01*
X141984135Y-78450828D01*
X142008603Y-78415098D01*
X142097755Y-78285234D01*
X142177738Y-78168314D01*
X142244080Y-78070907D01*
X142292311Y-77999584D01*
X142317957Y-77960915D01*
X142320435Y-77956917D01*
X142316729Y-77926100D01*
X142297061Y-77858344D01*
X142264860Y-77762584D01*
X142223555Y-77647754D01*
X142176575Y-77522789D01*
X142127349Y-77396624D01*
X142079308Y-77278193D01*
X142035881Y-77176430D01*
X142000496Y-77100271D01*
X141976584Y-77058649D01*
X141974884Y-77056653D01*
X141960262Y-77044758D01*
X141935565Y-77032995D01*
X141895372Y-77020146D01*
X141834263Y-77004994D01*
X141746817Y-76986321D01*
X141627612Y-76962910D01*
X141471227Y-76933542D01*
X141272243Y-76897000D01*
X141229160Y-76889143D01*
X141101471Y-76864472D01*
X140990153Y-76840338D01*
X140905045Y-76819069D01*
X140855983Y-76802993D01*
X140849405Y-76799245D01*
X140838564Y-76766018D01*
X140829753Y-76691766D01*
X140822976Y-76585121D01*
X140818240Y-76454712D01*
X140815550Y-76309172D01*
X140814913Y-76157131D01*
X140816334Y-76007221D01*
X140819820Y-75868073D01*
X140825376Y-75748317D01*
X140833008Y-75656586D01*
X140842722Y-75601511D01*
X140848578Y-75590238D01*
X140881180Y-75578868D01*
X140955418Y-75560369D01*
X141063896Y-75536347D01*
X141199217Y-75508407D01*
X141353985Y-75478153D01*
X141438308Y-75462296D01*
X141598296Y-75432389D01*
X141740967Y-75405295D01*
X141859348Y-75382376D01*
X141946465Y-75364988D01*
X141995345Y-75354492D01*
X142003390Y-75352165D01*
X142016987Y-75325931D01*
X142045729Y-75262740D01*
X142085785Y-75171622D01*
X142133324Y-75061602D01*
X142184515Y-74941710D01*
X142235526Y-74820972D01*
X142282526Y-74708416D01*
X142321684Y-74613071D01*
X142349169Y-74543962D01*
X142361149Y-74510119D01*
X142361372Y-74508640D01*
X142347791Y-74481942D01*
X142309715Y-74420505D01*
X142251147Y-74330434D01*
X142176088Y-74217835D01*
X142088540Y-74088815D01*
X142037647Y-74014706D01*
X141944909Y-73878822D01*
X141862541Y-73755454D01*
X141794561Y-73650842D01*
X141744988Y-73571228D01*
X141717842Y-73522852D01*
X141713921Y-73512007D01*
X141730775Y-73486765D01*
X141777368Y-73432869D01*
X141847749Y-73356358D01*
X141935965Y-73263268D01*
X142036065Y-73159640D01*
X142142098Y-73051509D01*
X142248111Y-72944915D01*
X142348152Y-72845895D01*
X142436270Y-72760487D01*
X142506513Y-72694730D01*
X142552928Y-72654661D01*
X142568456Y-72645098D01*
X142593739Y-72658545D01*
X142654211Y-72696320D01*
X142743992Y-72754580D01*
X142857203Y-72829479D01*
X142987964Y-72917170D01*
X143086600Y-72983978D01*
X143584957Y-73322857D01*
X144000371Y-73151610D01*
X144415784Y-72980363D01*
X144528366Y-72383172D01*
X144640949Y-71785980D01*
X145883952Y-71785980D01*
X145996535Y-72383172D01*
X145996535Y-72383172D01*
G37*
X145996535Y-72383172D02*
X146109117Y-72980363D01*
X146524531Y-73151610D01*
X146939944Y-73322857D01*
X147438302Y-72983978D01*
X147577868Y-72889622D01*
X147704028Y-72805375D01*
X147810895Y-72735083D01*
X147892582Y-72682592D01*
X147943201Y-72651749D01*
X147956986Y-72645098D01*
X147981820Y-72662203D01*
X148034888Y-72709489D01*
X148110240Y-72780917D01*
X148201929Y-72870445D01*
X148304007Y-72972034D01*
X148410526Y-73079643D01*
X148515536Y-73187232D01*
X148613091Y-73288760D01*
X148697242Y-73378186D01*
X148762040Y-73449471D01*
X148801538Y-73496573D01*
X148810980Y-73512337D01*
X148797391Y-73541398D01*
X148759293Y-73605066D01*
X148700694Y-73697112D01*
X148625597Y-73811309D01*
X148538009Y-73941429D01*
X148487254Y-74015646D01*
X148394745Y-74151167D01*
X148312540Y-74273461D01*
X148244630Y-74376440D01*
X148195000Y-74454018D01*
X148167640Y-74500106D01*
X148163529Y-74509792D01*
X148172849Y-74537319D01*
X148198254Y-74601473D01*
X148235911Y-74693235D01*
X148281986Y-74803584D01*
X148332646Y-74923500D01*
X148384059Y-75043964D01*
X148432389Y-75155954D01*
X148473806Y-75250452D01*
X148504474Y-75318437D01*
X148520562Y-75350888D01*
X148521511Y-75352165D01*
X148546772Y-75358362D01*
X148614046Y-75372185D01*
X148716360Y-75392277D01*
X148846741Y-75417279D01*
X148998216Y-75445831D01*
X149086594Y-75462296D01*
X149248452Y-75493114D01*
X149394649Y-75522439D01*
X149517787Y-75548666D01*
X149610469Y-75570191D01*
X149665301Y-75585410D01*
X149676323Y-75590238D01*
X149687119Y-75622919D01*
X149695829Y-75696730D01*
X149702460Y-75803037D01*
X149707018Y-75933212D01*
X149709509Y-76078621D01*
X149709938Y-76230635D01*
X149708311Y-76380622D01*
X149704635Y-76519951D01*
X149698915Y-76639990D01*
X149691158Y-76732110D01*
X149681368Y-76787677D01*
X149675496Y-76799245D01*
X149640399Y-76813110D01*
X149566028Y-76832933D01*
X149462223Y-76856384D01*
X149338819Y-76881136D01*
X149295741Y-76889143D01*
X149088047Y-76927186D01*
X148923984Y-76957824D01*
X148798130Y-76982274D01*
X148705065Y-77001754D01*
X148639367Y-77017481D01*
X148595617Y-77030673D01*
X148568392Y-77042549D01*
X148552272Y-77054325D01*
X148550017Y-77056653D01*
X148527503Y-77094145D01*
X148493158Y-77167110D01*
X148450411Y-77266612D01*
X148402692Y-77383718D01*
X148353430Y-77509493D01*
X148306055Y-77635002D01*
X148263995Y-77751310D01*
X148230680Y-77849484D01*
X148209541Y-77920588D01*
X148204005Y-77955687D01*
X148204466Y-77956917D01*
X148223223Y-77985606D01*
X148265776Y-78048730D01*
X148327653Y-78139718D01*
X148404382Y-78252000D01*
X148491491Y-78379005D01*
X148516299Y-78415098D01*
X148604753Y-78545948D01*
X148682588Y-78665336D01*
X148745566Y-78766407D01*
X148789445Y-78842304D01*
X148809985Y-78886172D01*
X148810980Y-78891562D01*
X148793722Y-78919889D01*
X148746036Y-78976006D01*
X148674050Y-79053882D01*
X148583897Y-79147485D01*
X148481705Y-79250786D01*
X148373606Y-79357751D01*
X148265728Y-79462351D01*
X148164204Y-79558554D01*
X148075162Y-79640329D01*
X148004733Y-79701645D01*
X147959047Y-79736471D01*
X147946409Y-79742157D01*
X147916991Y-79728765D01*
X147856761Y-79692644D01*
X147775530Y-79639881D01*
X147713030Y-79597412D01*
X147599785Y-79519485D01*
X147465674Y-79427729D01*
X147331155Y-79336120D01*
X147258833Y-79287091D01*
X147014038Y-79121515D01*
X146808551Y-79232620D01*
X146714936Y-79281293D01*
X146635330Y-79319126D01*
X146581467Y-79340703D01*
X146567757Y-79343706D01*
X146551270Y-79321538D01*
X146518745Y-79258894D01*
X146472609Y-79161554D01*
X146415290Y-79035294D01*
X146349216Y-78885895D01*
X146276815Y-78719133D01*
X146200516Y-78540787D01*
X146122746Y-78356636D01*
X146045934Y-78172457D01*
X145972506Y-77994030D01*
X145904892Y-77827132D01*
X145845520Y-77677542D01*
X145796816Y-77551038D01*
X145761210Y-77453399D01*
X145741130Y-77390402D01*
X145737900Y-77368766D01*
X145763496Y-77341169D01*
X145819539Y-77296370D01*
X145894311Y-77243679D01*
X145900587Y-77239510D01*
X146093845Y-77084814D01*
X146249674Y-76904336D01*
X146366724Y-76703847D01*
X146443645Y-76489119D01*
X146479086Y-76265922D01*
X146471697Y-76040026D01*
X146420127Y-75817204D01*
X146323026Y-75603224D01*
X146294458Y-75556409D01*
X146145868Y-75367363D01*
X145970327Y-75215557D01*
X145773910Y-75101779D01*
X145562693Y-75026820D01*
X145342753Y-74991467D01*
X145120163Y-74996512D01*
X144901001Y-75042744D01*
X144691342Y-75130951D01*
X144497261Y-75261924D01*
X144437226Y-75315082D01*
X144284435Y-75481484D01*
X144173097Y-75656657D01*
X144096723Y-75853011D01*
X144054187Y-76047462D01*
X144043686Y-76266087D01*
X144078701Y-76485797D01*
X144155673Y-76699165D01*
X144271047Y-76898767D01*
X144421266Y-77077174D01*
X144602773Y-77226962D01*
X144626627Y-77242751D01*
X144702201Y-77294457D01*
X144759651Y-77339257D01*
X144787117Y-77367862D01*
X144787517Y-77368766D01*
X144781620Y-77399709D01*
X144758245Y-77469936D01*
X144719821Y-77573670D01*
X144668777Y-77705135D01*
X144607542Y-77858552D01*
X144538544Y-78028146D01*
X144464214Y-78208138D01*
X144386978Y-78392753D01*
X144309268Y-78576213D01*
X144233511Y-78752741D01*
X144162137Y-78916559D01*
X144097574Y-79061892D01*
X144042252Y-79182962D01*
X143998600Y-79273992D01*
X143969046Y-79329205D01*
X143957144Y-79343706D01*
X143920777Y-79332414D01*
X143852730Y-79302130D01*
X143764737Y-79258265D01*
X143716351Y-79232620D01*
X143510863Y-79121515D01*
X143266068Y-79287091D01*
X143141106Y-79371915D01*
X143004295Y-79465261D01*
X142876089Y-79553153D01*
X142811871Y-79597412D01*
X142721551Y-79658063D01*
X142645071Y-79706126D01*
X142592407Y-79735515D01*
X142575302Y-79741727D01*
X142550405Y-79724968D01*
X142495305Y-79678181D01*
X142415343Y-79606225D01*
X142315861Y-79513957D01*
X142202200Y-79406235D01*
X142130315Y-79337071D01*
X142004551Y-79213502D01*
X141895863Y-79102979D01*
X141808645Y-79010230D01*
X141747289Y-78939982D01*
X141716191Y-78896965D01*
X141713208Y-78888235D01*
X141727053Y-78855029D01*
X141765312Y-78787887D01*
X141823742Y-78693608D01*
X141898097Y-78578990D01*
X141984135Y-78450828D01*
X142008603Y-78415098D01*
X142097755Y-78285234D01*
X142177738Y-78168314D01*
X142244080Y-78070907D01*
X142292311Y-77999584D01*
X142317957Y-77960915D01*
X142320435Y-77956917D01*
X142316729Y-77926100D01*
X142297061Y-77858344D01*
X142264860Y-77762584D01*
X142223555Y-77647754D01*
X142176575Y-77522789D01*
X142127349Y-77396624D01*
X142079308Y-77278193D01*
X142035881Y-77176430D01*
X142000496Y-77100271D01*
X141976584Y-77058649D01*
X141974884Y-77056653D01*
X141960262Y-77044758D01*
X141935565Y-77032995D01*
X141895372Y-77020146D01*
X141834263Y-77004994D01*
X141746817Y-76986321D01*
X141627612Y-76962910D01*
X141471227Y-76933542D01*
X141272243Y-76897000D01*
X141229160Y-76889143D01*
X141101471Y-76864472D01*
X140990153Y-76840338D01*
X140905045Y-76819069D01*
X140855983Y-76802993D01*
X140849405Y-76799245D01*
X140838564Y-76766018D01*
X140829753Y-76691766D01*
X140822976Y-76585121D01*
X140818240Y-76454712D01*
X140815550Y-76309172D01*
X140814913Y-76157131D01*
X140816334Y-76007221D01*
X140819820Y-75868073D01*
X140825376Y-75748317D01*
X140833008Y-75656586D01*
X140842722Y-75601511D01*
X140848578Y-75590238D01*
X140881180Y-75578868D01*
X140955418Y-75560369D01*
X141063896Y-75536347D01*
X141199217Y-75508407D01*
X141353985Y-75478153D01*
X141438308Y-75462296D01*
X141598296Y-75432389D01*
X141740967Y-75405295D01*
X141859348Y-75382376D01*
X141946465Y-75364988D01*
X141995345Y-75354492D01*
X142003390Y-75352165D01*
X142016987Y-75325931D01*
X142045729Y-75262740D01*
X142085785Y-75171622D01*
X142133324Y-75061602D01*
X142184515Y-74941710D01*
X142235526Y-74820972D01*
X142282526Y-74708416D01*
X142321684Y-74613071D01*
X142349169Y-74543962D01*
X142361149Y-74510119D01*
X142361372Y-74508640D01*
X142347791Y-74481942D01*
X142309715Y-74420505D01*
X142251147Y-74330434D01*
X142176088Y-74217835D01*
X142088540Y-74088815D01*
X142037647Y-74014706D01*
X141944909Y-73878822D01*
X141862541Y-73755454D01*
X141794561Y-73650842D01*
X141744988Y-73571228D01*
X141717842Y-73522852D01*
X141713921Y-73512007D01*
X141730775Y-73486765D01*
X141777368Y-73432869D01*
X141847749Y-73356358D01*
X141935965Y-73263268D01*
X142036065Y-73159640D01*
X142142098Y-73051509D01*
X142248111Y-72944915D01*
X142348152Y-72845895D01*
X142436270Y-72760487D01*
X142506513Y-72694730D01*
X142552928Y-72654661D01*
X142568456Y-72645098D01*
X142593739Y-72658545D01*
X142654211Y-72696320D01*
X142743992Y-72754580D01*
X142857203Y-72829479D01*
X142987964Y-72917170D01*
X143086600Y-72983978D01*
X143584957Y-73322857D01*
X144000371Y-73151610D01*
X144415784Y-72980363D01*
X144528366Y-72383172D01*
X144640949Y-71785980D01*
X145883952Y-71785980D01*
X145996535Y-72383172D01*
D13*
G04 #@! TO.C,J1*
X164607221Y-109498520D02*
X163277221Y-109498520D01*
X164607221Y-108168520D02*
X164607221Y-109498520D01*
X164607221Y-106898520D02*
X161947221Y-106898520D01*
X161947221Y-106898520D02*
X161947221Y-99218520D01*
X164607221Y-106898520D02*
X164607221Y-99218520D01*
X164607221Y-99218520D02*
X161947221Y-99218520D01*
D14*
G04 #@! TO.C,U$5*
X180650709Y-101001720D02*
X180650709Y-98779220D01*
X177475709Y-101001720D02*
X180650709Y-101001720D01*
X177475709Y-98779220D02*
X177475709Y-101001720D01*
X180650709Y-98779220D02*
X177475709Y-98779220D01*
X181285709Y-90206720D02*
X176205709Y-90206720D01*
X181285709Y-95604220D02*
X181285709Y-90206720D01*
X176205709Y-95604220D02*
X181285709Y-95604220D01*
X176205709Y-90206720D02*
X176205709Y-95604220D01*
X183253209Y-103286720D02*
X183253209Y-87279220D01*
X167253209Y-87279220D02*
X167253209Y-103286720D01*
D15*
G04 #@! TO.C,J$2*
X178682209Y-108748720D02*
X178682209Y-109891720D01*
X178682209Y-105954720D02*
X178682209Y-107097720D01*
D16*
X179722209Y-105823220D02*
X179922209Y-105823220D01*
X179722209Y-107223220D02*
X179922209Y-107223220D01*
X179722209Y-108623220D02*
X179922209Y-108623220D01*
X179722209Y-110023220D02*
X179922209Y-110023220D01*
X179722209Y-105823220D02*
X179722209Y-107223220D01*
X179722209Y-108623220D02*
X179722209Y-110023220D01*
X179822209Y-105923220D02*
X179822209Y-107223220D01*
X179822209Y-108623220D02*
X179822209Y-109923220D01*
X182522209Y-105823220D02*
X182522209Y-107223220D01*
X182522209Y-108623220D02*
X182522209Y-110023220D01*
X179922209Y-105823220D02*
X179922209Y-107223220D01*
X182522209Y-105823220D02*
X179922209Y-105823220D01*
X179922209Y-110023220D02*
X182522209Y-110023220D01*
X179922209Y-108623220D02*
X179922209Y-110023220D01*
G04 #@! TO.C,C4*
X175975209Y-108177220D02*
G75*
G03X175975209Y-108177220I-2500000J0D01*
G01*
X174237209Y-109574220D02*
X175253209Y-109574220D01*
D17*
G04 #@! TO.C,JP3*
X181857209Y-106653220D02*
X183127209Y-106653220D01*
X183762209Y-107288220D02*
X183127209Y-106653220D01*
X183127209Y-109193220D02*
X183762209Y-108558220D01*
X183762209Y-108558220D02*
X183762209Y-107288220D01*
X181222209Y-107288220D02*
X181857209Y-106653220D01*
X181222209Y-108558220D02*
X181222209Y-107288220D01*
X181857209Y-109193220D02*
X181222209Y-108558220D01*
X183127209Y-109193220D02*
X181857209Y-109193220D01*
D13*
G04 #@! TO.C,C1*
X148453733Y-100010000D02*
X148796267Y-100010000D01*
X148453733Y-98990000D02*
X148796267Y-98990000D01*
G04 #@! TO.C,C2*
X148453733Y-101240000D02*
X148796267Y-101240000D01*
X148453733Y-102260000D02*
X148796267Y-102260000D01*
D14*
G04 #@! TO.C,IC1*
X147250000Y-107075000D02*
X147250000Y-104425000D01*
X147250000Y-104425000D02*
X150750000Y-104425000D01*
X150750000Y-104425000D02*
X150750000Y-107075000D01*
X150750000Y-107075000D02*
X147250000Y-107075000D01*
D13*
G04 #@! TO.C,JP1*
X141970000Y-111170000D02*
X141970000Y-113830000D01*
X154730000Y-111170000D02*
X141970000Y-111170000D01*
X154730000Y-113830000D02*
X141970000Y-113830000D01*
X154730000Y-111170000D02*
X154730000Y-113830000D01*
X156000000Y-111170000D02*
X157330000Y-111170000D01*
X157330000Y-111170000D02*
X157330000Y-112500000D01*
G04 #@! TO.C,R1*
X142546267Y-104490000D02*
X142203733Y-104490000D01*
X142546267Y-105510000D02*
X142203733Y-105510000D01*
G04 #@! TO.C,R2*
X152490000Y-106796267D02*
X152490000Y-106453733D01*
X153510000Y-106796267D02*
X153510000Y-106453733D01*
G04 #@! TO.C,J1*
D18*
X165693887Y-99120900D02*
X165693887Y-99835186D01*
X165646268Y-99978043D01*
X165551030Y-100073281D01*
X165408173Y-100120900D01*
X165312935Y-100120900D01*
X166693887Y-100120900D02*
X166122459Y-100120900D01*
X166408173Y-100120900D02*
X166408173Y-99120900D01*
X166312935Y-99263758D01*
X166217697Y-99358996D01*
X166122459Y-99406615D01*
G04 #@! TO.C,U$5*
D19*
X183510539Y-88151448D02*
X184429777Y-88151448D01*
D20*
D21*
X169808871Y-88099741D02*
X170820033Y-88099741D01*
D22*
D19*
X171760539Y-100151448D02*
X172679777Y-100151448D01*
D20*
D23*
X168803657Y-100637003D02*
X169205824Y-100637003D01*
X168723224Y-100878303D02*
X169004741Y-100033753D01*
X169286257Y-100878303D01*
D24*
X175208442Y-99920921D02*
X175208442Y-98909760D01*
X175714023Y-99415340D02*
X174702861Y-99415340D01*
G04 #@! TO.C,J$2*
D25*
X180477183Y-111896750D02*
X180477183Y-112459783D01*
X180115233Y-111896750D02*
X180115233Y-112339133D01*
X180155450Y-112419566D01*
X180235883Y-112459783D01*
X180356533Y-112459783D01*
X180436966Y-112419566D01*
X180477183Y-112379350D01*
X181160866Y-112017400D02*
X180879350Y-112017400D01*
X180879350Y-112459783D02*
X180879350Y-111615233D01*
X181281516Y-111615233D01*
X182005416Y-112459783D02*
X181603250Y-112459783D01*
X181603250Y-111615233D01*
G04 #@! TO.C,C4*
D26*
X174477265Y-110974228D02*
X174771421Y-111084537D01*
X174477265Y-111194845D01*
X174955269Y-111231615D02*
X174955269Y-110845535D01*
X175175886Y-111231615D01*
X175175886Y-110845535D01*
X175525197Y-111231615D02*
X175525197Y-111029382D01*
X175506812Y-110992613D01*
X175470042Y-110974228D01*
X175396503Y-110974228D01*
X175359734Y-110992613D01*
X175525197Y-111213230D02*
X175488427Y-111231615D01*
X175396503Y-111231615D01*
X175359734Y-111213230D01*
X175341349Y-111176460D01*
X175341349Y-111139691D01*
X175359734Y-111102921D01*
X175396503Y-111084537D01*
X175488427Y-111084537D01*
X175525197Y-111066152D01*
X175709044Y-111231615D02*
X175709044Y-110974228D01*
X175709044Y-111010998D02*
X175727429Y-110992613D01*
X175764198Y-110974228D01*
X175819353Y-110974228D01*
X175856122Y-110992613D01*
X175874507Y-111029382D01*
X175874507Y-111231615D01*
X175874507Y-111029382D02*
X175892892Y-110992613D01*
X175929661Y-110974228D01*
X175984816Y-110974228D01*
X176021585Y-110992613D01*
X176039970Y-111029382D01*
X176039970Y-111231615D01*
X176370896Y-111213230D02*
X176334126Y-111231615D01*
X176260587Y-111231615D01*
X176223817Y-111213230D01*
X176205433Y-111176460D01*
X176205433Y-111029382D01*
X176223817Y-110992613D01*
X176260587Y-110974228D01*
X176334126Y-110974228D01*
X176370896Y-110992613D01*
X176389280Y-111029382D01*
X176389280Y-111066152D01*
X176205433Y-111102921D01*
G04 #@! TO.C,C1*
D18*
X145833333Y-100107142D02*
X145785714Y-100154761D01*
X145642857Y-100202380D01*
X145547619Y-100202380D01*
X145404761Y-100154761D01*
X145309523Y-100059523D01*
X145261904Y-99964285D01*
X145214285Y-99773809D01*
X145214285Y-99630952D01*
X145261904Y-99440476D01*
X145309523Y-99345238D01*
X145404761Y-99250000D01*
X145547619Y-99202380D01*
X145642857Y-99202380D01*
X145785714Y-99250000D01*
X145833333Y-99297619D01*
X146785714Y-100202380D02*
X146214285Y-100202380D01*
X146500000Y-100202380D02*
X146500000Y-99202380D01*
X146404761Y-99345238D01*
X146309523Y-99440476D01*
X146214285Y-99488095D01*
G04 #@! TO.C,C2*
X145583333Y-102107142D02*
X145535714Y-102154761D01*
X145392857Y-102202380D01*
X145297619Y-102202380D01*
X145154761Y-102154761D01*
X145059523Y-102059523D01*
X145011904Y-101964285D01*
X144964285Y-101773809D01*
X144964285Y-101630952D01*
X145011904Y-101440476D01*
X145059523Y-101345238D01*
X145154761Y-101250000D01*
X145297619Y-101202380D01*
X145392857Y-101202380D01*
X145535714Y-101250000D01*
X145583333Y-101297619D01*
X145964285Y-101297619D02*
X146011904Y-101250000D01*
X146107142Y-101202380D01*
X146345238Y-101202380D01*
X146440476Y-101250000D01*
X146488095Y-101297619D01*
X146535714Y-101392857D01*
X146535714Y-101488095D01*
X146488095Y-101630952D01*
X145916666Y-102202380D01*
X146535714Y-102202380D01*
G04 #@! TO.C,IC1*
D27*
X153499047Y-111755547D02*
X152292547Y-111755547D01*
X153384142Y-110491595D02*
X153441595Y-110549047D01*
X153499047Y-110721404D01*
X153499047Y-110836309D01*
X153441595Y-111008666D01*
X153326690Y-111123571D01*
X153211785Y-111181023D01*
X152981976Y-111238476D01*
X152809619Y-111238476D01*
X152579809Y-111181023D01*
X152464904Y-111123571D01*
X152350000Y-111008666D01*
X152292547Y-110836309D01*
X152292547Y-110721404D01*
X152350000Y-110549047D01*
X152407452Y-110491595D01*
X153499047Y-109342547D02*
X153499047Y-110031976D01*
X153499047Y-109687261D02*
X152292547Y-109687261D01*
X152464904Y-109802166D01*
X152579809Y-109917071D01*
X152637261Y-110031976D01*
G04 #@! TO.C,JP1*
D18*
X157782380Y-113333333D02*
X158496666Y-113333333D01*
X158639523Y-113380952D01*
X158734761Y-113476190D01*
X158782380Y-113619047D01*
X158782380Y-113714285D01*
X158782380Y-112857142D02*
X157782380Y-112857142D01*
X157782380Y-112476190D01*
X157830000Y-112380952D01*
X157877619Y-112333333D01*
X157972857Y-112285714D01*
X158115714Y-112285714D01*
X158210952Y-112333333D01*
X158258571Y-112380952D01*
X158306190Y-112476190D01*
X158306190Y-112857142D01*
X158782380Y-111333333D02*
X158782380Y-111904761D01*
X158782380Y-111619047D02*
X157782380Y-111619047D01*
X157925238Y-111714285D01*
X158020476Y-111809523D01*
X158068095Y-111904761D01*
G04 #@! TO.C,R1*
X142208333Y-106882380D02*
X141875000Y-106406190D01*
X141636904Y-106882380D02*
X141636904Y-105882380D01*
X142017857Y-105882380D01*
X142113095Y-105930000D01*
X142160714Y-105977619D01*
X142208333Y-106072857D01*
X142208333Y-106215714D01*
X142160714Y-106310952D01*
X142113095Y-106358571D01*
X142017857Y-106406190D01*
X141636904Y-106406190D01*
X143160714Y-106882380D02*
X142589285Y-106882380D01*
X142875000Y-106882380D02*
X142875000Y-105882380D01*
X142779761Y-106025238D01*
X142684523Y-106120476D01*
X142589285Y-106168095D01*
G04 #@! TO.C,R2*
X152022380Y-106791666D02*
X151546190Y-107125000D01*
X152022380Y-107363095D02*
X151022380Y-107363095D01*
X151022380Y-106982142D01*
X151070000Y-106886904D01*
X151117619Y-106839285D01*
X151212857Y-106791666D01*
X151355714Y-106791666D01*
X151450952Y-106839285D01*
X151498571Y-106886904D01*
X151546190Y-106982142D01*
X151546190Y-107363095D01*
X151117619Y-106410714D02*
X151070000Y-106363095D01*
X151022380Y-106267857D01*
X151022380Y-106029761D01*
X151070000Y-105934523D01*
X151117619Y-105886904D01*
X151212857Y-105839285D01*
X151308095Y-105839285D01*
X151450952Y-105886904D01*
X152022380Y-106458333D01*
X152022380Y-105839285D01*
G04 #@! TD*
M02*
