G04 #@! TF.GenerationSoftware,KiCad,Pcbnew,(5.1.0)-1*
G04 #@! TF.CreationDate,2019-05-29T17:20:43+02:00*
G04 #@! TF.ProjectId,Mini-Lora,4d696e69-2d4c-46f7-9261-2e6b69636164,rev?*
G04 #@! TF.SameCoordinates,Original*
G04 #@! TF.FileFunction,Soldermask,Top*
G04 #@! TF.FilePolarity,Negative*
%FSLAX46Y46*%
G04 Gerber Fmt 4.6, Leading zero omitted, Abs format (unit mm)*
G04 Created by KiCad (PCBNEW (5.1.0)-1) date 2019-05-29 17:20:43*
%MOMM*%
%LPD*%
G04 APERTURE LIST*
%ADD10C,0.100000*%
G04 APERTURE END LIST*
D10*
G36*
X167125256Y-112141298D02*
G01*
X167231579Y-112162447D01*
X167532042Y-112286903D01*
X167802451Y-112467585D01*
X168032415Y-112697549D01*
X168213097Y-112967958D01*
X168337553Y-113268421D01*
X168401000Y-113587391D01*
X168401000Y-113912609D01*
X168337553Y-114231579D01*
X168213097Y-114532042D01*
X168032415Y-114802451D01*
X167802451Y-115032415D01*
X167532042Y-115213097D01*
X167231579Y-115337553D01*
X167125256Y-115358702D01*
X166912611Y-115401000D01*
X166587389Y-115401000D01*
X166374744Y-115358702D01*
X166268421Y-115337553D01*
X165967958Y-115213097D01*
X165697549Y-115032415D01*
X165467585Y-114802451D01*
X165286903Y-114532042D01*
X165162447Y-114231579D01*
X165099000Y-113912609D01*
X165099000Y-113587391D01*
X165162447Y-113268421D01*
X165286903Y-112967958D01*
X165467585Y-112697549D01*
X165697549Y-112467585D01*
X165967958Y-112286903D01*
X166268421Y-112162447D01*
X166374744Y-112141298D01*
X166587389Y-112099000D01*
X166912611Y-112099000D01*
X167125256Y-112141298D01*
X167125256Y-112141298D01*
G37*
G36*
X156901000Y-113401000D02*
G01*
X155099000Y-113401000D01*
X155099000Y-111599000D01*
X156901000Y-111599000D01*
X156901000Y-113401000D01*
X156901000Y-113401000D01*
G37*
G36*
X143410443Y-111605519D02*
G01*
X143476627Y-111612037D01*
X143646466Y-111663557D01*
X143802991Y-111747222D01*
X143838729Y-111776552D01*
X143940186Y-111859814D01*
X144023448Y-111961271D01*
X144052778Y-111997009D01*
X144136443Y-112153534D01*
X144187963Y-112323373D01*
X144205359Y-112500000D01*
X144187963Y-112676627D01*
X144136443Y-112846466D01*
X144052778Y-113002991D01*
X144023448Y-113038729D01*
X143940186Y-113140186D01*
X143838729Y-113223448D01*
X143802991Y-113252778D01*
X143646466Y-113336443D01*
X143476627Y-113387963D01*
X143410442Y-113394482D01*
X143344260Y-113401000D01*
X143255740Y-113401000D01*
X143189558Y-113394482D01*
X143123373Y-113387963D01*
X142953534Y-113336443D01*
X142797009Y-113252778D01*
X142761271Y-113223448D01*
X142659814Y-113140186D01*
X142576552Y-113038729D01*
X142547222Y-113002991D01*
X142463557Y-112846466D01*
X142412037Y-112676627D01*
X142394641Y-112500000D01*
X142412037Y-112323373D01*
X142463557Y-112153534D01*
X142547222Y-111997009D01*
X142576552Y-111961271D01*
X142659814Y-111859814D01*
X142761271Y-111776552D01*
X142797009Y-111747222D01*
X142953534Y-111663557D01*
X143123373Y-111612037D01*
X143189557Y-111605519D01*
X143255740Y-111599000D01*
X143344260Y-111599000D01*
X143410443Y-111605519D01*
X143410443Y-111605519D01*
G37*
G36*
X145950443Y-111605519D02*
G01*
X146016627Y-111612037D01*
X146186466Y-111663557D01*
X146342991Y-111747222D01*
X146378729Y-111776552D01*
X146480186Y-111859814D01*
X146563448Y-111961271D01*
X146592778Y-111997009D01*
X146676443Y-112153534D01*
X146727963Y-112323373D01*
X146745359Y-112500000D01*
X146727963Y-112676627D01*
X146676443Y-112846466D01*
X146592778Y-113002991D01*
X146563448Y-113038729D01*
X146480186Y-113140186D01*
X146378729Y-113223448D01*
X146342991Y-113252778D01*
X146186466Y-113336443D01*
X146016627Y-113387963D01*
X145950442Y-113394482D01*
X145884260Y-113401000D01*
X145795740Y-113401000D01*
X145729558Y-113394482D01*
X145663373Y-113387963D01*
X145493534Y-113336443D01*
X145337009Y-113252778D01*
X145301271Y-113223448D01*
X145199814Y-113140186D01*
X145116552Y-113038729D01*
X145087222Y-113002991D01*
X145003557Y-112846466D01*
X144952037Y-112676627D01*
X144934641Y-112500000D01*
X144952037Y-112323373D01*
X145003557Y-112153534D01*
X145087222Y-111997009D01*
X145116552Y-111961271D01*
X145199814Y-111859814D01*
X145301271Y-111776552D01*
X145337009Y-111747222D01*
X145493534Y-111663557D01*
X145663373Y-111612037D01*
X145729557Y-111605519D01*
X145795740Y-111599000D01*
X145884260Y-111599000D01*
X145950443Y-111605519D01*
X145950443Y-111605519D01*
G37*
G36*
X151030443Y-111605519D02*
G01*
X151096627Y-111612037D01*
X151266466Y-111663557D01*
X151422991Y-111747222D01*
X151458729Y-111776552D01*
X151560186Y-111859814D01*
X151643448Y-111961271D01*
X151672778Y-111997009D01*
X151756443Y-112153534D01*
X151807963Y-112323373D01*
X151825359Y-112500000D01*
X151807963Y-112676627D01*
X151756443Y-112846466D01*
X151672778Y-113002991D01*
X151643448Y-113038729D01*
X151560186Y-113140186D01*
X151458729Y-113223448D01*
X151422991Y-113252778D01*
X151266466Y-113336443D01*
X151096627Y-113387963D01*
X151030442Y-113394482D01*
X150964260Y-113401000D01*
X150875740Y-113401000D01*
X150809558Y-113394482D01*
X150743373Y-113387963D01*
X150573534Y-113336443D01*
X150417009Y-113252778D01*
X150381271Y-113223448D01*
X150279814Y-113140186D01*
X150196552Y-113038729D01*
X150167222Y-113002991D01*
X150083557Y-112846466D01*
X150032037Y-112676627D01*
X150014641Y-112500000D01*
X150032037Y-112323373D01*
X150083557Y-112153534D01*
X150167222Y-111997009D01*
X150196552Y-111961271D01*
X150279814Y-111859814D01*
X150381271Y-111776552D01*
X150417009Y-111747222D01*
X150573534Y-111663557D01*
X150743373Y-111612037D01*
X150809557Y-111605519D01*
X150875740Y-111599000D01*
X150964260Y-111599000D01*
X151030443Y-111605519D01*
X151030443Y-111605519D01*
G37*
G36*
X153570443Y-111605519D02*
G01*
X153636627Y-111612037D01*
X153806466Y-111663557D01*
X153962991Y-111747222D01*
X153998729Y-111776552D01*
X154100186Y-111859814D01*
X154183448Y-111961271D01*
X154212778Y-111997009D01*
X154296443Y-112153534D01*
X154347963Y-112323373D01*
X154365359Y-112500000D01*
X154347963Y-112676627D01*
X154296443Y-112846466D01*
X154212778Y-113002991D01*
X154183448Y-113038729D01*
X154100186Y-113140186D01*
X153998729Y-113223448D01*
X153962991Y-113252778D01*
X153806466Y-113336443D01*
X153636627Y-113387963D01*
X153570442Y-113394482D01*
X153504260Y-113401000D01*
X153415740Y-113401000D01*
X153349558Y-113394482D01*
X153283373Y-113387963D01*
X153113534Y-113336443D01*
X152957009Y-113252778D01*
X152921271Y-113223448D01*
X152819814Y-113140186D01*
X152736552Y-113038729D01*
X152707222Y-113002991D01*
X152623557Y-112846466D01*
X152572037Y-112676627D01*
X152554641Y-112500000D01*
X152572037Y-112323373D01*
X152623557Y-112153534D01*
X152707222Y-111997009D01*
X152736552Y-111961271D01*
X152819814Y-111859814D01*
X152921271Y-111776552D01*
X152957009Y-111747222D01*
X153113534Y-111663557D01*
X153283373Y-111612037D01*
X153349557Y-111605519D01*
X153415740Y-111599000D01*
X153504260Y-111599000D01*
X153570443Y-111605519D01*
X153570443Y-111605519D01*
G37*
G36*
X148490443Y-111605519D02*
G01*
X148556627Y-111612037D01*
X148726466Y-111663557D01*
X148882991Y-111747222D01*
X148918729Y-111776552D01*
X149020186Y-111859814D01*
X149103448Y-111961271D01*
X149132778Y-111997009D01*
X149216443Y-112153534D01*
X149267963Y-112323373D01*
X149285359Y-112500000D01*
X149267963Y-112676627D01*
X149216443Y-112846466D01*
X149132778Y-113002991D01*
X149103448Y-113038729D01*
X149020186Y-113140186D01*
X148918729Y-113223448D01*
X148882991Y-113252778D01*
X148726466Y-113336443D01*
X148556627Y-113387963D01*
X148490442Y-113394482D01*
X148424260Y-113401000D01*
X148335740Y-113401000D01*
X148269558Y-113394482D01*
X148203373Y-113387963D01*
X148033534Y-113336443D01*
X147877009Y-113252778D01*
X147841271Y-113223448D01*
X147739814Y-113140186D01*
X147656552Y-113038729D01*
X147627222Y-113002991D01*
X147543557Y-112846466D01*
X147492037Y-112676627D01*
X147474641Y-112500000D01*
X147492037Y-112323373D01*
X147543557Y-112153534D01*
X147627222Y-111997009D01*
X147656552Y-111961271D01*
X147739814Y-111859814D01*
X147841271Y-111776552D01*
X147877009Y-111747222D01*
X148033534Y-111663557D01*
X148203373Y-111612037D01*
X148269557Y-111605519D01*
X148335740Y-111599000D01*
X148424260Y-111599000D01*
X148490443Y-111605519D01*
X148490443Y-111605519D01*
G37*
G36*
X178964409Y-104420021D02*
G01*
X178966811Y-104444407D01*
X178973924Y-104467856D01*
X178985475Y-104489467D01*
X179001020Y-104508409D01*
X179019962Y-104523954D01*
X179041573Y-104535505D01*
X179065022Y-104542618D01*
X179089408Y-104545020D01*
X179512010Y-104545020D01*
X179536396Y-104542618D01*
X179559845Y-104535505D01*
X179581456Y-104523954D01*
X179600398Y-104508409D01*
X179615943Y-104489467D01*
X179627494Y-104467856D01*
X179634607Y-104444407D01*
X179637009Y-104420021D01*
X179637009Y-102212520D01*
X181059409Y-102212520D01*
X181059409Y-104420021D01*
X181061811Y-104444407D01*
X181068924Y-104467856D01*
X181080475Y-104489467D01*
X181096020Y-104508409D01*
X181114962Y-104523954D01*
X181136573Y-104535505D01*
X181160022Y-104542618D01*
X181184408Y-104545020D01*
X181417010Y-104545020D01*
X181441396Y-104542618D01*
X181464845Y-104535505D01*
X181486456Y-104523954D01*
X181505398Y-104508409D01*
X181520943Y-104489467D01*
X181532494Y-104467856D01*
X181539607Y-104444407D01*
X181542009Y-104420021D01*
X181542009Y-102212520D01*
X182964409Y-102212520D01*
X182964409Y-104420021D01*
X182966811Y-104444407D01*
X182973924Y-104467856D01*
X182985475Y-104489467D01*
X183001020Y-104508409D01*
X183012909Y-104518166D01*
X183012909Y-106221420D01*
X182205908Y-106221420D01*
X182181522Y-106223822D01*
X182158073Y-106230935D01*
X182136462Y-106242486D01*
X182117520Y-106258031D01*
X182101975Y-106276973D01*
X182090424Y-106298584D01*
X182083311Y-106322033D01*
X182080909Y-106346419D01*
X182080909Y-106999250D01*
X182083311Y-107023636D01*
X182090424Y-107047085D01*
X182101975Y-107068696D01*
X182117520Y-107087638D01*
X182136462Y-107103183D01*
X182158073Y-107114734D01*
X182181522Y-107121847D01*
X182205908Y-107124249D01*
X182230294Y-107121847D01*
X182241316Y-107118504D01*
X182247714Y-107117231D01*
X182247715Y-107117231D01*
X182320902Y-107102673D01*
X182409652Y-107085020D01*
X182574766Y-107085020D01*
X182655734Y-107101125D01*
X182736703Y-107117231D01*
X182889247Y-107180417D01*
X182936544Y-107212020D01*
X183026531Y-107272147D01*
X183143282Y-107388898D01*
X183143284Y-107388901D01*
X183235012Y-107526182D01*
X183235012Y-107526183D01*
X183298198Y-107678726D01*
X183330409Y-107840664D01*
X183330409Y-108005776D01*
X183305567Y-108130669D01*
X183298198Y-108167713D01*
X183235012Y-108320258D01*
X183197377Y-108376583D01*
X183143282Y-108457542D01*
X183026531Y-108574293D01*
X183026528Y-108574295D01*
X182889247Y-108666023D01*
X182845192Y-108684271D01*
X182736703Y-108729209D01*
X182666058Y-108743261D01*
X182574766Y-108761420D01*
X182409652Y-108761420D01*
X182318360Y-108743261D01*
X182247715Y-108729209D01*
X182247714Y-108729209D01*
X182241316Y-108727936D01*
X182230287Y-108724591D01*
X182205900Y-108722191D01*
X182181514Y-108724594D01*
X182158066Y-108731709D01*
X182136456Y-108743261D01*
X182117515Y-108758808D01*
X182101971Y-108777751D01*
X182090421Y-108799362D01*
X182083309Y-108822811D01*
X182080909Y-108847190D01*
X182080909Y-109500021D01*
X182083311Y-109524407D01*
X182090424Y-109547856D01*
X182101975Y-109569467D01*
X182117520Y-109588409D01*
X182136462Y-109603954D01*
X182158073Y-109615505D01*
X182181522Y-109622618D01*
X182205908Y-109625020D01*
X183012909Y-109625020D01*
X183012909Y-111301420D01*
X178542509Y-111301420D01*
X178542509Y-109625020D01*
X179603510Y-109625020D01*
X179627896Y-109622618D01*
X179651345Y-109615505D01*
X179672956Y-109603954D01*
X179691898Y-109588409D01*
X179707443Y-109569467D01*
X179718994Y-109547856D01*
X179726107Y-109524407D01*
X179728509Y-109500021D01*
X179728509Y-108832247D01*
X179729425Y-108822946D01*
X179730350Y-108819896D01*
X179731849Y-108817091D01*
X179733869Y-108814630D01*
X179736330Y-108812610D01*
X179739135Y-108811111D01*
X179742185Y-108810186D01*
X179751486Y-108809270D01*
X181897489Y-108809270D01*
X181921875Y-108806868D01*
X181945324Y-108799755D01*
X181966935Y-108788204D01*
X181985877Y-108772659D01*
X182001422Y-108753717D01*
X182012973Y-108732106D01*
X182020086Y-108708657D01*
X182022488Y-108684271D01*
X182020086Y-108659885D01*
X182012973Y-108636436D01*
X182001422Y-108614825D01*
X181985877Y-108595883D01*
X181966934Y-108580338D01*
X181957890Y-108574295D01*
X181957887Y-108574293D01*
X181841136Y-108457542D01*
X181787041Y-108376583D01*
X181749406Y-108320258D01*
X181686220Y-108167713D01*
X181678852Y-108130669D01*
X181654009Y-108005776D01*
X181654009Y-107840664D01*
X181686220Y-107678726D01*
X181749406Y-107526183D01*
X181749406Y-107526182D01*
X181841134Y-107388901D01*
X181841136Y-107388898D01*
X181957887Y-107272147D01*
X181966934Y-107266102D01*
X181985876Y-107250557D01*
X182001421Y-107231615D01*
X182012973Y-107210005D01*
X182020086Y-107186556D01*
X182022488Y-107162170D01*
X182020086Y-107137784D01*
X182012973Y-107114335D01*
X182001422Y-107092724D01*
X181985877Y-107073782D01*
X181966935Y-107058237D01*
X181945325Y-107046685D01*
X181921876Y-107039572D01*
X181897489Y-107037170D01*
X179751486Y-107037170D01*
X179742185Y-107036254D01*
X179739135Y-107035329D01*
X179736330Y-107033830D01*
X179733869Y-107031810D01*
X179731849Y-107029349D01*
X179730350Y-107026544D01*
X179729425Y-107023494D01*
X179728509Y-107014193D01*
X179728509Y-106346419D01*
X179726107Y-106322033D01*
X179718994Y-106298584D01*
X179707443Y-106276973D01*
X179691898Y-106258031D01*
X179672956Y-106242486D01*
X179651345Y-106230935D01*
X179627896Y-106223822D01*
X179603510Y-106221420D01*
X178542509Y-106221420D01*
X178542509Y-104487919D01*
X178540107Y-104463533D01*
X178532994Y-104440084D01*
X178521443Y-104418473D01*
X178505898Y-104399531D01*
X178486956Y-104383986D01*
X178465345Y-104372435D01*
X178441896Y-104365322D01*
X178417510Y-104362920D01*
X177542009Y-104362920D01*
X177542009Y-102210520D01*
X178964409Y-102210520D01*
X178964409Y-104420021D01*
X178964409Y-104420021D01*
G37*
G36*
X175008224Y-107310171D02*
G01*
X175125409Y-107358711D01*
X175172324Y-107378144D01*
X175320009Y-107476824D01*
X175445605Y-107602420D01*
X175521344Y-107715771D01*
X175544286Y-107750107D01*
X175612258Y-107914205D01*
X175646909Y-108088409D01*
X175646909Y-108266031D01*
X175612258Y-108440235D01*
X175575703Y-108528486D01*
X175544285Y-108604335D01*
X175445605Y-108752020D01*
X175320009Y-108877616D01*
X175172324Y-108976296D01*
X175172323Y-108976297D01*
X175172322Y-108976297D01*
X175008224Y-109044269D01*
X174834020Y-109078920D01*
X174656398Y-109078920D01*
X174482194Y-109044269D01*
X174318096Y-108976297D01*
X174318095Y-108976297D01*
X174318094Y-108976296D01*
X174170409Y-108877616D01*
X174044813Y-108752020D01*
X173946133Y-108604335D01*
X173914715Y-108528486D01*
X173878160Y-108440235D01*
X173843509Y-108266031D01*
X173843509Y-108088409D01*
X173878160Y-107914205D01*
X173946132Y-107750107D01*
X173969075Y-107715771D01*
X174044813Y-107602420D01*
X174170409Y-107476824D01*
X174318094Y-107378144D01*
X174365009Y-107358711D01*
X174482194Y-107310171D01*
X174656398Y-107275520D01*
X174834020Y-107275520D01*
X175008224Y-107310171D01*
X175008224Y-107310171D01*
G37*
G36*
X173106909Y-109078920D02*
G01*
X171303509Y-109078920D01*
X171303509Y-107275520D01*
X173106909Y-107275520D01*
X173106909Y-109078920D01*
X173106909Y-109078920D01*
G37*
G36*
X164178221Y-109069520D02*
G01*
X162376221Y-109069520D01*
X162376221Y-107267520D01*
X164178221Y-107267520D01*
X164178221Y-109069520D01*
X164178221Y-109069520D01*
G37*
G36*
X178185957Y-107225686D02*
G01*
X178254658Y-107239351D01*
X178308269Y-107261558D01*
X178384087Y-107292962D01*
X178421490Y-107317954D01*
X178443100Y-107329505D01*
X178466549Y-107336618D01*
X178490936Y-107339020D01*
X180099682Y-107339020D01*
X180108983Y-107339936D01*
X180112033Y-107340861D01*
X180114838Y-107342360D01*
X180117299Y-107344380D01*
X180119319Y-107346841D01*
X180120818Y-107349646D01*
X180121743Y-107352696D01*
X180122659Y-107361997D01*
X180122659Y-108484443D01*
X180121743Y-108493744D01*
X180120818Y-108496794D01*
X180119319Y-108499599D01*
X180117299Y-108502060D01*
X180114838Y-108504080D01*
X180112033Y-108505579D01*
X180108983Y-108506504D01*
X180099682Y-108507420D01*
X178490936Y-108507420D01*
X178466550Y-108509822D01*
X178443101Y-108516935D01*
X178421490Y-108528486D01*
X178384087Y-108553478D01*
X178319240Y-108580338D01*
X178254658Y-108607089D01*
X178185957Y-108620754D01*
X178117257Y-108634420D01*
X177977161Y-108634420D01*
X177908461Y-108620754D01*
X177839760Y-108607089D01*
X177775178Y-108580338D01*
X177710331Y-108553478D01*
X177593846Y-108475645D01*
X177494784Y-108376583D01*
X177416951Y-108260098D01*
X177363340Y-108130668D01*
X177351582Y-108071555D01*
X177348483Y-108055980D01*
X177336009Y-107993268D01*
X177336009Y-107853172D01*
X177363340Y-107715772D01*
X177416951Y-107586342D01*
X177494784Y-107469857D01*
X177593846Y-107370795D01*
X177710331Y-107292962D01*
X177786149Y-107261558D01*
X177839760Y-107239351D01*
X177908461Y-107225686D01*
X177977161Y-107212020D01*
X178117257Y-107212020D01*
X178185957Y-107225686D01*
X178185957Y-107225686D01*
G37*
G36*
X153364499Y-106928445D02*
G01*
X153401995Y-106939820D01*
X153436554Y-106958292D01*
X153466847Y-106983153D01*
X153491708Y-107013446D01*
X153510180Y-107048005D01*
X153521555Y-107085501D01*
X153526000Y-107130638D01*
X153526000Y-107869362D01*
X153521555Y-107914499D01*
X153510180Y-107951995D01*
X153491708Y-107986554D01*
X153466847Y-108016847D01*
X153436554Y-108041708D01*
X153401995Y-108060180D01*
X153364499Y-108071555D01*
X153319362Y-108076000D01*
X152680638Y-108076000D01*
X152635501Y-108071555D01*
X152598005Y-108060180D01*
X152563446Y-108041708D01*
X152533153Y-108016847D01*
X152508292Y-107986554D01*
X152489820Y-107951995D01*
X152478445Y-107914499D01*
X152474000Y-107869362D01*
X152474000Y-107130638D01*
X152478445Y-107085501D01*
X152489820Y-107048005D01*
X152508292Y-107013446D01*
X152533153Y-106983153D01*
X152563446Y-106958292D01*
X152598005Y-106939820D01*
X152635501Y-106928445D01*
X152680638Y-106924000D01*
X153319362Y-106924000D01*
X153364499Y-106928445D01*
X153364499Y-106928445D01*
G37*
G36*
X148763300Y-105200800D02*
G01*
X148038299Y-105200800D01*
X148013913Y-105203202D01*
X147990464Y-105210315D01*
X147968853Y-105221866D01*
X147949911Y-105237411D01*
X147934366Y-105256353D01*
X147922815Y-105277964D01*
X147915702Y-105301413D01*
X147913300Y-105325799D01*
X147913300Y-106174201D01*
X147915702Y-106198587D01*
X147922815Y-106222036D01*
X147934366Y-106243647D01*
X147949911Y-106262589D01*
X147968853Y-106278134D01*
X147990464Y-106289685D01*
X148013913Y-106296798D01*
X148038299Y-106299200D01*
X148763300Y-106299200D01*
X148763300Y-107000800D01*
X147286700Y-107000800D01*
X147286700Y-104499200D01*
X148763300Y-104499200D01*
X148763300Y-105200800D01*
X148763300Y-105200800D01*
G37*
G36*
X149961815Y-104919876D02*
G01*
X150118926Y-104984954D01*
X150260322Y-105079431D01*
X150380569Y-105199678D01*
X150475046Y-105341074D01*
X150540124Y-105498185D01*
X150573300Y-105664972D01*
X150573300Y-105835028D01*
X150540124Y-106001815D01*
X150528494Y-106029891D01*
X150478789Y-106149891D01*
X150475046Y-106158926D01*
X150380569Y-106300322D01*
X150260322Y-106420569D01*
X150118926Y-106515046D01*
X149961815Y-106580124D01*
X149795029Y-106613300D01*
X149624971Y-106613300D01*
X149458185Y-106580124D01*
X149301074Y-106515046D01*
X149159678Y-106420569D01*
X149039431Y-106300322D01*
X148992232Y-106229682D01*
X148976687Y-106210741D01*
X148957745Y-106195196D01*
X148939856Y-106185634D01*
X148940982Y-106174201D01*
X148938580Y-106149815D01*
X148931467Y-106126366D01*
X148891506Y-106029891D01*
X148879876Y-106001815D01*
X148846700Y-105835028D01*
X148846700Y-105664972D01*
X148879876Y-105498185D01*
X148931467Y-105373634D01*
X148938580Y-105350185D01*
X148940982Y-105325799D01*
X148939856Y-105314366D01*
X148957745Y-105304804D01*
X148976687Y-105289259D01*
X148992232Y-105270317D01*
X149001562Y-105256353D01*
X149039431Y-105199678D01*
X149159678Y-105079431D01*
X149301074Y-104984954D01*
X149458185Y-104919876D01*
X149624971Y-104886700D01*
X149795029Y-104886700D01*
X149961815Y-104919876D01*
X149961815Y-104919876D01*
G37*
G36*
X163387663Y-104734038D02*
G01*
X163453848Y-104740557D01*
X163623687Y-104792077D01*
X163780212Y-104875742D01*
X163793564Y-104886700D01*
X163917407Y-104988334D01*
X164000669Y-105089791D01*
X164029999Y-105125529D01*
X164113664Y-105282054D01*
X164165184Y-105451893D01*
X164182580Y-105628520D01*
X164165184Y-105805147D01*
X164113664Y-105974986D01*
X164113663Y-105974988D01*
X164094730Y-106010409D01*
X164029999Y-106131511D01*
X164007500Y-106158926D01*
X163917407Y-106268706D01*
X163822712Y-106346419D01*
X163780212Y-106381298D01*
X163623687Y-106464963D01*
X163453848Y-106516483D01*
X163387664Y-106523001D01*
X163321481Y-106529520D01*
X163232961Y-106529520D01*
X163166778Y-106523001D01*
X163100594Y-106516483D01*
X162930755Y-106464963D01*
X162774230Y-106381298D01*
X162731730Y-106346419D01*
X162637035Y-106268706D01*
X162546942Y-106158926D01*
X162524443Y-106131511D01*
X162459712Y-106010409D01*
X162440779Y-105974988D01*
X162440778Y-105974986D01*
X162389258Y-105805147D01*
X162371862Y-105628520D01*
X162389258Y-105451893D01*
X162440778Y-105282054D01*
X162524443Y-105125529D01*
X162553773Y-105089791D01*
X162637035Y-104988334D01*
X162760878Y-104886700D01*
X162774230Y-104875742D01*
X162930755Y-104792077D01*
X163100594Y-104740557D01*
X163166779Y-104734038D01*
X163232961Y-104727520D01*
X163321481Y-104727520D01*
X163387663Y-104734038D01*
X163387663Y-104734038D01*
G37*
G36*
X156120864Y-104771790D02*
G01*
X156203128Y-104788153D01*
X156358109Y-104852348D01*
X156497589Y-104945546D01*
X156616206Y-105064163D01*
X156709404Y-105203643D01*
X156773599Y-105358624D01*
X156782456Y-105403152D01*
X156806325Y-105523150D01*
X156806325Y-105690904D01*
X156797468Y-105735430D01*
X156773599Y-105855430D01*
X156709404Y-106010411D01*
X156616206Y-106149891D01*
X156497589Y-106268508D01*
X156358109Y-106361706D01*
X156203128Y-106425901D01*
X156120864Y-106442264D01*
X156038602Y-106458627D01*
X155870848Y-106458627D01*
X155788586Y-106442264D01*
X155706322Y-106425901D01*
X155551341Y-106361706D01*
X155411861Y-106268508D01*
X155293244Y-106149891D01*
X155200046Y-106010411D01*
X155135851Y-105855430D01*
X155111982Y-105735430D01*
X155103125Y-105690904D01*
X155103125Y-105523150D01*
X155126994Y-105403152D01*
X155135851Y-105358624D01*
X155200046Y-105203643D01*
X155293244Y-105064163D01*
X155411861Y-104945546D01*
X155551341Y-104852348D01*
X155706322Y-104788153D01*
X155788586Y-104771790D01*
X155870848Y-104755427D01*
X156038602Y-104755427D01*
X156120864Y-104771790D01*
X156120864Y-104771790D01*
G37*
G36*
X135720864Y-104651790D02*
G01*
X135803128Y-104668153D01*
X135958109Y-104732348D01*
X136097589Y-104825546D01*
X136216206Y-104944163D01*
X136309404Y-105083643D01*
X136373599Y-105238624D01*
X136383671Y-105289259D01*
X136397469Y-105358626D01*
X136406325Y-105403152D01*
X136406325Y-105570902D01*
X136373599Y-105735430D01*
X136309404Y-105890411D01*
X136216206Y-106029891D01*
X136097589Y-106148508D01*
X135958109Y-106241706D01*
X135803128Y-106305901D01*
X135727485Y-106320947D01*
X135638602Y-106338627D01*
X135470848Y-106338627D01*
X135381965Y-106320947D01*
X135306322Y-106305901D01*
X135151341Y-106241706D01*
X135011861Y-106148508D01*
X134893244Y-106029891D01*
X134800046Y-105890411D01*
X134735851Y-105735430D01*
X134703125Y-105570902D01*
X134703125Y-105403152D01*
X134711982Y-105358626D01*
X134725779Y-105289259D01*
X134735851Y-105238624D01*
X134800046Y-105083643D01*
X134893244Y-104944163D01*
X135011861Y-104825546D01*
X135151341Y-104732348D01*
X135306322Y-104668153D01*
X135388586Y-104651790D01*
X135470848Y-104635427D01*
X135638602Y-104635427D01*
X135720864Y-104651790D01*
X135720864Y-104651790D01*
G37*
G36*
X153364499Y-105178445D02*
G01*
X153401995Y-105189820D01*
X153436554Y-105208292D01*
X153466847Y-105233153D01*
X153491708Y-105263446D01*
X153510180Y-105298005D01*
X153521555Y-105335501D01*
X153526000Y-105380638D01*
X153526000Y-106119362D01*
X153521555Y-106164499D01*
X153510180Y-106201995D01*
X153491708Y-106236554D01*
X153466847Y-106266847D01*
X153436554Y-106291708D01*
X153401995Y-106310180D01*
X153364499Y-106321555D01*
X153319362Y-106326000D01*
X152680638Y-106326000D01*
X152635501Y-106321555D01*
X152598005Y-106310180D01*
X152563446Y-106291708D01*
X152533153Y-106266847D01*
X152508292Y-106236554D01*
X152489820Y-106201995D01*
X152478445Y-106164499D01*
X152474000Y-106119362D01*
X152474000Y-105380638D01*
X152478445Y-105335501D01*
X152489820Y-105298005D01*
X152508292Y-105263446D01*
X152533153Y-105233153D01*
X152563446Y-105208292D01*
X152598005Y-105189820D01*
X152635501Y-105178445D01*
X152680638Y-105174000D01*
X153319362Y-105174000D01*
X153364499Y-105178445D01*
X153364499Y-105178445D01*
G37*
G36*
X143664499Y-104478445D02*
G01*
X143701995Y-104489820D01*
X143736554Y-104508292D01*
X143766847Y-104533153D01*
X143791708Y-104563446D01*
X143810180Y-104598005D01*
X143821555Y-104635501D01*
X143826000Y-104680638D01*
X143826000Y-105319362D01*
X143821555Y-105364499D01*
X143810180Y-105401995D01*
X143791708Y-105436554D01*
X143766847Y-105466847D01*
X143736554Y-105491708D01*
X143701995Y-105510180D01*
X143664499Y-105521555D01*
X143619362Y-105526000D01*
X142880638Y-105526000D01*
X142835501Y-105521555D01*
X142798005Y-105510180D01*
X142763446Y-105491708D01*
X142733153Y-105466847D01*
X142708292Y-105436554D01*
X142689820Y-105401995D01*
X142678445Y-105364499D01*
X142674000Y-105319362D01*
X142674000Y-104680638D01*
X142678445Y-104635501D01*
X142689820Y-104598005D01*
X142708292Y-104563446D01*
X142733153Y-104533153D01*
X142763446Y-104508292D01*
X142798005Y-104489820D01*
X142835501Y-104478445D01*
X142880638Y-104474000D01*
X143619362Y-104474000D01*
X143664499Y-104478445D01*
X143664499Y-104478445D01*
G37*
G36*
X141914499Y-104478445D02*
G01*
X141951995Y-104489820D01*
X141986554Y-104508292D01*
X142016847Y-104533153D01*
X142041708Y-104563446D01*
X142060180Y-104598005D01*
X142071555Y-104635501D01*
X142076000Y-104680638D01*
X142076000Y-105319362D01*
X142071555Y-105364499D01*
X142060180Y-105401995D01*
X142041708Y-105436554D01*
X142016847Y-105466847D01*
X141986554Y-105491708D01*
X141951995Y-105510180D01*
X141914499Y-105521555D01*
X141869362Y-105526000D01*
X141130638Y-105526000D01*
X141085501Y-105521555D01*
X141048005Y-105510180D01*
X141013446Y-105491708D01*
X140983153Y-105466847D01*
X140958292Y-105436554D01*
X140939820Y-105401995D01*
X140928445Y-105364499D01*
X140924000Y-105319362D01*
X140924000Y-104680638D01*
X140928445Y-104635501D01*
X140939820Y-104598005D01*
X140958292Y-104563446D01*
X140983153Y-104533153D01*
X141013446Y-104508292D01*
X141048005Y-104489820D01*
X141085501Y-104478445D01*
X141130638Y-104474000D01*
X141869362Y-104474000D01*
X141914499Y-104478445D01*
X141914499Y-104478445D01*
G37*
G36*
X176964409Y-104362920D02*
G01*
X175542009Y-104362920D01*
X175542009Y-102210520D01*
X176964409Y-102210520D01*
X176964409Y-104362920D01*
X176964409Y-104362920D01*
G37*
G36*
X170964409Y-104362920D02*
G01*
X169542009Y-104362920D01*
X169542009Y-102210520D01*
X170964409Y-102210520D01*
X170964409Y-104362920D01*
X170964409Y-104362920D01*
G37*
G36*
X168964409Y-104362920D02*
G01*
X167542009Y-104362920D01*
X167542009Y-102210520D01*
X168964409Y-102210520D01*
X168964409Y-104362920D01*
X168964409Y-104362920D01*
G37*
G36*
X163387663Y-102194038D02*
G01*
X163453848Y-102200557D01*
X163623687Y-102252077D01*
X163623689Y-102252078D01*
X163668443Y-102276000D01*
X163780212Y-102335742D01*
X163815950Y-102365072D01*
X163917407Y-102448334D01*
X164000669Y-102549791D01*
X164029999Y-102585529D01*
X164113664Y-102742054D01*
X164165184Y-102911893D01*
X164182580Y-103088520D01*
X164165184Y-103265147D01*
X164113664Y-103434986D01*
X164029999Y-103591511D01*
X164016049Y-103608509D01*
X163917407Y-103728706D01*
X163815950Y-103811968D01*
X163780212Y-103841298D01*
X163623687Y-103924963D01*
X163453848Y-103976483D01*
X163387663Y-103983002D01*
X163321481Y-103989520D01*
X163232961Y-103989520D01*
X163166779Y-103983002D01*
X163100594Y-103976483D01*
X162930755Y-103924963D01*
X162774230Y-103841298D01*
X162738492Y-103811968D01*
X162637035Y-103728706D01*
X162538393Y-103608509D01*
X162524443Y-103591511D01*
X162440778Y-103434986D01*
X162389258Y-103265147D01*
X162371862Y-103088520D01*
X162389258Y-102911893D01*
X162440778Y-102742054D01*
X162524443Y-102585529D01*
X162553773Y-102549791D01*
X162637035Y-102448334D01*
X162738492Y-102365072D01*
X162774230Y-102335742D01*
X162885999Y-102276000D01*
X162930753Y-102252078D01*
X162930755Y-102252077D01*
X163100594Y-102200557D01*
X163166779Y-102194038D01*
X163232961Y-102187520D01*
X163321481Y-102187520D01*
X163387663Y-102194038D01*
X163387663Y-102194038D01*
G37*
G36*
X156120296Y-102231677D02*
G01*
X156203128Y-102248153D01*
X156358109Y-102312348D01*
X156497589Y-102405546D01*
X156616206Y-102524163D01*
X156709404Y-102663643D01*
X156773599Y-102818624D01*
X156782456Y-102863152D01*
X156806325Y-102983150D01*
X156806325Y-103150904D01*
X156797468Y-103195430D01*
X156773599Y-103315430D01*
X156709404Y-103470411D01*
X156616206Y-103609891D01*
X156497589Y-103728508D01*
X156358109Y-103821706D01*
X156203128Y-103885901D01*
X156120864Y-103902264D01*
X156038602Y-103918627D01*
X155870848Y-103918627D01*
X155788586Y-103902264D01*
X155706322Y-103885901D01*
X155551341Y-103821706D01*
X155411861Y-103728508D01*
X155293244Y-103609891D01*
X155200046Y-103470411D01*
X155135851Y-103315430D01*
X155111982Y-103195430D01*
X155103125Y-103150904D01*
X155103125Y-102983150D01*
X155126994Y-102863152D01*
X155135851Y-102818624D01*
X155200046Y-102663643D01*
X155293244Y-102524163D01*
X155411861Y-102405546D01*
X155551341Y-102312348D01*
X155706322Y-102248153D01*
X155789154Y-102231677D01*
X155870848Y-102215427D01*
X156038602Y-102215427D01*
X156120296Y-102231677D01*
X156120296Y-102231677D01*
G37*
G36*
X135720864Y-102111790D02*
G01*
X135803128Y-102128153D01*
X135958109Y-102192348D01*
X136097589Y-102285546D01*
X136216206Y-102404163D01*
X136309404Y-102543643D01*
X136373599Y-102698624D01*
X136389962Y-102780888D01*
X136397469Y-102818626D01*
X136406325Y-102863152D01*
X136406325Y-103030902D01*
X136373599Y-103195430D01*
X136309404Y-103350411D01*
X136216206Y-103489891D01*
X136097589Y-103608508D01*
X135958109Y-103701706D01*
X135803128Y-103765901D01*
X135720864Y-103782264D01*
X135638602Y-103798627D01*
X135470848Y-103798627D01*
X135388586Y-103782264D01*
X135306322Y-103765901D01*
X135151341Y-103701706D01*
X135011861Y-103608508D01*
X134893244Y-103489891D01*
X134800046Y-103350411D01*
X134735851Y-103195430D01*
X134703125Y-103030902D01*
X134703125Y-102863152D01*
X134711982Y-102818626D01*
X134719488Y-102780888D01*
X134735851Y-102698624D01*
X134800046Y-102543643D01*
X134893244Y-102404163D01*
X135011861Y-102285546D01*
X135151341Y-102192348D01*
X135306322Y-102128153D01*
X135388586Y-102111790D01*
X135470848Y-102095427D01*
X135638602Y-102095427D01*
X135720864Y-102111790D01*
X135720864Y-102111790D01*
G37*
G36*
X149914499Y-101228445D02*
G01*
X149951995Y-101239820D01*
X149986554Y-101258292D01*
X150016847Y-101283153D01*
X150041708Y-101313446D01*
X150060180Y-101348005D01*
X150071555Y-101385501D01*
X150076000Y-101430638D01*
X150076000Y-102069362D01*
X150071555Y-102114499D01*
X150060180Y-102151995D01*
X150041708Y-102186554D01*
X150016847Y-102216847D01*
X149986554Y-102241708D01*
X149951995Y-102260180D01*
X149914499Y-102271555D01*
X149869362Y-102276000D01*
X149130638Y-102276000D01*
X149085501Y-102271555D01*
X149048005Y-102260180D01*
X149013446Y-102241708D01*
X148983153Y-102216847D01*
X148958292Y-102186554D01*
X148939820Y-102151995D01*
X148928445Y-102114499D01*
X148924000Y-102069362D01*
X148924000Y-101430638D01*
X148928445Y-101385501D01*
X148939820Y-101348005D01*
X148958292Y-101313446D01*
X148983153Y-101283153D01*
X149013446Y-101258292D01*
X149048005Y-101239820D01*
X149085501Y-101228445D01*
X149130638Y-101224000D01*
X149869362Y-101224000D01*
X149914499Y-101228445D01*
X149914499Y-101228445D01*
G37*
G36*
X148164499Y-101228445D02*
G01*
X148201995Y-101239820D01*
X148236554Y-101258292D01*
X148266847Y-101283153D01*
X148291708Y-101313446D01*
X148310180Y-101348005D01*
X148321555Y-101385501D01*
X148326000Y-101430638D01*
X148326000Y-102069362D01*
X148321555Y-102114499D01*
X148310180Y-102151995D01*
X148291708Y-102186554D01*
X148266847Y-102216847D01*
X148236554Y-102241708D01*
X148201995Y-102260180D01*
X148164499Y-102271555D01*
X148119362Y-102276000D01*
X147380638Y-102276000D01*
X147335501Y-102271555D01*
X147298005Y-102260180D01*
X147263446Y-102241708D01*
X147233153Y-102216847D01*
X147208292Y-102186554D01*
X147189820Y-102151995D01*
X147178445Y-102114499D01*
X147174000Y-102069362D01*
X147174000Y-101430638D01*
X147178445Y-101385501D01*
X147189820Y-101348005D01*
X147208292Y-101313446D01*
X147233153Y-101283153D01*
X147263446Y-101258292D01*
X147298005Y-101239820D01*
X147335501Y-101228445D01*
X147380638Y-101224000D01*
X148119362Y-101224000D01*
X148164499Y-101228445D01*
X148164499Y-101228445D01*
G37*
G36*
X163387664Y-99654039D02*
G01*
X163453848Y-99660557D01*
X163623687Y-99712077D01*
X163780212Y-99795742D01*
X163802836Y-99814309D01*
X163917407Y-99908334D01*
X163997542Y-100005980D01*
X164029999Y-100045529D01*
X164113664Y-100202054D01*
X164165184Y-100371893D01*
X164182580Y-100548520D01*
X164165184Y-100725147D01*
X164113664Y-100894986D01*
X164029999Y-101051511D01*
X164016049Y-101068509D01*
X163917407Y-101188706D01*
X163820392Y-101268323D01*
X163780212Y-101301298D01*
X163623687Y-101384963D01*
X163453848Y-101436483D01*
X163387664Y-101443001D01*
X163321481Y-101449520D01*
X163232961Y-101449520D01*
X163166778Y-101443001D01*
X163100594Y-101436483D01*
X162930755Y-101384963D01*
X162774230Y-101301298D01*
X162734050Y-101268323D01*
X162637035Y-101188706D01*
X162538393Y-101068509D01*
X162524443Y-101051511D01*
X162440778Y-100894986D01*
X162389258Y-100725147D01*
X162371862Y-100548520D01*
X162389258Y-100371893D01*
X162440778Y-100202054D01*
X162524443Y-100045529D01*
X162556900Y-100005980D01*
X162637035Y-99908334D01*
X162751606Y-99814309D01*
X162774230Y-99795742D01*
X162930755Y-99712077D01*
X163100594Y-99660557D01*
X163166778Y-99654039D01*
X163232961Y-99647520D01*
X163321481Y-99647520D01*
X163387664Y-99654039D01*
X163387664Y-99654039D01*
G37*
G36*
X156120864Y-99691790D02*
G01*
X156203128Y-99708153D01*
X156358109Y-99772348D01*
X156497589Y-99865546D01*
X156616206Y-99984163D01*
X156709404Y-100123643D01*
X156773599Y-100278624D01*
X156782456Y-100323152D01*
X156806325Y-100443150D01*
X156806325Y-100610904D01*
X156797468Y-100655430D01*
X156773599Y-100775430D01*
X156709404Y-100930411D01*
X156616206Y-101069891D01*
X156497589Y-101188508D01*
X156358109Y-101281706D01*
X156203128Y-101345901D01*
X156120864Y-101362264D01*
X156038602Y-101378627D01*
X155870848Y-101378627D01*
X155788586Y-101362264D01*
X155706322Y-101345901D01*
X155551341Y-101281706D01*
X155411861Y-101188508D01*
X155293244Y-101069891D01*
X155200046Y-100930411D01*
X155135851Y-100775430D01*
X155111982Y-100655430D01*
X155103125Y-100610904D01*
X155103125Y-100443150D01*
X155126994Y-100323152D01*
X155135851Y-100278624D01*
X155200046Y-100123643D01*
X155293244Y-99984163D01*
X155411861Y-99865546D01*
X155551341Y-99772348D01*
X155706322Y-99708153D01*
X155788586Y-99691790D01*
X155870848Y-99675427D01*
X156038602Y-99675427D01*
X156120864Y-99691790D01*
X156120864Y-99691790D01*
G37*
G36*
X135720864Y-99571790D02*
G01*
X135803128Y-99588153D01*
X135958109Y-99652348D01*
X136097589Y-99745546D01*
X136216206Y-99864163D01*
X136309404Y-100003643D01*
X136373599Y-100158624D01*
X136389962Y-100240888D01*
X136397469Y-100278626D01*
X136406325Y-100323152D01*
X136406325Y-100490902D01*
X136373599Y-100655430D01*
X136309404Y-100810411D01*
X136216206Y-100949891D01*
X136097589Y-101068508D01*
X135958109Y-101161706D01*
X135803128Y-101225901D01*
X135733151Y-101239820D01*
X135638602Y-101258627D01*
X135470848Y-101258627D01*
X135376299Y-101239820D01*
X135306322Y-101225901D01*
X135151341Y-101161706D01*
X135011861Y-101068508D01*
X134893244Y-100949891D01*
X134800046Y-100810411D01*
X134735851Y-100655430D01*
X134703125Y-100490902D01*
X134703125Y-100323152D01*
X134711982Y-100278626D01*
X134719488Y-100240888D01*
X134735851Y-100158624D01*
X134800046Y-100003643D01*
X134893244Y-99864163D01*
X135011861Y-99745546D01*
X135151341Y-99652348D01*
X135306322Y-99588153D01*
X135388586Y-99571790D01*
X135470848Y-99555427D01*
X135638602Y-99555427D01*
X135720864Y-99571790D01*
X135720864Y-99571790D01*
G37*
G36*
X149914499Y-98978445D02*
G01*
X149951995Y-98989820D01*
X149986554Y-99008292D01*
X150016847Y-99033153D01*
X150041708Y-99063446D01*
X150060180Y-99098005D01*
X150071555Y-99135501D01*
X150076000Y-99180638D01*
X150076000Y-99819362D01*
X150071555Y-99864499D01*
X150060180Y-99901995D01*
X150041708Y-99936554D01*
X150016847Y-99966847D01*
X149986554Y-99991708D01*
X149951995Y-100010180D01*
X149914499Y-100021555D01*
X149869362Y-100026000D01*
X149130638Y-100026000D01*
X149085501Y-100021555D01*
X149048005Y-100010180D01*
X149013446Y-99991708D01*
X148983153Y-99966847D01*
X148958292Y-99936554D01*
X148939820Y-99901995D01*
X148928445Y-99864499D01*
X148924000Y-99819362D01*
X148924000Y-99180638D01*
X148928445Y-99135501D01*
X148939820Y-99098005D01*
X148958292Y-99063446D01*
X148983153Y-99033153D01*
X149013446Y-99008292D01*
X149048005Y-98989820D01*
X149085501Y-98978445D01*
X149130638Y-98974000D01*
X149869362Y-98974000D01*
X149914499Y-98978445D01*
X149914499Y-98978445D01*
G37*
G36*
X148164499Y-98978445D02*
G01*
X148201995Y-98989820D01*
X148236554Y-99008292D01*
X148266847Y-99033153D01*
X148291708Y-99063446D01*
X148310180Y-99098005D01*
X148321555Y-99135501D01*
X148326000Y-99180638D01*
X148326000Y-99819362D01*
X148321555Y-99864499D01*
X148310180Y-99901995D01*
X148291708Y-99936554D01*
X148266847Y-99966847D01*
X148236554Y-99991708D01*
X148201995Y-100010180D01*
X148164499Y-100021555D01*
X148119362Y-100026000D01*
X147380638Y-100026000D01*
X147335501Y-100021555D01*
X147298005Y-100010180D01*
X147263446Y-99991708D01*
X147233153Y-99966847D01*
X147208292Y-99936554D01*
X147189820Y-99901995D01*
X147178445Y-99864499D01*
X147174000Y-99819362D01*
X147174000Y-99180638D01*
X147178445Y-99135501D01*
X147189820Y-99098005D01*
X147208292Y-99063446D01*
X147233153Y-99033153D01*
X147263446Y-99008292D01*
X147298005Y-98989820D01*
X147335501Y-98978445D01*
X147380638Y-98974000D01*
X148119362Y-98974000D01*
X148164499Y-98978445D01*
X148164499Y-98978445D01*
G37*
G36*
X156120864Y-97151790D02*
G01*
X156203128Y-97168153D01*
X156358109Y-97232348D01*
X156497589Y-97325546D01*
X156616206Y-97444163D01*
X156709404Y-97583643D01*
X156773599Y-97738624D01*
X156782456Y-97783152D01*
X156806325Y-97903150D01*
X156806325Y-98070904D01*
X156797468Y-98115430D01*
X156773599Y-98235430D01*
X156709404Y-98390411D01*
X156616206Y-98529891D01*
X156497589Y-98648508D01*
X156358109Y-98741706D01*
X156203128Y-98805901D01*
X156120864Y-98822264D01*
X156038602Y-98838627D01*
X155870848Y-98838627D01*
X155788586Y-98822264D01*
X155706322Y-98805901D01*
X155551341Y-98741706D01*
X155411861Y-98648508D01*
X155293244Y-98529891D01*
X155200046Y-98390411D01*
X155135851Y-98235430D01*
X155111982Y-98115430D01*
X155103125Y-98070904D01*
X155103125Y-97903150D01*
X155126994Y-97783152D01*
X155135851Y-97738624D01*
X155200046Y-97583643D01*
X155293244Y-97444163D01*
X155411861Y-97325546D01*
X155551341Y-97232348D01*
X155706322Y-97168153D01*
X155788586Y-97151790D01*
X155870848Y-97135427D01*
X156038602Y-97135427D01*
X156120864Y-97151790D01*
X156120864Y-97151790D01*
G37*
G36*
X135720864Y-97031790D02*
G01*
X135803128Y-97048153D01*
X135958109Y-97112348D01*
X136097589Y-97205546D01*
X136216206Y-97324163D01*
X136309404Y-97463643D01*
X136373599Y-97618624D01*
X136373599Y-97618626D01*
X136397469Y-97738626D01*
X136406325Y-97783152D01*
X136406325Y-97950902D01*
X136373599Y-98115430D01*
X136309404Y-98270411D01*
X136216206Y-98409891D01*
X136097589Y-98528508D01*
X135958109Y-98621706D01*
X135803128Y-98685901D01*
X135720864Y-98702264D01*
X135638602Y-98718627D01*
X135470848Y-98718627D01*
X135388586Y-98702264D01*
X135306322Y-98685901D01*
X135151341Y-98621706D01*
X135011861Y-98528508D01*
X134893244Y-98409891D01*
X134800046Y-98270411D01*
X134735851Y-98115430D01*
X134703125Y-97950902D01*
X134703125Y-97783152D01*
X134711982Y-97738626D01*
X134735851Y-97618626D01*
X134735851Y-97618624D01*
X134800046Y-97463643D01*
X134893244Y-97324163D01*
X135011861Y-97205546D01*
X135151341Y-97112348D01*
X135306322Y-97048153D01*
X135388586Y-97031790D01*
X135470848Y-97015427D01*
X135638602Y-97015427D01*
X135720864Y-97031790D01*
X135720864Y-97031790D01*
G37*
G36*
X156120864Y-94611790D02*
G01*
X156203128Y-94628153D01*
X156358109Y-94692348D01*
X156497589Y-94785546D01*
X156616206Y-94904163D01*
X156709404Y-95043643D01*
X156773599Y-95198624D01*
X156782456Y-95243152D01*
X156806325Y-95363150D01*
X156806325Y-95530904D01*
X156797468Y-95575430D01*
X156773599Y-95695430D01*
X156709404Y-95850411D01*
X156616206Y-95989891D01*
X156497589Y-96108508D01*
X156358109Y-96201706D01*
X156203128Y-96265901D01*
X156120864Y-96282264D01*
X156038602Y-96298627D01*
X155870848Y-96298627D01*
X155788586Y-96282264D01*
X155706322Y-96265901D01*
X155551341Y-96201706D01*
X155411861Y-96108508D01*
X155293244Y-95989891D01*
X155200046Y-95850411D01*
X155135851Y-95695430D01*
X155111982Y-95575430D01*
X155103125Y-95530904D01*
X155103125Y-95363150D01*
X155126994Y-95243152D01*
X155135851Y-95198624D01*
X155200046Y-95043643D01*
X155293244Y-94904163D01*
X155411861Y-94785546D01*
X155551341Y-94692348D01*
X155706322Y-94628153D01*
X155788586Y-94611790D01*
X155870848Y-94595427D01*
X156038602Y-94595427D01*
X156120864Y-94611790D01*
X156120864Y-94611790D01*
G37*
G36*
X135720864Y-94491790D02*
G01*
X135803128Y-94508153D01*
X135958109Y-94572348D01*
X136097589Y-94665546D01*
X136216206Y-94784163D01*
X136309404Y-94923643D01*
X136373599Y-95078624D01*
X136373599Y-95078626D01*
X136397469Y-95198626D01*
X136406325Y-95243152D01*
X136406325Y-95410902D01*
X136373599Y-95575430D01*
X136309404Y-95730411D01*
X136216206Y-95869891D01*
X136097589Y-95988508D01*
X135958109Y-96081706D01*
X135803128Y-96145901D01*
X135720864Y-96162264D01*
X135638602Y-96178627D01*
X135470848Y-96178627D01*
X135388586Y-96162264D01*
X135306322Y-96145901D01*
X135151341Y-96081706D01*
X135011861Y-95988508D01*
X134893244Y-95869891D01*
X134800046Y-95730411D01*
X134735851Y-95575430D01*
X134703125Y-95410902D01*
X134703125Y-95243152D01*
X134711982Y-95198626D01*
X134735851Y-95078626D01*
X134735851Y-95078624D01*
X134800046Y-94923643D01*
X134893244Y-94784163D01*
X135011861Y-94665546D01*
X135151341Y-94572348D01*
X135306322Y-94508153D01*
X135388586Y-94491790D01*
X135470848Y-94475427D01*
X135638602Y-94475427D01*
X135720864Y-94491790D01*
X135720864Y-94491790D01*
G37*
G36*
X144125256Y-91141298D02*
G01*
X144231579Y-91162447D01*
X144532042Y-91286903D01*
X144802451Y-91467585D01*
X145032415Y-91697549D01*
X145213097Y-91967958D01*
X145328078Y-92245546D01*
X145337553Y-92268422D01*
X145401000Y-92587389D01*
X145401000Y-92912611D01*
X145358702Y-93125256D01*
X145337553Y-93231579D01*
X145213097Y-93532042D01*
X145032415Y-93802451D01*
X144802451Y-94032415D01*
X144532042Y-94213097D01*
X144231579Y-94337553D01*
X144125256Y-94358702D01*
X143912611Y-94401000D01*
X143587389Y-94401000D01*
X143374744Y-94358702D01*
X143268421Y-94337553D01*
X142967958Y-94213097D01*
X142697549Y-94032415D01*
X142467585Y-93802451D01*
X142286903Y-93532042D01*
X142162447Y-93231579D01*
X142141298Y-93125256D01*
X142099000Y-92912611D01*
X142099000Y-92587389D01*
X142162447Y-92268422D01*
X142171923Y-92245546D01*
X142286903Y-91967958D01*
X142467585Y-91697549D01*
X142697549Y-91467585D01*
X142967958Y-91286903D01*
X143268421Y-91162447D01*
X143374744Y-91141298D01*
X143587389Y-91099000D01*
X143912611Y-91099000D01*
X144125256Y-91141298D01*
X144125256Y-91141298D01*
G37*
G36*
X156120864Y-92071790D02*
G01*
X156203128Y-92088153D01*
X156358109Y-92152348D01*
X156497589Y-92245546D01*
X156616206Y-92364163D01*
X156709404Y-92503643D01*
X156773599Y-92658624D01*
X156782456Y-92703152D01*
X156806325Y-92823150D01*
X156806325Y-92990904D01*
X156797468Y-93035430D01*
X156773599Y-93155430D01*
X156709404Y-93310411D01*
X156616206Y-93449891D01*
X156497589Y-93568508D01*
X156358109Y-93661706D01*
X156203128Y-93725901D01*
X156120864Y-93742264D01*
X156038602Y-93758627D01*
X155870848Y-93758627D01*
X155788586Y-93742264D01*
X155706322Y-93725901D01*
X155551341Y-93661706D01*
X155411861Y-93568508D01*
X155293244Y-93449891D01*
X155200046Y-93310411D01*
X155135851Y-93155430D01*
X155111982Y-93035430D01*
X155103125Y-92990904D01*
X155103125Y-92823150D01*
X155126994Y-92703152D01*
X155135851Y-92658624D01*
X155200046Y-92503643D01*
X155293244Y-92364163D01*
X155411861Y-92245546D01*
X155551341Y-92152348D01*
X155706322Y-92088153D01*
X155788586Y-92071790D01*
X155870848Y-92055427D01*
X156038602Y-92055427D01*
X156120864Y-92071790D01*
X156120864Y-92071790D01*
G37*
G36*
X135720864Y-91951790D02*
G01*
X135803128Y-91968153D01*
X135958109Y-92032348D01*
X136097589Y-92125546D01*
X136216206Y-92244163D01*
X136309404Y-92383643D01*
X136373599Y-92538624D01*
X136373599Y-92538626D01*
X136397469Y-92658626D01*
X136406325Y-92703152D01*
X136406325Y-92870902D01*
X136373599Y-93035430D01*
X136309404Y-93190411D01*
X136216206Y-93329891D01*
X136097589Y-93448508D01*
X135958109Y-93541706D01*
X135803128Y-93605901D01*
X135720864Y-93622264D01*
X135638602Y-93638627D01*
X135470848Y-93638627D01*
X135388586Y-93622264D01*
X135306322Y-93605901D01*
X135151341Y-93541706D01*
X135011861Y-93448508D01*
X134893244Y-93329891D01*
X134800046Y-93190411D01*
X134735851Y-93035430D01*
X134703125Y-92870902D01*
X134703125Y-92703152D01*
X134711982Y-92658626D01*
X134735851Y-92538626D01*
X134735851Y-92538624D01*
X134800046Y-92383643D01*
X134893244Y-92244163D01*
X135011861Y-92125546D01*
X135151341Y-92032348D01*
X135306322Y-91968153D01*
X135388586Y-91951790D01*
X135470848Y-91935427D01*
X135638602Y-91935427D01*
X135720864Y-91951790D01*
X135720864Y-91951790D01*
G37*
G36*
X156120864Y-89531790D02*
G01*
X156203128Y-89548153D01*
X156358109Y-89612348D01*
X156497589Y-89705546D01*
X156616206Y-89824163D01*
X156709404Y-89963643D01*
X156773599Y-90118624D01*
X156782456Y-90163152D01*
X156806325Y-90283150D01*
X156806325Y-90450904D01*
X156797468Y-90495430D01*
X156773599Y-90615430D01*
X156709404Y-90770411D01*
X156616206Y-90909891D01*
X156497589Y-91028508D01*
X156358109Y-91121706D01*
X156203128Y-91185901D01*
X156120864Y-91202264D01*
X156038602Y-91218627D01*
X155870848Y-91218627D01*
X155788586Y-91202264D01*
X155706322Y-91185901D01*
X155551341Y-91121706D01*
X155411861Y-91028508D01*
X155293244Y-90909891D01*
X155200046Y-90770411D01*
X155135851Y-90615430D01*
X155111982Y-90495430D01*
X155103125Y-90450904D01*
X155103125Y-90283150D01*
X155126994Y-90163152D01*
X155135851Y-90118624D01*
X155200046Y-89963643D01*
X155293244Y-89824163D01*
X155411861Y-89705546D01*
X155551341Y-89612348D01*
X155706322Y-89548153D01*
X155788586Y-89531790D01*
X155870848Y-89515427D01*
X156038602Y-89515427D01*
X156120864Y-89531790D01*
X156120864Y-89531790D01*
G37*
G36*
X135720864Y-89411790D02*
G01*
X135803128Y-89428153D01*
X135958109Y-89492348D01*
X136097589Y-89585546D01*
X136216206Y-89704163D01*
X136309404Y-89843643D01*
X136373599Y-89998624D01*
X136373599Y-89998626D01*
X136397469Y-90118626D01*
X136406325Y-90163152D01*
X136406325Y-90330902D01*
X136373599Y-90495430D01*
X136309404Y-90650411D01*
X136216206Y-90789891D01*
X136097589Y-90908508D01*
X135958109Y-91001706D01*
X135803128Y-91065901D01*
X135720864Y-91082264D01*
X135638602Y-91098627D01*
X135470848Y-91098627D01*
X135388586Y-91082264D01*
X135306322Y-91065901D01*
X135151341Y-91001706D01*
X135011861Y-90908508D01*
X134893244Y-90789891D01*
X134800046Y-90650411D01*
X134735851Y-90495430D01*
X134703125Y-90330902D01*
X134703125Y-90163152D01*
X134711982Y-90118626D01*
X134735851Y-89998626D01*
X134735851Y-89998624D01*
X134800046Y-89843643D01*
X134893244Y-89704163D01*
X135011861Y-89585546D01*
X135151341Y-89492348D01*
X135306322Y-89428153D01*
X135388586Y-89411790D01*
X135470848Y-89395427D01*
X135638602Y-89395427D01*
X135720864Y-89411790D01*
X135720864Y-89411790D01*
G37*
G36*
X156120864Y-86991790D02*
G01*
X156203128Y-87008153D01*
X156358109Y-87072348D01*
X156497589Y-87165546D01*
X156616206Y-87284163D01*
X156709404Y-87423643D01*
X156773599Y-87578624D01*
X156782456Y-87623152D01*
X156806325Y-87743150D01*
X156806325Y-87910904D01*
X156797468Y-87955430D01*
X156773599Y-88075430D01*
X156709404Y-88230411D01*
X156616206Y-88369891D01*
X156497589Y-88488508D01*
X156358109Y-88581706D01*
X156203128Y-88645901D01*
X156120864Y-88662264D01*
X156038602Y-88678627D01*
X155870848Y-88678627D01*
X155788586Y-88662264D01*
X155706322Y-88645901D01*
X155551341Y-88581706D01*
X155411861Y-88488508D01*
X155293244Y-88369891D01*
X155200046Y-88230411D01*
X155135851Y-88075430D01*
X155111982Y-87955430D01*
X155103125Y-87910904D01*
X155103125Y-87743150D01*
X155126994Y-87623152D01*
X155135851Y-87578624D01*
X155200046Y-87423643D01*
X155293244Y-87284163D01*
X155411861Y-87165546D01*
X155551341Y-87072348D01*
X155706322Y-87008153D01*
X155788586Y-86991790D01*
X155870848Y-86975427D01*
X156038602Y-86975427D01*
X156120864Y-86991790D01*
X156120864Y-86991790D01*
G37*
G36*
X135720864Y-86871790D02*
G01*
X135803128Y-86888153D01*
X135958109Y-86952348D01*
X136097589Y-87045546D01*
X136216206Y-87164163D01*
X136309404Y-87303643D01*
X136373599Y-87458624D01*
X136373599Y-87458626D01*
X136397469Y-87578626D01*
X136406325Y-87623152D01*
X136406325Y-87790902D01*
X136373599Y-87955430D01*
X136309404Y-88110411D01*
X136216206Y-88249891D01*
X136097589Y-88368508D01*
X135958109Y-88461706D01*
X135803128Y-88525901D01*
X135720864Y-88542264D01*
X135638602Y-88558627D01*
X135470848Y-88558627D01*
X135388586Y-88542264D01*
X135306322Y-88525901D01*
X135151341Y-88461706D01*
X135011861Y-88368508D01*
X134893244Y-88249891D01*
X134800046Y-88110411D01*
X134735851Y-87955430D01*
X134703125Y-87790902D01*
X134703125Y-87623152D01*
X134711982Y-87578626D01*
X134735851Y-87458626D01*
X134735851Y-87458624D01*
X134800046Y-87303643D01*
X134893244Y-87164163D01*
X135011861Y-87045546D01*
X135151341Y-86952348D01*
X135306322Y-86888153D01*
X135388586Y-86871790D01*
X135470848Y-86855427D01*
X135638602Y-86855427D01*
X135720864Y-86871790D01*
X135720864Y-86871790D01*
G37*
G36*
X182964409Y-88362920D02*
G01*
X181542009Y-88362920D01*
X181542009Y-86210520D01*
X182964409Y-86210520D01*
X182964409Y-88362920D01*
X182964409Y-88362920D01*
G37*
G36*
X174964409Y-88362920D02*
G01*
X173542009Y-88362920D01*
X173542009Y-86210520D01*
X174964409Y-86210520D01*
X174964409Y-88362920D01*
X174964409Y-88362920D01*
G37*
G36*
X173059409Y-88362920D02*
G01*
X171637009Y-88362920D01*
X171637009Y-86210520D01*
X173059409Y-86210520D01*
X173059409Y-88362920D01*
X173059409Y-88362920D01*
G37*
G36*
X178964409Y-88360920D02*
G01*
X177542009Y-88360920D01*
X177542009Y-86208520D01*
X178964409Y-86208520D01*
X178964409Y-88360920D01*
X178964409Y-88360920D01*
G37*
G36*
X171027909Y-88360920D02*
G01*
X169605509Y-88360920D01*
X169605509Y-86208520D01*
X171027909Y-86208520D01*
X171027909Y-88360920D01*
X171027909Y-88360920D01*
G37*
G36*
X168964409Y-88355420D02*
G01*
X167542009Y-88355420D01*
X167542009Y-86203020D01*
X168964409Y-86203020D01*
X168964409Y-88355420D01*
X168964409Y-88355420D01*
G37*
G36*
X180964409Y-88355420D02*
G01*
X179542009Y-88355420D01*
X179542009Y-86203020D01*
X180964409Y-86203020D01*
X180964409Y-88355420D01*
X180964409Y-88355420D01*
G37*
G36*
X176976609Y-88355420D02*
G01*
X175554209Y-88355420D01*
X175554209Y-86203020D01*
X176976609Y-86203020D01*
X176976609Y-88355420D01*
X176976609Y-88355420D01*
G37*
G36*
X156120864Y-84451790D02*
G01*
X156203128Y-84468153D01*
X156358109Y-84532348D01*
X156497589Y-84625546D01*
X156616206Y-84744163D01*
X156709404Y-84883643D01*
X156773599Y-85038624D01*
X156782456Y-85083152D01*
X156806325Y-85203150D01*
X156806325Y-85370904D01*
X156797468Y-85415430D01*
X156773599Y-85535430D01*
X156709404Y-85690411D01*
X156616206Y-85829891D01*
X156497589Y-85948508D01*
X156358109Y-86041706D01*
X156203128Y-86105901D01*
X156120864Y-86122264D01*
X156038602Y-86138627D01*
X155870848Y-86138627D01*
X155788586Y-86122264D01*
X155706322Y-86105901D01*
X155551341Y-86041706D01*
X155411861Y-85948508D01*
X155293244Y-85829891D01*
X155200046Y-85690411D01*
X155135851Y-85535430D01*
X155111982Y-85415430D01*
X155103125Y-85370904D01*
X155103125Y-85203150D01*
X155126994Y-85083152D01*
X155135851Y-85038624D01*
X155200046Y-84883643D01*
X155293244Y-84744163D01*
X155411861Y-84625546D01*
X155551341Y-84532348D01*
X155706322Y-84468153D01*
X155788586Y-84451790D01*
X155870848Y-84435427D01*
X156038602Y-84435427D01*
X156120864Y-84451790D01*
X156120864Y-84451790D01*
G37*
G36*
X135720864Y-84331790D02*
G01*
X135803128Y-84348153D01*
X135958109Y-84412348D01*
X136097589Y-84505546D01*
X136216206Y-84624163D01*
X136309404Y-84763643D01*
X136373599Y-84918624D01*
X136373599Y-84918626D01*
X136397469Y-85038626D01*
X136406325Y-85083152D01*
X136406325Y-85250902D01*
X136373599Y-85415430D01*
X136309404Y-85570411D01*
X136216206Y-85709891D01*
X136097589Y-85828508D01*
X135958109Y-85921706D01*
X135803128Y-85985901D01*
X135720864Y-86002264D01*
X135638602Y-86018627D01*
X135470848Y-86018627D01*
X135388586Y-86002264D01*
X135306322Y-85985901D01*
X135151341Y-85921706D01*
X135011861Y-85828508D01*
X134893244Y-85709891D01*
X134800046Y-85570411D01*
X134735851Y-85415430D01*
X134703125Y-85250902D01*
X134703125Y-85083152D01*
X134711982Y-85038626D01*
X134735851Y-84918626D01*
X134735851Y-84918624D01*
X134800046Y-84763643D01*
X134893244Y-84624163D01*
X135011861Y-84505546D01*
X135151341Y-84412348D01*
X135306322Y-84348153D01*
X135388586Y-84331790D01*
X135470848Y-84315427D01*
X135638602Y-84315427D01*
X135720864Y-84331790D01*
X135720864Y-84331790D01*
G37*
G36*
X156120864Y-81911790D02*
G01*
X156203128Y-81928153D01*
X156358109Y-81992348D01*
X156497589Y-82085546D01*
X156616206Y-82204163D01*
X156709404Y-82343643D01*
X156773599Y-82498624D01*
X156782456Y-82543152D01*
X156806325Y-82663150D01*
X156806325Y-82830904D01*
X156797468Y-82875430D01*
X156773599Y-82995430D01*
X156709404Y-83150411D01*
X156616206Y-83289891D01*
X156497589Y-83408508D01*
X156358109Y-83501706D01*
X156203128Y-83565901D01*
X156120864Y-83582264D01*
X156038602Y-83598627D01*
X155870848Y-83598627D01*
X155788586Y-83582264D01*
X155706322Y-83565901D01*
X155551341Y-83501706D01*
X155411861Y-83408508D01*
X155293244Y-83289891D01*
X155200046Y-83150411D01*
X155135851Y-82995430D01*
X155111982Y-82875430D01*
X155103125Y-82830904D01*
X155103125Y-82663150D01*
X155126994Y-82543152D01*
X155135851Y-82498624D01*
X155200046Y-82343643D01*
X155293244Y-82204163D01*
X155411861Y-82085546D01*
X155551341Y-81992348D01*
X155706322Y-81928153D01*
X155788586Y-81911790D01*
X155870848Y-81895427D01*
X156038602Y-81895427D01*
X156120864Y-81911790D01*
X156120864Y-81911790D01*
G37*
G36*
X135720864Y-81791790D02*
G01*
X135803128Y-81808153D01*
X135958109Y-81872348D01*
X136097589Y-81965546D01*
X136216206Y-82084163D01*
X136309404Y-82223643D01*
X136373599Y-82378624D01*
X136373599Y-82378626D01*
X136397469Y-82498626D01*
X136406325Y-82543152D01*
X136406325Y-82710902D01*
X136373599Y-82875430D01*
X136309404Y-83030411D01*
X136216206Y-83169891D01*
X136097589Y-83288508D01*
X135958109Y-83381706D01*
X135803128Y-83445901D01*
X135720864Y-83462264D01*
X135638602Y-83478627D01*
X135470848Y-83478627D01*
X135388586Y-83462264D01*
X135306322Y-83445901D01*
X135151341Y-83381706D01*
X135011861Y-83288508D01*
X134893244Y-83169891D01*
X134800046Y-83030411D01*
X134735851Y-82875430D01*
X134703125Y-82710902D01*
X134703125Y-82543152D01*
X134711982Y-82498626D01*
X134735851Y-82378626D01*
X134735851Y-82378624D01*
X134800046Y-82223643D01*
X134893244Y-82084163D01*
X135011861Y-81965546D01*
X135151341Y-81872348D01*
X135306322Y-81808153D01*
X135388586Y-81791790D01*
X135470848Y-81775427D01*
X135638602Y-81775427D01*
X135720864Y-81791790D01*
X135720864Y-81791790D01*
G37*
G36*
X156120864Y-79371790D02*
G01*
X156203128Y-79388153D01*
X156358109Y-79452348D01*
X156497589Y-79545546D01*
X156616206Y-79664163D01*
X156709404Y-79803643D01*
X156773599Y-79958624D01*
X156782456Y-80003152D01*
X156806325Y-80123150D01*
X156806325Y-80290904D01*
X156797468Y-80335430D01*
X156773599Y-80455430D01*
X156709404Y-80610411D01*
X156616206Y-80749891D01*
X156497589Y-80868508D01*
X156358109Y-80961706D01*
X156203128Y-81025901D01*
X156120864Y-81042264D01*
X156038602Y-81058627D01*
X155870848Y-81058627D01*
X155788586Y-81042264D01*
X155706322Y-81025901D01*
X155551341Y-80961706D01*
X155411861Y-80868508D01*
X155293244Y-80749891D01*
X155200046Y-80610411D01*
X155135851Y-80455430D01*
X155111982Y-80335430D01*
X155103125Y-80290904D01*
X155103125Y-80123150D01*
X155126994Y-80003152D01*
X155135851Y-79958624D01*
X155200046Y-79803643D01*
X155293244Y-79664163D01*
X155411861Y-79545546D01*
X155551341Y-79452348D01*
X155706322Y-79388153D01*
X155788586Y-79371790D01*
X155870848Y-79355427D01*
X156038602Y-79355427D01*
X156120864Y-79371790D01*
X156120864Y-79371790D01*
G37*
G36*
X135720864Y-79251790D02*
G01*
X135803128Y-79268153D01*
X135958109Y-79332348D01*
X136097589Y-79425546D01*
X136216206Y-79544163D01*
X136309404Y-79683643D01*
X136373599Y-79838624D01*
X136373599Y-79838626D01*
X136397469Y-79958626D01*
X136406325Y-80003152D01*
X136406325Y-80170902D01*
X136373599Y-80335430D01*
X136309404Y-80490411D01*
X136216206Y-80629891D01*
X136097589Y-80748508D01*
X135958109Y-80841706D01*
X135803128Y-80905901D01*
X135720864Y-80922264D01*
X135638602Y-80938627D01*
X135470848Y-80938627D01*
X135388586Y-80922264D01*
X135306322Y-80905901D01*
X135151341Y-80841706D01*
X135011861Y-80748508D01*
X134893244Y-80629891D01*
X134800046Y-80490411D01*
X134735851Y-80335430D01*
X134703125Y-80170902D01*
X134703125Y-80003152D01*
X134711982Y-79958626D01*
X134735851Y-79838626D01*
X134735851Y-79838624D01*
X134800046Y-79683643D01*
X134893244Y-79544163D01*
X135011861Y-79425546D01*
X135151341Y-79332348D01*
X135306322Y-79268153D01*
X135388586Y-79251790D01*
X135470848Y-79235427D01*
X135638602Y-79235427D01*
X135720864Y-79251790D01*
X135720864Y-79251790D01*
G37*
G36*
X156120864Y-76831790D02*
G01*
X156203128Y-76848153D01*
X156358109Y-76912348D01*
X156497589Y-77005546D01*
X156616206Y-77124163D01*
X156709404Y-77263643D01*
X156773599Y-77418624D01*
X156782456Y-77463152D01*
X156806325Y-77583150D01*
X156806325Y-77750904D01*
X156797468Y-77795430D01*
X156773599Y-77915430D01*
X156709404Y-78070411D01*
X156616206Y-78209891D01*
X156497589Y-78328508D01*
X156358109Y-78421706D01*
X156203128Y-78485901D01*
X156120864Y-78502264D01*
X156038602Y-78518627D01*
X155870848Y-78518627D01*
X155788586Y-78502264D01*
X155706322Y-78485901D01*
X155551341Y-78421706D01*
X155411861Y-78328508D01*
X155293244Y-78209891D01*
X155200046Y-78070411D01*
X155135851Y-77915430D01*
X155111982Y-77795430D01*
X155103125Y-77750904D01*
X155103125Y-77583150D01*
X155126994Y-77463152D01*
X155135851Y-77418624D01*
X155200046Y-77263643D01*
X155293244Y-77124163D01*
X155411861Y-77005546D01*
X155551341Y-76912348D01*
X155706322Y-76848153D01*
X155788586Y-76831790D01*
X155870848Y-76815427D01*
X156038602Y-76815427D01*
X156120864Y-76831790D01*
X156120864Y-76831790D01*
G37*
G36*
X135720864Y-76711790D02*
G01*
X135803128Y-76728153D01*
X135958109Y-76792348D01*
X136097589Y-76885546D01*
X136216206Y-77004163D01*
X136309404Y-77143643D01*
X136373599Y-77298624D01*
X136373599Y-77298626D01*
X136397469Y-77418626D01*
X136406325Y-77463152D01*
X136406325Y-77630902D01*
X136373599Y-77795430D01*
X136309404Y-77950411D01*
X136216206Y-78089891D01*
X136097589Y-78208508D01*
X135958109Y-78301706D01*
X135803128Y-78365901D01*
X135720864Y-78382264D01*
X135638602Y-78398627D01*
X135470848Y-78398627D01*
X135388586Y-78382264D01*
X135306322Y-78365901D01*
X135151341Y-78301706D01*
X135011861Y-78208508D01*
X134893244Y-78089891D01*
X134800046Y-77950411D01*
X134735851Y-77795430D01*
X134703125Y-77630902D01*
X134703125Y-77463152D01*
X134711982Y-77418626D01*
X134735851Y-77298626D01*
X134735851Y-77298624D01*
X134800046Y-77143643D01*
X134893244Y-77004163D01*
X135011861Y-76885546D01*
X135151341Y-76792348D01*
X135306322Y-76728153D01*
X135388586Y-76711790D01*
X135470848Y-76695427D01*
X135638602Y-76695427D01*
X135720864Y-76711790D01*
X135720864Y-76711790D01*
G37*
G36*
X156120864Y-74291790D02*
G01*
X156203128Y-74308153D01*
X156358109Y-74372348D01*
X156497589Y-74465546D01*
X156616206Y-74584163D01*
X156709404Y-74723643D01*
X156773599Y-74878624D01*
X156782456Y-74923152D01*
X156806325Y-75043150D01*
X156806325Y-75210904D01*
X156797468Y-75255430D01*
X156773599Y-75375430D01*
X156709404Y-75530411D01*
X156616206Y-75669891D01*
X156497589Y-75788508D01*
X156358109Y-75881706D01*
X156203128Y-75945901D01*
X156120864Y-75962264D01*
X156038602Y-75978627D01*
X155870848Y-75978627D01*
X155788586Y-75962264D01*
X155706322Y-75945901D01*
X155551341Y-75881706D01*
X155411861Y-75788508D01*
X155293244Y-75669891D01*
X155200046Y-75530411D01*
X155135851Y-75375430D01*
X155111982Y-75255430D01*
X155103125Y-75210904D01*
X155103125Y-75043150D01*
X155126994Y-74923152D01*
X155135851Y-74878624D01*
X155200046Y-74723643D01*
X155293244Y-74584163D01*
X155411861Y-74465546D01*
X155551341Y-74372348D01*
X155706322Y-74308153D01*
X155788586Y-74291790D01*
X155870848Y-74275427D01*
X156038602Y-74275427D01*
X156120864Y-74291790D01*
X156120864Y-74291790D01*
G37*
G36*
X135720864Y-74171790D02*
G01*
X135803128Y-74188153D01*
X135958109Y-74252348D01*
X136097589Y-74345546D01*
X136216206Y-74464163D01*
X136309404Y-74603643D01*
X136373599Y-74758624D01*
X136373599Y-74758626D01*
X136397469Y-74878626D01*
X136406325Y-74923152D01*
X136406325Y-75090902D01*
X136373599Y-75255430D01*
X136309404Y-75410411D01*
X136216206Y-75549891D01*
X136097589Y-75668508D01*
X135958109Y-75761706D01*
X135803128Y-75825901D01*
X135720864Y-75842264D01*
X135638602Y-75858627D01*
X135470848Y-75858627D01*
X135388586Y-75842264D01*
X135306322Y-75825901D01*
X135151341Y-75761706D01*
X135011861Y-75668508D01*
X134893244Y-75549891D01*
X134800046Y-75410411D01*
X134735851Y-75255430D01*
X134703125Y-75090902D01*
X134703125Y-74923152D01*
X134711982Y-74878626D01*
X134735851Y-74758626D01*
X134735851Y-74758624D01*
X134800046Y-74603643D01*
X134893244Y-74464163D01*
X135011861Y-74345546D01*
X135151341Y-74252348D01*
X135306322Y-74188153D01*
X135388586Y-74171790D01*
X135470848Y-74155427D01*
X135638602Y-74155427D01*
X135720864Y-74171790D01*
X135720864Y-74171790D01*
G37*
G36*
X179125256Y-71141298D02*
G01*
X179231579Y-71162447D01*
X179532042Y-71286903D01*
X179802451Y-71467585D01*
X180032415Y-71697549D01*
X180213097Y-71967958D01*
X180302438Y-72183645D01*
X180337553Y-72268422D01*
X180401000Y-72587389D01*
X180401000Y-72912611D01*
X180358702Y-73125256D01*
X180337553Y-73231579D01*
X180213097Y-73532042D01*
X180032415Y-73802451D01*
X179802451Y-74032415D01*
X179532042Y-74213097D01*
X179231579Y-74337553D01*
X179191400Y-74345545D01*
X178912611Y-74401000D01*
X178587389Y-74401000D01*
X178308600Y-74345545D01*
X178268421Y-74337553D01*
X177967958Y-74213097D01*
X177697549Y-74032415D01*
X177467585Y-73802451D01*
X177286903Y-73532042D01*
X177162447Y-73231579D01*
X177141298Y-73125256D01*
X177099000Y-72912611D01*
X177099000Y-72587389D01*
X177162447Y-72268422D01*
X177197563Y-72183645D01*
X177286903Y-71967958D01*
X177467585Y-71697549D01*
X177697549Y-71467585D01*
X177967958Y-71286903D01*
X178268421Y-71162447D01*
X178374744Y-71141298D01*
X178587389Y-71099000D01*
X178912611Y-71099000D01*
X179125256Y-71141298D01*
X179125256Y-71141298D01*
G37*
G36*
X156120864Y-71751790D02*
G01*
X156203128Y-71768153D01*
X156358109Y-71832348D01*
X156497589Y-71925546D01*
X156616206Y-72044163D01*
X156709404Y-72183643D01*
X156773599Y-72338624D01*
X156782456Y-72383152D01*
X156806325Y-72503150D01*
X156806325Y-72670904D01*
X156797468Y-72715430D01*
X156773599Y-72835430D01*
X156709404Y-72990411D01*
X156616206Y-73129891D01*
X156497589Y-73248508D01*
X156358109Y-73341706D01*
X156203128Y-73405901D01*
X156120864Y-73422264D01*
X156038602Y-73438627D01*
X155870848Y-73438627D01*
X155788586Y-73422264D01*
X155706322Y-73405901D01*
X155551341Y-73341706D01*
X155411861Y-73248508D01*
X155293244Y-73129891D01*
X155200046Y-72990411D01*
X155135851Y-72835430D01*
X155111982Y-72715430D01*
X155103125Y-72670904D01*
X155103125Y-72503150D01*
X155126994Y-72383152D01*
X155135851Y-72338624D01*
X155200046Y-72183643D01*
X155293244Y-72044163D01*
X155411861Y-71925546D01*
X155551341Y-71832348D01*
X155706322Y-71768153D01*
X155788586Y-71751790D01*
X155870848Y-71735427D01*
X156038602Y-71735427D01*
X156120864Y-71751790D01*
X156120864Y-71751790D01*
G37*
G36*
X135720864Y-71631790D02*
G01*
X135803128Y-71648153D01*
X135958109Y-71712348D01*
X136097589Y-71805546D01*
X136216206Y-71924163D01*
X136309404Y-72063643D01*
X136373599Y-72218624D01*
X136373599Y-72218626D01*
X136406325Y-72383150D01*
X136406325Y-72550904D01*
X136399067Y-72587391D01*
X136373599Y-72715430D01*
X136309404Y-72870411D01*
X136216206Y-73009891D01*
X136097589Y-73128508D01*
X135958109Y-73221706D01*
X135803128Y-73285901D01*
X135720864Y-73302264D01*
X135638602Y-73318627D01*
X135470848Y-73318627D01*
X135388586Y-73302264D01*
X135306322Y-73285901D01*
X135151341Y-73221706D01*
X135011861Y-73128508D01*
X134893244Y-73009891D01*
X134800046Y-72870411D01*
X134735851Y-72715430D01*
X134710383Y-72587391D01*
X134703125Y-72550904D01*
X134703125Y-72383150D01*
X134735851Y-72218626D01*
X134735851Y-72218624D01*
X134800046Y-72063643D01*
X134893244Y-71924163D01*
X135011861Y-71805546D01*
X135151341Y-71712348D01*
X135306322Y-71648153D01*
X135388586Y-71631790D01*
X135470848Y-71615427D01*
X135638602Y-71615427D01*
X135720864Y-71631790D01*
X135720864Y-71631790D01*
G37*
M02*
