G04 #@! TF.GenerationSoftware,KiCad,Pcbnew,(5.0.2)-1*
G04 #@! TF.CreationDate,2019-05-14T17:11:37+02:00*
G04 #@! TF.ProjectId,Mini-Lora,4d696e69-2d4c-46f7-9261-2e6b69636164,rev?*
G04 #@! TF.SameCoordinates,Original*
G04 #@! TF.FileFunction,Soldermask,Bot*
G04 #@! TF.FilePolarity,Negative*
%FSLAX46Y46*%
G04 Gerber Fmt 4.6, Leading zero omitted, Abs format (unit mm)*
G04 Created by KiCad (PCBNEW (5.0.2)-1) date 14/05/2019 17:11:37*
%MOMM*%
%LPD*%
G01*
G04 APERTURE LIST*
%ADD10C,0.100000*%
G04 APERTURE END LIST*
D10*
G04 #@! TO.C,U2*
G36*
X135415025Y-73343327D02*
X135681725Y-73343327D01*
X135681724Y-73343327D01*
X135910387Y-73314895D01*
X136123900Y-73228249D01*
X136307712Y-73089295D01*
X136449296Y-72907501D01*
X136570725Y-72467027D01*
X136570725Y-72467028D01*
X136539006Y-72238797D01*
X136449298Y-72026553D01*
X136307713Y-71844759D01*
X136123901Y-71705804D01*
X135910388Y-71619158D01*
X135681725Y-71590727D01*
X135415025Y-71590727D01*
X135415026Y-71590727D01*
X135188223Y-71620586D01*
X134976876Y-71708129D01*
X134795388Y-71847389D01*
X134656128Y-72028877D01*
X134568585Y-72240224D01*
X134538725Y-72467027D01*
X134538725Y-72467026D01*
X134568584Y-72693829D01*
X134656127Y-72905177D01*
X134795387Y-73086665D01*
X134976875Y-73225925D01*
X135415025Y-73343327D01*
G37*
G36*
X135415025Y-75883327D02*
X135681725Y-75883327D01*
X135681724Y-75883327D01*
X135910387Y-75854895D01*
X136123900Y-75768249D01*
X136307712Y-75629295D01*
X136449296Y-75447501D01*
X136570725Y-75007027D01*
X136570725Y-75007028D01*
X136539006Y-74778797D01*
X136449298Y-74566553D01*
X136307713Y-74384759D01*
X136123901Y-74245804D01*
X135910388Y-74159158D01*
X135681725Y-74130727D01*
X135415025Y-74130727D01*
X135415026Y-74130727D01*
X135188223Y-74160586D01*
X134976876Y-74248129D01*
X134795388Y-74387389D01*
X134656128Y-74568877D01*
X134568585Y-74780224D01*
X134538725Y-75007027D01*
X134538725Y-75007026D01*
X134568584Y-75233829D01*
X134656127Y-75445177D01*
X134795387Y-75626665D01*
X134976875Y-75765925D01*
X135415025Y-75883327D01*
G37*
G36*
X135415025Y-78423327D02*
X135681725Y-78423327D01*
X135681724Y-78423327D01*
X135910387Y-78394895D01*
X136123900Y-78308249D01*
X136307712Y-78169295D01*
X136449296Y-77987501D01*
X136570725Y-77547027D01*
X136570725Y-77547028D01*
X136539006Y-77318797D01*
X136449298Y-77106553D01*
X136307713Y-76924759D01*
X136123901Y-76785804D01*
X135910388Y-76699158D01*
X135681725Y-76670727D01*
X135415025Y-76670727D01*
X135415026Y-76670727D01*
X135188223Y-76700586D01*
X134976876Y-76788129D01*
X134795388Y-76927389D01*
X134656128Y-77108877D01*
X134568585Y-77320224D01*
X134538725Y-77547027D01*
X134538725Y-77547026D01*
X134568584Y-77773829D01*
X134656127Y-77985177D01*
X134795387Y-78166665D01*
X134976875Y-78305925D01*
X135415025Y-78423327D01*
G37*
G36*
X135415025Y-80963327D02*
X135681725Y-80963327D01*
X135681724Y-80963327D01*
X135910387Y-80934895D01*
X136123900Y-80848249D01*
X136307712Y-80709295D01*
X136449296Y-80527501D01*
X136570725Y-80087027D01*
X136570725Y-80087028D01*
X136539006Y-79858797D01*
X136449298Y-79646553D01*
X136307713Y-79464759D01*
X136123901Y-79325804D01*
X135910388Y-79239158D01*
X135681725Y-79210727D01*
X135415025Y-79210727D01*
X135415026Y-79210727D01*
X135188223Y-79240586D01*
X134976876Y-79328129D01*
X134795388Y-79467389D01*
X134656128Y-79648877D01*
X134568585Y-79860224D01*
X134538725Y-80087027D01*
X134538725Y-80087026D01*
X134568584Y-80313829D01*
X134656127Y-80525177D01*
X134795387Y-80706665D01*
X134976875Y-80845925D01*
X135415025Y-80963327D01*
G37*
G36*
X135415025Y-83503327D02*
X135681725Y-83503327D01*
X135681724Y-83503327D01*
X135910387Y-83474895D01*
X136123900Y-83388249D01*
X136307712Y-83249295D01*
X136449296Y-83067501D01*
X136570725Y-82627027D01*
X136570725Y-82627028D01*
X136539006Y-82398797D01*
X136449298Y-82186553D01*
X136307713Y-82004759D01*
X136123901Y-81865804D01*
X135910388Y-81779158D01*
X135681725Y-81750727D01*
X135415025Y-81750727D01*
X135415026Y-81750727D01*
X135188223Y-81780586D01*
X134976876Y-81868129D01*
X134795388Y-82007389D01*
X134656128Y-82188877D01*
X134568585Y-82400224D01*
X134538725Y-82627027D01*
X134538725Y-82627026D01*
X134568584Y-82853829D01*
X134656127Y-83065177D01*
X134795387Y-83246665D01*
X134976875Y-83385925D01*
X135415025Y-83503327D01*
G37*
G36*
X135415025Y-86043327D02*
X135681725Y-86043327D01*
X135681724Y-86043327D01*
X135910387Y-86014895D01*
X136123900Y-85928249D01*
X136307712Y-85789295D01*
X136449296Y-85607501D01*
X136570725Y-85167027D01*
X136570725Y-85167028D01*
X136539006Y-84938797D01*
X136449298Y-84726553D01*
X136307713Y-84544759D01*
X136123901Y-84405804D01*
X135910388Y-84319158D01*
X135681725Y-84290727D01*
X135415025Y-84290727D01*
X135415026Y-84290727D01*
X135188223Y-84320586D01*
X134976876Y-84408129D01*
X134795388Y-84547389D01*
X134656128Y-84728877D01*
X134568585Y-84940224D01*
X134538725Y-85167027D01*
X134538725Y-85167026D01*
X134568584Y-85393829D01*
X134656127Y-85605177D01*
X134795387Y-85786665D01*
X134976875Y-85925925D01*
X135415025Y-86043327D01*
G37*
G36*
X135415025Y-88583327D02*
X135681725Y-88583327D01*
X135681724Y-88583327D01*
X135910387Y-88554895D01*
X136123900Y-88468249D01*
X136307712Y-88329295D01*
X136449296Y-88147501D01*
X136570725Y-87707027D01*
X136570725Y-87707028D01*
X136539006Y-87478797D01*
X136449298Y-87266553D01*
X136307713Y-87084759D01*
X136123901Y-86945804D01*
X135910388Y-86859158D01*
X135681725Y-86830727D01*
X135415025Y-86830727D01*
X135415026Y-86830727D01*
X135188223Y-86860586D01*
X134976876Y-86948129D01*
X134795388Y-87087389D01*
X134656128Y-87268877D01*
X134568585Y-87480224D01*
X134538725Y-87707027D01*
X134538725Y-87707026D01*
X134568584Y-87933829D01*
X134656127Y-88145177D01*
X134795387Y-88326665D01*
X134976875Y-88465925D01*
X135415025Y-88583327D01*
G37*
G36*
X135415025Y-91123327D02*
X135681725Y-91123327D01*
X135681724Y-91123327D01*
X135910387Y-91094895D01*
X136123900Y-91008249D01*
X136307712Y-90869295D01*
X136449296Y-90687501D01*
X136570725Y-90247027D01*
X136570725Y-90247028D01*
X136539006Y-90018797D01*
X136449298Y-89806553D01*
X136307713Y-89624759D01*
X136123901Y-89485804D01*
X135910388Y-89399158D01*
X135681725Y-89370727D01*
X135415025Y-89370727D01*
X135415026Y-89370727D01*
X135188223Y-89400586D01*
X134976876Y-89488129D01*
X134795388Y-89627389D01*
X134656128Y-89808877D01*
X134568585Y-90020224D01*
X134538725Y-90247027D01*
X134538725Y-90247026D01*
X134568584Y-90473829D01*
X134656127Y-90685177D01*
X134795387Y-90866665D01*
X134976875Y-91005925D01*
X135415025Y-91123327D01*
G37*
G36*
X135415025Y-93663327D02*
X135681725Y-93663327D01*
X135681724Y-93663327D01*
X135910387Y-93634895D01*
X136123900Y-93548249D01*
X136307712Y-93409295D01*
X136449296Y-93227501D01*
X136570725Y-92787027D01*
X136570725Y-92787028D01*
X136539006Y-92558797D01*
X136449298Y-92346553D01*
X136307713Y-92164759D01*
X136123901Y-92025804D01*
X135910388Y-91939158D01*
X135681725Y-91910727D01*
X135415025Y-91910727D01*
X135415026Y-91910727D01*
X135188223Y-91940586D01*
X134976876Y-92028129D01*
X134795388Y-92167389D01*
X134656128Y-92348877D01*
X134568585Y-92560224D01*
X134538725Y-92787027D01*
X134538725Y-92787026D01*
X134568584Y-93013829D01*
X134656127Y-93225177D01*
X134795387Y-93406665D01*
X134976875Y-93545925D01*
X135415025Y-93663327D01*
G37*
G36*
X135415025Y-96203327D02*
X135681725Y-96203327D01*
X135681724Y-96203327D01*
X135910387Y-96174895D01*
X136123900Y-96088249D01*
X136307712Y-95949295D01*
X136449296Y-95767501D01*
X136570725Y-95327027D01*
X136570725Y-95327028D01*
X136539006Y-95098797D01*
X136449298Y-94886553D01*
X136307713Y-94704759D01*
X136123901Y-94565804D01*
X135910388Y-94479158D01*
X135681725Y-94450727D01*
X135415025Y-94450727D01*
X135415026Y-94450727D01*
X135188223Y-94480586D01*
X134976876Y-94568129D01*
X134795388Y-94707389D01*
X134656128Y-94888877D01*
X134568585Y-95100224D01*
X134538725Y-95327027D01*
X134538725Y-95327026D01*
X134568584Y-95553829D01*
X134656127Y-95765177D01*
X134795387Y-95946665D01*
X134976875Y-96085925D01*
X135415025Y-96203327D01*
G37*
G36*
X135415025Y-98743327D02*
X135681725Y-98743327D01*
X135681724Y-98743327D01*
X135910387Y-98714895D01*
X136123900Y-98628249D01*
X136307712Y-98489295D01*
X136449296Y-98307501D01*
X136570725Y-97867027D01*
X136570725Y-97867028D01*
X136539006Y-97638797D01*
X136449298Y-97426553D01*
X136307713Y-97244759D01*
X136123901Y-97105804D01*
X135910388Y-97019158D01*
X135681725Y-96990727D01*
X135415025Y-96990727D01*
X135415026Y-96990727D01*
X135188223Y-97020586D01*
X134976876Y-97108129D01*
X134795388Y-97247389D01*
X134656128Y-97428877D01*
X134568585Y-97640224D01*
X134538725Y-97867027D01*
X134538725Y-97867026D01*
X134568584Y-98093829D01*
X134656127Y-98305177D01*
X134795387Y-98486665D01*
X134976875Y-98625925D01*
X135415025Y-98743327D01*
G37*
G36*
X135415025Y-101283327D02*
X135681725Y-101283327D01*
X135681724Y-101283327D01*
X135910387Y-101254895D01*
X136123900Y-101168249D01*
X136307712Y-101029295D01*
X136449296Y-100847501D01*
X136570725Y-100407027D01*
X136570725Y-100407028D01*
X136539006Y-100178797D01*
X136449298Y-99966553D01*
X136307713Y-99784759D01*
X136123901Y-99645804D01*
X135910388Y-99559158D01*
X135681725Y-99530727D01*
X135415025Y-99530727D01*
X135415026Y-99530727D01*
X135188223Y-99560586D01*
X134976876Y-99648129D01*
X134795388Y-99787389D01*
X134656128Y-99968877D01*
X134568585Y-100180224D01*
X134538725Y-100407027D01*
X134538725Y-100407026D01*
X134568584Y-100633829D01*
X134656127Y-100845177D01*
X134795387Y-101026665D01*
X134976875Y-101165925D01*
X135415025Y-101283327D01*
G37*
G36*
X135415025Y-103823327D02*
X135681725Y-103823327D01*
X135681724Y-103823327D01*
X135910387Y-103794895D01*
X136123900Y-103708249D01*
X136307712Y-103569295D01*
X136449296Y-103387501D01*
X136570725Y-102947027D01*
X136570725Y-102947028D01*
X136539006Y-102718797D01*
X136449298Y-102506553D01*
X136307713Y-102324759D01*
X136123901Y-102185804D01*
X135910388Y-102099158D01*
X135681725Y-102070727D01*
X135415025Y-102070727D01*
X135415026Y-102070727D01*
X135188223Y-102100586D01*
X134976876Y-102188129D01*
X134795388Y-102327389D01*
X134656128Y-102508877D01*
X134568585Y-102720224D01*
X134538725Y-102947027D01*
X134538725Y-102947026D01*
X134568584Y-103173829D01*
X134656127Y-103385177D01*
X134795387Y-103566665D01*
X134976875Y-103705925D01*
X135415025Y-103823327D01*
G37*
G36*
X136583425Y-106363327D02*
X136583425Y-104610727D01*
X134526025Y-104610727D01*
X134526025Y-106363327D01*
X136583425Y-106363327D01*
G37*
G36*
X156094425Y-104730727D02*
X155827725Y-104730727D01*
X155827726Y-104730727D01*
X155599063Y-104759159D01*
X155385550Y-104845805D01*
X155201738Y-104984759D01*
X155060154Y-105166553D01*
X154938725Y-105607027D01*
X154938725Y-105607026D01*
X154970444Y-105835257D01*
X155060152Y-106047501D01*
X155201737Y-106229295D01*
X155385549Y-106368250D01*
X155599062Y-106454896D01*
X155827725Y-106483327D01*
X156094425Y-106483327D01*
X156094424Y-106483327D01*
X156321227Y-106453468D01*
X156532574Y-106365925D01*
X156714062Y-106226665D01*
X156853322Y-106045177D01*
X156940865Y-105833830D01*
X156970725Y-105607027D01*
X156970725Y-105607028D01*
X156940866Y-105380225D01*
X156853323Y-105168877D01*
X156714063Y-104987389D01*
X156532575Y-104848129D01*
X156094425Y-104730727D01*
G37*
G36*
X156094425Y-102190727D02*
X155827725Y-102190727D01*
X155827726Y-102190727D01*
X155599063Y-102219159D01*
X155385550Y-102305805D01*
X155201738Y-102444759D01*
X155060154Y-102626553D01*
X154938725Y-103067027D01*
X154938725Y-103067026D01*
X154970444Y-103295257D01*
X155060152Y-103507501D01*
X155201737Y-103689295D01*
X155385549Y-103828250D01*
X155599062Y-103914896D01*
X155827725Y-103943327D01*
X156094425Y-103943327D01*
X156094424Y-103943327D01*
X156321227Y-103913468D01*
X156532574Y-103825925D01*
X156714062Y-103686665D01*
X156853322Y-103505177D01*
X156940865Y-103293830D01*
X156970725Y-103067027D01*
X156970725Y-103067028D01*
X156940866Y-102840225D01*
X156853323Y-102628877D01*
X156714063Y-102447389D01*
X156532575Y-102308129D01*
X156094425Y-102190727D01*
G37*
G36*
X156094425Y-99650727D02*
X155827725Y-99650727D01*
X155827726Y-99650727D01*
X155599063Y-99679159D01*
X155385550Y-99765805D01*
X155201738Y-99904759D01*
X155060154Y-100086553D01*
X154938725Y-100527027D01*
X154938725Y-100527026D01*
X154970444Y-100755257D01*
X155060152Y-100967501D01*
X155201737Y-101149295D01*
X155385549Y-101288250D01*
X155599062Y-101374896D01*
X155827725Y-101403327D01*
X156094425Y-101403327D01*
X156094424Y-101403327D01*
X156321227Y-101373468D01*
X156532574Y-101285925D01*
X156714062Y-101146665D01*
X156853322Y-100965177D01*
X156940865Y-100753830D01*
X156970725Y-100527027D01*
X156970725Y-100527028D01*
X156940866Y-100300225D01*
X156853323Y-100088877D01*
X156714063Y-99907389D01*
X156532575Y-99768129D01*
X156094425Y-99650727D01*
G37*
G36*
X156094425Y-97110727D02*
X155827725Y-97110727D01*
X155827726Y-97110727D01*
X155599063Y-97139159D01*
X155385550Y-97225805D01*
X155201738Y-97364759D01*
X155060154Y-97546553D01*
X154938725Y-97987027D01*
X154938725Y-97987026D01*
X154970444Y-98215257D01*
X155060152Y-98427501D01*
X155201737Y-98609295D01*
X155385549Y-98748250D01*
X155599062Y-98834896D01*
X155827725Y-98863327D01*
X156094425Y-98863327D01*
X156094424Y-98863327D01*
X156321227Y-98833468D01*
X156532574Y-98745925D01*
X156714062Y-98606665D01*
X156853322Y-98425177D01*
X156940865Y-98213830D01*
X156970725Y-97987027D01*
X156970725Y-97987028D01*
X156940866Y-97760225D01*
X156853323Y-97548877D01*
X156714063Y-97367389D01*
X156532575Y-97228129D01*
X156094425Y-97110727D01*
G37*
G36*
X156094425Y-94570727D02*
X155827725Y-94570727D01*
X155827726Y-94570727D01*
X155599063Y-94599159D01*
X155385550Y-94685805D01*
X155201738Y-94824759D01*
X155060154Y-95006553D01*
X154938725Y-95447027D01*
X154938725Y-95447026D01*
X154970444Y-95675257D01*
X155060152Y-95887501D01*
X155201737Y-96069295D01*
X155385549Y-96208250D01*
X155599062Y-96294896D01*
X155827725Y-96323327D01*
X156094425Y-96323327D01*
X156094424Y-96323327D01*
X156321227Y-96293468D01*
X156532574Y-96205925D01*
X156714062Y-96066665D01*
X156853322Y-95885177D01*
X156940865Y-95673830D01*
X156970725Y-95447027D01*
X156970725Y-95447028D01*
X156940866Y-95220225D01*
X156853323Y-95008877D01*
X156714063Y-94827389D01*
X156532575Y-94688129D01*
X156094425Y-94570727D01*
G37*
G36*
X156094425Y-92030727D02*
X155827725Y-92030727D01*
X155827726Y-92030727D01*
X155599063Y-92059159D01*
X155385550Y-92145805D01*
X155201738Y-92284759D01*
X155060154Y-92466553D01*
X154938725Y-92907027D01*
X154938725Y-92907026D01*
X154970444Y-93135257D01*
X155060152Y-93347501D01*
X155201737Y-93529295D01*
X155385549Y-93668250D01*
X155599062Y-93754896D01*
X155827725Y-93783327D01*
X156094425Y-93783327D01*
X156094424Y-93783327D01*
X156321227Y-93753468D01*
X156532574Y-93665925D01*
X156714062Y-93526665D01*
X156853322Y-93345177D01*
X156940865Y-93133830D01*
X156970725Y-92907027D01*
X156970725Y-92907028D01*
X156940866Y-92680225D01*
X156853323Y-92468877D01*
X156714063Y-92287389D01*
X156532575Y-92148129D01*
X156094425Y-92030727D01*
G37*
G36*
X156094425Y-89490727D02*
X155827725Y-89490727D01*
X155827726Y-89490727D01*
X155599063Y-89519159D01*
X155385550Y-89605805D01*
X155201738Y-89744759D01*
X155060154Y-89926553D01*
X154938725Y-90367027D01*
X154938725Y-90367026D01*
X154970444Y-90595257D01*
X155060152Y-90807501D01*
X155201737Y-90989295D01*
X155385549Y-91128250D01*
X155599062Y-91214896D01*
X155827725Y-91243327D01*
X156094425Y-91243327D01*
X156094424Y-91243327D01*
X156321227Y-91213468D01*
X156532574Y-91125925D01*
X156714062Y-90986665D01*
X156853322Y-90805177D01*
X156940865Y-90593830D01*
X156970725Y-90367027D01*
X156970725Y-90367028D01*
X156940866Y-90140225D01*
X156853323Y-89928877D01*
X156714063Y-89747389D01*
X156532575Y-89608129D01*
X156094425Y-89490727D01*
G37*
G36*
X156094425Y-86950727D02*
X155827725Y-86950727D01*
X155827726Y-86950727D01*
X155599063Y-86979159D01*
X155385550Y-87065805D01*
X155201738Y-87204759D01*
X155060154Y-87386553D01*
X154938725Y-87827027D01*
X154938725Y-87827026D01*
X154970444Y-88055257D01*
X155060152Y-88267501D01*
X155201737Y-88449295D01*
X155385549Y-88588250D01*
X155599062Y-88674896D01*
X155827725Y-88703327D01*
X156094425Y-88703327D01*
X156094424Y-88703327D01*
X156321227Y-88673468D01*
X156532574Y-88585925D01*
X156714062Y-88446665D01*
X156853322Y-88265177D01*
X156940865Y-88053830D01*
X156970725Y-87827027D01*
X156970725Y-87827028D01*
X156940866Y-87600225D01*
X156853323Y-87388877D01*
X156714063Y-87207389D01*
X156532575Y-87068129D01*
X156094425Y-86950727D01*
G37*
G36*
X156094425Y-84410727D02*
X155827725Y-84410727D01*
X155827726Y-84410727D01*
X155599063Y-84439159D01*
X155385550Y-84525805D01*
X155201738Y-84664759D01*
X155060154Y-84846553D01*
X154938725Y-85287027D01*
X154938725Y-85287026D01*
X154970444Y-85515257D01*
X155060152Y-85727501D01*
X155201737Y-85909295D01*
X155385549Y-86048250D01*
X155599062Y-86134896D01*
X155827725Y-86163327D01*
X156094425Y-86163327D01*
X156094424Y-86163327D01*
X156321227Y-86133468D01*
X156532574Y-86045925D01*
X156714062Y-85906665D01*
X156853322Y-85725177D01*
X156940865Y-85513830D01*
X156970725Y-85287027D01*
X156970725Y-85287028D01*
X156940866Y-85060225D01*
X156853323Y-84848877D01*
X156714063Y-84667389D01*
X156532575Y-84528129D01*
X156094425Y-84410727D01*
G37*
G36*
X156094425Y-81870727D02*
X155827725Y-81870727D01*
X155827726Y-81870727D01*
X155599063Y-81899159D01*
X155385550Y-81985805D01*
X155201738Y-82124759D01*
X155060154Y-82306553D01*
X154938725Y-82747027D01*
X154938725Y-82747026D01*
X154970444Y-82975257D01*
X155060152Y-83187501D01*
X155201737Y-83369295D01*
X155385549Y-83508250D01*
X155599062Y-83594896D01*
X155827725Y-83623327D01*
X156094425Y-83623327D01*
X156094424Y-83623327D01*
X156321227Y-83593468D01*
X156532574Y-83505925D01*
X156714062Y-83366665D01*
X156853322Y-83185177D01*
X156940865Y-82973830D01*
X156970725Y-82747027D01*
X156970725Y-82747028D01*
X156940866Y-82520225D01*
X156853323Y-82308877D01*
X156714063Y-82127389D01*
X156532575Y-81988129D01*
X156094425Y-81870727D01*
G37*
G36*
X156094425Y-79330727D02*
X155827725Y-79330727D01*
X155827726Y-79330727D01*
X155599063Y-79359159D01*
X155385550Y-79445805D01*
X155201738Y-79584759D01*
X155060154Y-79766553D01*
X154938725Y-80207027D01*
X154938725Y-80207026D01*
X154970444Y-80435257D01*
X155060152Y-80647501D01*
X155201737Y-80829295D01*
X155385549Y-80968250D01*
X155599062Y-81054896D01*
X155827725Y-81083327D01*
X156094425Y-81083327D01*
X156094424Y-81083327D01*
X156321227Y-81053468D01*
X156532574Y-80965925D01*
X156714062Y-80826665D01*
X156853322Y-80645177D01*
X156940865Y-80433830D01*
X156970725Y-80207027D01*
X156970725Y-80207028D01*
X156940866Y-79980225D01*
X156853323Y-79768877D01*
X156714063Y-79587389D01*
X156532575Y-79448129D01*
X156094425Y-79330727D01*
G37*
G36*
X156094425Y-76790727D02*
X155827725Y-76790727D01*
X155827726Y-76790727D01*
X155599063Y-76819159D01*
X155385550Y-76905805D01*
X155201738Y-77044759D01*
X155060154Y-77226553D01*
X154938725Y-77667027D01*
X154938725Y-77667026D01*
X154970444Y-77895257D01*
X155060152Y-78107501D01*
X155201737Y-78289295D01*
X155385549Y-78428250D01*
X155599062Y-78514896D01*
X155827725Y-78543327D01*
X156094425Y-78543327D01*
X156094424Y-78543327D01*
X156321227Y-78513468D01*
X156532574Y-78425925D01*
X156714062Y-78286665D01*
X156853322Y-78105177D01*
X156940865Y-77893830D01*
X156970725Y-77667027D01*
X156970725Y-77667028D01*
X156940866Y-77440225D01*
X156853323Y-77228877D01*
X156714063Y-77047389D01*
X156532575Y-76908129D01*
X156094425Y-76790727D01*
G37*
G36*
X156094425Y-74250727D02*
X155827725Y-74250727D01*
X155827726Y-74250727D01*
X155599063Y-74279159D01*
X155385550Y-74365805D01*
X155201738Y-74504759D01*
X155060154Y-74686553D01*
X154938725Y-75127027D01*
X154938725Y-75127026D01*
X154970444Y-75355257D01*
X155060152Y-75567501D01*
X155201737Y-75749295D01*
X155385549Y-75888250D01*
X155599062Y-75974896D01*
X155827725Y-76003327D01*
X156094425Y-76003327D01*
X156094424Y-76003327D01*
X156321227Y-75973468D01*
X156532574Y-75885925D01*
X156714062Y-75746665D01*
X156853322Y-75565177D01*
X156940865Y-75353830D01*
X156970725Y-75127027D01*
X156970725Y-75127028D01*
X156940866Y-74900225D01*
X156853323Y-74688877D01*
X156714063Y-74507389D01*
X156532575Y-74368129D01*
X156094425Y-74250727D01*
G37*
G36*
X154926025Y-71710727D02*
X154926025Y-73463327D01*
X156983425Y-73463327D01*
X156983425Y-71710727D01*
X154926025Y-71710727D01*
G37*
G36*
X160230926Y-114760029D02*
X160296356Y-114773044D01*
X160481256Y-114849632D01*
X160647665Y-114960823D01*
X160789177Y-115102335D01*
X160789179Y-115102338D01*
X160900368Y-115268744D01*
X160928870Y-115337553D01*
X160976956Y-115453645D01*
X161016000Y-115649931D01*
X161016000Y-115850069D01*
X160976956Y-116046355D01*
X160900368Y-116231256D01*
X160789177Y-116397665D01*
X160647665Y-116539177D01*
X160647662Y-116539179D01*
X160481256Y-116650368D01*
X160296356Y-116726956D01*
X160230926Y-116739971D01*
X160100069Y-116766000D01*
X159899931Y-116766000D01*
X159769074Y-116739971D01*
X159703644Y-116726956D01*
X159518744Y-116650368D01*
X159352338Y-116539179D01*
X159352335Y-116539177D01*
X159210823Y-116397665D01*
X159099632Y-116231256D01*
X159023044Y-116046355D01*
X158984000Y-115850069D01*
X158984000Y-115649931D01*
X159023044Y-115453645D01*
X159071131Y-115337553D01*
X159099632Y-115268744D01*
X159210821Y-115102338D01*
X159210823Y-115102335D01*
X159352335Y-114960823D01*
X159518744Y-114849632D01*
X159703644Y-114773044D01*
X159769074Y-114760029D01*
X159899931Y-114734000D01*
X160100069Y-114734000D01*
X160230926Y-114760029D01*
X160230926Y-114760029D01*
G37*
G36*
X167125256Y-112141298D02*
X167231579Y-112162447D01*
X167532042Y-112286903D01*
X167586623Y-112323373D01*
X167802454Y-112467587D01*
X168032413Y-112697546D01*
X168032415Y-112697549D01*
X168213097Y-112967958D01*
X168337553Y-113268421D01*
X168341682Y-113289179D01*
X168401000Y-113587389D01*
X168401000Y-113912611D01*
X168337553Y-114231578D01*
X168213098Y-114532040D01*
X168032413Y-114802454D01*
X167802454Y-115032413D01*
X167802451Y-115032415D01*
X167532042Y-115213097D01*
X167231579Y-115337553D01*
X167125256Y-115358702D01*
X166912611Y-115401000D01*
X166587389Y-115401000D01*
X166374744Y-115358702D01*
X166268421Y-115337553D01*
X165967958Y-115213097D01*
X165697549Y-115032415D01*
X165697546Y-115032413D01*
X165467587Y-114802454D01*
X165286902Y-114532040D01*
X165162447Y-114231578D01*
X165099000Y-113912611D01*
X165099000Y-113587389D01*
X165158318Y-113289179D01*
X165162447Y-113268421D01*
X165286903Y-112967958D01*
X165467585Y-112697549D01*
X165467587Y-112697546D01*
X165697546Y-112467587D01*
X165913377Y-112323373D01*
X165967958Y-112286903D01*
X166268421Y-112162447D01*
X166374744Y-112141298D01*
X166587389Y-112099000D01*
X166912611Y-112099000D01*
X167125256Y-112141298D01*
X167125256Y-112141298D01*
G37*
G36*
X160230926Y-111510029D02*
X160296356Y-111523044D01*
X160479730Y-111599000D01*
X160481256Y-111599632D01*
X160647665Y-111710823D01*
X160789177Y-111852335D01*
X160789179Y-111852338D01*
X160900368Y-112018744D01*
X160959892Y-112162447D01*
X160976956Y-112203645D01*
X161016000Y-112399931D01*
X161016000Y-112600069D01*
X160996610Y-112697546D01*
X160976956Y-112796356D01*
X160956199Y-112846467D01*
X160900368Y-112981256D01*
X160789177Y-113147665D01*
X160647665Y-113289177D01*
X160647662Y-113289179D01*
X160481256Y-113400368D01*
X160296356Y-113476956D01*
X160230926Y-113489971D01*
X160100069Y-113516000D01*
X159899931Y-113516000D01*
X159769074Y-113489971D01*
X159703644Y-113476956D01*
X159518744Y-113400368D01*
X159352338Y-113289179D01*
X159352335Y-113289177D01*
X159210823Y-113147665D01*
X159099632Y-112981256D01*
X159043801Y-112846467D01*
X159023044Y-112796356D01*
X159003390Y-112697546D01*
X158984000Y-112600069D01*
X158984000Y-112399931D01*
X159023044Y-112203645D01*
X159040109Y-112162447D01*
X159099632Y-112018744D01*
X159210821Y-111852338D01*
X159210823Y-111852335D01*
X159352335Y-111710823D01*
X159518744Y-111599632D01*
X159520270Y-111599000D01*
X159703644Y-111523044D01*
X159769074Y-111510029D01*
X159899931Y-111484000D01*
X160100069Y-111484000D01*
X160230926Y-111510029D01*
X160230926Y-111510029D01*
G37*
G36*
X148490443Y-111605519D02*
X148556627Y-111612037D01*
X148669853Y-111646384D01*
X148726467Y-111663557D01*
X148814890Y-111710821D01*
X148882991Y-111747222D01*
X148918729Y-111776552D01*
X149020186Y-111859814D01*
X149103448Y-111961271D01*
X149132778Y-111997009D01*
X149132779Y-111997011D01*
X149216443Y-112153533D01*
X149216443Y-112153534D01*
X149267963Y-112323373D01*
X149285359Y-112500000D01*
X149267963Y-112676627D01*
X149261617Y-112697546D01*
X149216443Y-112846467D01*
X149151504Y-112967958D01*
X149132778Y-113002991D01*
X149103448Y-113038729D01*
X149020186Y-113140186D01*
X148918729Y-113223448D01*
X148882991Y-113252778D01*
X148882989Y-113252779D01*
X148726467Y-113336443D01*
X148669853Y-113353616D01*
X148556627Y-113387963D01*
X148490442Y-113394482D01*
X148424260Y-113401000D01*
X148335740Y-113401000D01*
X148269558Y-113394482D01*
X148203373Y-113387963D01*
X148090147Y-113353616D01*
X148033533Y-113336443D01*
X147877011Y-113252779D01*
X147877009Y-113252778D01*
X147841271Y-113223448D01*
X147739814Y-113140186D01*
X147656552Y-113038729D01*
X147627222Y-113002991D01*
X147608496Y-112967958D01*
X147543557Y-112846467D01*
X147498383Y-112697546D01*
X147492037Y-112676627D01*
X147474641Y-112500000D01*
X147492037Y-112323373D01*
X147543557Y-112153534D01*
X147543557Y-112153533D01*
X147627221Y-111997011D01*
X147627222Y-111997009D01*
X147656552Y-111961271D01*
X147739814Y-111859814D01*
X147841271Y-111776552D01*
X147877009Y-111747222D01*
X147945110Y-111710821D01*
X148033533Y-111663557D01*
X148090147Y-111646384D01*
X148203373Y-111612037D01*
X148269557Y-111605519D01*
X148335740Y-111599000D01*
X148424260Y-111599000D01*
X148490443Y-111605519D01*
X148490443Y-111605519D01*
G37*
G36*
X156901000Y-113401000D02*
X155099000Y-113401000D01*
X155099000Y-111599000D01*
X156901000Y-111599000D01*
X156901000Y-113401000D01*
X156901000Y-113401000D01*
G37*
G36*
X143410443Y-111605519D02*
X143476627Y-111612037D01*
X143589853Y-111646384D01*
X143646467Y-111663557D01*
X143734890Y-111710821D01*
X143802991Y-111747222D01*
X143838729Y-111776552D01*
X143940186Y-111859814D01*
X144023448Y-111961271D01*
X144052778Y-111997009D01*
X144052779Y-111997011D01*
X144136443Y-112153533D01*
X144136443Y-112153534D01*
X144187963Y-112323373D01*
X144205359Y-112500000D01*
X144187963Y-112676627D01*
X144181617Y-112697546D01*
X144136443Y-112846467D01*
X144071504Y-112967958D01*
X144052778Y-113002991D01*
X144023448Y-113038729D01*
X143940186Y-113140186D01*
X143838729Y-113223448D01*
X143802991Y-113252778D01*
X143802989Y-113252779D01*
X143646467Y-113336443D01*
X143589853Y-113353616D01*
X143476627Y-113387963D01*
X143410442Y-113394482D01*
X143344260Y-113401000D01*
X143255740Y-113401000D01*
X143189558Y-113394482D01*
X143123373Y-113387963D01*
X143010147Y-113353616D01*
X142953533Y-113336443D01*
X142797011Y-113252779D01*
X142797009Y-113252778D01*
X142761271Y-113223448D01*
X142659814Y-113140186D01*
X142576552Y-113038729D01*
X142547222Y-113002991D01*
X142528496Y-112967958D01*
X142463557Y-112846467D01*
X142418383Y-112697546D01*
X142412037Y-112676627D01*
X142394641Y-112500000D01*
X142412037Y-112323373D01*
X142463557Y-112153534D01*
X142463557Y-112153533D01*
X142547221Y-111997011D01*
X142547222Y-111997009D01*
X142576552Y-111961271D01*
X142659814Y-111859814D01*
X142761271Y-111776552D01*
X142797009Y-111747222D01*
X142865110Y-111710821D01*
X142953533Y-111663557D01*
X143010147Y-111646384D01*
X143123373Y-111612037D01*
X143189557Y-111605519D01*
X143255740Y-111599000D01*
X143344260Y-111599000D01*
X143410443Y-111605519D01*
X143410443Y-111605519D01*
G37*
G36*
X145950443Y-111605519D02*
X146016627Y-111612037D01*
X146129853Y-111646384D01*
X146186467Y-111663557D01*
X146274890Y-111710821D01*
X146342991Y-111747222D01*
X146378729Y-111776552D01*
X146480186Y-111859814D01*
X146563448Y-111961271D01*
X146592778Y-111997009D01*
X146592779Y-111997011D01*
X146676443Y-112153533D01*
X146676443Y-112153534D01*
X146727963Y-112323373D01*
X146745359Y-112500000D01*
X146727963Y-112676627D01*
X146721617Y-112697546D01*
X146676443Y-112846467D01*
X146611504Y-112967958D01*
X146592778Y-113002991D01*
X146563448Y-113038729D01*
X146480186Y-113140186D01*
X146378729Y-113223448D01*
X146342991Y-113252778D01*
X146342989Y-113252779D01*
X146186467Y-113336443D01*
X146129853Y-113353616D01*
X146016627Y-113387963D01*
X145950442Y-113394482D01*
X145884260Y-113401000D01*
X145795740Y-113401000D01*
X145729558Y-113394482D01*
X145663373Y-113387963D01*
X145550147Y-113353616D01*
X145493533Y-113336443D01*
X145337011Y-113252779D01*
X145337009Y-113252778D01*
X145301271Y-113223448D01*
X145199814Y-113140186D01*
X145116552Y-113038729D01*
X145087222Y-113002991D01*
X145068496Y-112967958D01*
X145003557Y-112846467D01*
X144958383Y-112697546D01*
X144952037Y-112676627D01*
X144934641Y-112500000D01*
X144952037Y-112323373D01*
X145003557Y-112153534D01*
X145003557Y-112153533D01*
X145087221Y-111997011D01*
X145087222Y-111997009D01*
X145116552Y-111961271D01*
X145199814Y-111859814D01*
X145301271Y-111776552D01*
X145337009Y-111747222D01*
X145405110Y-111710821D01*
X145493533Y-111663557D01*
X145550147Y-111646384D01*
X145663373Y-111612037D01*
X145729557Y-111605519D01*
X145795740Y-111599000D01*
X145884260Y-111599000D01*
X145950443Y-111605519D01*
X145950443Y-111605519D01*
G37*
G36*
X151030443Y-111605519D02*
X151096627Y-111612037D01*
X151209853Y-111646384D01*
X151266467Y-111663557D01*
X151354890Y-111710821D01*
X151422991Y-111747222D01*
X151458729Y-111776552D01*
X151560186Y-111859814D01*
X151643448Y-111961271D01*
X151672778Y-111997009D01*
X151672779Y-111997011D01*
X151756443Y-112153533D01*
X151756443Y-112153534D01*
X151807963Y-112323373D01*
X151825359Y-112500000D01*
X151807963Y-112676627D01*
X151801617Y-112697546D01*
X151756443Y-112846467D01*
X151691504Y-112967958D01*
X151672778Y-113002991D01*
X151643448Y-113038729D01*
X151560186Y-113140186D01*
X151458729Y-113223448D01*
X151422991Y-113252778D01*
X151422989Y-113252779D01*
X151266467Y-113336443D01*
X151209853Y-113353616D01*
X151096627Y-113387963D01*
X151030442Y-113394482D01*
X150964260Y-113401000D01*
X150875740Y-113401000D01*
X150809558Y-113394482D01*
X150743373Y-113387963D01*
X150630147Y-113353616D01*
X150573533Y-113336443D01*
X150417011Y-113252779D01*
X150417009Y-113252778D01*
X150381271Y-113223448D01*
X150279814Y-113140186D01*
X150196552Y-113038729D01*
X150167222Y-113002991D01*
X150148496Y-112967958D01*
X150083557Y-112846467D01*
X150038383Y-112697546D01*
X150032037Y-112676627D01*
X150014641Y-112500000D01*
X150032037Y-112323373D01*
X150083557Y-112153534D01*
X150083557Y-112153533D01*
X150167221Y-111997011D01*
X150167222Y-111997009D01*
X150196552Y-111961271D01*
X150279814Y-111859814D01*
X150381271Y-111776552D01*
X150417009Y-111747222D01*
X150485110Y-111710821D01*
X150573533Y-111663557D01*
X150630147Y-111646384D01*
X150743373Y-111612037D01*
X150809557Y-111605519D01*
X150875740Y-111599000D01*
X150964260Y-111599000D01*
X151030443Y-111605519D01*
X151030443Y-111605519D01*
G37*
G36*
X153570443Y-111605519D02*
X153636627Y-111612037D01*
X153749853Y-111646384D01*
X153806467Y-111663557D01*
X153894890Y-111710821D01*
X153962991Y-111747222D01*
X153998729Y-111776552D01*
X154100186Y-111859814D01*
X154183448Y-111961271D01*
X154212778Y-111997009D01*
X154212779Y-111997011D01*
X154296443Y-112153533D01*
X154296443Y-112153534D01*
X154347963Y-112323373D01*
X154365359Y-112500000D01*
X154347963Y-112676627D01*
X154341617Y-112697546D01*
X154296443Y-112846467D01*
X154231504Y-112967958D01*
X154212778Y-113002991D01*
X154183448Y-113038729D01*
X154100186Y-113140186D01*
X153998729Y-113223448D01*
X153962991Y-113252778D01*
X153962989Y-113252779D01*
X153806467Y-113336443D01*
X153749853Y-113353616D01*
X153636627Y-113387963D01*
X153570442Y-113394482D01*
X153504260Y-113401000D01*
X153415740Y-113401000D01*
X153349558Y-113394482D01*
X153283373Y-113387963D01*
X153170147Y-113353616D01*
X153113533Y-113336443D01*
X152957011Y-113252779D01*
X152957009Y-113252778D01*
X152921271Y-113223448D01*
X152819814Y-113140186D01*
X152736552Y-113038729D01*
X152707222Y-113002991D01*
X152688496Y-112967958D01*
X152623557Y-112846467D01*
X152578383Y-112697546D01*
X152572037Y-112676627D01*
X152554641Y-112500000D01*
X152572037Y-112323373D01*
X152623557Y-112153534D01*
X152623557Y-112153533D01*
X152707221Y-111997011D01*
X152707222Y-111997009D01*
X152736552Y-111961271D01*
X152819814Y-111859814D01*
X152921271Y-111776552D01*
X152957009Y-111747222D01*
X153025110Y-111710821D01*
X153113533Y-111663557D01*
X153170147Y-111646384D01*
X153283373Y-111612037D01*
X153349557Y-111605519D01*
X153415740Y-111599000D01*
X153504260Y-111599000D01*
X153570443Y-111605519D01*
X153570443Y-111605519D01*
G37*
G36*
X183012909Y-111301420D02*
X178542509Y-111301420D01*
X178542509Y-109625020D01*
X183012909Y-109625020D01*
X183012909Y-111301420D01*
X183012909Y-111301420D01*
G37*
G36*
X175008225Y-107310171D02*
X175172323Y-107378143D01*
X175320012Y-107476826D01*
X175445603Y-107602417D01*
X175544286Y-107750106D01*
X175612258Y-107914204D01*
X175646909Y-108088409D01*
X175646909Y-108266031D01*
X175612258Y-108440236D01*
X175544286Y-108604334D01*
X175445603Y-108752023D01*
X175320012Y-108877614D01*
X175172323Y-108976297D01*
X175008225Y-109044269D01*
X174834020Y-109078920D01*
X174656398Y-109078920D01*
X174482193Y-109044269D01*
X174318095Y-108976297D01*
X174170406Y-108877614D01*
X174044815Y-108752023D01*
X173946132Y-108604334D01*
X173878160Y-108440236D01*
X173843509Y-108266031D01*
X173843509Y-108088409D01*
X173878160Y-107914204D01*
X173946132Y-107750106D01*
X174044815Y-107602417D01*
X174170406Y-107476826D01*
X174318095Y-107378143D01*
X174482193Y-107310171D01*
X174656398Y-107275520D01*
X174834020Y-107275520D01*
X175008225Y-107310171D01*
X175008225Y-107310171D01*
G37*
G36*
X173106909Y-109078920D02*
X171303509Y-109078920D01*
X171303509Y-107275520D01*
X173106909Y-107275520D01*
X173106909Y-109078920D01*
X173106909Y-109078920D01*
G37*
G36*
X164178221Y-109069520D02*
X162376221Y-109069520D01*
X162376221Y-107267520D01*
X164178221Y-107267520D01*
X164178221Y-109069520D01*
X164178221Y-109069520D01*
G37*
G36*
X182736703Y-107117231D02*
X182889246Y-107180416D01*
X183026534Y-107272149D01*
X183143280Y-107388895D01*
X183235013Y-107526183D01*
X183298198Y-107678726D01*
X183330409Y-107840663D01*
X183330409Y-108005777D01*
X183298198Y-108167714D01*
X183235013Y-108320257D01*
X183143280Y-108457545D01*
X183026534Y-108574291D01*
X182889246Y-108666024D01*
X182736703Y-108729209D01*
X182574766Y-108761420D01*
X182409652Y-108761420D01*
X182247715Y-108729209D01*
X182095172Y-108666024D01*
X181957884Y-108574291D01*
X181841138Y-108457545D01*
X181749405Y-108320257D01*
X181686220Y-108167714D01*
X181654009Y-108005777D01*
X181654009Y-107840663D01*
X181686220Y-107678726D01*
X181749405Y-107526183D01*
X181841138Y-107388895D01*
X181957884Y-107272149D01*
X182095172Y-107180416D01*
X182247715Y-107117231D01*
X182409652Y-107085020D01*
X182574766Y-107085020D01*
X182736703Y-107117231D01*
X182736703Y-107117231D01*
G37*
G36*
X178254659Y-107239351D02*
X178328099Y-107269771D01*
X178351548Y-107276884D01*
X178375934Y-107279286D01*
X178395703Y-107276354D01*
X178395708Y-107276403D01*
X178404672Y-107275520D01*
X180630659Y-107275520D01*
X180630659Y-108570920D01*
X178404672Y-108570920D01*
X178403523Y-108570807D01*
X178388184Y-108567756D01*
X178363679Y-108567756D01*
X178328099Y-108576669D01*
X178254659Y-108607089D01*
X178117257Y-108634420D01*
X177977161Y-108634420D01*
X177839759Y-108607089D01*
X177710331Y-108553478D01*
X177593843Y-108475643D01*
X177494786Y-108376586D01*
X177416951Y-108260098D01*
X177363340Y-108130670D01*
X177336009Y-107993268D01*
X177336009Y-107853172D01*
X177363340Y-107715770D01*
X177416951Y-107586342D01*
X177494786Y-107469854D01*
X177593843Y-107370797D01*
X177710331Y-107292962D01*
X177839759Y-107239351D01*
X177977161Y-107212020D01*
X178117257Y-107212020D01*
X178254659Y-107239351D01*
X178254659Y-107239351D01*
G37*
G36*
X149961815Y-104919876D02*
X150007831Y-104938937D01*
X150118926Y-104984953D01*
X150260325Y-105079433D01*
X150380567Y-105199675D01*
X150475047Y-105341074D01*
X150500760Y-105403152D01*
X150540124Y-105498185D01*
X150573300Y-105664972D01*
X150573300Y-105835028D01*
X150540124Y-106001815D01*
X150521063Y-106047831D01*
X150475047Y-106158926D01*
X150380567Y-106300325D01*
X150260325Y-106420567D01*
X150118926Y-106515047D01*
X150007831Y-106561063D01*
X149961815Y-106580124D01*
X149795029Y-106613300D01*
X149624971Y-106613300D01*
X149458185Y-106580124D01*
X149412169Y-106561063D01*
X149301074Y-106515047D01*
X149159675Y-106420567D01*
X149039433Y-106300325D01*
X148944953Y-106158926D01*
X148898937Y-106047831D01*
X148879876Y-106001815D01*
X148846700Y-105835028D01*
X148846700Y-105664972D01*
X148879876Y-105498185D01*
X148919240Y-105403152D01*
X148944953Y-105341074D01*
X149039433Y-105199675D01*
X149159675Y-105079433D01*
X149301074Y-104984953D01*
X149412169Y-104938937D01*
X149458185Y-104919876D01*
X149624971Y-104886700D01*
X149795029Y-104886700D01*
X149961815Y-104919876D01*
X149961815Y-104919876D01*
G37*
G36*
X163370520Y-104732350D02*
X163453848Y-104740557D01*
X163567074Y-104774904D01*
X163623688Y-104792077D01*
X163736445Y-104852348D01*
X163780212Y-104875742D01*
X163793564Y-104886700D01*
X163917407Y-104988334D01*
X163979637Y-105064163D01*
X164029999Y-105125529D01*
X164030000Y-105125531D01*
X164113664Y-105282053D01*
X164113664Y-105282054D01*
X164165184Y-105451893D01*
X164182580Y-105628520D01*
X164165184Y-105805147D01*
X164156119Y-105835029D01*
X164113664Y-105974987D01*
X164039569Y-106113607D01*
X164029999Y-106131511D01*
X164014915Y-106149891D01*
X163917407Y-106268706D01*
X163815950Y-106351968D01*
X163780212Y-106381298D01*
X163780210Y-106381299D01*
X163623688Y-106464963D01*
X163567074Y-106482136D01*
X163453848Y-106516483D01*
X163387664Y-106523001D01*
X163321481Y-106529520D01*
X163232961Y-106529520D01*
X163166778Y-106523001D01*
X163100594Y-106516483D01*
X162987368Y-106482136D01*
X162930754Y-106464963D01*
X162774232Y-106381299D01*
X162774230Y-106381298D01*
X162738492Y-106351968D01*
X162637035Y-106268706D01*
X162539527Y-106149891D01*
X162524443Y-106131511D01*
X162514873Y-106113607D01*
X162440778Y-105974987D01*
X162398323Y-105835029D01*
X162389258Y-105805147D01*
X162371862Y-105628520D01*
X162389258Y-105451893D01*
X162440778Y-105282054D01*
X162440778Y-105282053D01*
X162524442Y-105125531D01*
X162524443Y-105125529D01*
X162574805Y-105064163D01*
X162637035Y-104988334D01*
X162760878Y-104886700D01*
X162774230Y-104875742D01*
X162817997Y-104852348D01*
X162930754Y-104792077D01*
X162987368Y-104774904D01*
X163100594Y-104740557D01*
X163183922Y-104732350D01*
X163232961Y-104727520D01*
X163321481Y-104727520D01*
X163370520Y-104732350D01*
X163370520Y-104732350D01*
G37*
G36*
X156203128Y-104788153D02*
X156358109Y-104852348D01*
X156497589Y-104945546D01*
X156616206Y-105064163D01*
X156709404Y-105203643D01*
X156773599Y-105358624D01*
X156806325Y-105523152D01*
X156806325Y-105690902D01*
X156773599Y-105855430D01*
X156709404Y-106010411D01*
X156616206Y-106149891D01*
X156497589Y-106268508D01*
X156358109Y-106361706D01*
X156203128Y-106425901D01*
X156038600Y-106458627D01*
X155870850Y-106458627D01*
X155706322Y-106425901D01*
X155551341Y-106361706D01*
X155411861Y-106268508D01*
X155293244Y-106149891D01*
X155200046Y-106010411D01*
X155135851Y-105855430D01*
X155103125Y-105690902D01*
X155103125Y-105523152D01*
X155135851Y-105358624D01*
X155200046Y-105203643D01*
X155293244Y-105064163D01*
X155411861Y-104945546D01*
X155551341Y-104852348D01*
X155706322Y-104788153D01*
X155870850Y-104755427D01*
X156038600Y-104755427D01*
X156203128Y-104788153D01*
X156203128Y-104788153D01*
G37*
G36*
X135803128Y-104668153D02*
X135958109Y-104732348D01*
X136097589Y-104825546D01*
X136216206Y-104944163D01*
X136309404Y-105083643D01*
X136373599Y-105238624D01*
X136406325Y-105403152D01*
X136406325Y-105570902D01*
X136373599Y-105735430D01*
X136309404Y-105890411D01*
X136216206Y-106029891D01*
X136097589Y-106148508D01*
X135958109Y-106241706D01*
X135803128Y-106305901D01*
X135638600Y-106338627D01*
X135470850Y-106338627D01*
X135306322Y-106305901D01*
X135151341Y-106241706D01*
X135011861Y-106148508D01*
X134893244Y-106029891D01*
X134800046Y-105890411D01*
X134735851Y-105735430D01*
X134703125Y-105570902D01*
X134703125Y-105403152D01*
X134735851Y-105238624D01*
X134800046Y-105083643D01*
X134893244Y-104944163D01*
X135011861Y-104825546D01*
X135151341Y-104732348D01*
X135306322Y-104668153D01*
X135470850Y-104635427D01*
X135638600Y-104635427D01*
X135803128Y-104668153D01*
X135803128Y-104668153D01*
G37*
G36*
X183012909Y-106221420D02*
X178542509Y-106221420D01*
X178542509Y-104545020D01*
X183012909Y-104545020D01*
X183012909Y-106221420D01*
X183012909Y-106221420D01*
G37*
G36*
X163370520Y-102192350D02*
X163453848Y-102200557D01*
X163567074Y-102234904D01*
X163623688Y-102252077D01*
X163736445Y-102312348D01*
X163780212Y-102335742D01*
X163815950Y-102365072D01*
X163917407Y-102448334D01*
X163979637Y-102524163D01*
X164029999Y-102585529D01*
X164030000Y-102585531D01*
X164113664Y-102742053D01*
X164113664Y-102742054D01*
X164165184Y-102911893D01*
X164182580Y-103088520D01*
X164165184Y-103265147D01*
X164149931Y-103315428D01*
X164113664Y-103434987D01*
X164039569Y-103573607D01*
X164029999Y-103591511D01*
X164014915Y-103609891D01*
X163917407Y-103728706D01*
X163815950Y-103811968D01*
X163780212Y-103841298D01*
X163780210Y-103841299D01*
X163623688Y-103924963D01*
X163567074Y-103942136D01*
X163453848Y-103976483D01*
X163387663Y-103983002D01*
X163321481Y-103989520D01*
X163232961Y-103989520D01*
X163166779Y-103983002D01*
X163100594Y-103976483D01*
X162987368Y-103942136D01*
X162930754Y-103924963D01*
X162774232Y-103841299D01*
X162774230Y-103841298D01*
X162738492Y-103811968D01*
X162637035Y-103728706D01*
X162539527Y-103609891D01*
X162524443Y-103591511D01*
X162514873Y-103573607D01*
X162440778Y-103434987D01*
X162404511Y-103315428D01*
X162389258Y-103265147D01*
X162371862Y-103088520D01*
X162389258Y-102911893D01*
X162440778Y-102742054D01*
X162440778Y-102742053D01*
X162524442Y-102585531D01*
X162524443Y-102585529D01*
X162574805Y-102524163D01*
X162637035Y-102448334D01*
X162738492Y-102365072D01*
X162774230Y-102335742D01*
X162817997Y-102312348D01*
X162930754Y-102252077D01*
X162987368Y-102234904D01*
X163100594Y-102200557D01*
X163183922Y-102192350D01*
X163232961Y-102187520D01*
X163321481Y-102187520D01*
X163370520Y-102192350D01*
X163370520Y-102192350D01*
G37*
G36*
X156203128Y-102248153D02*
X156358109Y-102312348D01*
X156497589Y-102405546D01*
X156616206Y-102524163D01*
X156709404Y-102663643D01*
X156773599Y-102818624D01*
X156806325Y-102983152D01*
X156806325Y-103150902D01*
X156773599Y-103315430D01*
X156709404Y-103470411D01*
X156616206Y-103609891D01*
X156497589Y-103728508D01*
X156358109Y-103821706D01*
X156203128Y-103885901D01*
X156038600Y-103918627D01*
X155870850Y-103918627D01*
X155706322Y-103885901D01*
X155551341Y-103821706D01*
X155411861Y-103728508D01*
X155293244Y-103609891D01*
X155200046Y-103470411D01*
X155135851Y-103315430D01*
X155103125Y-103150902D01*
X155103125Y-102983152D01*
X155135851Y-102818624D01*
X155200046Y-102663643D01*
X155293244Y-102524163D01*
X155411861Y-102405546D01*
X155551341Y-102312348D01*
X155706322Y-102248153D01*
X155870850Y-102215427D01*
X156038600Y-102215427D01*
X156203128Y-102248153D01*
X156203128Y-102248153D01*
G37*
G36*
X135803128Y-102128153D02*
X135958109Y-102192348D01*
X136097589Y-102285546D01*
X136216206Y-102404163D01*
X136309404Y-102543643D01*
X136373599Y-102698624D01*
X136406325Y-102863152D01*
X136406325Y-103030902D01*
X136373599Y-103195430D01*
X136309404Y-103350411D01*
X136216206Y-103489891D01*
X136097589Y-103608508D01*
X135958109Y-103701706D01*
X135803128Y-103765901D01*
X135638600Y-103798627D01*
X135470850Y-103798627D01*
X135306322Y-103765901D01*
X135151341Y-103701706D01*
X135011861Y-103608508D01*
X134893244Y-103489891D01*
X134800046Y-103350411D01*
X134735851Y-103195430D01*
X134703125Y-103030902D01*
X134703125Y-102863152D01*
X134735851Y-102698624D01*
X134800046Y-102543643D01*
X134893244Y-102404163D01*
X135011861Y-102285546D01*
X135151341Y-102192348D01*
X135306322Y-102128153D01*
X135470850Y-102095427D01*
X135638600Y-102095427D01*
X135803128Y-102128153D01*
X135803128Y-102128153D01*
G37*
G36*
X163370520Y-99652350D02*
X163453848Y-99660557D01*
X163567074Y-99694904D01*
X163623688Y-99712077D01*
X163736445Y-99772348D01*
X163780212Y-99795742D01*
X163815950Y-99825072D01*
X163917407Y-99908334D01*
X163979637Y-99984163D01*
X164029999Y-100045529D01*
X164030000Y-100045531D01*
X164113664Y-100202053D01*
X164113664Y-100202054D01*
X164165184Y-100371893D01*
X164182580Y-100548520D01*
X164165184Y-100725147D01*
X164149931Y-100775428D01*
X164113664Y-100894987D01*
X164039569Y-101033607D01*
X164029999Y-101051511D01*
X164014915Y-101069891D01*
X163917407Y-101188706D01*
X163815950Y-101271968D01*
X163780212Y-101301298D01*
X163780210Y-101301299D01*
X163623688Y-101384963D01*
X163567074Y-101402136D01*
X163453848Y-101436483D01*
X163387664Y-101443001D01*
X163321481Y-101449520D01*
X163232961Y-101449520D01*
X163166778Y-101443001D01*
X163100594Y-101436483D01*
X162987368Y-101402136D01*
X162930754Y-101384963D01*
X162774232Y-101301299D01*
X162774230Y-101301298D01*
X162738492Y-101271968D01*
X162637035Y-101188706D01*
X162539527Y-101069891D01*
X162524443Y-101051511D01*
X162514873Y-101033607D01*
X162440778Y-100894987D01*
X162404511Y-100775428D01*
X162389258Y-100725147D01*
X162371862Y-100548520D01*
X162389258Y-100371893D01*
X162440778Y-100202054D01*
X162440778Y-100202053D01*
X162524442Y-100045531D01*
X162524443Y-100045529D01*
X162574805Y-99984163D01*
X162637035Y-99908334D01*
X162738492Y-99825072D01*
X162774230Y-99795742D01*
X162817997Y-99772348D01*
X162930754Y-99712077D01*
X162987368Y-99694904D01*
X163100594Y-99660557D01*
X163183922Y-99652350D01*
X163232961Y-99647520D01*
X163321481Y-99647520D01*
X163370520Y-99652350D01*
X163370520Y-99652350D01*
G37*
G36*
X156203128Y-99708153D02*
X156358109Y-99772348D01*
X156497589Y-99865546D01*
X156616206Y-99984163D01*
X156709404Y-100123643D01*
X156773599Y-100278624D01*
X156806325Y-100443152D01*
X156806325Y-100610902D01*
X156773599Y-100775430D01*
X156709404Y-100930411D01*
X156616206Y-101069891D01*
X156497589Y-101188508D01*
X156358109Y-101281706D01*
X156203128Y-101345901D01*
X156038600Y-101378627D01*
X155870850Y-101378627D01*
X155706322Y-101345901D01*
X155551341Y-101281706D01*
X155411861Y-101188508D01*
X155293244Y-101069891D01*
X155200046Y-100930411D01*
X155135851Y-100775430D01*
X155103125Y-100610902D01*
X155103125Y-100443152D01*
X155135851Y-100278624D01*
X155200046Y-100123643D01*
X155293244Y-99984163D01*
X155411861Y-99865546D01*
X155551341Y-99772348D01*
X155706322Y-99708153D01*
X155870850Y-99675427D01*
X156038600Y-99675427D01*
X156203128Y-99708153D01*
X156203128Y-99708153D01*
G37*
G36*
X135803128Y-99588153D02*
X135958109Y-99652348D01*
X136097589Y-99745546D01*
X136216206Y-99864163D01*
X136309404Y-100003643D01*
X136373599Y-100158624D01*
X136406325Y-100323152D01*
X136406325Y-100490902D01*
X136373599Y-100655430D01*
X136309404Y-100810411D01*
X136216206Y-100949891D01*
X136097589Y-101068508D01*
X135958109Y-101161706D01*
X135803128Y-101225901D01*
X135638600Y-101258627D01*
X135470850Y-101258627D01*
X135306322Y-101225901D01*
X135151341Y-101161706D01*
X135011861Y-101068508D01*
X134893244Y-100949891D01*
X134800046Y-100810411D01*
X134735851Y-100655430D01*
X134703125Y-100490902D01*
X134703125Y-100323152D01*
X134735851Y-100158624D01*
X134800046Y-100003643D01*
X134893244Y-99864163D01*
X135011861Y-99745546D01*
X135151341Y-99652348D01*
X135306322Y-99588153D01*
X135470850Y-99555427D01*
X135638600Y-99555427D01*
X135803128Y-99588153D01*
X135803128Y-99588153D01*
G37*
G36*
X156203128Y-97168153D02*
X156358109Y-97232348D01*
X156497589Y-97325546D01*
X156616206Y-97444163D01*
X156709404Y-97583643D01*
X156773599Y-97738624D01*
X156806325Y-97903152D01*
X156806325Y-98070902D01*
X156773599Y-98235430D01*
X156709404Y-98390411D01*
X156616206Y-98529891D01*
X156497589Y-98648508D01*
X156358109Y-98741706D01*
X156203128Y-98805901D01*
X156038600Y-98838627D01*
X155870850Y-98838627D01*
X155706322Y-98805901D01*
X155551341Y-98741706D01*
X155411861Y-98648508D01*
X155293244Y-98529891D01*
X155200046Y-98390411D01*
X155135851Y-98235430D01*
X155103125Y-98070902D01*
X155103125Y-97903152D01*
X155135851Y-97738624D01*
X155200046Y-97583643D01*
X155293244Y-97444163D01*
X155411861Y-97325546D01*
X155551341Y-97232348D01*
X155706322Y-97168153D01*
X155870850Y-97135427D01*
X156038600Y-97135427D01*
X156203128Y-97168153D01*
X156203128Y-97168153D01*
G37*
G36*
X135803128Y-97048153D02*
X135958109Y-97112348D01*
X136097589Y-97205546D01*
X136216206Y-97324163D01*
X136309404Y-97463643D01*
X136373599Y-97618624D01*
X136406325Y-97783152D01*
X136406325Y-97950902D01*
X136373599Y-98115430D01*
X136309404Y-98270411D01*
X136216206Y-98409891D01*
X136097589Y-98528508D01*
X135958109Y-98621706D01*
X135803128Y-98685901D01*
X135638600Y-98718627D01*
X135470850Y-98718627D01*
X135306322Y-98685901D01*
X135151341Y-98621706D01*
X135011861Y-98528508D01*
X134893244Y-98409891D01*
X134800046Y-98270411D01*
X134735851Y-98115430D01*
X134703125Y-97950902D01*
X134703125Y-97783152D01*
X134735851Y-97618624D01*
X134800046Y-97463643D01*
X134893244Y-97324163D01*
X135011861Y-97205546D01*
X135151341Y-97112348D01*
X135306322Y-97048153D01*
X135470850Y-97015427D01*
X135638600Y-97015427D01*
X135803128Y-97048153D01*
X135803128Y-97048153D01*
G37*
G36*
X156203128Y-94628153D02*
X156358109Y-94692348D01*
X156497589Y-94785546D01*
X156616206Y-94904163D01*
X156709404Y-95043643D01*
X156773599Y-95198624D01*
X156806325Y-95363152D01*
X156806325Y-95530902D01*
X156773599Y-95695430D01*
X156709404Y-95850411D01*
X156616206Y-95989891D01*
X156497589Y-96108508D01*
X156358109Y-96201706D01*
X156203128Y-96265901D01*
X156038600Y-96298627D01*
X155870850Y-96298627D01*
X155706322Y-96265901D01*
X155551341Y-96201706D01*
X155411861Y-96108508D01*
X155293244Y-95989891D01*
X155200046Y-95850411D01*
X155135851Y-95695430D01*
X155103125Y-95530902D01*
X155103125Y-95363152D01*
X155135851Y-95198624D01*
X155200046Y-95043643D01*
X155293244Y-94904163D01*
X155411861Y-94785546D01*
X155551341Y-94692348D01*
X155706322Y-94628153D01*
X155870850Y-94595427D01*
X156038600Y-94595427D01*
X156203128Y-94628153D01*
X156203128Y-94628153D01*
G37*
G36*
X135803128Y-94508153D02*
X135958109Y-94572348D01*
X136097589Y-94665546D01*
X136216206Y-94784163D01*
X136309404Y-94923643D01*
X136373599Y-95078624D01*
X136406325Y-95243152D01*
X136406325Y-95410902D01*
X136373599Y-95575430D01*
X136309404Y-95730411D01*
X136216206Y-95869891D01*
X136097589Y-95988508D01*
X135958109Y-96081706D01*
X135803128Y-96145901D01*
X135638600Y-96178627D01*
X135470850Y-96178627D01*
X135306322Y-96145901D01*
X135151341Y-96081706D01*
X135011861Y-95988508D01*
X134893244Y-95869891D01*
X134800046Y-95730411D01*
X134735851Y-95575430D01*
X134703125Y-95410902D01*
X134703125Y-95243152D01*
X134735851Y-95078624D01*
X134800046Y-94923643D01*
X134893244Y-94784163D01*
X135011861Y-94665546D01*
X135151341Y-94572348D01*
X135306322Y-94508153D01*
X135470850Y-94475427D01*
X135638600Y-94475427D01*
X135803128Y-94508153D01*
X135803128Y-94508153D01*
G37*
G36*
X144125256Y-91141298D02*
X144231579Y-91162447D01*
X144532042Y-91286903D01*
X144798852Y-91465180D01*
X144802454Y-91467587D01*
X145032413Y-91697546D01*
X145032415Y-91697549D01*
X145213097Y-91967958D01*
X145328078Y-92245546D01*
X145337553Y-92268422D01*
X145401000Y-92587389D01*
X145401000Y-92912611D01*
X145358702Y-93125256D01*
X145337553Y-93231579D01*
X145213097Y-93532042D01*
X145163746Y-93605901D01*
X145032413Y-93802454D01*
X144802454Y-94032413D01*
X144802451Y-94032415D01*
X144532042Y-94213097D01*
X144231579Y-94337553D01*
X144125256Y-94358702D01*
X143912611Y-94401000D01*
X143587389Y-94401000D01*
X143374744Y-94358702D01*
X143268421Y-94337553D01*
X142967958Y-94213097D01*
X142697549Y-94032415D01*
X142697546Y-94032413D01*
X142467587Y-93802454D01*
X142336254Y-93605901D01*
X142286903Y-93532042D01*
X142162447Y-93231579D01*
X142141298Y-93125256D01*
X142099000Y-92912611D01*
X142099000Y-92587389D01*
X142162447Y-92268422D01*
X142171923Y-92245546D01*
X142286903Y-91967958D01*
X142467585Y-91697549D01*
X142467587Y-91697546D01*
X142697546Y-91467587D01*
X142701148Y-91465180D01*
X142967958Y-91286903D01*
X143268421Y-91162447D01*
X143374744Y-91141298D01*
X143587389Y-91099000D01*
X143912611Y-91099000D01*
X144125256Y-91141298D01*
X144125256Y-91141298D01*
G37*
G36*
X156203128Y-92088153D02*
X156358109Y-92152348D01*
X156497589Y-92245546D01*
X156616206Y-92364163D01*
X156709404Y-92503643D01*
X156773599Y-92658624D01*
X156806325Y-92823152D01*
X156806325Y-92990902D01*
X156773599Y-93155430D01*
X156709404Y-93310411D01*
X156616206Y-93449891D01*
X156497589Y-93568508D01*
X156358109Y-93661706D01*
X156203128Y-93725901D01*
X156038600Y-93758627D01*
X155870850Y-93758627D01*
X155706322Y-93725901D01*
X155551341Y-93661706D01*
X155411861Y-93568508D01*
X155293244Y-93449891D01*
X155200046Y-93310411D01*
X155135851Y-93155430D01*
X155103125Y-92990902D01*
X155103125Y-92823152D01*
X155135851Y-92658624D01*
X155200046Y-92503643D01*
X155293244Y-92364163D01*
X155411861Y-92245546D01*
X155551341Y-92152348D01*
X155706322Y-92088153D01*
X155870850Y-92055427D01*
X156038600Y-92055427D01*
X156203128Y-92088153D01*
X156203128Y-92088153D01*
G37*
G36*
X135803128Y-91968153D02*
X135958109Y-92032348D01*
X136097589Y-92125546D01*
X136216206Y-92244163D01*
X136309404Y-92383643D01*
X136373599Y-92538624D01*
X136406325Y-92703152D01*
X136406325Y-92870902D01*
X136373599Y-93035430D01*
X136309404Y-93190411D01*
X136216206Y-93329891D01*
X136097589Y-93448508D01*
X135958109Y-93541706D01*
X135803128Y-93605901D01*
X135638600Y-93638627D01*
X135470850Y-93638627D01*
X135306322Y-93605901D01*
X135151341Y-93541706D01*
X135011861Y-93448508D01*
X134893244Y-93329891D01*
X134800046Y-93190411D01*
X134735851Y-93035430D01*
X134703125Y-92870902D01*
X134703125Y-92703152D01*
X134735851Y-92538624D01*
X134800046Y-92383643D01*
X134893244Y-92244163D01*
X135011861Y-92125546D01*
X135151341Y-92032348D01*
X135306322Y-91968153D01*
X135470850Y-91935427D01*
X135638600Y-91935427D01*
X135803128Y-91968153D01*
X135803128Y-91968153D01*
G37*
G36*
X156203128Y-89548153D02*
X156358109Y-89612348D01*
X156497589Y-89705546D01*
X156616206Y-89824163D01*
X156709404Y-89963643D01*
X156773599Y-90118624D01*
X156806325Y-90283152D01*
X156806325Y-90450902D01*
X156773599Y-90615430D01*
X156709404Y-90770411D01*
X156616206Y-90909891D01*
X156497589Y-91028508D01*
X156358109Y-91121706D01*
X156203128Y-91185901D01*
X156038600Y-91218627D01*
X155870850Y-91218627D01*
X155706322Y-91185901D01*
X155551341Y-91121706D01*
X155411861Y-91028508D01*
X155293244Y-90909891D01*
X155200046Y-90770411D01*
X155135851Y-90615430D01*
X155103125Y-90450902D01*
X155103125Y-90283152D01*
X155135851Y-90118624D01*
X155200046Y-89963643D01*
X155293244Y-89824163D01*
X155411861Y-89705546D01*
X155551341Y-89612348D01*
X155706322Y-89548153D01*
X155870850Y-89515427D01*
X156038600Y-89515427D01*
X156203128Y-89548153D01*
X156203128Y-89548153D01*
G37*
G36*
X135803128Y-89428153D02*
X135958109Y-89492348D01*
X136097589Y-89585546D01*
X136216206Y-89704163D01*
X136309404Y-89843643D01*
X136373599Y-89998624D01*
X136406325Y-90163152D01*
X136406325Y-90330902D01*
X136373599Y-90495430D01*
X136309404Y-90650411D01*
X136216206Y-90789891D01*
X136097589Y-90908508D01*
X135958109Y-91001706D01*
X135803128Y-91065901D01*
X135638600Y-91098627D01*
X135470850Y-91098627D01*
X135306322Y-91065901D01*
X135151341Y-91001706D01*
X135011861Y-90908508D01*
X134893244Y-90789891D01*
X134800046Y-90650411D01*
X134735851Y-90495430D01*
X134703125Y-90330902D01*
X134703125Y-90163152D01*
X134735851Y-89998624D01*
X134800046Y-89843643D01*
X134893244Y-89704163D01*
X135011861Y-89585546D01*
X135151341Y-89492348D01*
X135306322Y-89428153D01*
X135470850Y-89395427D01*
X135638600Y-89395427D01*
X135803128Y-89428153D01*
X135803128Y-89428153D01*
G37*
G36*
X156203128Y-87008153D02*
X156358109Y-87072348D01*
X156497589Y-87165546D01*
X156616206Y-87284163D01*
X156709404Y-87423643D01*
X156773599Y-87578624D01*
X156806325Y-87743152D01*
X156806325Y-87910902D01*
X156773599Y-88075430D01*
X156709404Y-88230411D01*
X156616206Y-88369891D01*
X156497589Y-88488508D01*
X156358109Y-88581706D01*
X156203128Y-88645901D01*
X156038600Y-88678627D01*
X155870850Y-88678627D01*
X155706322Y-88645901D01*
X155551341Y-88581706D01*
X155411861Y-88488508D01*
X155293244Y-88369891D01*
X155200046Y-88230411D01*
X155135851Y-88075430D01*
X155103125Y-87910902D01*
X155103125Y-87743152D01*
X155135851Y-87578624D01*
X155200046Y-87423643D01*
X155293244Y-87284163D01*
X155411861Y-87165546D01*
X155551341Y-87072348D01*
X155706322Y-87008153D01*
X155870850Y-86975427D01*
X156038600Y-86975427D01*
X156203128Y-87008153D01*
X156203128Y-87008153D01*
G37*
G36*
X135803128Y-86888153D02*
X135958109Y-86952348D01*
X136097589Y-87045546D01*
X136216206Y-87164163D01*
X136309404Y-87303643D01*
X136373599Y-87458624D01*
X136406325Y-87623152D01*
X136406325Y-87790902D01*
X136373599Y-87955430D01*
X136309404Y-88110411D01*
X136216206Y-88249891D01*
X136097589Y-88368508D01*
X135958109Y-88461706D01*
X135803128Y-88525901D01*
X135638600Y-88558627D01*
X135470850Y-88558627D01*
X135306322Y-88525901D01*
X135151341Y-88461706D01*
X135011861Y-88368508D01*
X134893244Y-88249891D01*
X134800046Y-88110411D01*
X134735851Y-87955430D01*
X134703125Y-87790902D01*
X134703125Y-87623152D01*
X134735851Y-87458624D01*
X134800046Y-87303643D01*
X134893244Y-87164163D01*
X135011861Y-87045546D01*
X135151341Y-86952348D01*
X135306322Y-86888153D01*
X135470850Y-86855427D01*
X135638600Y-86855427D01*
X135803128Y-86888153D01*
X135803128Y-86888153D01*
G37*
G36*
X156203128Y-84468153D02*
X156358109Y-84532348D01*
X156497589Y-84625546D01*
X156616206Y-84744163D01*
X156709404Y-84883643D01*
X156773599Y-85038624D01*
X156806325Y-85203152D01*
X156806325Y-85370902D01*
X156773599Y-85535430D01*
X156709404Y-85690411D01*
X156616206Y-85829891D01*
X156497589Y-85948508D01*
X156358109Y-86041706D01*
X156203128Y-86105901D01*
X156038600Y-86138627D01*
X155870850Y-86138627D01*
X155706322Y-86105901D01*
X155551341Y-86041706D01*
X155411861Y-85948508D01*
X155293244Y-85829891D01*
X155200046Y-85690411D01*
X155135851Y-85535430D01*
X155103125Y-85370902D01*
X155103125Y-85203152D01*
X155135851Y-85038624D01*
X155200046Y-84883643D01*
X155293244Y-84744163D01*
X155411861Y-84625546D01*
X155551341Y-84532348D01*
X155706322Y-84468153D01*
X155870850Y-84435427D01*
X156038600Y-84435427D01*
X156203128Y-84468153D01*
X156203128Y-84468153D01*
G37*
G36*
X135803128Y-84348153D02*
X135958109Y-84412348D01*
X136097589Y-84505546D01*
X136216206Y-84624163D01*
X136309404Y-84763643D01*
X136373599Y-84918624D01*
X136406325Y-85083152D01*
X136406325Y-85250902D01*
X136373599Y-85415430D01*
X136309404Y-85570411D01*
X136216206Y-85709891D01*
X136097589Y-85828508D01*
X135958109Y-85921706D01*
X135803128Y-85985901D01*
X135638600Y-86018627D01*
X135470850Y-86018627D01*
X135306322Y-85985901D01*
X135151341Y-85921706D01*
X135011861Y-85828508D01*
X134893244Y-85709891D01*
X134800046Y-85570411D01*
X134735851Y-85415430D01*
X134703125Y-85250902D01*
X134703125Y-85083152D01*
X134735851Y-84918624D01*
X134800046Y-84763643D01*
X134893244Y-84624163D01*
X135011861Y-84505546D01*
X135151341Y-84412348D01*
X135306322Y-84348153D01*
X135470850Y-84315427D01*
X135638600Y-84315427D01*
X135803128Y-84348153D01*
X135803128Y-84348153D01*
G37*
G36*
X156203128Y-81928153D02*
X156358109Y-81992348D01*
X156497589Y-82085546D01*
X156616206Y-82204163D01*
X156709404Y-82343643D01*
X156773599Y-82498624D01*
X156806325Y-82663152D01*
X156806325Y-82830902D01*
X156773599Y-82995430D01*
X156709404Y-83150411D01*
X156616206Y-83289891D01*
X156497589Y-83408508D01*
X156358109Y-83501706D01*
X156203128Y-83565901D01*
X156038600Y-83598627D01*
X155870850Y-83598627D01*
X155706322Y-83565901D01*
X155551341Y-83501706D01*
X155411861Y-83408508D01*
X155293244Y-83289891D01*
X155200046Y-83150411D01*
X155135851Y-82995430D01*
X155103125Y-82830902D01*
X155103125Y-82663152D01*
X155135851Y-82498624D01*
X155200046Y-82343643D01*
X155293244Y-82204163D01*
X155411861Y-82085546D01*
X155551341Y-81992348D01*
X155706322Y-81928153D01*
X155870850Y-81895427D01*
X156038600Y-81895427D01*
X156203128Y-81928153D01*
X156203128Y-81928153D01*
G37*
G36*
X135803128Y-81808153D02*
X135958109Y-81872348D01*
X136097589Y-81965546D01*
X136216206Y-82084163D01*
X136309404Y-82223643D01*
X136373599Y-82378624D01*
X136406325Y-82543152D01*
X136406325Y-82710902D01*
X136373599Y-82875430D01*
X136309404Y-83030411D01*
X136216206Y-83169891D01*
X136097589Y-83288508D01*
X135958109Y-83381706D01*
X135803128Y-83445901D01*
X135638600Y-83478627D01*
X135470850Y-83478627D01*
X135306322Y-83445901D01*
X135151341Y-83381706D01*
X135011861Y-83288508D01*
X134893244Y-83169891D01*
X134800046Y-83030411D01*
X134735851Y-82875430D01*
X134703125Y-82710902D01*
X134703125Y-82543152D01*
X134735851Y-82378624D01*
X134800046Y-82223643D01*
X134893244Y-82084163D01*
X135011861Y-81965546D01*
X135151341Y-81872348D01*
X135306322Y-81808153D01*
X135470850Y-81775427D01*
X135638600Y-81775427D01*
X135803128Y-81808153D01*
X135803128Y-81808153D01*
G37*
G36*
X156203128Y-79388153D02*
X156358109Y-79452348D01*
X156497589Y-79545546D01*
X156616206Y-79664163D01*
X156709404Y-79803643D01*
X156773599Y-79958624D01*
X156806325Y-80123152D01*
X156806325Y-80290902D01*
X156773599Y-80455430D01*
X156709404Y-80610411D01*
X156616206Y-80749891D01*
X156497589Y-80868508D01*
X156358109Y-80961706D01*
X156203128Y-81025901D01*
X156038600Y-81058627D01*
X155870850Y-81058627D01*
X155706322Y-81025901D01*
X155551341Y-80961706D01*
X155411861Y-80868508D01*
X155293244Y-80749891D01*
X155200046Y-80610411D01*
X155135851Y-80455430D01*
X155103125Y-80290902D01*
X155103125Y-80123152D01*
X155135851Y-79958624D01*
X155200046Y-79803643D01*
X155293244Y-79664163D01*
X155411861Y-79545546D01*
X155551341Y-79452348D01*
X155706322Y-79388153D01*
X155870850Y-79355427D01*
X156038600Y-79355427D01*
X156203128Y-79388153D01*
X156203128Y-79388153D01*
G37*
G36*
X135803128Y-79268153D02*
X135958109Y-79332348D01*
X136097589Y-79425546D01*
X136216206Y-79544163D01*
X136309404Y-79683643D01*
X136373599Y-79838624D01*
X136406325Y-80003152D01*
X136406325Y-80170902D01*
X136373599Y-80335430D01*
X136309404Y-80490411D01*
X136216206Y-80629891D01*
X136097589Y-80748508D01*
X135958109Y-80841706D01*
X135803128Y-80905901D01*
X135638600Y-80938627D01*
X135470850Y-80938627D01*
X135306322Y-80905901D01*
X135151341Y-80841706D01*
X135011861Y-80748508D01*
X134893244Y-80629891D01*
X134800046Y-80490411D01*
X134735851Y-80335430D01*
X134703125Y-80170902D01*
X134703125Y-80003152D01*
X134735851Y-79838624D01*
X134800046Y-79683643D01*
X134893244Y-79544163D01*
X135011861Y-79425546D01*
X135151341Y-79332348D01*
X135306322Y-79268153D01*
X135470850Y-79235427D01*
X135638600Y-79235427D01*
X135803128Y-79268153D01*
X135803128Y-79268153D01*
G37*
G36*
X156203128Y-76848153D02*
X156358109Y-76912348D01*
X156497589Y-77005546D01*
X156616206Y-77124163D01*
X156709404Y-77263643D01*
X156773599Y-77418624D01*
X156806325Y-77583152D01*
X156806325Y-77750902D01*
X156773599Y-77915430D01*
X156709404Y-78070411D01*
X156616206Y-78209891D01*
X156497589Y-78328508D01*
X156358109Y-78421706D01*
X156203128Y-78485901D01*
X156038600Y-78518627D01*
X155870850Y-78518627D01*
X155706322Y-78485901D01*
X155551341Y-78421706D01*
X155411861Y-78328508D01*
X155293244Y-78209891D01*
X155200046Y-78070411D01*
X155135851Y-77915430D01*
X155103125Y-77750902D01*
X155103125Y-77583152D01*
X155135851Y-77418624D01*
X155200046Y-77263643D01*
X155293244Y-77124163D01*
X155411861Y-77005546D01*
X155551341Y-76912348D01*
X155706322Y-76848153D01*
X155870850Y-76815427D01*
X156038600Y-76815427D01*
X156203128Y-76848153D01*
X156203128Y-76848153D01*
G37*
G36*
X135803128Y-76728153D02*
X135958109Y-76792348D01*
X136097589Y-76885546D01*
X136216206Y-77004163D01*
X136309404Y-77143643D01*
X136373599Y-77298624D01*
X136406325Y-77463152D01*
X136406325Y-77630902D01*
X136373599Y-77795430D01*
X136309404Y-77950411D01*
X136216206Y-78089891D01*
X136097589Y-78208508D01*
X135958109Y-78301706D01*
X135803128Y-78365901D01*
X135638600Y-78398627D01*
X135470850Y-78398627D01*
X135306322Y-78365901D01*
X135151341Y-78301706D01*
X135011861Y-78208508D01*
X134893244Y-78089891D01*
X134800046Y-77950411D01*
X134735851Y-77795430D01*
X134703125Y-77630902D01*
X134703125Y-77463152D01*
X134735851Y-77298624D01*
X134800046Y-77143643D01*
X134893244Y-77004163D01*
X135011861Y-76885546D01*
X135151341Y-76792348D01*
X135306322Y-76728153D01*
X135470850Y-76695427D01*
X135638600Y-76695427D01*
X135803128Y-76728153D01*
X135803128Y-76728153D01*
G37*
G36*
X156203128Y-74308153D02*
X156358109Y-74372348D01*
X156497589Y-74465546D01*
X156616206Y-74584163D01*
X156709404Y-74723643D01*
X156773599Y-74878624D01*
X156806325Y-75043152D01*
X156806325Y-75210902D01*
X156773599Y-75375430D01*
X156709404Y-75530411D01*
X156616206Y-75669891D01*
X156497589Y-75788508D01*
X156358109Y-75881706D01*
X156203128Y-75945901D01*
X156038600Y-75978627D01*
X155870850Y-75978627D01*
X155706322Y-75945901D01*
X155551341Y-75881706D01*
X155411861Y-75788508D01*
X155293244Y-75669891D01*
X155200046Y-75530411D01*
X155135851Y-75375430D01*
X155103125Y-75210902D01*
X155103125Y-75043152D01*
X155135851Y-74878624D01*
X155200046Y-74723643D01*
X155293244Y-74584163D01*
X155411861Y-74465546D01*
X155551341Y-74372348D01*
X155706322Y-74308153D01*
X155870850Y-74275427D01*
X156038600Y-74275427D01*
X156203128Y-74308153D01*
X156203128Y-74308153D01*
G37*
G36*
X135803128Y-74188153D02*
X135958109Y-74252348D01*
X136097589Y-74345546D01*
X136216206Y-74464163D01*
X136309404Y-74603643D01*
X136373599Y-74758624D01*
X136406325Y-74923152D01*
X136406325Y-75090902D01*
X136373599Y-75255430D01*
X136309404Y-75410411D01*
X136216206Y-75549891D01*
X136097589Y-75668508D01*
X135958109Y-75761706D01*
X135803128Y-75825901D01*
X135638600Y-75858627D01*
X135470850Y-75858627D01*
X135306322Y-75825901D01*
X135151341Y-75761706D01*
X135011861Y-75668508D01*
X134893244Y-75549891D01*
X134800046Y-75410411D01*
X134735851Y-75255430D01*
X134703125Y-75090902D01*
X134703125Y-74923152D01*
X134735851Y-74758624D01*
X134800046Y-74603643D01*
X134893244Y-74464163D01*
X135011861Y-74345546D01*
X135151341Y-74252348D01*
X135306322Y-74188153D01*
X135470850Y-74155427D01*
X135638600Y-74155427D01*
X135803128Y-74188153D01*
X135803128Y-74188153D01*
G37*
G36*
X179125256Y-71141298D02*
X179231579Y-71162447D01*
X179532042Y-71286903D01*
X179798852Y-71465180D01*
X179802454Y-71467587D01*
X180032413Y-71697546D01*
X180032415Y-71697549D01*
X180183833Y-71924161D01*
X180213098Y-71967960D01*
X180337553Y-72268422D01*
X180401000Y-72587389D01*
X180401000Y-72912611D01*
X180381649Y-73009893D01*
X180337553Y-73231579D01*
X180291937Y-73341706D01*
X180213098Y-73532040D01*
X180032413Y-73802454D01*
X179802454Y-74032413D01*
X179802451Y-74032415D01*
X179532042Y-74213097D01*
X179231579Y-74337553D01*
X179191395Y-74345546D01*
X178912611Y-74401000D01*
X178587389Y-74401000D01*
X178308605Y-74345546D01*
X178268421Y-74337553D01*
X177967958Y-74213097D01*
X177697549Y-74032415D01*
X177697546Y-74032413D01*
X177467587Y-73802454D01*
X177286902Y-73532040D01*
X177208063Y-73341706D01*
X177162447Y-73231579D01*
X177118351Y-73009893D01*
X177099000Y-72912611D01*
X177099000Y-72587389D01*
X177162447Y-72268422D01*
X177286902Y-71967960D01*
X177316168Y-71924161D01*
X177467585Y-71697549D01*
X177467587Y-71697546D01*
X177697546Y-71467587D01*
X177701148Y-71465180D01*
X177967958Y-71286903D01*
X178268421Y-71162447D01*
X178374744Y-71141298D01*
X178587389Y-71099000D01*
X178912611Y-71099000D01*
X179125256Y-71141298D01*
X179125256Y-71141298D01*
G37*
G36*
X156203128Y-71768153D02*
X156358109Y-71832348D01*
X156497589Y-71925546D01*
X156616206Y-72044163D01*
X156709404Y-72183643D01*
X156773599Y-72338624D01*
X156806325Y-72503152D01*
X156806325Y-72670902D01*
X156773599Y-72835430D01*
X156709404Y-72990411D01*
X156616206Y-73129891D01*
X156497589Y-73248508D01*
X156358109Y-73341706D01*
X156203128Y-73405901D01*
X156038600Y-73438627D01*
X155870850Y-73438627D01*
X155706322Y-73405901D01*
X155551341Y-73341706D01*
X155411861Y-73248508D01*
X155293244Y-73129891D01*
X155200046Y-72990411D01*
X155135851Y-72835430D01*
X155103125Y-72670902D01*
X155103125Y-72503152D01*
X155135851Y-72338624D01*
X155200046Y-72183643D01*
X155293244Y-72044163D01*
X155411861Y-71925546D01*
X155551341Y-71832348D01*
X155706322Y-71768153D01*
X155870850Y-71735427D01*
X156038600Y-71735427D01*
X156203128Y-71768153D01*
X156203128Y-71768153D01*
G37*
G36*
X135803128Y-71648153D02*
X135958109Y-71712348D01*
X136097589Y-71805546D01*
X136216206Y-71924163D01*
X136309404Y-72063643D01*
X136373599Y-72218624D01*
X136406325Y-72383152D01*
X136406325Y-72550902D01*
X136373599Y-72715430D01*
X136309404Y-72870411D01*
X136216206Y-73009891D01*
X136097589Y-73128508D01*
X135958109Y-73221706D01*
X135803128Y-73285901D01*
X135638600Y-73318627D01*
X135470850Y-73318627D01*
X135306322Y-73285901D01*
X135151341Y-73221706D01*
X135011861Y-73128508D01*
X134893244Y-73009891D01*
X134800046Y-72870411D01*
X134735851Y-72715430D01*
X134703125Y-72550902D01*
X134703125Y-72383152D01*
X134735851Y-72218624D01*
X134800046Y-72063643D01*
X134893244Y-71924163D01*
X135011861Y-71805546D01*
X135151341Y-71712348D01*
X135306322Y-71648153D01*
X135470850Y-71615427D01*
X135638600Y-71615427D01*
X135803128Y-71648153D01*
X135803128Y-71648153D01*
G37*
M02*
